<svg width="321" height="210" viewBox="0 0 321 210" fill="none" xmlns="http://www.w3.org/2000/svg">
<circle cx="167.569" cy="100.569" r="95.5694" fill="#EDF0FE"/>
<text fill="#4967EE" xml:space="preserve" style="white-space: pre" font-family="Roboto" font-size="12" font-weight="500" letter-spacing="0em"><tspan x="151" y="190.286">Showcase your videos </tspan></text>
<text fill="#4967EE" xml:space="preserve" style="white-space: pre" font-family="Roboto" font-size="12" font-weight="500" letter-spacing="0em"><tspan x="54" y="23.2861">Customize your page</tspan></text>
<path d="M259.666 26.1567L259.763 7.9183" stroke="#C8D1E0" stroke-width="3.04564" stroke-linecap="round" stroke-linejoin="round"/>
<path d="M274.256 31.9927L287.232 19.1754" stroke="#C8D1E0" stroke-width="3.04564" stroke-linecap="round" stroke-linejoin="round"/>
<path d="M294.683 47.313L276.445 47.2161" stroke="#C8D1E0" stroke-width="3.04564" stroke-linecap="round" stroke-linejoin="round"/>
<path d="M91.5215 71.6732L93.4282 73.7301L93.6163 73.933L93.8674 73.8172L96.4132 72.6428L95.0458 75.0884L94.9109 75.3296L95.099 75.5326L97.0057 77.5894L94.2539 77.044L93.9825 76.9902L93.8476 77.2315L92.4802 79.6771L92.1469 76.8944L92.114 76.6199L91.8425 76.5661L89.0907 76.0207L91.6365 74.8463L91.8877 74.7304L91.8548 74.4559L91.5215 71.6732Z" stroke="#4967EE" stroke-width="0.761409" stroke-linecap="round"/>
<path d="M305.56 65.0901L305.789 67.8837L305.811 68.1594L306.08 68.2229L308.809 68.8674L306.222 69.9495L305.966 70.0563L305.989 70.3319L306.217 73.1256L304.39 71.0007L304.209 70.7911L303.954 70.8978L301.367 71.98L302.825 69.5846L302.969 69.3483L302.788 69.1386L300.961 67.0137L303.689 67.6582L303.959 67.7218L304.102 67.4854L305.56 65.0901Z" stroke="#4967EE" stroke-width="0.761409" stroke-linecap="round"/>
<path d="M204.427 6.7949L205.01 9.53691L205.068 9.80743L205.343 9.83622L208.131 10.1281L205.703 11.5309L205.464 11.6693L205.521 11.9398L206.104 14.6818L204.021 12.8067L203.815 12.6218L203.576 12.7602L201.148 14.1629L202.288 11.6013L202.4 11.3486L202.195 11.1636L200.111 9.28854L202.899 9.58043L203.174 9.60923L203.287 9.35651L204.427 6.7949Z" stroke="#4967EE" stroke-width="0.761409" stroke-linecap="round"/>
<path d="M290.685 143.168L292.592 145.225L292.78 145.428L293.031 145.312L295.577 144.137L294.209 146.583L294.075 146.824L294.263 147.027L296.169 149.084L293.418 148.539L293.146 148.485L293.011 148.726L291.644 151.172L291.31 148.389L291.278 148.115L291.006 148.061L288.254 147.515L290.8 146.341L291.051 146.225L291.018 145.951L290.685 143.168Z" stroke="#AFBACC" stroke-width="0.761409" stroke-linecap="round"/>
<path d="M91.1378 156.606L90.7417 159.38L90.7026 159.654L90.9511 159.775L93.4697 161.007L90.7062 161.49L90.4336 161.537L90.3945 161.811L89.9984 164.586L88.6866 162.11L88.5572 161.865L88.2846 161.913L85.5211 162.396L87.4739 160.383L87.6665 160.184L87.5371 159.94L86.2253 157.464L88.744 158.696L88.9924 158.817L89.1851 158.619L91.1378 156.606Z" stroke="#AFBACC" stroke-width="0.761409" stroke-linecap="round"/>
<circle cx="289.212" cy="79.048" r="2.17268" stroke="#707A8A" stroke-width="0.761409"/>
<circle cx="114.852" cy="45.4892" r="2.17268" stroke="#707A8A" stroke-width="0.761409"/>
<circle cx="109.016" cy="168.781" r="2.17268" stroke="#707A8A" stroke-width="0.761409"/>
<circle cx="316.934" cy="156.379" r="2.17268" stroke="#707A8A" stroke-width="0.761409"/>
<circle cx="206.774" cy="27.9804" r="2.17268" stroke="#707A8A" stroke-width="0.761409"/>
<circle cx="109.016" cy="85.6139" r="2.17268" stroke="#AFBACC" stroke-width="0.761409"/>
<circle cx="282.646" cy="176.806" r="2.17268" stroke="#AFBACC" stroke-width="0.761409"/>
<circle cx="224.283" cy="14.1191" r="2.17268" stroke="#AFBACC" stroke-width="0.761409"/>
<circle cx="100.262" cy="107.5" r="2.17268" stroke="#4967EE" stroke-width="0.761409"/>
<circle cx="80.5641" cy="180.454" r="2.17268" stroke="#4967EE" stroke-width="0.761409"/>
<circle cx="301.614" cy="129.386" r="2.17268" stroke="#4967EE" stroke-width="0.761409"/>
<path fill-rule="evenodd" clip-rule="evenodd" d="M78.7758 94.852C78.6168 94.6935 78.359 94.6935 78.2 94.852C78.041 95.0105 78.041 95.2674 78.2 95.4258L80.0321 97.2517L78.13 99.1472C77.971 99.3057 77.971 99.5626 78.13 99.7211C78.289 99.8795 78.5468 99.8795 78.7058 99.7211L80.6079 97.8255L82.4225 99.6339C82.5815 99.7923 82.8393 99.7923 82.9983 99.6339C83.1573 99.4754 83.1573 99.2185 82.9983 99.0601L81.1837 97.2517L82.9283 95.513C83.0873 95.3546 83.0873 95.0976 82.9283 94.9392C82.7693 94.7807 82.5115 94.7807 82.3525 94.9392L80.6079 96.6778L78.7758 94.852Z" fill="#707A8A"/>
<path fill-rule="evenodd" clip-rule="evenodd" d="M113.064 145.92C112.905 145.761 112.647 145.761 112.488 145.92C112.329 146.078 112.329 146.335 112.488 146.493L114.32 148.319L112.418 150.215C112.259 150.373 112.259 150.63 112.418 150.789C112.577 150.947 112.835 150.947 112.994 150.789L114.896 148.893L116.711 150.702C116.87 150.86 117.127 150.86 117.286 150.702C117.445 150.543 117.445 150.286 117.286 150.128L115.472 148.319L117.216 146.581C117.375 146.422 117.375 146.165 117.216 146.007C117.057 145.848 116.8 145.848 116.641 146.007L114.896 147.745L113.064 145.92Z" fill="#AFBACC"/>
<path fill-rule="evenodd" clip-rule="evenodd" d="M179.452 25.5458C179.293 25.3874 179.035 25.3874 178.876 25.5458C178.717 25.7043 178.717 25.9612 178.876 26.1197L180.708 27.9455L178.806 29.8411C178.647 29.9996 178.647 30.2565 178.806 30.4149C178.965 30.5734 179.223 30.5734 179.382 30.4149L181.284 28.5193L183.098 30.3277C183.257 30.4862 183.515 30.4862 183.674 30.3277C183.833 30.1693 183.833 29.9124 183.674 29.7539L181.86 27.9455L183.604 26.2069C183.763 26.0484 183.763 25.7915 183.604 25.633C183.445 25.4746 183.188 25.4746 183.029 25.633L181.284 27.3717L179.452 25.5458Z" fill="#AFBACC"/>
<path fill-rule="evenodd" clip-rule="evenodd" d="M103.58 188.233C103.421 188.074 103.163 188.074 103.004 188.233C102.845 188.391 102.845 188.648 103.004 188.807L104.836 190.633L102.934 192.528C102.775 192.687 102.775 192.943 102.934 193.102C103.093 193.26 103.351 193.26 103.51 193.102L105.412 191.206L107.227 193.015C107.386 193.173 107.643 193.173 107.802 193.015C107.961 192.856 107.961 192.599 107.802 192.441L105.988 190.633L107.732 188.894C107.891 188.735 107.891 188.479 107.732 188.32C107.573 188.162 107.316 188.162 107.157 188.32L105.412 190.059L103.58 188.233Z" fill="#AFBACC"/>
<path fill-rule="evenodd" clip-rule="evenodd" d="M299.826 86.8271C299.667 86.6686 299.409 86.6686 299.25 86.8271C299.091 86.9856 299.091 87.2425 299.25 87.4009L301.082 89.2268L299.18 91.1223C299.021 91.2808 299.021 91.5377 299.18 91.6962C299.339 91.8546 299.597 91.8546 299.756 91.6962L301.658 89.8006L303.472 91.609C303.631 91.7674 303.889 91.7674 304.048 91.609C304.207 91.4505 304.207 91.1936 304.048 91.0352L302.233 89.2268L303.978 87.4881C304.137 87.3297 304.137 87.0727 303.978 86.9143C303.819 86.7558 303.561 86.7558 303.402 86.9143L301.658 88.6529L299.826 86.8271Z" fill="#AFBACC"/>
<path fill-rule="evenodd" clip-rule="evenodd" d="M299.826 166.347C299.667 166.188 299.409 166.188 299.25 166.347C299.091 166.505 299.091 166.762 299.25 166.92L301.082 168.746L299.18 170.642C299.021 170.8 299.021 171.057 299.18 171.216C299.339 171.374 299.597 171.374 299.756 171.216L301.658 169.32L303.472 171.129C303.631 171.287 303.889 171.287 304.048 171.129C304.207 170.97 304.207 170.713 304.048 170.555L302.233 168.746L303.978 167.008C304.137 166.849 304.137 166.592 303.978 166.434C303.819 166.275 303.561 166.275 303.402 166.434L301.658 168.172L299.826 166.347Z" fill="#4967EE"/>
<path fill-rule="evenodd" clip-rule="evenodd" d="M234.897 19.7094C234.738 19.551 234.48 19.551 234.321 19.7094C234.162 19.8679 234.162 20.1248 234.321 20.2832L236.153 22.1091L234.251 24.0047C234.092 24.1631 234.092 24.42 234.251 24.5785C234.41 24.737 234.668 24.737 234.827 24.5785L236.729 22.6829L238.543 24.4913C238.702 24.6498 238.96 24.6498 239.119 24.4913C239.278 24.3328 239.278 24.0759 239.119 23.9175L237.305 22.1091L239.049 20.3704C239.208 20.212 239.208 19.9551 239.049 19.7966C238.89 19.6382 238.632 19.6382 238.473 19.7966L236.729 21.5353L234.897 19.7094Z" fill="#4967EE"/>
<g filter="url(#filter0_d)">
<rect width="105.783" height="105.783" transform="translate(115 48)" fill="white"/>
<rect x="115" y="48" width="105.783" height="35.0178" fill="#707A8A"/>
<rect x="120.107" y="107.822" width="21.1566" height="16.0498" fill="#B6C2F8"/>
<rect x="120.107" y="127.52" width="21.1566" height="16.0498" fill="#DBE1FC"/>
<rect x="144.182" y="107.822" width="21.1566" height="16.0498" fill="#DBE1FC"/>
<rect x="144.182" y="127.52" width="21.1566" height="16.0498" fill="#B6C2F8"/>
<rect x="168.986" y="107.822" width="21.1566" height="16.0498" fill="#B6C2F8"/>
<rect x="168.986" y="127.52" width="21.1566" height="16.0498" fill="#DBE1FC"/>
<rect x="193.79" y="107.822" width="22.6157" height="16.0498" fill="#DBE1FC"/>
<rect x="193.79" y="127.52" width="22.6157" height="16.0498" fill="#B6C2F8"/>
<rect x="120.107" y="68.427" width="48.1495" height="31.3701" fill="#B6C2F8"/>
<rect x="120.107" y="59.6726" width="37.9359" height="4.37722" rx="2.18861" fill="white"/>
<rect x="120.107" y="53.1067" width="18.968" height="4.37722" rx="2.18861" fill="#B6C2F8"/>
<circle cx="217.865" cy="50.9181" r="1.45907" fill="#EDF0FE"/>
</g>
<text fill="#4967EE" xml:space="preserve" style="white-space: pre" font-family="Roboto" font-size="12" font-weight="500" letter-spacing="0em"><tspan x="0" y="143.286">Share your content</tspan></text>
<defs>
<filter id="filter0_d" x="104.123" y="38.2105" width="127.537" height="127.537" filterUnits="userSpaceOnUse" color-interpolation-filters="sRGB">
<feFlood flood-opacity="0" result="BackgroundImageFix"/>
<feColorMatrix in="SourceAlpha" type="matrix" values="0 0 0 0 0 0 0 0 0 0 0 0 0 0 0 0 0 0 127 0" result="hardAlpha"/>
<feOffset dy="1.08773"/>
<feGaussianBlur stdDeviation="5.43863"/>
<feColorMatrix type="matrix" values="0 0 0 0 0 0 0 0 0 0 0 0 0 0 0 0 0 0 0.25 0"/>
<feBlend mode="normal" in2="BackgroundImageFix" result="effect1_dropShadow"/>
<feBlend mode="normal" in="SourceGraphic" in2="effect1_dropShadow" result="shape"/>
</filter>
</defs>
</svg>
