<svg width="381" height="227" viewBox="0 0 381 227" fill="none" xmlns="http://www.w3.org/2000/svg">
<circle cx="195.5" cy="113.5" r="111.5" fill="#EDF0FE"/>
<path d="M62.6644 24.6586C62.6644 24.2365 62.5107 23.911 62.2031 23.6823C61.9001 23.4537 61.3506 23.2228 60.5547 22.9897C59.7587 22.7566 59.1256 22.4972 58.6552 22.2113C57.7553 21.6616 57.3053 20.9448 57.3053 20.0608C57.3053 19.2868 57.6286 18.6491 58.2753 18.1478C58.9266 17.6465 59.77 17.3958 60.8057 17.3958C61.4931 17.3958 62.1059 17.5189 62.6441 17.7652C63.1823 18.0115 63.6051 18.3633 63.9126 18.8207C64.2202 19.2736 64.3739 19.7772 64.3739 20.3313H62.6644C62.6644 19.8299 62.5016 19.4385 62.176 19.1571C61.8549 18.8712 61.3936 18.7283 60.7921 18.7283C60.2313 18.7283 59.7949 18.8448 59.4829 19.0779C59.1753 19.311 59.0216 19.6364 59.0216 20.0542C59.0216 20.406 59.1889 20.7007 59.5236 20.9382C59.8582 21.1712 60.41 21.3999 61.1788 21.6242C61.9476 21.8441 62.5649 22.097 63.0308 22.3828C63.4966 22.6643 63.838 22.9897 64.0551 23.3591C64.2722 23.7241 64.3807 24.1529 64.3807 24.6455C64.3807 25.4458 64.0641 26.0835 63.431 26.5585C62.8024 27.029 61.9476 27.2643 60.8667 27.2643C60.1522 27.2643 59.4942 27.1368 58.8927 26.8817C58.2957 26.6222 57.8299 26.266 57.4952 25.813C57.1651 25.3601 57 24.8324 57 24.2299H58.7163C58.7163 24.7752 58.9017 25.1974 59.2726 25.4964C59.6434 25.7955 60.1748 25.945 60.8667 25.945C61.4637 25.945 61.9114 25.8284 62.2099 25.5954C62.5129 25.3579 62.6644 25.0456 62.6644 24.6586Z" fill="#4967EE"/>
<path d="M67.352 20.7733C67.8902 20.1664 68.5708 19.8629 69.3939 19.8629C70.9587 19.8629 71.7524 20.7315 71.775 22.4686V27.1324H70.1265V22.5279C70.1265 22.0354 70.0157 21.688 69.7941 21.4857C69.5771 21.279 69.256 21.1756 68.8309 21.1756C68.1706 21.1756 67.6776 21.4615 67.352 22.0332V27.1324H65.7035V17H67.352V20.7733Z" fill="#4967EE"/>
<path d="M73.1385 23.4976C73.1385 22.7984 73.281 22.1695 73.5659 21.611C73.8508 21.0481 74.2511 20.6171 74.7666 20.3181C75.2822 20.0146 75.8746 19.8629 76.544 19.8629C77.5344 19.8629 78.3371 20.173 78.9522 20.793C79.5718 21.4131 79.9064 22.2355 79.9562 23.2602L79.963 23.6362C79.963 24.3398 79.8228 24.9687 79.5424 25.5228C79.2665 26.0769 78.8685 26.5057 78.3484 26.8091C77.8329 27.1126 77.2359 27.2643 76.5575 27.2643C75.5219 27.2643 74.692 26.9301 74.0679 26.2616C73.4483 25.5888 73.1385 24.6938 73.1385 23.5768V23.4976ZM74.787 23.6362C74.787 24.3706 74.943 24.9467 75.2551 25.3645C75.5671 25.7779 76.0013 25.9846 76.5575 25.9846C77.1138 25.9846 77.5457 25.7735 77.8532 25.3513C78.1653 24.9291 78.3213 24.3112 78.3213 23.4976C78.3213 22.7764 78.1608 22.2047 77.8397 21.7825C77.5231 21.3603 77.0912 21.1493 76.544 21.1493C76.0058 21.1493 75.5784 21.3581 75.2618 21.7759C74.9453 22.1893 74.787 22.8094 74.787 23.6362Z" fill="#4967EE"/>
<path d="M87.805 24.9225L88.9718 19.9949H90.5795L88.5783 27.1324H87.2216L85.6478 22.2311L84.1011 27.1324H82.7443L80.7363 19.9949H82.3441L83.5312 24.8697L85.0372 19.9949H86.2786L87.805 24.9225Z" fill="#4967EE"/>
<path d="M94.6973 25.9846C95.1088 25.9846 95.4503 25.868 95.7216 25.6349C95.993 25.4019 96.1377 25.1138 96.1558 24.7708H97.7093C97.6912 25.215 97.5487 25.6305 97.2819 26.0175C97.0151 26.4001 96.6533 26.7036 96.1965 26.9279C95.7397 27.1522 95.2468 27.2643 94.7176 27.2643C93.691 27.2643 92.877 26.9411 92.2755 26.2946C91.674 25.6481 91.3732 24.7554 91.3732 23.6164V23.4515C91.3732 22.3652 91.6717 21.4967 92.2687 20.8458C92.8657 20.1906 93.6797 19.8629 94.7108 19.8629C95.5837 19.8629 96.2937 20.1114 96.8409 20.6083C97.3927 21.1009 97.6821 21.7495 97.7093 22.5543H96.1558C96.1377 22.1453 95.993 21.8089 95.7216 21.5451C95.4548 21.2812 95.1133 21.1493 94.6973 21.1493C94.1636 21.1493 93.7521 21.3384 93.4626 21.7166C93.1732 22.0904 93.0262 22.6599 93.0217 23.4251V23.6823C93.0217 24.4563 93.1642 25.0346 93.4491 25.4173C93.7385 25.7955 94.1546 25.9846 94.6973 25.9846Z" fill="#4967EE"/>
<path d="M103.34 27.1324C103.267 26.996 103.204 26.774 103.15 26.4661C102.625 26.9982 101.983 27.2643 101.223 27.2643C100.486 27.2643 99.8846 27.0598 99.4188 26.6508C98.9529 26.2418 98.72 25.7361 98.72 25.1336C98.72 24.3728 99.0095 23.7901 99.5884 23.3855C100.172 22.9765 101.004 22.772 102.085 22.772H103.096V22.3037C103.096 21.9343 102.989 21.6396 102.777 21.4197C102.564 21.1954 102.241 21.0833 101.807 21.0833C101.431 21.0833 101.124 21.1756 100.884 21.3603C100.644 21.5407 100.525 21.7715 100.525 22.053H98.8761C98.8761 21.6616 99.0095 21.2966 99.2763 20.958C99.5431 20.6149 99.9049 20.3467 100.362 20.1532C100.823 19.9597 101.336 19.8629 101.902 19.8629C102.761 19.8629 103.446 20.074 103.957 20.4962C104.468 20.914 104.73 21.5033 104.744 22.2641V25.4832C104.744 26.1253 104.837 26.6376 105.022 27.0202V27.1324H103.34ZM101.529 25.978C101.854 25.978 102.159 25.901 102.444 25.7471C102.734 25.5932 102.951 25.3865 103.096 25.127V23.7813H102.207C101.596 23.7813 101.137 23.8846 100.83 24.0913C100.522 24.298 100.368 24.5905 100.368 24.9687C100.368 25.2765 100.473 25.5228 100.681 25.7075C100.893 25.8878 101.176 25.978 101.529 25.978Z" fill="#4967EE"/>
<path d="M110.585 25.193C110.585 24.9071 110.463 24.6894 110.218 24.5399C109.979 24.3904 109.579 24.2585 109.018 24.1441C108.457 24.0298 107.989 23.8846 107.614 23.7087C106.79 23.3217 106.379 22.761 106.379 22.0266C106.379 21.4109 106.646 20.8964 107.179 20.483C107.713 20.0696 108.391 19.8629 109.214 19.8629C110.092 19.8629 110.8 20.074 111.338 20.4962C111.881 20.9184 112.152 21.4659 112.152 22.1387H110.503C110.503 21.8309 110.386 21.5758 110.151 21.3735C109.915 21.1668 109.603 21.0635 109.214 21.0635C108.853 21.0635 108.556 21.1449 108.326 21.3076C108.1 21.4703 107.987 21.688 107.987 21.9606C107.987 22.2069 108.093 22.3982 108.305 22.5345C108.518 22.6709 108.948 22.8094 109.594 22.9501C110.241 23.0865 110.748 23.2514 111.114 23.4449C111.485 23.634 111.758 23.8627 111.935 24.1309C112.116 24.3992 112.206 24.7246 112.206 25.1072C112.206 25.7493 111.933 26.2704 111.385 26.6706C110.838 27.0664 110.121 27.2643 109.235 27.2643C108.633 27.2643 108.097 27.1588 107.627 26.9477C107.157 26.7366 106.79 26.4463 106.528 26.0769C106.266 25.7075 106.135 25.3095 106.135 24.8829H107.736C107.758 25.2611 107.905 25.5536 108.177 25.7603C108.448 25.9626 108.807 26.0637 109.255 26.0637C109.689 26.0637 110.019 25.9846 110.246 25.8262C110.472 25.6635 110.585 25.4524 110.585 25.193Z" fill="#4967EE"/>
<path d="M116.88 27.2643C115.835 27.2643 114.987 26.9455 114.336 26.3078C113.69 25.6657 113.366 24.8126 113.366 23.7483V23.5504C113.366 22.838 113.506 22.2025 113.787 21.644C114.072 21.0811 114.47 20.6435 114.981 20.3313C115.492 20.019 116.062 19.8629 116.69 19.8629C117.69 19.8629 118.461 20.173 119.003 20.793C119.551 21.4131 119.824 22.2905 119.824 23.4251V24.0715H115.028C115.078 24.6608 115.279 25.127 115.632 25.47C115.989 25.813 116.437 25.9846 116.975 25.9846C117.73 25.9846 118.345 25.6877 118.82 25.094L119.709 25.9186C119.415 26.3452 119.022 26.6772 118.529 26.9147C118.04 27.1478 117.491 27.2643 116.88 27.2643ZM116.683 21.1493C116.231 21.1493 115.865 21.3032 115.584 21.611C115.309 21.9189 115.132 22.3476 115.055 22.8974H118.196V22.7786C118.16 22.2421 118.013 21.8375 117.755 21.5648C117.497 21.2878 117.14 21.1493 116.683 21.1493Z" fill="#4967EE"/>
<path d="M127.137 24.8368L128.63 19.9949H130.387L127.47 28.2142C127.022 29.4148 126.262 30.0151 125.19 30.0151C124.951 30.0151 124.686 29.9755 124.397 29.8963V28.6562L124.709 28.676C125.125 28.676 125.437 28.6012 125.645 28.4517C125.857 28.3066 126.025 28.0603 126.147 27.7129L126.384 27.0994L123.806 19.9949H125.584L127.137 24.8368Z" fill="#4967EE"/>
<path d="M130.922 23.4976C130.922 22.7984 131.065 22.1695 131.35 21.611C131.635 21.0481 132.035 20.6171 132.551 20.3181C133.066 20.0146 133.659 19.8629 134.328 19.8629C135.318 19.8629 136.121 20.173 136.736 20.793C137.356 21.4131 137.69 22.2355 137.74 23.2602L137.747 23.6362C137.747 24.3398 137.607 24.9687 137.326 25.5228C137.05 26.0769 136.652 26.5057 136.132 26.8091C135.617 27.1126 135.02 27.2643 134.341 27.2643C133.306 27.2643 132.476 26.9301 131.852 26.2616C131.232 25.5888 130.922 24.6938 130.922 23.5768V23.4976ZM132.571 23.6362C132.571 24.3706 132.727 24.9467 133.039 25.3645C133.351 25.7779 133.785 25.9846 134.341 25.9846C134.898 25.9846 135.33 25.7735 135.637 25.3513C135.949 24.9291 136.105 24.3112 136.105 23.4976C136.105 22.7764 135.945 22.2047 135.624 21.7825C135.307 21.3603 134.875 21.1493 134.328 21.1493C133.79 21.1493 133.362 21.3581 133.046 21.7759C132.729 22.1893 132.571 22.8094 132.571 23.6362Z" fill="#4967EE"/>
<path d="M143.588 26.4331C143.104 26.9872 142.416 27.2643 141.525 27.2643C140.73 27.2643 140.126 27.0378 139.714 26.5848C139.307 26.1319 139.104 25.4766 139.104 24.6191V19.9949H140.752V24.5993C140.752 25.5052 141.139 25.9582 141.912 25.9582C142.713 25.9582 143.253 25.6789 143.533 25.1204V19.9949H145.182V27.1324H143.628L143.588 26.4331Z" fill="#4967EE"/>
<path d="M150.704 21.4593C150.487 21.4241 150.263 21.4065 150.032 21.4065C149.277 21.4065 148.768 21.688 148.506 22.2509V27.1324H146.857V19.9949H148.431L148.472 20.793C148.87 20.173 149.422 19.8629 150.127 19.8629C150.362 19.8629 150.557 19.8937 150.711 19.9553L150.704 21.4593Z" fill="#4967EE"/>
<path d="M157.793 25.1006L159.346 19.9949H161.049L158.505 27.1324H157.074L154.51 19.9949H156.219L157.793 25.1006Z" fill="#4967EE"/>
<path d="M163.837 27.1324H162.189V19.9949H163.837V27.1324ZM162.087 18.1412C162.087 17.8949 162.166 17.6904 162.324 17.5277C162.487 17.365 162.718 17.2837 163.016 17.2837C163.315 17.2837 163.546 17.365 163.708 17.5277C163.871 17.6904 163.953 17.8949 163.953 18.1412C163.953 18.3831 163.871 18.5854 163.708 18.7481C163.546 18.9064 163.315 18.9856 163.016 18.9856C162.718 18.9856 162.487 18.9064 162.324 18.7481C162.166 18.5854 162.087 18.3831 162.087 18.1412Z" fill="#4967EE"/>
<path d="M165.33 23.5108C165.33 22.4114 165.592 21.5297 166.117 20.8656C166.641 20.1971 167.344 19.8629 168.226 19.8629C169.004 19.8629 169.633 20.1268 170.112 20.6545V17H171.761V27.1324H170.268L170.187 26.3935C169.694 26.974 169.036 27.2643 168.213 27.2643C167.353 27.2643 166.657 26.9279 166.123 26.255C165.594 25.5822 165.33 24.6674 165.33 23.5108ZM166.978 23.6494C166.978 24.375 167.121 24.9423 167.405 25.3513C167.695 25.7559 168.104 25.9582 168.633 25.9582C169.307 25.9582 169.8 25.6657 170.112 25.0808V22.0332C169.809 21.4615 169.321 21.1756 168.647 21.1756C168.113 21.1756 167.702 21.3823 167.412 21.7957C167.123 22.2047 166.978 22.8226 166.978 23.6494Z" fill="#4967EE"/>
<path d="M176.713 27.2643C175.668 27.2643 174.82 26.9455 174.169 26.3078C173.522 25.6657 173.199 24.8126 173.199 23.7483V23.5504C173.199 22.838 173.339 22.2025 173.619 21.644C173.904 21.0811 174.302 20.6435 174.813 20.3313C175.324 20.019 175.894 19.8629 176.523 19.8629C177.522 19.8629 178.293 20.173 178.836 20.793C179.383 21.4131 179.657 22.2905 179.657 23.4251V24.0715H174.861C174.911 24.6608 175.112 25.127 175.465 25.47C175.822 25.813 176.27 25.9846 176.808 25.9846C177.563 25.9846 178.178 25.6877 178.653 25.094L179.542 25.9186C179.248 26.3452 178.854 26.6772 178.361 26.9147C177.873 27.1478 177.323 27.2643 176.713 27.2643ZM176.516 21.1493C176.064 21.1493 175.697 21.3032 175.417 21.611C175.141 21.9189 174.965 22.3476 174.888 22.8974H178.029V22.7786C177.993 22.2421 177.846 21.8375 177.588 21.5648C177.33 21.2878 176.973 21.1493 176.516 21.1493Z" fill="#4967EE"/>
<path d="M180.634 23.4976C180.634 22.7984 180.776 22.1695 181.061 21.611C181.346 21.0481 181.746 20.6171 182.262 20.3181C182.777 20.0146 183.37 19.8629 184.039 19.8629C185.03 19.8629 185.832 20.173 186.447 20.793C187.067 21.4131 187.402 22.2355 187.451 23.2602L187.458 23.6362C187.458 24.3398 187.318 24.9687 187.038 25.5228C186.762 26.0769 186.364 26.5057 185.844 26.8091C185.328 27.1126 184.731 27.2643 184.053 27.2643C183.017 27.2643 182.187 26.9301 181.563 26.2616C180.944 25.5888 180.634 24.6938 180.634 23.5768V23.4976ZM182.282 23.6362C182.282 24.3706 182.438 24.9467 182.75 25.3645C183.062 25.7779 183.497 25.9846 184.053 25.9846C184.609 25.9846 185.041 25.7735 185.348 25.3513C185.661 24.9291 185.817 24.3112 185.817 23.4976C185.817 22.7764 185.656 22.2047 185.335 21.7825C185.018 21.3603 184.586 21.1493 184.039 21.1493C183.501 21.1493 183.074 21.3581 182.757 21.7759C182.441 22.1893 182.282 22.8094 182.282 23.6362Z" fill="#4967EE"/>
<path d="M192.967 25.193C192.967 24.9071 192.845 24.6894 192.6 24.5399C192.361 24.3904 191.96 24.2585 191.4 24.1441C190.839 24.0298 190.371 23.8846 189.995 23.7087C189.172 23.3217 188.761 22.761 188.761 22.0266C188.761 21.4109 189.028 20.8964 189.561 20.483C190.095 20.0696 190.773 19.8629 191.596 19.8629C192.474 19.8629 193.181 20.074 193.72 20.4962C194.262 20.9184 194.534 21.4659 194.534 22.1387H192.885C192.885 21.8309 192.768 21.5758 192.532 21.3735C192.297 21.1668 191.985 21.0635 191.596 21.0635C191.234 21.0635 190.938 21.1449 190.708 21.3076C190.482 21.4703 190.368 21.688 190.368 21.9606C190.368 22.2069 190.475 22.3982 190.687 22.5345C190.9 22.6709 191.329 22.8094 191.976 22.9501C192.623 23.0865 193.129 23.2514 193.496 23.4449C193.867 23.634 194.14 23.8627 194.317 24.1309C194.497 24.3992 194.588 24.7246 194.588 25.1072C194.588 25.7493 194.314 26.2704 193.767 26.6706C193.22 27.0664 192.503 27.2643 191.617 27.2643C191.015 27.2643 190.479 27.1588 190.009 26.9477C189.539 26.7366 189.172 26.4463 188.91 26.0769C188.648 25.7075 188.516 25.3095 188.516 24.8829H190.117C190.14 25.2611 190.287 25.5536 190.558 25.7603C190.83 25.9626 191.189 26.0637 191.637 26.0637C192.071 26.0637 192.401 25.9846 192.627 25.8262C192.854 25.6635 192.967 25.4524 192.967 25.193Z" fill="#4967EE"/>
<path d="M203.861 210.872C203.762 211.919 203.372 212.737 202.693 213.326C202.013 213.911 201.11 214.203 199.982 214.203C199.193 214.203 198.498 214.019 197.896 213.65C197.298 213.277 196.836 212.749 196.51 212.065C196.183 211.382 196.014 210.588 196 209.685V208.768C196 207.842 196.165 207.026 196.496 206.32C196.827 205.614 197.3 205.07 197.916 204.688C198.537 204.306 199.252 204.115 200.063 204.115C201.155 204.115 202.034 204.409 202.699 204.998C203.365 205.587 203.753 206.419 203.861 207.493H202.149C202.068 206.787 201.859 206.279 201.524 205.969C201.193 205.654 200.706 205.497 200.063 205.497C199.316 205.497 198.74 205.769 198.337 206.313C197.939 206.853 197.735 207.646 197.726 208.694V209.563C197.726 210.624 197.916 211.434 198.297 211.991C198.682 212.549 199.243 212.827 199.982 212.827C200.657 212.827 201.164 212.677 201.504 212.376C201.843 212.074 202.059 211.573 202.149 210.872H203.861Z" fill="#4967EE"/>
<path d="M209.698 213.353C209.213 213.92 208.525 214.203 207.632 214.203C206.835 214.203 206.23 213.971 205.818 213.508C205.411 213.045 205.207 212.376 205.207 211.499V206.772H206.858V211.479C206.858 212.405 207.245 212.868 208.02 212.868C208.821 212.868 209.363 212.582 209.644 212.011V206.772H211.295V214.068H209.739L209.698 213.353Z" fill="#4967EE"/>
<path d="M217.097 212.086C217.097 211.793 216.975 211.571 216.73 211.418C216.49 211.265 216.089 211.13 215.528 211.013C214.966 210.896 214.497 210.748 214.121 210.568C213.297 210.173 212.885 209.599 212.885 208.849C212.885 208.219 213.152 207.693 213.686 207.271C214.221 206.848 214.9 206.637 215.725 206.637C216.604 206.637 217.312 206.853 217.851 207.284C218.395 207.716 218.667 208.275 218.667 208.963H217.016C217.016 208.649 216.898 208.388 216.662 208.181C216.427 207.97 216.114 207.864 215.725 207.864C215.362 207.864 215.066 207.947 214.835 208.114C214.608 208.28 214.495 208.502 214.495 208.781C214.495 209.033 214.601 209.229 214.814 209.368C215.027 209.507 215.457 209.649 216.105 209.793C216.753 209.932 217.26 210.101 217.627 210.298C217.999 210.492 218.273 210.726 218.449 211C218.631 211.274 218.721 211.607 218.721 211.998C218.721 212.654 218.447 213.187 217.899 213.596C217.351 214.001 216.633 214.203 215.745 214.203C215.143 214.203 214.606 214.095 214.135 213.879C213.664 213.664 213.297 213.367 213.034 212.989C212.771 212.612 212.64 212.205 212.64 211.769H214.244C214.266 212.155 214.413 212.454 214.685 212.665C214.957 212.872 215.317 212.976 215.766 212.976C216.2 212.976 216.531 212.895 216.758 212.733C216.984 212.567 217.097 212.351 217.097 212.086Z" fill="#4967EE"/>
<path d="M222.234 204.998V206.772H223.532V207.985H222.234V212.059C222.234 212.337 222.288 212.54 222.397 212.665C222.51 212.787 222.71 212.848 222.995 212.848C223.185 212.848 223.378 212.825 223.573 212.78V214.048C223.197 214.151 222.834 214.203 222.485 214.203C221.217 214.203 220.583 213.508 220.583 212.119V207.985H219.373V206.772H220.583V204.998H222.234Z" fill="#4967EE"/>
<path d="M224.286 210.352C224.286 209.638 224.429 208.995 224.714 208.424C224.999 207.848 225.4 207.408 225.917 207.102C226.433 206.792 227.026 206.637 227.697 206.637C228.689 206.637 229.493 206.954 230.109 207.588C230.73 208.221 231.065 209.062 231.115 210.11L231.121 210.494C231.121 211.213 230.981 211.856 230.7 212.423C230.424 212.989 230.025 213.428 229.504 213.738C228.988 214.048 228.39 214.203 227.71 214.203C226.673 214.203 225.842 213.861 225.217 213.178C224.596 212.49 224.286 211.575 224.286 210.433V210.352ZM225.937 210.494C225.937 211.245 226.093 211.834 226.406 212.261C226.718 212.683 227.153 212.895 227.71 212.895C228.268 212.895 228.7 212.679 229.008 212.247C229.321 211.816 229.477 211.184 229.477 210.352C229.477 209.615 229.316 209.031 228.995 208.599C228.678 208.168 228.245 207.952 227.697 207.952C227.158 207.952 226.73 208.165 226.413 208.592C226.096 209.015 225.937 209.649 225.937 210.494Z" fill="#4967EE"/>
<path d="M234.07 206.772L234.118 207.534C234.634 206.936 235.341 206.637 236.238 206.637C237.221 206.637 237.893 207.01 238.256 207.756C238.79 207.01 239.542 206.637 240.511 206.637C241.322 206.637 241.925 206.859 242.319 207.304C242.717 207.749 242.921 208.406 242.93 209.273V214.068H241.279V209.321C241.279 208.858 241.177 208.518 240.974 208.302C240.77 208.087 240.432 207.979 239.961 207.979C239.585 207.979 239.277 208.08 239.037 208.282C238.802 208.48 238.636 208.741 238.541 209.064L238.548 214.068H236.897V209.267C236.874 208.408 236.432 207.979 235.572 207.979C234.91 207.979 234.442 208.246 234.165 208.781V214.068H232.514V206.772H234.07Z" fill="#4967EE"/>
<path d="M246.382 214.068H244.731V206.772H246.382V214.068ZM244.629 204.877C244.629 204.625 244.708 204.416 244.867 204.25C245.03 204.083 245.261 204 245.56 204C245.859 204 246.09 204.083 246.253 204.25C246.416 204.416 246.498 204.625 246.498 204.877C246.498 205.124 246.416 205.331 246.253 205.497C246.09 205.659 245.859 205.74 245.56 205.74C245.261 205.74 245.03 205.659 244.867 205.497C244.708 205.331 244.629 205.124 244.629 204.877Z" fill="#4967EE"/>
<path d="M249.949 212.76H253.863V214.068H247.897V212.996L251.627 208.093H247.965V206.772H253.72V207.81L249.949 212.76Z" fill="#4967EE"/>
<path d="M258.313 214.203C257.267 214.203 256.418 213.877 255.765 213.225C255.118 212.569 254.794 211.697 254.794 210.609V210.406C254.794 209.678 254.934 209.028 255.215 208.457C255.5 207.882 255.899 207.435 256.411 207.116C256.923 206.796 257.493 206.637 258.123 206.637C259.124 206.637 259.897 206.954 260.44 207.588C260.988 208.221 261.262 209.118 261.262 210.278V210.939H256.458C256.508 211.542 256.71 212.018 257.063 212.369C257.421 212.719 257.869 212.895 258.408 212.895C259.165 212.895 259.781 212.591 260.257 211.984L261.147 212.827C260.852 213.263 260.458 213.603 259.964 213.846C259.475 214.084 258.925 214.203 258.313 214.203ZM258.116 207.952C257.663 207.952 257.296 208.109 257.016 208.424C256.739 208.738 256.563 209.177 256.486 209.739H259.632V209.617C259.595 209.069 259.448 208.655 259.19 208.377C258.932 208.093 258.574 207.952 258.116 207.952Z" fill="#4967EE"/>
<path d="M268.587 211.721L270.082 206.772H271.841L268.92 215.174C268.471 216.401 267.71 217.015 266.637 217.015C266.397 217.015 266.132 216.975 265.842 216.894V215.626L266.154 215.646C266.571 215.646 266.884 215.57 267.092 215.417C267.305 215.268 267.473 215.017 267.595 214.662L267.833 214.034L265.251 206.772H267.031L268.587 211.721Z" fill="#4967EE"/>
<path d="M272.378 210.352C272.378 209.638 272.521 208.995 272.806 208.424C273.092 207.848 273.493 207.408 274.009 207.102C274.525 206.792 275.119 206.637 275.789 206.637C276.781 206.637 277.585 206.954 278.201 207.588C278.822 208.221 279.157 209.062 279.207 210.11L279.214 210.494C279.214 211.213 279.073 211.856 278.792 212.423C278.516 212.989 278.117 213.428 277.596 213.738C277.08 214.048 276.482 214.203 275.803 214.203C274.765 214.203 273.934 213.861 273.309 213.178C272.688 212.49 272.378 211.575 272.378 210.433V210.352ZM274.029 210.494C274.029 211.245 274.186 211.834 274.498 212.261C274.811 212.683 275.246 212.895 275.803 212.895C276.36 212.895 276.792 212.679 277.1 212.247C277.413 211.816 277.569 211.184 277.569 210.352C277.569 209.615 277.408 209.031 277.087 208.599C276.77 208.168 276.337 207.952 275.789 207.952C275.25 207.952 274.822 208.165 274.505 208.592C274.188 209.015 274.029 209.649 274.029 210.494Z" fill="#4967EE"/>
<path d="M285.064 213.353C284.579 213.92 283.891 214.203 282.998 214.203C282.201 214.203 281.596 213.971 281.184 213.508C280.776 213.045 280.573 212.376 280.573 211.499V206.772H282.224V211.479C282.224 212.405 282.611 212.868 283.385 212.868C284.187 212.868 284.729 212.582 285.009 212.011V206.772H286.66V214.068H285.105L285.064 213.353Z" fill="#4967EE"/>
<path d="M292.191 208.269C291.974 208.233 291.75 208.215 291.519 208.215C290.762 208.215 290.253 208.502 289.99 209.078V214.068H288.339V206.772H289.915L289.956 207.588C290.354 206.954 290.907 206.637 291.614 206.637C291.849 206.637 292.044 206.668 292.198 206.731L292.191 208.269Z" fill="#4967EE"/>
<path d="M303.137 210.494C303.137 211.622 302.879 212.524 302.363 213.198C301.846 213.868 301.153 214.203 300.284 214.203C299.477 214.203 298.832 213.94 298.347 213.414V216.873H296.696V206.772H298.218L298.286 207.513C298.771 206.929 299.43 206.637 300.263 206.637C301.16 206.637 301.862 206.969 302.37 207.635C302.881 208.296 303.137 209.215 303.137 210.393V210.494ZM301.493 210.352C301.493 209.624 301.346 209.046 301.051 208.619C300.762 208.192 300.345 207.979 299.801 207.979C299.126 207.979 298.642 208.255 298.347 208.808V212.045C298.646 212.612 299.135 212.895 299.815 212.895C300.34 212.895 300.75 212.686 301.045 212.268C301.344 211.845 301.493 211.207 301.493 210.352Z" fill="#4967EE"/>
<path d="M308.933 214.068C308.861 213.929 308.797 213.702 308.743 213.387C308.218 213.931 307.574 214.203 306.813 214.203C306.075 214.203 305.472 213.994 305.006 213.576C304.539 213.158 304.306 212.641 304.306 212.025C304.306 211.247 304.596 210.651 305.176 210.238C305.76 209.82 306.594 209.611 307.676 209.611H308.689V209.132C308.689 208.754 308.582 208.453 308.369 208.228C308.156 207.999 307.832 207.884 307.398 207.884C307.022 207.884 306.714 207.979 306.474 208.168C306.233 208.352 306.113 208.588 306.113 208.876H304.462C304.462 208.475 304.596 208.102 304.863 207.756C305.131 207.405 305.493 207.131 305.95 206.933C306.412 206.736 306.927 206.637 307.493 206.637C308.353 206.637 309.04 206.853 309.552 207.284C310.063 207.711 310.326 208.314 310.34 209.091V212.382C310.34 213.039 310.433 213.562 310.618 213.953V214.068H308.933ZM307.119 212.888C307.445 212.888 307.751 212.809 308.036 212.652C308.326 212.495 308.544 212.283 308.689 212.018V210.642H307.799C307.187 210.642 306.727 210.748 306.419 210.959C306.111 211.171 305.957 211.47 305.957 211.856C305.957 212.171 306.061 212.423 306.27 212.612C306.483 212.796 306.766 212.888 307.119 212.888Z" fill="#4967EE"/>
<path d="M311.78 210.366C311.78 209.233 312.047 208.329 312.582 207.655C313.121 206.976 313.834 206.637 314.722 206.637C315.56 206.637 316.219 206.927 316.699 207.507L316.774 206.772H318.262V213.846C318.262 214.803 317.961 215.558 317.359 216.111C316.761 216.664 315.952 216.941 314.933 216.941C314.394 216.941 313.866 216.829 313.35 216.604C312.838 216.383 312.448 216.093 312.181 215.734L312.962 214.749C313.47 215.347 314.095 215.646 314.838 215.646C315.386 215.646 315.818 215.498 316.136 215.201C316.453 214.909 316.611 214.477 316.611 213.906V213.414C316.136 213.94 315.501 214.203 314.709 214.203C313.848 214.203 313.144 213.864 312.596 213.185C312.052 212.506 311.78 211.566 311.78 210.366ZM313.424 210.508C313.424 211.24 313.574 211.818 313.873 212.241C314.176 212.659 314.595 212.868 315.13 212.868C315.796 212.868 316.29 212.585 316.611 212.018V208.808C316.299 208.255 315.809 207.979 315.143 207.979C314.6 207.979 314.176 208.192 313.873 208.619C313.574 209.046 313.424 209.676 313.424 210.508Z" fill="#4967EE"/>
<path d="M323.202 214.203C322.156 214.203 321.306 213.877 320.654 213.225C320.006 212.569 319.682 211.697 319.682 210.609V210.406C319.682 209.678 319.823 209.028 320.104 208.457C320.389 207.882 320.788 207.435 321.299 207.116C321.811 206.796 322.382 206.637 323.012 206.637C324.013 206.637 324.785 206.954 325.329 207.588C325.877 208.221 326.151 209.118 326.151 210.278V210.939H321.347C321.397 211.542 321.598 212.018 321.952 212.369C322.31 212.719 322.758 212.895 323.297 212.895C324.053 212.895 324.67 212.591 325.145 211.984L326.035 212.827C325.741 213.263 325.347 213.603 324.853 213.846C324.364 214.084 323.813 214.203 323.202 214.203ZM323.005 207.952C322.552 207.952 322.185 208.109 321.904 208.424C321.628 208.738 321.451 209.177 321.374 209.739H324.52V209.617C324.484 209.069 324.337 208.655 324.078 208.377C323.82 208.093 323.462 207.952 323.005 207.952Z" fill="#4967EE"/>
<path d="M311.277 28.0552L311.389 6.67327" stroke="#C8D1E0" stroke-width="3.52973" stroke-linecap="round" stroke-linejoin="round"/>
<path d="M328.01 35.4924L343.209 20.4529" stroke="#C8D1E0" stroke-width="3.52973" stroke-linecap="round" stroke-linejoin="round"/>
<path d="M353.111 53.156L331.729 53.0436" stroke="#C8D1E0" stroke-width="3.52973" stroke-linecap="round" stroke-linejoin="round"/>
<path d="M116.979 81.4713L119.269 83.944L119.487 84.1792L119.778 84.0447L122.837 82.6311L121.193 85.5729L121.036 85.8528L121.254 86.088L123.544 88.5607L120.238 87.9061L119.924 87.8438L119.767 88.1237L118.123 91.0655L117.724 87.7191L117.686 87.4008L117.372 87.3385L114.066 86.684L117.125 85.2704L117.416 85.1359L117.378 84.8176L116.979 81.4713Z" stroke="#4967EE" stroke-width="0.882432" stroke-linecap="round"/>
<path d="M364.693 73.7067L364.968 77.0655L364.994 77.385L365.306 77.4588L368.586 78.2347L365.477 79.5346L365.181 79.6583L365.207 79.9778L365.483 83.3366L363.285 80.7812L363.076 80.5381L362.781 80.6618L359.671 81.9618L361.423 79.0825L361.589 78.8086L361.38 78.5656L359.183 76.0102L362.463 76.7861L362.775 76.8599L362.941 76.586L364.693 73.7067Z" stroke="#4967EE" stroke-width="0.882432" stroke-linecap="round"/>
<path d="M247.876 5.98315L248.577 9.27941L248.644 9.59295L248.963 9.62638L252.315 9.97782L249.396 11.6636L249.119 11.8239L249.186 12.1375L249.887 15.4337L247.382 13.1793L247.144 12.9649L246.866 13.1252L243.948 14.811L245.318 11.7319L245.448 11.4391L245.21 11.2246L242.705 8.97023L246.057 9.32167L246.376 9.35509L246.506 9.06221L247.876 5.98315Z" stroke="#4967EE" stroke-width="0.882432" stroke-linecap="round"/>
<path d="M348.461 164.21L350.751 166.682L350.969 166.917L351.26 166.783L354.319 165.369L352.675 168.311L352.518 168.591L352.736 168.826L355.026 171.299L351.72 170.644L351.406 170.582L351.249 170.862L349.605 173.804L349.206 170.457L349.168 170.139L348.854 170.077L345.548 169.422L348.607 168.009L348.898 167.874L348.86 167.556L348.461 164.21Z" stroke="#AFBACC" stroke-width="0.882432" stroke-linecap="round"/>
<path d="M116.618 180.014L116.143 183.351L116.098 183.668L116.386 183.809L119.413 185.291L116.093 185.871L115.777 185.926L115.732 186.243L115.257 189.58L113.68 186.602L113.53 186.318L113.214 186.374L109.894 186.953L112.239 184.533L112.463 184.303L112.313 184.019L110.735 181.041L113.762 182.524L114.05 182.665L114.273 182.434L116.618 180.014Z" stroke="#AFBACC" stroke-width="0.882432" stroke-linecap="round"/>
<circle cx="346.138" cy="89.8771" r="2.81255" stroke="#707A8A" stroke-width="0.882432"/>
<circle cx="143.475" cy="51.7613" r="2.81255" stroke="#707A8A" stroke-width="0.882432"/>
<circle cx="137.897" cy="193.998" r="2.81255" stroke="#707A8A" stroke-width="0.882432"/>
<circle cx="377.746" cy="180.053" r="2.81255" stroke="#707A8A" stroke-width="0.882432"/>
<circle cx="251.314" cy="30.3795" r="2.81255" stroke="#707A8A" stroke-width="0.882432"/>
<circle cx="137.897" cy="98.244" r="2.81255" stroke="#AFBACC" stroke-width="0.882432"/>
<circle cx="338.701" cy="203.294" r="2.81255" stroke="#AFBACC" stroke-width="0.882432"/>
<circle cx="270.837" cy="15.505" r="2.81255" stroke="#AFBACC" stroke-width="0.882432"/>
<circle cx="104.43" cy="207.012" r="2.81255" stroke="#4967EE" stroke-width="0.882432"/>
<circle cx="361.012" cy="148.445" r="2.81255" stroke="#4967EE" stroke-width="0.882432"/>
<path fill-rule="evenodd" clip-rule="evenodd" d="M102.151 108.156C101.948 107.954 101.62 107.954 101.417 108.156C101.214 108.358 101.214 108.685 101.417 108.887L103.752 111.214L101.328 113.63C101.125 113.831 101.125 114.159 101.328 114.361C101.53 114.563 101.859 114.563 102.061 114.361L104.485 111.945L106.798 114.25C107 114.452 107.329 114.452 107.531 114.25C107.734 114.048 107.734 113.72 107.531 113.518L105.219 111.214L107.442 108.998C107.645 108.796 107.645 108.469 107.442 108.267C107.24 108.065 106.911 108.065 106.708 108.267L104.485 110.483L102.151 108.156Z" fill="#707A8A"/>
<path fill-rule="evenodd" clip-rule="evenodd" d="M141.196 167.654C140.993 167.452 140.665 167.452 140.462 167.654C140.259 167.856 140.259 168.183 140.462 168.385L142.797 170.712L140.373 173.127C140.17 173.329 140.17 173.657 140.373 173.859C140.576 174.06 140.904 174.06 141.107 173.859L143.53 171.443L145.843 173.747C146.045 173.949 146.374 173.949 146.577 173.747C146.779 173.546 146.779 173.218 146.577 173.016L144.264 170.712L146.487 168.496C146.69 168.294 146.69 167.967 146.487 167.765C146.285 167.563 145.956 167.563 145.754 167.765L143.53 169.981L141.196 167.654Z" fill="#AFBACC"/>
<path fill-rule="evenodd" clip-rule="evenodd" d="M218.357 27.2772C218.154 27.0753 217.826 27.0753 217.623 27.2772C217.421 27.4791 217.421 27.8065 217.623 28.0084L219.958 30.3351L217.534 32.7506C217.331 32.9525 217.331 33.2799 217.534 33.4818C217.737 33.6838 218.065 33.6838 218.268 33.4818L220.692 31.0663L223.004 33.3707C223.207 33.5726 223.535 33.5726 223.738 33.3707C223.94 33.1688 223.94 32.8414 223.738 32.6395L221.425 30.3351L223.648 28.1195C223.851 27.9176 223.851 27.5902 223.648 27.3883C223.446 27.1864 223.117 27.1864 222.915 27.3883L220.692 29.6038L218.357 27.2772Z" fill="#AFBACC"/>
<path fill-rule="evenodd" clip-rule="evenodd" d="M130.04 215.995C129.837 215.794 129.509 215.794 129.306 215.995C129.104 216.197 129.104 216.525 129.306 216.727L131.641 219.053L129.217 221.469C129.015 221.671 129.015 221.998 129.217 222.2C129.42 222.402 129.748 222.402 129.951 222.2L132.375 219.785L134.687 222.089C134.89 222.291 135.218 222.291 135.421 222.089C135.623 221.887 135.623 221.56 135.421 221.358L133.108 219.053L135.332 216.838C135.534 216.636 135.534 216.308 135.332 216.107C135.129 215.905 134.8 215.905 134.598 216.107L132.375 218.322L130.04 215.995Z" fill="#AFBACC"/>
<path fill-rule="evenodd" clip-rule="evenodd" d="M358.733 98.8599C358.531 98.658 358.202 98.658 358 98.8599C357.797 99.0619 357.797 99.3892 358 99.5912L360.334 101.918L357.911 104.333C357.708 104.535 357.708 104.863 357.911 105.065C358.113 105.267 358.442 105.267 358.644 105.065L361.068 102.649L363.38 104.953C363.583 105.155 363.912 105.155 364.114 104.953C364.317 104.752 364.317 104.424 364.114 104.222L361.802 101.918L364.025 99.7023C364.228 99.5003 364.228 99.173 364.025 98.971C363.822 98.7691 363.494 98.7691 363.291 98.971L361.068 101.187L358.733 98.8599Z" fill="#AFBACC"/>
<path fill-rule="evenodd" clip-rule="evenodd" d="M358.733 190.895C358.531 190.693 358.202 190.693 358 190.895C357.797 191.097 357.797 191.425 358 191.627L360.334 193.953L357.911 196.369C357.708 196.571 357.708 196.898 357.911 197.1C358.113 197.302 358.442 197.302 358.644 197.1L361.068 194.684L363.38 196.989C363.583 197.191 363.912 197.191 364.114 196.989C364.317 196.787 364.317 196.46 364.114 196.258L361.802 193.953L364.025 191.738C364.228 191.536 364.228 191.208 364.025 191.006C363.822 190.805 363.494 190.805 363.291 191.006L361.068 193.222L358.733 190.895Z" fill="#4967EE"/>
<path fill-rule="evenodd" clip-rule="evenodd" d="M283.432 20.7694C283.23 20.5674 282.901 20.5674 282.698 20.7694C282.496 20.9713 282.496 21.2987 282.698 21.5006L285.033 23.8273L282.609 26.2428C282.407 26.4447 282.407 26.7721 282.609 26.974C282.812 27.1759 283.14 27.1759 283.343 26.974L285.767 24.5585L288.079 26.8629C288.282 27.0648 288.61 27.0648 288.813 26.8629C289.015 26.661 289.015 26.3336 288.813 26.1317L286.501 23.8273L288.724 21.6117C288.926 21.4098 288.926 21.0824 288.724 20.8805C288.521 20.6785 288.193 20.6785 287.99 20.8805L285.767 23.096L283.432 20.7694Z" fill="#4967EE"/>
<g filter="url(#filter0_d)">
<rect width="122.714" height="122.714" transform="translate(134 53.156)" fill="white"/>
<rect x="134" y="53.156" width="122.714" height="39.9749" fill="#707A8A"/>
<rect x="140.507" y="122.88" width="24.1709" height="18.593" fill="#B6C2F8"/>
<rect x="140.507" y="145.191" width="24.1709" height="18.593" fill="#DBE1FC"/>
<rect x="167.467" y="122.88" width="24.1709" height="18.593" fill="#DBE1FC"/>
<rect x="167.467" y="145.191" width="24.1709" height="18.593" fill="#B6C2F8"/>
<rect x="196.286" y="122.88" width="24.1709" height="18.593" fill="#B6C2F8"/>
<rect x="196.286" y="145.191" width="24.1709" height="18.593" fill="#DBE1FC"/>
<rect x="225.106" y="122.88" width="26.0302" height="18.593" fill="#DBE1FC"/>
<rect x="225.106" y="145.191" width="26.0302" height="18.593" fill="#B6C2F8"/>
<rect x="140.507" y="76.3967" width="55.7789" height="36.2563" fill="#B6C2F8"/>
<rect x="140.507" y="66.1707" width="43.6935" height="4.64824" rx="2.32412" fill="white"/>
<rect x="140.507" y="59.6633" width="22.3116" height="4.64824" rx="2.32412" fill="#B6C2F8"/>
<circle cx="252.53" cy="56.4096" r="1.39447" fill="#EDF0FE"/>
</g>
<path d="M5.65455 145.217C5.65455 144.794 5.50105 144.469 5.19406 144.24C4.89158 144.012 4.34305 143.781 3.54848 143.548C2.75391 143.314 2.12187 143.055 1.65235 142.769C0.75394 142.219 0.304736 141.503 0.304736 140.619C0.304736 139.845 0.627531 139.207 1.27312 138.706C1.92322 138.204 2.7652 137.954 3.79904 137.954C4.48526 137.954 5.09699 138.077 5.63423 138.323C6.17147 138.569 6.59359 138.921 6.90058 139.379C7.20757 139.831 7.36107 140.335 7.36107 140.889H5.65455C5.65455 140.388 5.49202 139.996 5.16697 139.715C4.84643 139.429 4.38594 139.286 3.7855 139.286C3.22569 139.286 2.79003 139.403 2.47852 139.636C2.17153 139.869 2.01803 140.194 2.01803 140.612C2.01803 140.964 2.18507 141.259 2.51915 141.496C2.85323 141.729 3.40402 141.958 4.1715 142.182C4.93898 142.402 5.55523 142.655 6.02023 142.941C6.48524 143.222 6.82609 143.548 7.04279 143.917C7.25949 144.282 7.36784 144.711 7.36784 145.203C7.36784 146.004 7.05182 146.641 6.41977 147.116C5.79224 147.587 4.93898 147.822 3.85999 147.822C3.14668 147.822 2.48981 147.695 1.88936 147.44C1.29344 147.18 0.828431 146.824 0.49435 146.371C0.164783 145.918 0 145.39 0 144.788H1.71329C1.71329 145.333 1.89839 145.755 2.26859 146.054C2.63879 146.353 3.16926 146.503 3.85999 146.503C4.45592 146.503 4.90287 146.386 5.20083 146.153C5.50331 145.916 5.65455 145.604 5.65455 145.217Z" fill="#4967EE"/>
<path d="M10.3339 141.331C10.8712 140.724 11.5506 140.421 12.3723 140.421C13.9343 140.421 14.7267 141.289 14.7492 143.026V147.69H13.1037V143.086C13.1037 142.593 12.993 142.246 12.7718 142.044C12.5551 141.837 12.2346 141.734 11.8102 141.734C11.1511 141.734 10.659 142.019 10.3339 142.591V147.69H8.68836V137.558H10.3339V141.331Z" fill="#4967EE"/>
<path d="M20.7965 147.69C20.7243 147.554 20.6611 147.332 20.6069 147.024C20.0832 147.556 19.4422 147.822 18.6837 147.822C17.9478 147.822 17.3474 147.618 16.8824 147.209C16.4174 146.8 16.1849 146.294 16.1849 145.691C16.1849 144.931 16.4738 144.348 17.0517 143.943C17.6341 143.534 18.4648 143.33 19.5437 143.33H20.5528V142.862C20.5528 142.492 20.4467 142.197 20.2345 141.978C20.0223 141.753 19.6995 141.641 19.2661 141.641C18.8914 141.641 18.5844 141.734 18.3451 141.918C18.1058 142.099 17.9862 142.329 17.9862 142.611H16.3406C16.3406 142.219 16.4738 141.854 16.7402 141.516C17.0065 141.173 17.3677 140.905 17.8237 140.711C18.2842 140.518 18.7966 140.421 19.3609 140.421C20.2187 140.421 20.9026 140.632 21.4128 141.054C21.9229 141.472 22.1848 142.061 22.1983 142.822V146.041C22.1983 146.683 22.2909 147.195 22.476 147.578V147.69H20.7965ZM18.9884 146.536C19.3135 146.536 19.6182 146.459 19.9027 146.305C20.1916 146.151 20.4083 145.944 20.5528 145.685V144.339H19.6656C19.0562 144.339 18.5979 144.443 18.2909 144.649C17.9839 144.856 17.8304 145.148 17.8304 145.527C17.8304 145.834 17.9343 146.081 18.142 146.265C18.3541 146.446 18.6363 146.536 18.9884 146.536Z" fill="#4967EE"/>
<path d="M27.7581 142.017C27.5414 141.982 27.3179 141.964 27.0877 141.964C26.3337 141.964 25.8258 142.246 25.564 142.809V147.69H23.9184V140.553H25.4895L25.5301 141.351C25.9274 140.731 26.4782 140.421 27.1825 140.421C27.4172 140.421 27.6113 140.452 27.7648 140.513L27.7581 142.017Z" fill="#4967EE"/>
<path d="M31.8889 147.822C30.8461 147.822 29.9996 147.503 29.3495 146.866C28.7039 146.224 28.3811 145.37 28.3811 144.306V144.108C28.3811 143.396 28.521 142.76 28.8009 142.202C29.0854 141.639 29.4827 141.201 29.9928 140.889C30.503 140.577 31.0718 140.421 31.6993 140.421C32.6971 140.421 33.4668 140.731 34.0085 141.351C34.5548 141.971 34.8279 142.848 34.8279 143.983V144.629H30.0402C30.0899 145.219 30.2908 145.685 30.6429 146.028C30.9996 146.371 31.4465 146.542 31.9837 146.542C32.7377 146.542 33.3517 146.246 33.8257 145.652L34.7128 146.476C34.4194 146.903 34.0266 147.235 33.5345 147.473C33.0469 147.706 32.4984 147.822 31.8889 147.822ZM31.6926 141.707C31.2411 141.707 30.8754 141.861 30.5955 142.169C30.3201 142.477 30.144 142.905 30.0673 143.455H33.2027V143.336C33.1666 142.8 33.0198 142.395 32.7625 142.123C32.5052 141.846 32.1485 141.707 31.6926 141.707Z" fill="#4967EE"/>
<path d="M42.1281 145.395L43.6179 140.553H45.3718L42.4599 148.772C42.0129 149.973 41.2545 150.573 40.1845 150.573C39.9453 150.573 39.6812 150.533 39.3922 150.454V149.214L39.7037 149.234C40.1191 149.234 40.4306 149.159 40.6383 149.01C40.8504 148.864 41.0175 148.618 41.1394 148.271L41.3764 147.657L38.8031 140.553H40.5773L42.1281 145.395Z" fill="#4967EE"/>
<path d="M45.9068 144.056C45.9068 143.356 46.049 142.727 46.3334 142.169C46.6179 141.606 47.0174 141.175 47.5321 140.876C48.0467 140.573 48.6381 140.421 49.3063 140.421C50.295 140.421 51.0963 140.731 51.7103 141.351C52.3288 141.971 52.6629 142.793 52.7126 143.818L52.7193 144.194C52.7193 144.898 52.5794 145.527 52.2995 146.081C52.0241 146.635 51.6268 147.064 51.1076 147.367C50.593 147.67 49.997 147.822 49.3198 147.822C48.286 147.822 47.4576 147.488 46.8346 146.819C46.2161 146.147 45.9068 145.252 45.9068 144.135V144.056ZM47.5524 144.194C47.5524 144.928 47.7081 145.505 48.0196 145.922C48.3311 146.336 48.7646 146.542 49.3198 146.542C49.8751 146.542 50.3063 146.331 50.6133 145.909C50.9248 145.487 51.0805 144.869 51.0805 144.056C51.0805 143.334 50.9203 142.763 50.5997 142.34C50.2837 141.918 49.8526 141.707 49.3063 141.707C48.7691 141.707 48.3424 141.916 48.0264 142.334C47.7104 142.747 47.5524 143.367 47.5524 144.194Z" fill="#4967EE"/>
<path d="M58.55 146.991C58.0669 147.545 57.3807 147.822 56.4913 147.822C55.6967 147.822 55.094 147.596 54.6832 147.143C54.2769 146.69 54.0737 146.034 54.0737 145.177V140.553H55.7193V145.157C55.7193 146.063 56.1053 146.516 56.8773 146.516C57.6764 146.516 58.2159 146.237 58.4958 145.678V140.553H60.1414V147.69H58.5906L58.55 146.991Z" fill="#4967EE"/>
<path d="M65.6537 142.017C65.437 141.982 65.2135 141.964 64.9833 141.964C64.2293 141.964 63.7214 142.246 63.4596 142.809V147.69H61.814V140.553H63.3851L63.4257 141.351C63.823 140.731 64.3738 140.421 65.0781 140.421C65.3128 140.421 65.507 140.452 65.6605 140.513L65.6537 142.017Z" fill="#4967EE"/>
<path d="M73.157 146.542C73.5678 146.542 73.9087 146.426 74.1795 146.193C74.4504 145.96 74.5949 145.672 74.6129 145.329H76.1637C76.1457 145.773 76.0034 146.188 75.7371 146.575C75.4707 146.958 75.1095 147.261 74.6536 147.486C74.1976 147.71 73.7055 147.822 73.1773 147.822C72.1525 147.822 71.3399 147.499 70.7394 146.852C70.139 146.206 69.8387 145.313 69.8387 144.174V144.009C69.8387 142.923 70.1367 142.055 70.7326 141.404C71.3286 140.748 72.1412 140.421 73.1705 140.421C74.0418 140.421 74.7506 140.669 75.2969 141.166C75.8477 141.659 76.1366 142.307 76.1637 143.112H74.6129C74.5949 142.703 74.4504 142.367 74.1795 142.103C73.9132 141.839 73.5723 141.707 73.157 141.707C72.6243 141.707 72.2134 141.896 71.9245 142.274C71.6356 142.648 71.4888 143.218 71.4843 143.983V144.24C71.4843 145.014 71.6265 145.593 71.9109 145.975C72.1999 146.353 72.6152 146.542 73.157 146.542Z" fill="#4967EE"/>
<path d="M77.0982 144.056C77.0982 143.356 77.2404 142.727 77.5249 142.169C77.8093 141.606 78.2088 141.175 78.7235 140.876C79.2382 140.573 79.8296 140.421 80.4977 140.421C81.4864 140.421 82.2878 140.731 82.9018 141.351C83.5203 141.971 83.8543 142.793 83.904 143.818L83.9108 144.194C83.9108 144.898 83.7708 145.527 83.4909 146.081C83.2155 146.635 82.8182 147.064 82.2991 147.367C81.7844 147.67 81.1885 147.822 80.5113 147.822C79.4774 147.822 78.649 147.488 78.026 146.819C77.4075 146.147 77.0982 145.252 77.0982 144.135V144.056ZM78.7438 144.194C78.7438 144.928 78.8996 145.505 79.2111 145.922C79.5226 146.336 79.956 146.542 80.5113 146.542C81.0666 146.542 81.4977 146.331 81.8047 145.909C82.1162 145.487 82.272 144.869 82.272 144.056C82.272 143.334 82.1117 142.763 81.7912 142.34C81.4751 141.918 81.044 141.707 80.4977 141.707C79.9605 141.707 79.5339 141.916 79.2178 142.334C78.9018 142.747 78.7438 143.367 78.7438 144.194Z" fill="#4967EE"/>
<path d="M86.8295 140.553L86.8769 141.377C87.4186 140.74 88.1297 140.421 89.01 140.421C90.536 140.421 91.3125 141.272 91.3396 142.974V147.69H89.694V143.066C89.694 142.613 89.5924 142.279 89.3893 142.063C89.1906 141.843 88.8633 141.734 88.4073 141.734C87.7437 141.734 87.2493 142.026 86.9243 142.611V147.69H85.2787V140.553H86.8295Z" fill="#4967EE"/>
<path d="M95.0844 138.818V140.553H96.3779V141.74H95.0844V145.724C95.0844 145.997 95.1386 146.195 95.247 146.318C95.3598 146.437 95.5585 146.496 95.8429 146.496C96.0325 146.496 96.2244 146.474 96.4185 146.43V147.67C96.0438 147.772 95.6826 147.822 95.335 147.822C94.0709 147.822 93.4389 147.143 93.4389 145.784V141.74H92.2335V140.553H93.4389V138.818H95.0844Z" fill="#4967EE"/>
<path d="M100.868 147.822C99.8248 147.822 98.9783 147.503 98.3282 146.866C97.6826 146.224 97.3598 145.37 97.3598 144.306V144.108C97.3598 143.396 97.4997 142.76 97.7797 142.202C98.0641 141.639 98.4614 141.201 98.9715 140.889C99.4817 140.577 100.051 140.421 100.678 140.421C101.676 140.421 102.446 140.731 102.987 141.351C103.534 141.971 103.807 142.848 103.807 143.983V144.629H99.0189C99.0686 145.219 99.2695 145.685 99.6216 146.028C99.9783 146.371 100.425 146.542 100.962 146.542C101.716 146.542 102.33 146.246 102.804 145.652L103.692 146.476C103.398 146.903 103.005 147.235 102.513 147.473C102.026 147.706 101.477 147.822 100.868 147.822ZM100.671 141.707C100.22 141.707 99.8541 141.861 99.5742 142.169C99.2988 142.477 99.1228 142.905 99.046 143.455H102.181V143.336C102.145 142.8 101.999 142.395 101.741 142.123C101.484 141.846 101.127 141.707 100.671 141.707Z" fill="#4967EE"/>
<path d="M106.617 140.553L106.664 141.377C107.206 140.74 107.917 140.421 108.798 140.421C110.323 140.421 111.1 141.272 111.127 142.974V147.69H109.482V143.066C109.482 142.613 109.38 142.279 109.177 142.063C108.978 141.843 108.651 141.734 108.195 141.734C107.531 141.734 107.037 142.026 106.712 142.611V147.69H105.066V140.553H106.617Z" fill="#4967EE"/>
<path d="M114.872 138.818V140.553H116.165V141.74H114.872V145.724C114.872 145.997 114.926 146.195 115.034 146.318C115.147 146.437 115.346 146.496 115.63 146.496C115.82 146.496 116.012 146.474 116.206 146.43V147.67C115.831 147.772 115.47 147.822 115.123 147.822C113.858 147.822 113.226 147.143 113.226 145.784V141.74H112.021V140.553H113.226V138.818H114.872Z" fill="#4967EE"/>
<defs>
<filter id="filter0_d" x="121.394" y="41.8104" width="147.926" height="147.926" filterUnits="userSpaceOnUse" color-interpolation-filters="sRGB">
<feFlood flood-opacity="0" result="BackgroundImageFix"/>
<feColorMatrix in="SourceAlpha" type="matrix" values="0 0 0 0 0 0 0 0 0 0 0 0 0 0 0 0 0 0 127 0" result="hardAlpha"/>
<feOffset dy="1.26062"/>
<feGaussianBlur stdDeviation="6.30309"/>
<feColorMatrix type="matrix" values="0 0 0 0 0 0 0 0 0 0 0 0 0 0 0 0 0 0 0.25 0"/>
<feBlend mode="normal" in2="BackgroundImageFix" result="effect1_dropShadow"/>
<feBlend mode="normal" in="SourceGraphic" in2="effect1_dropShadow" result="shape"/>
</filter>
</defs>
</svg>
