<svg width="255" height="165" viewBox="0 0 255 165" fill="none" xmlns="http://www.w3.org/2000/svg">
<circle cx="122" cy="84" r="80" fill="#EDF0FE"/>
<path d="M204 22L204.081 7" stroke="#C8D1E0" stroke-width="2.55253" stroke-linecap="round" stroke-linejoin="round"/>
<path d="M216 27L226.654 16.4413" stroke="#C8D1E0" stroke-width="2.55253" stroke-linecap="round" stroke-linejoin="round"/>
<path d="M233 40L218 39.9187" stroke="#C8D1E0" stroke-width="2.55253" stroke-linecap="round" stroke-linejoin="round"/>
<path d="M63.5161 60.0472L65.0688 61.7257L65.2261 61.8958L65.4365 61.7984L67.5123 60.8375L66.3961 62.8358L66.2829 63.0383L66.4403 63.2085L67.9929 64.887L65.7504 64.4435L65.5232 64.3986L65.41 64.6011L64.2938 66.5994L64.0241 64.327L63.9968 64.0967L63.7695 64.0517L61.527 63.6082L63.6028 62.6473L63.8132 62.5499L63.7858 62.3196L63.5161 60.0472Z" stroke="#4967EE" stroke-width="0.638133" stroke-linecap="round"/>
<path d="M242.141 54.0427L242.329 56.323L242.348 56.5541L242.574 56.6075L244.8 57.1351L242.69 58.0168L242.476 58.1062L242.495 58.3373L242.683 60.6176L241.191 58.8822L241.04 58.7064L240.826 58.7957L238.717 59.6775L239.904 57.7232L240.025 57.5252L239.874 57.3493L238.382 55.614L240.608 56.1415L240.833 56.195L240.954 55.9969L242.141 54.0427Z" stroke="#4967EE" stroke-width="0.638133" stroke-linecap="round"/>
<path d="M157.368 5.49704L157.844 7.73456L157.893 7.96132L158.123 7.98554L160.398 8.22451L158.418 9.36841L158.217 9.48433L158.265 9.71109L158.742 11.9486L157.041 10.4181L156.869 10.2629L156.668 10.3789L154.688 11.5228L155.617 9.43292L155.712 9.22114L155.539 9.06603L153.839 7.53546L156.114 7.77444L156.344 7.79866L156.438 7.58687L157.368 5.49704Z" stroke="#4967EE" stroke-width="0.638133" stroke-linecap="round"/>
<path d="M229.516 120.047L231.069 121.726L231.226 121.896L231.436 121.798L233.512 120.837L232.396 122.836L232.283 123.038L232.44 123.208L233.993 124.887L231.75 124.443L231.523 124.399L231.41 124.601L230.294 126.599L230.024 124.327L229.997 124.097L229.769 124.052L227.527 123.608L229.603 122.647L229.813 122.55L229.786 122.32L229.516 120.047Z" stroke="#AFBACC" stroke-width="0.638133" stroke-linecap="round"/>
<path d="M62.5863 130.91L62.2654 133.176L62.2329 133.405L62.441 133.507L64.4945 134.515L62.2426 134.908L62.0144 134.948L61.9819 135.177L61.6609 137.443L60.5901 135.42L60.4816 135.215L60.2534 135.255L58.0015 135.647L59.5916 134.004L59.7527 133.838L59.6442 133.633L58.5734 131.61L60.627 132.617L60.8351 132.719L60.9962 132.553L62.5863 130.91Z" stroke="#AFBACC" stroke-width="0.638133" stroke-linecap="round"/>
<circle cx="229" cy="66" r="1.68093" stroke="#707A8A" stroke-width="0.638133"/>
<circle cx="78" cy="141" r="1.68093" stroke="#707A8A" stroke-width="0.638133"/>
<circle cx="252" cy="131" r="1.68093" stroke="#707A8A" stroke-width="0.638133"/>
<circle cx="160" cy="23" r="1.68093" stroke="#707A8A" stroke-width="0.638133"/>
<circle cx="174" cy="12" r="1.68093" stroke="#AFBACC" stroke-width="0.638133"/>
<circle cx="70" cy="90" r="1.68093" stroke="#4967EE" stroke-width="0.638133"/>
<circle cx="54" cy="151" r="1.68093" stroke="#4967EE" stroke-width="0.638133"/>
<circle cx="239" cy="108" r="1.68093" stroke="#4967EE" stroke-width="0.638133"/>
<path fill-rule="evenodd" clip-rule="evenodd" d="M52.5992 79.0931C52.4747 78.969 52.2728 78.969 52.1482 79.0931C52.0237 79.2172 52.0237 79.4184 52.1482 79.5426L53.5833 80.9727L52.0934 82.4574C51.9689 82.5816 51.9689 82.7828 52.0934 82.9069C52.2179 83.031 52.4199 83.031 52.5444 82.9069L54.0343 81.4222L55.4556 82.8386C55.5801 82.9627 55.7821 82.9627 55.9066 82.8386C56.0311 82.7145 56.0311 82.5133 55.9066 82.3892L54.4853 80.9727L55.8518 79.6108C55.9763 79.4867 55.9763 79.2855 55.8518 79.1614C55.7272 79.0373 55.5253 79.0373 55.4008 79.1614L54.0343 80.5232L52.5992 79.0931Z" fill="#707A8A"/>
<path fill-rule="evenodd" clip-rule="evenodd" d="M81.5992 122.093C81.4747 121.969 81.2728 121.969 81.1482 122.093C81.0237 122.217 81.0237 122.418 81.1482 122.543L82.5833 123.973L81.0934 125.457C80.9689 125.582 80.9689 125.783 81.0934 125.907C81.2179 126.031 81.4199 126.031 81.5444 125.907L83.0343 124.422L84.4556 125.839C84.5801 125.963 84.7821 125.963 84.9066 125.839C85.0311 125.715 85.0311 125.513 84.9066 125.389L83.4853 123.973L84.8518 122.611C84.9763 122.487 84.9763 122.285 84.8518 122.161C84.7272 122.037 84.5253 122.037 84.4008 122.161L83.0343 123.523L81.5992 122.093Z" fill="#AFBACC"/>
<path fill-rule="evenodd" clip-rule="evenodd" d="M136.599 21.0931C136.475 20.969 136.273 20.969 136.148 21.0931C136.024 21.2172 136.024 21.4184 136.148 21.5426L137.583 22.9727L136.093 24.4574C135.969 24.5816 135.969 24.7828 136.093 24.9069C136.218 25.031 136.42 25.031 136.544 24.9069L138.034 23.4222L139.456 24.8386C139.58 24.9627 139.782 24.9627 139.907 24.8386C140.031 24.7145 140.031 24.5133 139.907 24.3892L138.485 22.9727L139.852 21.6108C139.976 21.4867 139.976 21.2855 139.852 21.1614C139.727 21.0373 139.525 21.0373 139.401 21.1614L138.034 22.5232L136.599 21.0931Z" fill="#AFBACC"/>
<path fill-rule="evenodd" clip-rule="evenodd" d="M73.5992 158.093C73.4747 157.969 73.2728 157.969 73.1482 158.093C73.0237 158.217 73.0237 158.418 73.1482 158.543L74.5833 159.973L73.0934 161.457C72.9689 161.582 72.9689 161.783 73.0934 161.907C73.2179 162.031 73.4199 162.031 73.5444 161.907L75.0343 160.422L76.4556 161.839C76.5801 161.963 76.7821 161.963 76.9066 161.839C77.0311 161.715 77.0311 161.513 76.9066 161.389L75.4853 159.973L76.8518 158.611C76.9763 158.487 76.9763 158.285 76.8518 158.161C76.7272 158.037 76.5253 158.037 76.4008 158.161L75.0343 159.523L73.5992 158.093Z" fill="#AFBACC"/>
<path fill-rule="evenodd" clip-rule="evenodd" d="M237.599 73.0931C237.475 72.969 237.273 72.969 237.148 73.0931C237.024 73.2172 237.024 73.4184 237.148 73.5426L238.583 74.9727L237.093 76.4574C236.969 76.5816 236.969 76.7828 237.093 76.9069C237.218 77.031 237.42 77.031 237.544 76.9069L239.034 75.4222L240.456 76.8386C240.58 76.9627 240.782 76.9627 240.907 76.8386C241.031 76.7145 241.031 76.5133 240.907 76.3892L239.485 74.9727L240.852 73.6108C240.976 73.4867 240.976 73.2855 240.852 73.1614C240.727 73.0373 240.525 73.0373 240.401 73.1614L239.034 74.5232L237.599 73.0931Z" fill="#AFBACC"/>
<path fill-rule="evenodd" clip-rule="evenodd" d="M183.599 16.0931C183.475 15.969 183.273 15.969 183.148 16.0931C183.024 16.2172 183.024 16.4184 183.148 16.5426L184.583 17.9727L183.093 19.4574C182.969 19.5816 182.969 19.7828 183.093 19.9069C183.218 20.031 183.42 20.031 183.544 19.9069L185.034 18.4222L186.456 19.8386C186.58 19.9627 186.782 19.9627 186.907 19.8386C187.031 19.7145 187.031 19.5133 186.907 19.3892L185.485 17.9727L186.852 16.6108C186.976 16.4867 186.976 16.2855 186.852 16.1614C186.727 16.0373 186.525 16.0373 186.401 16.1614L185.034 17.5232L183.599 16.0931Z" fill="#4967EE"/>
<g filter="url(#filter0_d)">
<rect width="89" height="89" transform="translate(77 40)" fill="white"/>
<rect x="77" y="40" width="89" height="29" fill="#707A8A"/>
<rect x="81" y="90" width="18" height="13" fill="#B6C2F8"/>
<rect x="81" y="107" width="18" height="13" fill="#DBE1FC"/>
<rect x="101" y="90" width="18" height="13" fill="#DBE1FC"/>
<rect x="101" y="107" width="18" height="13" fill="#B6C2F8"/>
<rect x="122" y="90" width="18" height="13" fill="#B6C2F8"/>
<rect x="122" y="107" width="18" height="13" fill="#DBE1FC"/>
<rect x="143" y="90" width="19" height="13" fill="#DBE1FC"/>
<rect x="143" y="107" width="19" height="13" fill="#B6C2F8"/>
<rect x="81" y="57" width="40" height="26" fill="#B6C2F8"/>
<rect x="81" y="50" width="32" height="4" rx="2" fill="white"/>
<rect x="81" y="44" width="16" height="4" rx="2" fill="#B6C2F8"/>
<circle cx="163" cy="42" r="1" fill="#EDF0FE"/>
</g>
<path d="M8.43164 24.8027C8.43164 24.4277 8.29883 24.1387 8.0332 23.9355C7.77148 23.7324 7.29688 23.5273 6.60938 23.3203C5.92188 23.1133 5.375 22.8828 4.96875 22.6289C4.19141 22.1406 3.80273 21.5039 3.80273 20.7188C3.80273 20.0312 4.08203 19.4648 4.64062 19.0195C5.20312 18.5742 5.93164 18.3516 6.82617 18.3516C7.41992 18.3516 7.94922 18.4609 8.41406 18.6797C8.87891 18.8984 9.24414 19.2109 9.50977 19.6172C9.77539 20.0195 9.9082 20.4668 9.9082 20.959H8.43164C8.43164 20.5137 8.29102 20.166 8.00977 19.916C7.73242 19.6621 7.33398 19.5352 6.81445 19.5352C6.33008 19.5352 5.95312 19.6387 5.68359 19.8457C5.41797 20.0527 5.28516 20.3418 5.28516 20.7129C5.28516 21.0254 5.42969 21.2871 5.71875 21.498C6.00781 21.7051 6.48438 21.9082 7.14844 22.1074C7.8125 22.3027 8.3457 22.5273 8.74805 22.7812C9.15039 23.0312 9.44531 23.3203 9.63281 23.6484C9.82031 23.9727 9.91406 24.3535 9.91406 24.791C9.91406 25.502 9.64062 26.0684 9.09375 26.4902C8.55078 26.9082 7.8125 27.1172 6.87891 27.1172C6.26172 27.1172 5.69336 27.0039 5.17383 26.7773C4.6582 26.5469 4.25586 26.2305 3.9668 25.8281C3.68164 25.4258 3.53906 24.957 3.53906 24.4219H5.02148C5.02148 24.9062 5.18164 25.2812 5.50195 25.5469C5.82227 25.8125 6.28125 25.9453 6.87891 25.9453C7.39453 25.9453 7.78125 25.8418 8.03906 25.6348C8.30078 25.4238 8.43164 25.1465 8.43164 24.8027Z" fill="#4967EE"/>
<path d="M12.4805 21.3516C12.9453 20.8125 13.5332 20.543 14.2441 20.543C15.5957 20.543 16.2812 21.3145 16.3008 22.8574V27H14.877V22.9102C14.877 22.4727 14.7812 22.1641 14.5898 21.9844C14.4023 21.8008 14.125 21.709 13.7578 21.709C13.1875 21.709 12.7617 21.9629 12.4805 22.4707V27H11.0566V18H12.4805V21.3516Z" fill="#4967EE"/>
<path d="M17.4785 23.7715C17.4785 23.1504 17.6016 22.5918 17.8477 22.0957C18.0938 21.5957 18.4395 21.2129 18.8848 20.9473C19.3301 20.6777 19.8418 20.543 20.4199 20.543C21.2754 20.543 21.9688 20.8184 22.5 21.3691C23.0352 21.9199 23.3242 22.6504 23.3672 23.5605L23.373 23.8945C23.373 24.5195 23.252 25.0781 23.0098 25.5703C22.7715 26.0625 22.4277 26.4434 21.9785 26.7129C21.5332 26.9824 21.0176 27.1172 20.4316 27.1172C19.5371 27.1172 18.8203 26.8203 18.2812 26.2266C17.7461 25.6289 17.4785 24.834 17.4785 23.8418V23.7715ZM18.9023 23.8945C18.9023 24.5469 19.0371 25.0586 19.3066 25.4297C19.5762 25.7969 19.9512 25.9805 20.4316 25.9805C20.9121 25.9805 21.2852 25.793 21.5508 25.418C21.8203 25.043 21.9551 24.4941 21.9551 23.7715C21.9551 23.1309 21.8164 22.623 21.5391 22.248C21.2656 21.873 20.8926 21.6855 20.4199 21.6855C19.9551 21.6855 19.5859 21.8711 19.3125 22.2422C19.0391 22.6094 18.9023 23.1602 18.9023 23.8945Z" fill="#4967EE"/>
<path d="M30.1465 25.0371L31.1543 20.6602H32.543L30.8145 27H29.6426L28.2832 22.6465L26.9473 27H25.7754L24.041 20.6602H25.4297L26.4551 24.9902L27.7559 20.6602H28.8281L30.1465 25.0371Z" fill="#4967EE"/>
<path d="M36.0996 25.9805C36.4551 25.9805 36.75 25.877 36.9844 25.6699C37.2188 25.4629 37.3438 25.207 37.3594 24.9023H38.7012C38.6855 25.2969 38.5625 25.666 38.332 26.0098C38.1016 26.3496 37.7891 26.6191 37.3945 26.8184C37 27.0176 36.5742 27.1172 36.1172 27.1172C35.2305 27.1172 34.5273 26.8301 34.0078 26.2559C33.4883 25.6816 33.2285 24.8887 33.2285 23.877V23.7305C33.2285 22.7656 33.4863 21.9941 34.002 21.416C34.5176 20.834 35.2207 20.543 36.1113 20.543C36.8652 20.543 37.4785 20.7637 37.9512 21.2051C38.4277 21.6426 38.6777 22.2188 38.7012 22.9336H37.3594C37.3438 22.5703 37.2188 22.2715 36.9844 22.0371C36.7539 21.8027 36.459 21.6855 36.0996 21.6855C35.6387 21.6855 35.2832 21.8535 35.0332 22.1895C34.7832 22.5215 34.6562 23.0273 34.6523 23.707V23.9355C34.6523 24.623 34.7754 25.1367 35.0215 25.4766C35.2715 25.8125 35.6309 25.9805 36.0996 25.9805Z" fill="#4967EE"/>
<path d="M43.5645 27C43.502 26.8789 43.4473 26.6816 43.4004 26.4082C42.9473 26.8809 42.3926 27.1172 41.7363 27.1172C41.0996 27.1172 40.5801 26.9355 40.1777 26.5723C39.7754 26.209 39.5742 25.7598 39.5742 25.2246C39.5742 24.5488 39.8242 24.0312 40.3242 23.6719C40.8281 23.3086 41.5469 23.127 42.4805 23.127H43.3535V22.7109C43.3535 22.3828 43.2617 22.1211 43.0781 21.9258C42.8945 21.7266 42.6152 21.627 42.2402 21.627C41.916 21.627 41.6504 21.709 41.4434 21.873C41.2363 22.0332 41.1328 22.2383 41.1328 22.4883H39.709C39.709 22.1406 39.8242 21.8164 40.0547 21.5156C40.2852 21.2109 40.5977 20.9727 40.9922 20.8008C41.3906 20.6289 41.834 20.543 42.3223 20.543C43.0645 20.543 43.6562 20.7305 44.0977 21.1055C44.5391 21.4766 44.7656 22 44.7773 22.6758V25.5352C44.7773 26.1055 44.8574 26.5605 45.0176 26.9004V27H43.5645ZM42 25.9746C42.2812 25.9746 42.5449 25.9062 42.791 25.7695C43.041 25.6328 43.2285 25.4492 43.3535 25.2188V24.0234H42.5859C42.0586 24.0234 41.6621 24.1152 41.3965 24.2988C41.1309 24.4824 40.998 24.7422 40.998 25.0781C40.998 25.3516 41.0879 25.5703 41.2676 25.7344C41.4512 25.8945 41.6953 25.9746 42 25.9746Z" fill="#4967EE"/>
<path d="M49.8223 25.2773C49.8223 25.0234 49.7168 24.8301 49.5059 24.6973C49.2988 24.5645 48.9531 24.4473 48.4688 24.3457C47.9844 24.2441 47.5801 24.1152 47.2559 23.959C46.5449 23.6152 46.1895 23.1172 46.1895 22.4648C46.1895 21.918 46.4199 21.4609 46.8809 21.0938C47.3418 20.7266 47.9277 20.543 48.6387 20.543C49.3965 20.543 50.0078 20.7305 50.4727 21.1055C50.9414 21.4805 51.1758 21.9668 51.1758 22.5645H49.752C49.752 22.291 49.6504 22.0645 49.4473 21.8848C49.2441 21.7012 48.9746 21.6094 48.6387 21.6094C48.3262 21.6094 48.0703 21.6816 47.8711 21.8262C47.6758 21.9707 47.5781 22.1641 47.5781 22.4062C47.5781 22.625 47.6699 22.7949 47.8535 22.916C48.0371 23.0371 48.4082 23.1602 48.9668 23.2852C49.5254 23.4062 49.9629 23.5527 50.2793 23.7246C50.5996 23.8926 50.8359 24.0957 50.9883 24.334C51.1445 24.5723 51.2227 24.8613 51.2227 25.2012C51.2227 25.7715 50.9863 26.2344 50.5137 26.5898C50.041 26.9414 49.4219 27.1172 48.6562 27.1172C48.1367 27.1172 47.6738 27.0234 47.2676 26.8359C46.8613 26.6484 46.5449 26.3906 46.3184 26.0625C46.0918 25.7344 45.9785 25.3809 45.9785 25.002H47.3613C47.3809 25.3379 47.5078 25.5977 47.7422 25.7812C47.9766 25.9609 48.2871 26.0508 48.6738 26.0508C49.0488 26.0508 49.334 25.9805 49.5293 25.8398C49.7246 25.6953 49.8223 25.5078 49.8223 25.2773Z" fill="#4967EE"/>
<path d="M55.2598 27.1172C54.3574 27.1172 53.625 26.834 53.0625 26.2676C52.5039 25.6973 52.2246 24.9395 52.2246 23.9941V23.8184C52.2246 23.1855 52.3457 22.6211 52.5879 22.125C52.834 21.625 53.1777 21.2363 53.6191 20.959C54.0605 20.6816 54.5527 20.543 55.0957 20.543C55.959 20.543 56.625 20.8184 57.0938 21.3691C57.5664 21.9199 57.8027 22.6992 57.8027 23.707V24.2812H53.6602C53.7031 24.8047 53.877 25.2188 54.1816 25.5234C54.4902 25.8281 54.877 25.9805 55.3418 25.9805C55.9941 25.9805 56.5254 25.7168 56.9355 25.1895L57.7031 25.9219C57.4492 26.3008 57.1094 26.5957 56.6836 26.8066C56.2617 27.0137 55.7871 27.1172 55.2598 27.1172ZM55.0898 21.6855C54.6992 21.6855 54.3828 21.8223 54.1406 22.0957C53.9023 22.3691 53.75 22.75 53.6836 23.2383H56.3965V23.1328C56.3652 22.6562 56.2383 22.2969 56.0156 22.0547C55.793 21.8086 55.4844 21.6855 55.0898 21.6855Z" fill="#4967EE"/>
<path d="M64.1191 24.9609L65.4082 20.6602H66.9258L64.4062 27.9609C64.0195 29.0273 63.3633 29.5605 62.4375 29.5605C62.2305 29.5605 62.002 29.5254 61.752 29.4551V28.3535L62.0215 28.3711C62.3809 28.3711 62.6504 28.3047 62.8301 28.1719C63.0137 28.043 63.1582 27.8242 63.2637 27.5156L63.4688 26.9707L61.2422 20.6602H62.7773L64.1191 24.9609Z" fill="#4967EE"/>
<path d="M67.3887 23.7715C67.3887 23.1504 67.5117 22.5918 67.7578 22.0957C68.0039 21.5957 68.3496 21.2129 68.7949 20.9473C69.2402 20.6777 69.752 20.543 70.3301 20.543C71.1855 20.543 71.8789 20.8184 72.4102 21.3691C72.9453 21.9199 73.2344 22.6504 73.2773 23.5605L73.2832 23.8945C73.2832 24.5195 73.1621 25.0781 72.9199 25.5703C72.6816 26.0625 72.3379 26.4434 71.8887 26.7129C71.4434 26.9824 70.9277 27.1172 70.3418 27.1172C69.4473 27.1172 68.7305 26.8203 68.1914 26.2266C67.6562 25.6289 67.3887 24.834 67.3887 23.8418V23.7715ZM68.8125 23.8945C68.8125 24.5469 68.9473 25.0586 69.2168 25.4297C69.4863 25.7969 69.8613 25.9805 70.3418 25.9805C70.8223 25.9805 71.1953 25.793 71.4609 25.418C71.7305 25.043 71.8652 24.4941 71.8652 23.7715C71.8652 23.1309 71.7266 22.623 71.4492 22.248C71.1758 21.873 70.8027 21.6855 70.3301 21.6855C69.8652 21.6855 69.4961 21.8711 69.2227 22.2422C68.9492 22.6094 68.8125 23.1602 68.8125 23.8945Z" fill="#4967EE"/>
<path d="M78.3281 26.3789C77.9102 26.8711 77.3164 27.1172 76.5469 27.1172C75.8594 27.1172 75.3379 26.916 74.9824 26.5137C74.6309 26.1113 74.4551 25.5293 74.4551 24.7676V20.6602H75.8789V24.75C75.8789 25.5547 76.2129 25.957 76.8809 25.957C77.5723 25.957 78.0391 25.709 78.2812 25.2129V20.6602H79.7051V27H78.3633L78.3281 26.3789Z" fill="#4967EE"/>
<path d="M84.4746 21.9609C84.2871 21.9297 84.0938 21.9141 83.8945 21.9141C83.2422 21.9141 82.8027 22.1641 82.5762 22.6641V27H81.1523V20.6602H82.5117L82.5469 21.3691C82.8906 20.8184 83.3672 20.543 83.9766 20.543C84.1797 20.543 84.3477 20.5703 84.4805 20.625L84.4746 21.9609Z" fill="#4967EE"/>
<path d="M90.5977 25.1953L91.9395 20.6602H93.4102L91.2129 27H89.9766L87.7617 20.6602H89.2383L90.5977 25.1953Z" fill="#4967EE"/>
<path d="M95.8184 27H94.3945V20.6602H95.8184V27ZM94.3066 19.0137C94.3066 18.7949 94.375 18.6133 94.5117 18.4688C94.6523 18.3242 94.8516 18.252 95.1094 18.252C95.3672 18.252 95.5664 18.3242 95.707 18.4688C95.8477 18.6133 95.918 18.7949 95.918 19.0137C95.918 19.2285 95.8477 19.4082 95.707 19.5527C95.5664 19.6934 95.3672 19.7637 95.1094 19.7637C94.8516 19.7637 94.6523 19.6934 94.5117 19.5527C94.375 19.4082 94.3066 19.2285 94.3066 19.0137Z" fill="#4967EE"/>
<path d="M97.1074 23.7832C97.1074 22.8066 97.334 22.0234 97.7871 21.4336C98.2402 20.8398 98.8477 20.543 99.6094 20.543C100.281 20.543 100.824 20.7773 101.238 21.2461V18H102.662V27H101.373L101.303 26.3438C100.877 26.8594 100.309 27.1172 99.5977 27.1172C98.8555 27.1172 98.2539 26.8184 97.793 26.2207C97.3359 25.623 97.1074 24.8105 97.1074 23.7832ZM98.5312 23.9062C98.5312 24.5508 98.6543 25.0547 98.9004 25.418C99.1504 25.7773 99.5039 25.957 99.9609 25.957C100.543 25.957 100.969 25.6973 101.238 25.1777V22.4707C100.977 21.9629 100.555 21.709 99.9727 21.709C99.5117 21.709 99.1562 21.8926 98.9062 22.2598C98.6562 22.623 98.5312 23.1719 98.5312 23.9062Z" fill="#4967EE"/>
<path d="M106.939 27.1172C106.037 27.1172 105.305 26.834 104.742 26.2676C104.184 25.6973 103.904 24.9395 103.904 23.9941V23.8184C103.904 23.1855 104.025 22.6211 104.268 22.125C104.514 21.625 104.857 21.2363 105.299 20.959C105.74 20.6816 106.232 20.543 106.775 20.543C107.639 20.543 108.305 20.8184 108.773 21.3691C109.246 21.9199 109.482 22.6992 109.482 23.707V24.2812H105.34C105.383 24.8047 105.557 25.2188 105.861 25.5234C106.17 25.8281 106.557 25.9805 107.021 25.9805C107.674 25.9805 108.205 25.7168 108.615 25.1895L109.383 25.9219C109.129 26.3008 108.789 26.5957 108.363 26.8066C107.941 27.0137 107.467 27.1172 106.939 27.1172ZM106.77 21.6855C106.379 21.6855 106.062 21.8223 105.82 22.0957C105.582 22.3691 105.43 22.75 105.363 23.2383H108.076V23.1328C108.045 22.6562 107.918 22.2969 107.695 22.0547C107.473 21.8086 107.164 21.6855 106.77 21.6855Z" fill="#4967EE"/>
<path d="M110.326 23.7715C110.326 23.1504 110.449 22.5918 110.695 22.0957C110.941 21.5957 111.287 21.2129 111.732 20.9473C112.178 20.6777 112.689 20.543 113.268 20.543C114.123 20.543 114.816 20.8184 115.348 21.3691C115.883 21.9199 116.172 22.6504 116.215 23.5605L116.221 23.8945C116.221 24.5195 116.1 25.0781 115.857 25.5703C115.619 26.0625 115.275 26.4434 114.826 26.7129C114.381 26.9824 113.865 27.1172 113.279 27.1172C112.385 27.1172 111.668 26.8203 111.129 26.2266C110.594 25.6289 110.326 24.834 110.326 23.8418V23.7715ZM111.75 23.8945C111.75 24.5469 111.885 25.0586 112.154 25.4297C112.424 25.7969 112.799 25.9805 113.279 25.9805C113.76 25.9805 114.133 25.793 114.398 25.418C114.668 25.043 114.803 24.4941 114.803 23.7715C114.803 23.1309 114.664 22.623 114.387 22.248C114.113 21.873 113.74 21.6855 113.268 21.6855C112.803 21.6855 112.434 21.8711 112.16 22.2422C111.887 22.6094 111.75 23.1602 111.75 23.8945Z" fill="#4967EE"/>
<path d="M120.979 25.2773C120.979 25.0234 120.873 24.8301 120.662 24.6973C120.455 24.5645 120.109 24.4473 119.625 24.3457C119.141 24.2441 118.736 24.1152 118.412 23.959C117.701 23.6152 117.346 23.1172 117.346 22.4648C117.346 21.918 117.576 21.4609 118.037 21.0938C118.498 20.7266 119.084 20.543 119.795 20.543C120.553 20.543 121.164 20.7305 121.629 21.1055C122.098 21.4805 122.332 21.9668 122.332 22.5645H120.908C120.908 22.291 120.807 22.0645 120.604 21.8848C120.4 21.7012 120.131 21.6094 119.795 21.6094C119.482 21.6094 119.227 21.6816 119.027 21.8262C118.832 21.9707 118.734 22.1641 118.734 22.4062C118.734 22.625 118.826 22.7949 119.01 22.916C119.193 23.0371 119.564 23.1602 120.123 23.2852C120.682 23.4062 121.119 23.5527 121.436 23.7246C121.756 23.8926 121.992 24.0957 122.145 24.334C122.301 24.5723 122.379 24.8613 122.379 25.2012C122.379 25.7715 122.143 26.2344 121.67 26.5898C121.197 26.9414 120.578 27.1172 119.812 27.1172C119.293 27.1172 118.83 27.0234 118.424 26.8359C118.018 26.6484 117.701 26.3906 117.475 26.0625C117.248 25.7344 117.135 25.3809 117.135 25.002H118.518C118.537 25.3379 118.664 25.5977 118.898 25.7812C119.133 25.9609 119.443 26.0508 119.83 26.0508C120.205 26.0508 120.49 25.9805 120.686 25.8398C120.881 25.6953 120.979 25.5078 120.979 25.2773Z" fill="#4967EE"/>
<path d="M5.62695 103.803C5.62695 103.428 5.49414 103.139 5.22852 102.936C4.9668 102.732 4.49219 102.527 3.80469 102.32C3.11719 102.113 2.57031 101.883 2.16406 101.629C1.38672 101.141 0.998047 100.504 0.998047 99.7188C0.998047 99.0312 1.27734 98.4648 1.83594 98.0195C2.39844 97.5742 3.12695 97.3516 4.02148 97.3516C4.61523 97.3516 5.14453 97.4609 5.60938 97.6797C6.07422 97.8984 6.43945 98.2109 6.70508 98.6172C6.9707 99.0195 7.10352 99.4668 7.10352 99.959H5.62695C5.62695 99.5137 5.48633 99.166 5.20508 98.916C4.92773 98.6621 4.5293 98.5352 4.00977 98.5352C3.52539 98.5352 3.14844 98.6387 2.87891 98.8457C2.61328 99.0527 2.48047 99.3418 2.48047 99.7129C2.48047 100.025 2.625 100.287 2.91406 100.498C3.20312 100.705 3.67969 100.908 4.34375 101.107C5.00781 101.303 5.54102 101.527 5.94336 101.781C6.3457 102.031 6.64062 102.32 6.82812 102.648C7.01562 102.973 7.10938 103.354 7.10938 103.791C7.10938 104.502 6.83594 105.068 6.28906 105.49C5.74609 105.908 5.00781 106.117 4.07422 106.117C3.45703 106.117 2.88867 106.004 2.36914 105.777C1.85352 105.547 1.45117 105.23 1.16211 104.828C0.876953 104.426 0.734375 103.957 0.734375 103.422H2.2168C2.2168 103.906 2.37695 104.281 2.69727 104.547C3.01758 104.812 3.47656 104.945 4.07422 104.945C4.58984 104.945 4.97656 104.842 5.23438 104.635C5.49609 104.424 5.62695 104.146 5.62695 103.803Z" fill="#4967EE"/>
<path d="M9.67578 100.352C10.1406 99.8125 10.7285 99.543 11.4395 99.543C12.791 99.543 13.4766 100.314 13.4961 101.857V106H12.0723V101.91C12.0723 101.473 11.9766 101.164 11.7852 100.984C11.5977 100.801 11.3203 100.709 10.9531 100.709C10.3828 100.709 9.95703 100.963 9.67578 101.471V106H8.25195V97H9.67578V100.352Z" fill="#4967EE"/>
<path d="M18.7285 106C18.666 105.879 18.6113 105.682 18.5645 105.408C18.1113 105.881 17.5566 106.117 16.9004 106.117C16.2637 106.117 15.7441 105.936 15.3418 105.572C14.9395 105.209 14.7383 104.76 14.7383 104.225C14.7383 103.549 14.9883 103.031 15.4883 102.672C15.9922 102.309 16.7109 102.127 17.6445 102.127H18.5176V101.711C18.5176 101.383 18.4258 101.121 18.2422 100.926C18.0586 100.727 17.7793 100.627 17.4043 100.627C17.0801 100.627 16.8145 100.709 16.6074 100.873C16.4004 101.033 16.2969 101.238 16.2969 101.488H14.873C14.873 101.141 14.9883 100.816 15.2188 100.516C15.4492 100.211 15.7617 99.9727 16.1562 99.8008C16.5547 99.6289 16.998 99.543 17.4863 99.543C18.2285 99.543 18.8203 99.7305 19.2617 100.105C19.7031 100.477 19.9297 101 19.9414 101.676V104.535C19.9414 105.105 20.0215 105.561 20.1816 105.9V106H18.7285ZM17.1641 104.975C17.4453 104.975 17.709 104.906 17.9551 104.77C18.2051 104.633 18.3926 104.449 18.5176 104.219V103.023H17.75C17.2227 103.023 16.8262 103.115 16.5605 103.299C16.2949 103.482 16.1621 103.742 16.1621 104.078C16.1621 104.352 16.252 104.57 16.4316 104.734C16.6152 104.895 16.8594 104.975 17.1641 104.975Z" fill="#4967EE"/>
<path d="M24.752 100.961C24.5645 100.93 24.3711 100.914 24.1719 100.914C23.5195 100.914 23.0801 101.164 22.8535 101.664V106H21.4297V99.6602H22.7891L22.8242 100.369C23.168 99.8184 23.6445 99.543 24.2539 99.543C24.457 99.543 24.625 99.5703 24.7578 99.625L24.752 100.961Z" fill="#4967EE"/>
<path d="M28.3262 106.117C27.4238 106.117 26.6914 105.834 26.1289 105.268C25.5703 104.697 25.291 103.939 25.291 102.994V102.818C25.291 102.186 25.4121 101.621 25.6543 101.125C25.9004 100.625 26.2441 100.236 26.6855 99.959C27.127 99.6816 27.6191 99.543 28.1621 99.543C29.0254 99.543 29.6914 99.8184 30.1602 100.369C30.6328 100.92 30.8691 101.699 30.8691 102.707V103.281H26.7266C26.7695 103.805 26.9434 104.219 27.248 104.523C27.5566 104.828 27.9434 104.98 28.4082 104.98C29.0605 104.98 29.5918 104.717 30.002 104.189L30.7695 104.922C30.5156 105.301 30.1758 105.596 29.75 105.807C29.3281 106.014 28.8535 106.117 28.3262 106.117ZM28.1562 100.686C27.7656 100.686 27.4492 100.822 27.207 101.096C26.9688 101.369 26.8164 101.75 26.75 102.238H29.4629V102.133C29.4316 101.656 29.3047 101.297 29.082 101.055C28.8594 100.809 28.5508 100.686 28.1562 100.686Z" fill="#4967EE"/>
<path d="M37.1855 103.961L38.4746 99.6602H39.9922L37.4727 106.961C37.0859 108.027 36.4297 108.561 35.5039 108.561C35.2969 108.561 35.0684 108.525 34.8184 108.455V107.354L35.0879 107.371C35.4473 107.371 35.7168 107.305 35.8965 107.172C36.0801 107.043 36.2246 106.824 36.3301 106.516L36.5352 105.971L34.3086 99.6602H35.8438L37.1855 103.961Z" fill="#4967EE"/>
<path d="M40.4551 102.771C40.4551 102.15 40.5781 101.592 40.8242 101.096C41.0703 100.596 41.416 100.213 41.8613 99.9473C42.3066 99.6777 42.8184 99.543 43.3965 99.543C44.252 99.543 44.9453 99.8184 45.4766 100.369C46.0117 100.92 46.3008 101.65 46.3438 102.561L46.3496 102.895C46.3496 103.52 46.2285 104.078 45.9863 104.57C45.748 105.062 45.4043 105.443 44.9551 105.713C44.5098 105.982 43.9941 106.117 43.4082 106.117C42.5137 106.117 41.7969 105.82 41.2578 105.227C40.7227 104.629 40.4551 103.834 40.4551 102.842V102.771ZM41.8789 102.895C41.8789 103.547 42.0137 104.059 42.2832 104.43C42.5527 104.797 42.9277 104.98 43.4082 104.98C43.8887 104.98 44.2617 104.793 44.5273 104.418C44.7969 104.043 44.9316 103.494 44.9316 102.771C44.9316 102.131 44.793 101.623 44.5156 101.248C44.2422 100.873 43.8691 100.686 43.3965 100.686C42.9316 100.686 42.5625 100.871 42.2891 101.242C42.0156 101.609 41.8789 102.16 41.8789 102.895Z" fill="#4967EE"/>
<path d="M51.3945 105.379C50.9766 105.871 50.3828 106.117 49.6133 106.117C48.9258 106.117 48.4043 105.916 48.0488 105.514C47.6973 105.111 47.5215 104.529 47.5215 103.768V99.6602H48.9453V103.75C48.9453 104.555 49.2793 104.957 49.9473 104.957C50.6387 104.957 51.1055 104.709 51.3477 104.213V99.6602H52.7715V106H51.4297L51.3945 105.379Z" fill="#4967EE"/>
<path d="M57.541 100.961C57.3535 100.93 57.1602 100.914 56.9609 100.914C56.3086 100.914 55.8691 101.164 55.6426 101.664V106H54.2188V99.6602H55.5781L55.6133 100.369C55.957 99.8184 56.4336 99.543 57.043 99.543C57.2461 99.543 57.4141 99.5703 57.5469 99.625L57.541 100.961Z" fill="#4967EE"/>
<path d="M13.3789 120.98C13.7344 120.98 14.0293 120.877 14.2637 120.67C14.498 120.463 14.623 120.207 14.6387 119.902H15.9805C15.9648 120.297 15.8418 120.666 15.6113 121.01C15.3809 121.35 15.0684 121.619 14.6738 121.818C14.2793 122.018 13.8535 122.117 13.3965 122.117C12.5098 122.117 11.8066 121.83 11.2871 121.256C10.7676 120.682 10.5078 119.889 10.5078 118.877V118.73C10.5078 117.766 10.7656 116.994 11.2812 116.416C11.7969 115.834 12.5 115.543 13.3906 115.543C14.1445 115.543 14.7578 115.764 15.2305 116.205C15.707 116.643 15.957 117.219 15.9805 117.934H14.6387C14.623 117.57 14.498 117.271 14.2637 117.037C14.0332 116.803 13.7383 116.686 13.3789 116.686C12.918 116.686 12.5625 116.854 12.3125 117.189C12.0625 117.521 11.9355 118.027 11.9316 118.707V118.936C11.9316 119.623 12.0547 120.137 12.3008 120.477C12.5508 120.812 12.9102 120.98 13.3789 120.98Z" fill="#4967EE"/>
<path d="M16.7891 118.771C16.7891 118.15 16.9121 117.592 17.1582 117.096C17.4043 116.596 17.75 116.213 18.1953 115.947C18.6406 115.678 19.1523 115.543 19.7305 115.543C20.5859 115.543 21.2793 115.818 21.8105 116.369C22.3457 116.92 22.6348 117.65 22.6777 118.561L22.6836 118.895C22.6836 119.52 22.5625 120.078 22.3203 120.57C22.082 121.062 21.7383 121.443 21.2891 121.713C20.8438 121.982 20.3281 122.117 19.7422 122.117C18.8477 122.117 18.1309 121.82 17.5918 121.227C17.0566 120.629 16.7891 119.834 16.7891 118.842V118.771ZM18.2129 118.895C18.2129 119.547 18.3477 120.059 18.6172 120.43C18.8867 120.797 19.2617 120.98 19.7422 120.98C20.2227 120.98 20.5957 120.793 20.8613 120.418C21.1309 120.043 21.2656 119.494 21.2656 118.771C21.2656 118.131 21.127 117.623 20.8496 117.248C20.5762 116.873 20.2031 116.686 19.7305 116.686C19.2656 116.686 18.8965 116.871 18.623 117.242C18.3496 117.609 18.2129 118.16 18.2129 118.895Z" fill="#4967EE"/>
<path d="M25.209 115.66L25.25 116.393C25.7188 115.826 26.334 115.543 27.0957 115.543C28.416 115.543 29.0879 116.299 29.1113 117.811V122H27.6875V117.893C27.6875 117.49 27.5996 117.193 27.4238 117.002C27.252 116.807 26.9688 116.709 26.5742 116.709C26 116.709 25.5723 116.969 25.291 117.488V122H23.8672V115.66H25.209Z" fill="#4967EE"/>
<path d="M32.3516 114.119V115.66H33.4707V116.715H32.3516V120.254C32.3516 120.496 32.3984 120.672 32.4922 120.781C32.5898 120.887 32.7617 120.939 33.0078 120.939C33.1719 120.939 33.3379 120.92 33.5059 120.881V121.982C33.1816 122.072 32.8691 122.117 32.5684 122.117C31.4746 122.117 30.9277 121.514 30.9277 120.307V116.715H29.8848V115.66H30.9277V114.119H32.3516Z" fill="#4967EE"/>
<path d="M37.3555 122.117C36.4531 122.117 35.7207 121.834 35.1582 121.268C34.5996 120.697 34.3203 119.939 34.3203 118.994V118.818C34.3203 118.186 34.4414 117.621 34.6836 117.125C34.9297 116.625 35.2734 116.236 35.7148 115.959C36.1562 115.682 36.6484 115.543 37.1914 115.543C38.0547 115.543 38.7207 115.818 39.1895 116.369C39.6621 116.92 39.8984 117.699 39.8984 118.707V119.281H35.7559C35.7988 119.805 35.9727 120.219 36.2773 120.523C36.5859 120.828 36.9727 120.98 37.4375 120.98C38.0898 120.98 38.6211 120.717 39.0312 120.189L39.7988 120.922C39.5449 121.301 39.2051 121.596 38.7793 121.807C38.3574 122.014 37.8828 122.117 37.3555 122.117ZM37.1855 116.686C36.7949 116.686 36.4785 116.822 36.2363 117.096C35.998 117.369 35.8457 117.75 35.7793 118.238H38.4922V118.133C38.4609 117.656 38.334 117.297 38.1113 117.055C37.8887 116.809 37.5801 116.686 37.1855 116.686Z" fill="#4967EE"/>
<path d="M42.3301 115.66L42.3711 116.393C42.8398 115.826 43.4551 115.543 44.2168 115.543C45.5371 115.543 46.209 116.299 46.2324 117.811V122H44.8086V117.893C44.8086 117.49 44.7207 117.193 44.5449 117.002C44.373 116.807 44.0898 116.709 43.6953 116.709C43.1211 116.709 42.6934 116.969 42.4121 117.488V122H40.9883V115.66H42.3301Z" fill="#4967EE"/>
<path d="M49.4727 114.119V115.66H50.5918V116.715H49.4727V120.254C49.4727 120.496 49.5195 120.672 49.6133 120.781C49.7109 120.887 49.8828 120.939 50.1289 120.939C50.293 120.939 50.459 120.92 50.627 120.881V121.982C50.3027 122.072 49.9902 122.117 49.6895 122.117C48.5957 122.117 48.0488 121.514 48.0488 120.307V116.715H47.0059V115.66H48.0488V114.119H49.4727Z" fill="#4967EE"/>
<path d="M129.77 155.223C129.684 156.133 129.348 156.844 128.762 157.355C128.176 157.863 127.396 158.117 126.424 158.117C125.744 158.117 125.145 157.957 124.625 157.637C124.109 157.312 123.711 156.854 123.43 156.26C123.148 155.666 123.002 154.977 122.99 154.191V153.395C122.99 152.59 123.133 151.881 123.418 151.268C123.703 150.654 124.111 150.182 124.643 149.85C125.178 149.518 125.795 149.352 126.494 149.352C127.436 149.352 128.193 149.607 128.768 150.119C129.342 150.631 129.676 151.354 129.77 152.287H128.293C128.223 151.674 128.043 151.232 127.754 150.963C127.469 150.689 127.049 150.553 126.494 150.553C125.85 150.553 125.354 150.789 125.006 151.262C124.662 151.73 124.486 152.42 124.479 153.33V154.086C124.479 155.008 124.643 155.711 124.971 156.195C125.303 156.68 125.787 156.922 126.424 156.922C127.006 156.922 127.443 156.791 127.736 156.529C128.029 156.268 128.215 155.832 128.293 155.223H129.77Z" fill="#4967EE"/>
<path d="M134.803 157.379C134.385 157.871 133.791 158.117 133.021 158.117C132.334 158.117 131.812 157.916 131.457 157.514C131.105 157.111 130.93 156.529 130.93 155.768V151.66H132.354V155.75C132.354 156.555 132.688 156.957 133.355 156.957C134.047 156.957 134.514 156.709 134.756 156.213V151.66H136.18V158H134.838L134.803 157.379Z" fill="#4967EE"/>
<path d="M141.184 156.277C141.184 156.023 141.078 155.83 140.867 155.697C140.66 155.564 140.314 155.447 139.83 155.346C139.346 155.244 138.941 155.115 138.617 154.959C137.906 154.615 137.551 154.117 137.551 153.465C137.551 152.918 137.781 152.461 138.242 152.094C138.703 151.727 139.289 151.543 140 151.543C140.758 151.543 141.369 151.73 141.834 152.105C142.303 152.48 142.537 152.967 142.537 153.564H141.113C141.113 153.291 141.012 153.064 140.809 152.885C140.605 152.701 140.336 152.609 140 152.609C139.688 152.609 139.432 152.682 139.232 152.826C139.037 152.971 138.939 153.164 138.939 153.406C138.939 153.625 139.031 153.795 139.215 153.916C139.398 154.037 139.77 154.16 140.328 154.285C140.887 154.406 141.324 154.553 141.641 154.725C141.961 154.893 142.197 155.096 142.35 155.334C142.506 155.572 142.584 155.861 142.584 156.201C142.584 156.771 142.348 157.234 141.875 157.59C141.402 157.941 140.783 158.117 140.018 158.117C139.498 158.117 139.035 158.023 138.629 157.836C138.223 157.648 137.906 157.391 137.68 157.062C137.453 156.734 137.34 156.381 137.34 156.002H138.723C138.742 156.338 138.869 156.598 139.104 156.781C139.338 156.961 139.648 157.051 140.035 157.051C140.41 157.051 140.695 156.98 140.891 156.84C141.086 156.695 141.184 156.508 141.184 156.277Z" fill="#4967EE"/>
<path d="M145.613 150.119V151.66H146.732V152.715H145.613V156.254C145.613 156.496 145.66 156.672 145.754 156.781C145.852 156.887 146.023 156.939 146.27 156.939C146.434 156.939 146.6 156.92 146.768 156.881V157.982C146.443 158.072 146.131 158.117 145.83 158.117C144.736 158.117 144.189 157.514 144.189 156.307V152.715H143.146V151.66H144.189V150.119H145.613Z" fill="#4967EE"/>
<path d="M147.383 154.771C147.383 154.15 147.506 153.592 147.752 153.096C147.998 152.596 148.344 152.213 148.789 151.947C149.234 151.678 149.746 151.543 150.324 151.543C151.18 151.543 151.873 151.818 152.404 152.369C152.939 152.92 153.229 153.65 153.271 154.561L153.277 154.895C153.277 155.52 153.156 156.078 152.914 156.57C152.676 157.062 152.332 157.443 151.883 157.713C151.438 157.982 150.922 158.117 150.336 158.117C149.441 158.117 148.725 157.82 148.186 157.227C147.65 156.629 147.383 155.834 147.383 154.842V154.771ZM148.807 154.895C148.807 155.547 148.941 156.059 149.211 156.43C149.48 156.797 149.855 156.98 150.336 156.98C150.816 156.98 151.189 156.793 151.455 156.418C151.725 156.043 151.859 155.494 151.859 154.771C151.859 154.131 151.721 153.623 151.443 153.248C151.17 152.873 150.797 152.686 150.324 152.686C149.859 152.686 149.49 152.871 149.217 153.242C148.943 153.609 148.807 154.16 148.807 154.895Z" fill="#4967EE"/>
<path d="M155.82 151.66L155.861 152.322C156.307 151.803 156.916 151.543 157.689 151.543C158.537 151.543 159.117 151.867 159.43 152.516C159.891 151.867 160.539 151.543 161.375 151.543C162.074 151.543 162.594 151.736 162.934 152.123C163.277 152.51 163.453 153.08 163.461 153.834V158H162.037V153.875C162.037 153.473 161.949 153.178 161.773 152.99C161.598 152.803 161.307 152.709 160.9 152.709C160.576 152.709 160.311 152.797 160.104 152.973C159.9 153.145 159.758 153.371 159.676 153.652L159.682 158H158.258V153.828C158.238 153.082 157.857 152.709 157.115 152.709C156.545 152.709 156.141 152.941 155.902 153.406V158H154.479V151.66H155.82Z" fill="#4967EE"/>
<path d="M166.438 158H165.014V151.66H166.438V158ZM164.926 150.014C164.926 149.795 164.994 149.613 165.131 149.469C165.271 149.324 165.471 149.252 165.729 149.252C165.986 149.252 166.186 149.324 166.326 149.469C166.467 149.613 166.537 149.795 166.537 150.014C166.537 150.229 166.467 150.408 166.326 150.553C166.186 150.693 165.986 150.764 165.729 150.764C165.471 150.764 165.271 150.693 165.131 150.553C164.994 150.408 164.926 150.229 164.926 150.014Z" fill="#4967EE"/>
<path d="M169.514 156.863H172.889V158H167.744V157.068L170.961 152.809H167.803V151.66H172.766V152.562L169.514 156.863Z" fill="#4967EE"/>
<path d="M176.727 158.117C175.824 158.117 175.092 157.834 174.529 157.268C173.971 156.697 173.691 155.939 173.691 154.994V154.818C173.691 154.186 173.812 153.621 174.055 153.125C174.301 152.625 174.645 152.236 175.086 151.959C175.527 151.682 176.02 151.543 176.562 151.543C177.426 151.543 178.092 151.818 178.561 152.369C179.033 152.92 179.27 153.699 179.27 154.707V155.281H175.127C175.17 155.805 175.344 156.219 175.648 156.523C175.957 156.828 176.344 156.98 176.809 156.98C177.461 156.98 177.992 156.717 178.402 156.189L179.17 156.922C178.916 157.301 178.576 157.596 178.15 157.807C177.729 158.014 177.254 158.117 176.727 158.117ZM176.557 152.686C176.166 152.686 175.85 152.822 175.607 153.096C175.369 153.369 175.217 153.75 175.15 154.238H177.863V154.133C177.832 153.656 177.705 153.297 177.482 153.055C177.26 152.809 176.951 152.686 176.557 152.686Z" fill="#4967EE"/>
<path d="M185.586 155.961L186.875 151.66H188.393L185.873 158.961C185.486 160.027 184.83 160.561 183.904 160.561C183.697 160.561 183.469 160.525 183.219 160.455V159.354L183.488 159.371C183.848 159.371 184.117 159.305 184.297 159.172C184.48 159.043 184.625 158.824 184.73 158.516L184.936 157.971L182.709 151.66H184.244L185.586 155.961Z" fill="#4967EE"/>
<path d="M188.855 154.771C188.855 154.15 188.979 153.592 189.225 153.096C189.471 152.596 189.816 152.213 190.262 151.947C190.707 151.678 191.219 151.543 191.797 151.543C192.652 151.543 193.346 151.818 193.877 152.369C194.412 152.92 194.701 153.65 194.744 154.561L194.75 154.895C194.75 155.52 194.629 156.078 194.387 156.57C194.148 157.062 193.805 157.443 193.355 157.713C192.91 157.982 192.395 158.117 191.809 158.117C190.914 158.117 190.197 157.82 189.658 157.227C189.123 156.629 188.855 155.834 188.855 154.842V154.771ZM190.279 154.895C190.279 155.547 190.414 156.059 190.684 156.43C190.953 156.797 191.328 156.98 191.809 156.98C192.289 156.98 192.662 156.793 192.928 156.418C193.197 156.043 193.332 155.494 193.332 154.771C193.332 154.131 193.193 153.623 192.916 153.248C192.643 152.873 192.27 152.686 191.797 152.686C191.332 152.686 190.963 152.871 190.689 153.242C190.416 153.609 190.279 154.16 190.279 154.895Z" fill="#4967EE"/>
<path d="M199.795 157.379C199.377 157.871 198.783 158.117 198.014 158.117C197.326 158.117 196.805 157.916 196.449 157.514C196.098 157.111 195.922 156.529 195.922 155.768V151.66H197.346V155.75C197.346 156.555 197.68 156.957 198.348 156.957C199.039 156.957 199.506 156.709 199.748 156.213V151.66H201.172V158H199.83L199.795 157.379Z" fill="#4967EE"/>
<path d="M205.941 152.961C205.754 152.93 205.561 152.914 205.361 152.914C204.709 152.914 204.27 153.164 204.043 153.664V158H202.619V151.66H203.979L204.014 152.369C204.357 151.818 204.834 151.543 205.443 151.543C205.646 151.543 205.814 151.57 205.947 151.625L205.941 152.961Z" fill="#4967EE"/>
<path d="M215.381 154.895C215.381 155.875 215.158 156.658 214.713 157.244C214.268 157.826 213.67 158.117 212.92 158.117C212.225 158.117 211.668 157.889 211.25 157.432V160.438H209.826V151.66H211.139L211.197 152.305C211.615 151.797 212.184 151.543 212.902 151.543C213.676 151.543 214.281 151.832 214.719 152.41C215.16 152.984 215.381 153.783 215.381 154.807V154.895ZM213.963 154.771C213.963 154.139 213.836 153.637 213.582 153.266C213.332 152.895 212.973 152.709 212.504 152.709C211.922 152.709 211.504 152.949 211.25 153.43V156.242C211.508 156.734 211.93 156.98 212.516 156.98C212.969 156.98 213.322 156.799 213.576 156.436C213.834 156.068 213.963 155.514 213.963 154.771Z" fill="#4967EE"/>
<path d="M220.379 158C220.316 157.879 220.262 157.682 220.215 157.408C219.762 157.881 219.207 158.117 218.551 158.117C217.914 158.117 217.395 157.936 216.992 157.572C216.59 157.209 216.389 156.76 216.389 156.225C216.389 155.549 216.639 155.031 217.139 154.672C217.643 154.309 218.361 154.127 219.295 154.127H220.168V153.711C220.168 153.383 220.076 153.121 219.893 152.926C219.709 152.727 219.43 152.627 219.055 152.627C218.73 152.627 218.465 152.709 218.258 152.873C218.051 153.033 217.947 153.238 217.947 153.488H216.523C216.523 153.141 216.639 152.816 216.869 152.516C217.1 152.211 217.412 151.973 217.807 151.801C218.205 151.629 218.648 151.543 219.137 151.543C219.879 151.543 220.471 151.73 220.912 152.105C221.354 152.477 221.58 153 221.592 153.676V156.535C221.592 157.105 221.672 157.561 221.832 157.9V158H220.379ZM218.814 156.975C219.096 156.975 219.359 156.906 219.605 156.77C219.855 156.633 220.043 156.449 220.168 156.219V155.023H219.4C218.873 155.023 218.477 155.115 218.211 155.299C217.945 155.482 217.812 155.742 217.812 156.078C217.812 156.352 217.902 156.57 218.082 156.734C218.266 156.895 218.51 156.975 218.814 156.975Z" fill="#4967EE"/>
<path d="M222.834 154.783C222.834 153.799 223.064 153.014 223.525 152.428C223.99 151.838 224.605 151.543 225.371 151.543C226.094 151.543 226.662 151.795 227.076 152.299L227.141 151.66H228.424V157.807C228.424 158.639 228.164 159.295 227.645 159.775C227.129 160.256 226.432 160.496 225.553 160.496C225.088 160.496 224.633 160.398 224.188 160.203C223.746 160.012 223.41 159.76 223.18 159.447L223.854 158.592C224.291 159.111 224.83 159.371 225.471 159.371C225.943 159.371 226.316 159.242 226.59 158.984C226.863 158.73 227 158.355 227 157.859V157.432C226.59 157.889 226.043 158.117 225.359 158.117C224.617 158.117 224.01 157.822 223.537 157.232C223.068 156.643 222.834 155.826 222.834 154.783ZM224.252 154.906C224.252 155.543 224.381 156.045 224.639 156.412C224.9 156.775 225.262 156.957 225.723 156.957C226.297 156.957 226.723 156.711 227 156.219V153.43C226.73 152.949 226.309 152.709 225.734 152.709C225.266 152.709 224.9 152.895 224.639 153.266C224.381 153.637 224.252 154.184 224.252 154.906Z" fill="#4967EE"/>
<path d="M232.684 158.117C231.781 158.117 231.049 157.834 230.486 157.268C229.928 156.697 229.648 155.939 229.648 154.994V154.818C229.648 154.186 229.77 153.621 230.012 153.125C230.258 152.625 230.602 152.236 231.043 151.959C231.484 151.682 231.977 151.543 232.52 151.543C233.383 151.543 234.049 151.818 234.518 152.369C234.99 152.92 235.227 153.699 235.227 154.707V155.281H231.084C231.127 155.805 231.301 156.219 231.605 156.523C231.914 156.828 232.301 156.98 232.766 156.98C233.418 156.98 233.949 156.717 234.359 156.189L235.127 156.922C234.873 157.301 234.533 157.596 234.107 157.807C233.686 158.014 233.211 158.117 232.684 158.117ZM232.514 152.686C232.123 152.686 231.807 152.822 231.564 153.096C231.326 153.369 231.174 153.75 231.107 154.238H233.82V154.133C233.789 153.656 233.662 153.297 233.439 153.055C233.217 152.809 232.908 152.686 232.514 152.686Z" fill="#4967EE"/>
<defs>
<filter id="filter0_d" x="67.8838" y="31.7954" width="107.232" height="107.232" filterUnits="userSpaceOnUse" color-interpolation-filters="sRGB">
<feFlood flood-opacity="0" result="BackgroundImageFix"/>
<feColorMatrix in="SourceAlpha" type="matrix" values="0 0 0 0 0 0 0 0 0 0 0 0 0 0 0 0 0 0 127 0" result="hardAlpha"/>
<feOffset dy="0.911619"/>
<feGaussianBlur stdDeviation="4.5581"/>
<feColorMatrix type="matrix" values="0 0 0 0 0 0 0 0 0 0 0 0 0 0 0 0 0 0 0.25 0"/>
<feBlend mode="normal" in2="BackgroundImageFix" result="effect1_dropShadow"/>
<feBlend mode="normal" in="SourceGraphic" in2="effect1_dropShadow" result="shape"/>
</filter>
</defs>
</svg>
