<svg width="321" height="210" viewBox="0 0 321 210" fill="none" xmlns="http://www.w3.org/2000/svg">
<circle cx="167.569" cy="100.569" r="95.5694" fill="#EDF0FE"/>
<path d="M156.326 187.803C156.326 187.428 156.193 187.139 155.928 186.936C155.666 186.732 155.191 186.527 154.504 186.32C153.816 186.113 153.27 185.883 152.863 185.629C152.086 185.141 151.697 184.504 151.697 183.719C151.697 183.031 151.977 182.465 152.535 182.02C153.098 181.574 153.826 181.352 154.721 181.352C155.314 181.352 155.844 181.461 156.309 181.68C156.773 181.898 157.139 182.211 157.404 182.617C157.67 183.02 157.803 183.467 157.803 183.959H156.326C156.326 183.514 156.186 183.166 155.904 182.916C155.627 182.662 155.229 182.535 154.709 182.535C154.225 182.535 153.848 182.639 153.578 182.846C153.312 183.053 153.18 183.342 153.18 183.713C153.18 184.025 153.324 184.287 153.613 184.498C153.902 184.705 154.379 184.908 155.043 185.107C155.707 185.303 156.24 185.527 156.643 185.781C157.045 186.031 157.34 186.32 157.527 186.648C157.715 186.973 157.809 187.354 157.809 187.791C157.809 188.502 157.535 189.068 156.988 189.49C156.445 189.908 155.707 190.117 154.773 190.117C154.156 190.117 153.588 190.004 153.068 189.777C152.553 189.547 152.15 189.23 151.861 188.828C151.576 188.426 151.434 187.957 151.434 187.422H152.916C152.916 187.906 153.076 188.281 153.396 188.547C153.717 188.812 154.176 188.945 154.773 188.945C155.289 188.945 155.676 188.842 155.934 188.635C156.195 188.424 156.326 188.146 156.326 187.803Z" fill="#4967EE"/>
<path d="M160.375 184.352C160.84 183.812 161.428 183.543 162.139 183.543C163.49 183.543 164.176 184.314 164.195 185.857V190H162.771V185.91C162.771 185.473 162.676 185.164 162.484 184.984C162.297 184.801 162.02 184.709 161.652 184.709C161.082 184.709 160.656 184.963 160.375 185.471V190H158.951V181H160.375V184.352Z" fill="#4967EE"/>
<path d="M165.373 186.771C165.373 186.15 165.496 185.592 165.742 185.096C165.988 184.596 166.334 184.213 166.779 183.947C167.225 183.678 167.736 183.543 168.314 183.543C169.17 183.543 169.863 183.818 170.395 184.369C170.93 184.92 171.219 185.65 171.262 186.561L171.268 186.895C171.268 187.52 171.146 188.078 170.904 188.57C170.666 189.062 170.322 189.443 169.873 189.713C169.428 189.982 168.912 190.117 168.326 190.117C167.432 190.117 166.715 189.82 166.176 189.227C165.641 188.629 165.373 187.834 165.373 186.842V186.771ZM166.797 186.895C166.797 187.547 166.932 188.059 167.201 188.43C167.471 188.797 167.846 188.98 168.326 188.98C168.807 188.98 169.18 188.793 169.445 188.418C169.715 188.043 169.85 187.494 169.85 186.771C169.85 186.131 169.711 185.623 169.434 185.248C169.16 184.873 168.787 184.686 168.314 184.686C167.85 184.686 167.48 184.871 167.207 185.242C166.934 185.609 166.797 186.16 166.797 186.895Z" fill="#4967EE"/>
<path d="M178.041 188.037L179.049 183.66H180.438L178.709 190H177.537L176.178 185.646L174.842 190H173.67L171.936 183.66H173.324L174.35 187.99L175.65 183.66H176.723L178.041 188.037Z" fill="#4967EE"/>
<path d="M183.994 188.98C184.35 188.98 184.645 188.877 184.879 188.67C185.113 188.463 185.238 188.207 185.254 187.902H186.596C186.58 188.297 186.457 188.666 186.227 189.01C185.996 189.35 185.684 189.619 185.289 189.818C184.895 190.018 184.469 190.117 184.012 190.117C183.125 190.117 182.422 189.83 181.902 189.256C181.383 188.682 181.123 187.889 181.123 186.877V186.73C181.123 185.766 181.381 184.994 181.896 184.416C182.412 183.834 183.115 183.543 184.006 183.543C184.76 183.543 185.373 183.764 185.846 184.205C186.322 184.643 186.572 185.219 186.596 185.934H185.254C185.238 185.57 185.113 185.271 184.879 185.037C184.648 184.803 184.354 184.686 183.994 184.686C183.533 184.686 183.178 184.854 182.928 185.189C182.678 185.521 182.551 186.027 182.547 186.707V186.936C182.547 187.623 182.67 188.137 182.916 188.477C183.166 188.812 183.525 188.98 183.994 188.98Z" fill="#4967EE"/>
<path d="M191.459 190C191.396 189.879 191.342 189.682 191.295 189.408C190.842 189.881 190.287 190.117 189.631 190.117C188.994 190.117 188.475 189.936 188.072 189.572C187.67 189.209 187.469 188.76 187.469 188.225C187.469 187.549 187.719 187.031 188.219 186.672C188.723 186.309 189.441 186.127 190.375 186.127H191.248V185.711C191.248 185.383 191.156 185.121 190.973 184.926C190.789 184.727 190.51 184.627 190.135 184.627C189.811 184.627 189.545 184.709 189.338 184.873C189.131 185.033 189.027 185.238 189.027 185.488H187.604C187.604 185.141 187.719 184.816 187.949 184.516C188.18 184.211 188.492 183.973 188.887 183.801C189.285 183.629 189.729 183.543 190.217 183.543C190.959 183.543 191.551 183.73 191.992 184.105C192.434 184.477 192.66 185 192.672 185.676V188.535C192.672 189.105 192.752 189.561 192.912 189.9V190H191.459ZM189.895 188.975C190.176 188.975 190.439 188.906 190.686 188.77C190.936 188.633 191.123 188.449 191.248 188.219V187.023H190.48C189.953 187.023 189.557 187.115 189.291 187.299C189.025 187.482 188.893 187.742 188.893 188.078C188.893 188.352 188.982 188.57 189.162 188.734C189.346 188.895 189.59 188.975 189.895 188.975Z" fill="#4967EE"/>
<path d="M197.717 188.277C197.717 188.023 197.611 187.83 197.4 187.697C197.193 187.564 196.848 187.447 196.363 187.346C195.879 187.244 195.475 187.115 195.15 186.959C194.439 186.615 194.084 186.117 194.084 185.465C194.084 184.918 194.314 184.461 194.775 184.094C195.236 183.727 195.822 183.543 196.533 183.543C197.291 183.543 197.902 183.73 198.367 184.105C198.836 184.48 199.07 184.967 199.07 185.564H197.646C197.646 185.291 197.545 185.064 197.342 184.885C197.139 184.701 196.869 184.609 196.533 184.609C196.221 184.609 195.965 184.682 195.766 184.826C195.57 184.971 195.473 185.164 195.473 185.406C195.473 185.625 195.564 185.795 195.748 185.916C195.932 186.037 196.303 186.16 196.861 186.285C197.42 186.406 197.857 186.553 198.174 186.725C198.494 186.893 198.73 187.096 198.883 187.334C199.039 187.572 199.117 187.861 199.117 188.201C199.117 188.771 198.881 189.234 198.408 189.59C197.936 189.941 197.316 190.117 196.551 190.117C196.031 190.117 195.568 190.023 195.162 189.836C194.756 189.648 194.439 189.391 194.213 189.062C193.986 188.734 193.873 188.381 193.873 188.002H195.256C195.275 188.338 195.402 188.598 195.637 188.781C195.871 188.961 196.182 189.051 196.568 189.051C196.943 189.051 197.229 188.98 197.424 188.84C197.619 188.695 197.717 188.508 197.717 188.277Z" fill="#4967EE"/>
<path d="M203.154 190.117C202.252 190.117 201.52 189.834 200.957 189.268C200.398 188.697 200.119 187.939 200.119 186.994V186.818C200.119 186.186 200.24 185.621 200.482 185.125C200.729 184.625 201.072 184.236 201.514 183.959C201.955 183.682 202.447 183.543 202.99 183.543C203.854 183.543 204.52 183.818 204.988 184.369C205.461 184.92 205.697 185.699 205.697 186.707V187.281H201.555C201.598 187.805 201.771 188.219 202.076 188.523C202.385 188.828 202.771 188.98 203.236 188.98C203.889 188.98 204.42 188.717 204.83 188.189L205.598 188.922C205.344 189.301 205.004 189.596 204.578 189.807C204.156 190.014 203.682 190.117 203.154 190.117ZM202.984 184.686C202.594 184.686 202.277 184.822 202.035 185.096C201.797 185.369 201.645 185.75 201.578 186.238H204.291V186.133C204.26 185.656 204.133 185.297 203.91 185.055C203.688 184.809 203.379 184.686 202.984 184.686Z" fill="#4967EE"/>
<path d="M212.014 187.961L213.303 183.66H214.82L212.301 190.961C211.914 192.027 211.258 192.561 210.332 192.561C210.125 192.561 209.896 192.525 209.646 192.455V191.354L209.916 191.371C210.275 191.371 210.545 191.305 210.725 191.172C210.908 191.043 211.053 190.824 211.158 190.516L211.363 189.971L209.137 183.66H210.672L212.014 187.961Z" fill="#4967EE"/>
<path d="M215.283 186.771C215.283 186.15 215.406 185.592 215.652 185.096C215.898 184.596 216.244 184.213 216.689 183.947C217.135 183.678 217.646 183.543 218.225 183.543C219.08 183.543 219.773 183.818 220.305 184.369C220.84 184.92 221.129 185.65 221.172 186.561L221.178 186.895C221.178 187.52 221.057 188.078 220.814 188.57C220.576 189.062 220.232 189.443 219.783 189.713C219.338 189.982 218.822 190.117 218.236 190.117C217.342 190.117 216.625 189.82 216.086 189.227C215.551 188.629 215.283 187.834 215.283 186.842V186.771ZM216.707 186.895C216.707 187.547 216.842 188.059 217.111 188.43C217.381 188.797 217.756 188.98 218.236 188.98C218.717 188.98 219.09 188.793 219.355 188.418C219.625 188.043 219.76 187.494 219.76 186.771C219.76 186.131 219.621 185.623 219.344 185.248C219.07 184.873 218.697 184.686 218.225 184.686C217.76 184.686 217.391 184.871 217.117 185.242C216.844 185.609 216.707 186.16 216.707 186.895Z" fill="#4967EE"/>
<path d="M226.223 189.379C225.805 189.871 225.211 190.117 224.441 190.117C223.754 190.117 223.232 189.916 222.877 189.514C222.525 189.111 222.35 188.529 222.35 187.768V183.66H223.773V187.75C223.773 188.555 224.107 188.957 224.775 188.957C225.467 188.957 225.934 188.709 226.176 188.213V183.66H227.6V190H226.258L226.223 189.379Z" fill="#4967EE"/>
<path d="M232.369 184.961C232.182 184.93 231.988 184.914 231.789 184.914C231.137 184.914 230.697 185.164 230.471 185.664V190H229.047V183.66H230.406L230.441 184.369C230.785 183.818 231.262 183.543 231.871 183.543C232.074 183.543 232.242 183.57 232.375 183.625L232.369 184.961Z" fill="#4967EE"/>
<path d="M238.492 188.195L239.834 183.66H241.305L239.107 190H237.871L235.656 183.66H237.133L238.492 188.195Z" fill="#4967EE"/>
<path d="M243.713 190H242.289V183.66H243.713V190ZM242.201 182.014C242.201 181.795 242.27 181.613 242.406 181.469C242.547 181.324 242.746 181.252 243.004 181.252C243.262 181.252 243.461 181.324 243.602 181.469C243.742 181.613 243.812 181.795 243.812 182.014C243.812 182.229 243.742 182.408 243.602 182.553C243.461 182.693 243.262 182.764 243.004 182.764C242.746 182.764 242.547 182.693 242.406 182.553C242.27 182.408 242.201 182.229 242.201 182.014Z" fill="#4967EE"/>
<path d="M245.002 186.783C245.002 185.807 245.229 185.023 245.682 184.434C246.135 183.84 246.742 183.543 247.504 183.543C248.176 183.543 248.719 183.777 249.133 184.246V181H250.557V190H249.268L249.197 189.344C248.771 189.859 248.203 190.117 247.492 190.117C246.75 190.117 246.148 189.818 245.688 189.221C245.23 188.623 245.002 187.811 245.002 186.783ZM246.426 186.906C246.426 187.551 246.549 188.055 246.795 188.418C247.045 188.777 247.398 188.957 247.855 188.957C248.438 188.957 248.863 188.697 249.133 188.178V185.471C248.871 184.963 248.449 184.709 247.867 184.709C247.406 184.709 247.051 184.893 246.801 185.26C246.551 185.623 246.426 186.172 246.426 186.906Z" fill="#4967EE"/>
<path d="M254.834 190.117C253.932 190.117 253.199 189.834 252.637 189.268C252.078 188.697 251.799 187.939 251.799 186.994V186.818C251.799 186.186 251.92 185.621 252.162 185.125C252.408 184.625 252.752 184.236 253.193 183.959C253.635 183.682 254.127 183.543 254.67 183.543C255.533 183.543 256.199 183.818 256.668 184.369C257.141 184.92 257.377 185.699 257.377 186.707V187.281H253.234C253.277 187.805 253.451 188.219 253.756 188.523C254.064 188.828 254.451 188.98 254.916 188.98C255.568 188.98 256.1 188.717 256.51 188.189L257.277 188.922C257.023 189.301 256.684 189.596 256.258 189.807C255.836 190.014 255.361 190.117 254.834 190.117ZM254.664 184.686C254.273 184.686 253.957 184.822 253.715 185.096C253.477 185.369 253.324 185.75 253.258 186.238H255.971V186.133C255.939 185.656 255.812 185.297 255.59 185.055C255.367 184.809 255.059 184.686 254.664 184.686Z" fill="#4967EE"/>
<path d="M258.221 186.771C258.221 186.15 258.344 185.592 258.59 185.096C258.836 184.596 259.182 184.213 259.627 183.947C260.072 183.678 260.584 183.543 261.162 183.543C262.018 183.543 262.711 183.818 263.242 184.369C263.777 184.92 264.066 185.65 264.109 186.561L264.115 186.895C264.115 187.52 263.994 188.078 263.752 188.57C263.514 189.062 263.17 189.443 262.721 189.713C262.275 189.982 261.76 190.117 261.174 190.117C260.279 190.117 259.562 189.82 259.023 189.227C258.488 188.629 258.221 187.834 258.221 186.842V186.771ZM259.645 186.895C259.645 187.547 259.779 188.059 260.049 188.43C260.318 188.797 260.693 188.98 261.174 188.98C261.654 188.98 262.027 188.793 262.293 188.418C262.562 188.043 262.697 187.494 262.697 186.771C262.697 186.131 262.559 185.623 262.281 185.248C262.008 184.873 261.635 184.686 261.162 184.686C260.697 184.686 260.328 184.871 260.055 185.242C259.781 185.609 259.645 186.16 259.645 186.895Z" fill="#4967EE"/>
<path d="M268.873 188.277C268.873 188.023 268.768 187.83 268.557 187.697C268.35 187.564 268.004 187.447 267.52 187.346C267.035 187.244 266.631 187.115 266.307 186.959C265.596 186.615 265.24 186.117 265.24 185.465C265.24 184.918 265.471 184.461 265.932 184.094C266.393 183.727 266.979 183.543 267.689 183.543C268.447 183.543 269.059 183.73 269.523 184.105C269.992 184.48 270.227 184.967 270.227 185.564H268.803C268.803 185.291 268.701 185.064 268.498 184.885C268.295 184.701 268.025 184.609 267.689 184.609C267.377 184.609 267.121 184.682 266.922 184.826C266.727 184.971 266.629 185.164 266.629 185.406C266.629 185.625 266.721 185.795 266.904 185.916C267.088 186.037 267.459 186.16 268.018 186.285C268.576 186.406 269.014 186.553 269.33 186.725C269.65 186.893 269.887 187.096 270.039 187.334C270.195 187.572 270.273 187.861 270.273 188.201C270.273 188.771 270.037 189.234 269.564 189.59C269.092 189.941 268.473 190.117 267.707 190.117C267.188 190.117 266.725 190.023 266.318 189.836C265.912 189.648 265.596 189.391 265.369 189.062C265.143 188.734 265.029 188.381 265.029 188.002H266.412C266.432 188.338 266.559 188.598 266.793 188.781C267.027 188.961 267.338 189.051 267.725 189.051C268.1 189.051 268.385 188.98 268.58 188.84C268.775 188.695 268.873 188.508 268.873 188.277Z" fill="#4967EE"/>
<path d="M61.377 20.2227C61.291 21.1328 60.9551 21.8438 60.3691 22.3555C59.7832 22.8633 59.0039 23.1172 58.0312 23.1172C57.3516 23.1172 56.752 22.957 56.2324 22.6367C55.7168 22.3125 55.3184 21.8535 55.0371 21.2598C54.7559 20.666 54.6094 19.9766 54.5977 19.1914V18.3945C54.5977 17.5898 54.7402 16.8809 55.0254 16.2676C55.3105 15.6543 55.7188 15.1816 56.25 14.8496C56.7852 14.5176 57.4023 14.3516 58.1016 14.3516C59.043 14.3516 59.8008 14.6074 60.375 15.1191C60.9492 15.6309 61.2832 16.3535 61.377 17.2871H59.9004C59.8301 16.6738 59.6504 16.2324 59.3613 15.9629C59.0762 15.6895 58.6562 15.5527 58.1016 15.5527C57.457 15.5527 56.9609 15.7891 56.6133 16.2617C56.2695 16.7305 56.0938 17.4199 56.0859 18.3301V19.0859C56.0859 20.0078 56.25 20.7109 56.5781 21.1953C56.9102 21.6797 57.3945 21.9219 58.0312 21.9219C58.6133 21.9219 59.0508 21.791 59.3438 21.5293C59.6367 21.2676 59.8223 20.832 59.9004 20.2227H61.377Z" fill="#4967EE"/>
<path d="M66.4102 22.3789C65.9922 22.8711 65.3984 23.1172 64.6289 23.1172C63.9414 23.1172 63.4199 22.916 63.0645 22.5137C62.7129 22.1113 62.5371 21.5293 62.5371 20.7676V16.6602H63.9609V20.75C63.9609 21.5547 64.2949 21.957 64.9629 21.957C65.6543 21.957 66.1211 21.709 66.3633 21.2129V16.6602H67.7871V23H66.4453L66.4102 22.3789Z" fill="#4967EE"/>
<path d="M72.791 21.2773C72.791 21.0234 72.6855 20.8301 72.4746 20.6973C72.2676 20.5645 71.9219 20.4473 71.4375 20.3457C70.9531 20.2441 70.5488 20.1152 70.2246 19.959C69.5137 19.6152 69.1582 19.1172 69.1582 18.4648C69.1582 17.918 69.3887 17.4609 69.8496 17.0938C70.3105 16.7266 70.8965 16.543 71.6074 16.543C72.3652 16.543 72.9766 16.7305 73.4414 17.1055C73.9102 17.4805 74.1445 17.9668 74.1445 18.5645H72.7207C72.7207 18.291 72.6191 18.0645 72.416 17.8848C72.2129 17.7012 71.9434 17.6094 71.6074 17.6094C71.2949 17.6094 71.0391 17.6816 70.8398 17.8262C70.6445 17.9707 70.5469 18.1641 70.5469 18.4062C70.5469 18.625 70.6387 18.7949 70.8223 18.916C71.0059 19.0371 71.377 19.1602 71.9355 19.2852C72.4941 19.4062 72.9316 19.5527 73.248 19.7246C73.5684 19.8926 73.8047 20.0957 73.957 20.334C74.1133 20.5723 74.1914 20.8613 74.1914 21.2012C74.1914 21.7715 73.9551 22.2344 73.4824 22.5898C73.0098 22.9414 72.3906 23.1172 71.625 23.1172C71.1055 23.1172 70.6426 23.0234 70.2363 22.8359C69.8301 22.6484 69.5137 22.3906 69.2871 22.0625C69.0605 21.7344 68.9473 21.3809 68.9473 21.002H70.3301C70.3496 21.3379 70.4766 21.5977 70.7109 21.7812C70.9453 21.9609 71.2559 22.0508 71.6426 22.0508C72.0176 22.0508 72.3027 21.9805 72.498 21.8398C72.6934 21.6953 72.791 21.5078 72.791 21.2773Z" fill="#4967EE"/>
<path d="M77.2207 15.1191V16.6602H78.3398V17.7148H77.2207V21.2539C77.2207 21.4961 77.2676 21.6719 77.3613 21.7812C77.459 21.8867 77.6309 21.9395 77.877 21.9395C78.041 21.9395 78.207 21.9199 78.375 21.8809V22.9824C78.0508 23.0723 77.7383 23.1172 77.4375 23.1172C76.3438 23.1172 75.7969 22.5137 75.7969 21.3066V17.7148H74.7539V16.6602H75.7969V15.1191H77.2207Z" fill="#4967EE"/>
<path d="M78.9902 19.7715C78.9902 19.1504 79.1133 18.5918 79.3594 18.0957C79.6055 17.5957 79.9512 17.2129 80.3965 16.9473C80.8418 16.6777 81.3535 16.543 81.9316 16.543C82.7871 16.543 83.4805 16.8184 84.0117 17.3691C84.5469 17.9199 84.8359 18.6504 84.8789 19.5605L84.8848 19.8945C84.8848 20.5195 84.7637 21.0781 84.5215 21.5703C84.2832 22.0625 83.9395 22.4434 83.4902 22.7129C83.0449 22.9824 82.5293 23.1172 81.9434 23.1172C81.0488 23.1172 80.332 22.8203 79.793 22.2266C79.2578 21.6289 78.9902 20.834 78.9902 19.8418V19.7715ZM80.4141 19.8945C80.4141 20.5469 80.5488 21.0586 80.8184 21.4297C81.0879 21.7969 81.4629 21.9805 81.9434 21.9805C82.4238 21.9805 82.7969 21.793 83.0625 21.418C83.332 21.043 83.4668 20.4941 83.4668 19.7715C83.4668 19.1309 83.3281 18.623 83.0508 18.248C82.7773 17.873 82.4043 17.6855 81.9316 17.6855C81.4668 17.6855 81.0977 17.8711 80.8242 18.2422C80.5508 18.6094 80.4141 19.1602 80.4141 19.8945Z" fill="#4967EE"/>
<path d="M87.4277 16.6602L87.4688 17.3223C87.9141 16.8027 88.5234 16.543 89.2969 16.543C90.1445 16.543 90.7246 16.8672 91.0371 17.5156C91.498 16.8672 92.1465 16.543 92.9824 16.543C93.6816 16.543 94.2012 16.7363 94.541 17.123C94.8848 17.5098 95.0605 18.0801 95.0684 18.834V23H93.6445V18.875C93.6445 18.4727 93.5566 18.1777 93.3809 17.9902C93.2051 17.8027 92.9141 17.709 92.5078 17.709C92.1836 17.709 91.918 17.7969 91.7109 17.9727C91.5078 18.1445 91.3652 18.3711 91.2832 18.6523L91.2891 23H89.8652V18.8281C89.8457 18.082 89.4648 17.709 88.7227 17.709C88.1523 17.709 87.748 17.9414 87.5098 18.4062V23H86.0859V16.6602H87.4277Z" fill="#4967EE"/>
<path d="M98.0449 23H96.6211V16.6602H98.0449V23ZM96.5332 15.0137C96.5332 14.7949 96.6016 14.6133 96.7383 14.4688C96.8789 14.3242 97.0781 14.252 97.3359 14.252C97.5938 14.252 97.793 14.3242 97.9336 14.4688C98.0742 14.6133 98.1445 14.7949 98.1445 15.0137C98.1445 15.2285 98.0742 15.4082 97.9336 15.5527C97.793 15.6934 97.5938 15.7637 97.3359 15.7637C97.0781 15.7637 96.8789 15.6934 96.7383 15.5527C96.6016 15.4082 96.5332 15.2285 96.5332 15.0137Z" fill="#4967EE"/>
<path d="M101.121 21.8633H104.496V23H99.3516V22.0684L102.568 17.8086H99.4102V16.6602H104.373V17.5625L101.121 21.8633Z" fill="#4967EE"/>
<path d="M108.334 23.1172C107.432 23.1172 106.699 22.834 106.137 22.2676C105.578 21.6973 105.299 20.9395 105.299 19.9941V19.8184C105.299 19.1855 105.42 18.6211 105.662 18.125C105.908 17.625 106.252 17.2363 106.693 16.959C107.135 16.6816 107.627 16.543 108.17 16.543C109.033 16.543 109.699 16.8184 110.168 17.3691C110.641 17.9199 110.877 18.6992 110.877 19.707V20.2812H106.734C106.777 20.8047 106.951 21.2188 107.256 21.5234C107.564 21.8281 107.951 21.9805 108.416 21.9805C109.068 21.9805 109.6 21.7168 110.01 21.1895L110.777 21.9219C110.523 22.3008 110.184 22.5957 109.758 22.8066C109.336 23.0137 108.861 23.1172 108.334 23.1172ZM108.164 17.6855C107.773 17.6855 107.457 17.8223 107.215 18.0957C106.977 18.3691 106.824 18.75 106.758 19.2383H109.471V19.1328C109.439 18.6562 109.312 18.2969 109.09 18.0547C108.867 17.8086 108.559 17.6855 108.164 17.6855Z" fill="#4967EE"/>
<path d="M117.193 20.9609L118.482 16.6602H120L117.48 23.9609C117.094 25.0273 116.438 25.5605 115.512 25.5605C115.305 25.5605 115.076 25.5254 114.826 25.4551V24.3535L115.096 24.3711C115.455 24.3711 115.725 24.3047 115.904 24.1719C116.088 24.043 116.232 23.8242 116.338 23.5156L116.543 22.9707L114.316 16.6602H115.852L117.193 20.9609Z" fill="#4967EE"/>
<path d="M120.463 19.7715C120.463 19.1504 120.586 18.5918 120.832 18.0957C121.078 17.5957 121.424 17.2129 121.869 16.9473C122.314 16.6777 122.826 16.543 123.404 16.543C124.26 16.543 124.953 16.8184 125.484 17.3691C126.02 17.9199 126.309 18.6504 126.352 19.5605L126.357 19.8945C126.357 20.5195 126.236 21.0781 125.994 21.5703C125.756 22.0625 125.412 22.4434 124.963 22.7129C124.518 22.9824 124.002 23.1172 123.416 23.1172C122.521 23.1172 121.805 22.8203 121.266 22.2266C120.73 21.6289 120.463 20.834 120.463 19.8418V19.7715ZM121.887 19.8945C121.887 20.5469 122.021 21.0586 122.291 21.4297C122.561 21.7969 122.936 21.9805 123.416 21.9805C123.896 21.9805 124.27 21.793 124.535 21.418C124.805 21.043 124.939 20.4941 124.939 19.7715C124.939 19.1309 124.801 18.623 124.523 18.248C124.25 17.873 123.877 17.6855 123.404 17.6855C122.939 17.6855 122.57 17.8711 122.297 18.2422C122.023 18.6094 121.887 19.1602 121.887 19.8945Z" fill="#4967EE"/>
<path d="M131.402 22.3789C130.984 22.8711 130.391 23.1172 129.621 23.1172C128.934 23.1172 128.412 22.916 128.057 22.5137C127.705 22.1113 127.529 21.5293 127.529 20.7676V16.6602H128.953V20.75C128.953 21.5547 129.287 21.957 129.955 21.957C130.646 21.957 131.113 21.709 131.355 21.2129V16.6602H132.779V23H131.438L131.402 22.3789Z" fill="#4967EE"/>
<path d="M137.549 17.9609C137.361 17.9297 137.168 17.9141 136.969 17.9141C136.316 17.9141 135.877 18.1641 135.65 18.6641V23H134.227V16.6602H135.586L135.621 17.3691C135.965 16.8184 136.441 16.543 137.051 16.543C137.254 16.543 137.422 16.5703 137.555 16.625L137.549 17.9609Z" fill="#4967EE"/>
<path d="M146.988 19.8945C146.988 20.875 146.766 21.6582 146.32 22.2441C145.875 22.8262 145.277 23.1172 144.527 23.1172C143.832 23.1172 143.275 22.8887 142.857 22.4316V25.4375H141.434V16.6602H142.746L142.805 17.3047C143.223 16.7969 143.791 16.543 144.51 16.543C145.283 16.543 145.889 16.832 146.326 17.4102C146.768 17.9844 146.988 18.7832 146.988 19.8066V19.8945ZM145.57 19.7715C145.57 19.1387 145.443 18.6367 145.189 18.2656C144.939 17.8945 144.58 17.709 144.111 17.709C143.529 17.709 143.111 17.9492 142.857 18.4297V21.2422C143.115 21.7344 143.537 21.9805 144.123 21.9805C144.576 21.9805 144.93 21.7988 145.184 21.4355C145.441 21.0684 145.57 20.5137 145.57 19.7715Z" fill="#4967EE"/>
<path d="M151.986 23C151.924 22.8789 151.869 22.6816 151.822 22.4082C151.369 22.8809 150.814 23.1172 150.158 23.1172C149.521 23.1172 149.002 22.9355 148.6 22.5723C148.197 22.209 147.996 21.7598 147.996 21.2246C147.996 20.5488 148.246 20.0312 148.746 19.6719C149.25 19.3086 149.969 19.127 150.902 19.127H151.775V18.7109C151.775 18.3828 151.684 18.1211 151.5 17.9258C151.316 17.7266 151.037 17.627 150.662 17.627C150.338 17.627 150.072 17.709 149.865 17.873C149.658 18.0332 149.555 18.2383 149.555 18.4883H148.131C148.131 18.1406 148.246 17.8164 148.477 17.5156C148.707 17.2109 149.02 16.9727 149.414 16.8008C149.812 16.6289 150.256 16.543 150.744 16.543C151.486 16.543 152.078 16.7305 152.52 17.1055C152.961 17.4766 153.188 18 153.199 18.6758V21.5352C153.199 22.1055 153.279 22.5605 153.439 22.9004V23H151.986ZM150.422 21.9746C150.703 21.9746 150.967 21.9062 151.213 21.7695C151.463 21.6328 151.65 21.4492 151.775 21.2188V20.0234H151.008C150.48 20.0234 150.084 20.1152 149.818 20.2988C149.553 20.4824 149.42 20.7422 149.42 21.0781C149.42 21.3516 149.51 21.5703 149.689 21.7344C149.873 21.8945 150.117 21.9746 150.422 21.9746Z" fill="#4967EE"/>
<path d="M154.441 19.7832C154.441 18.7988 154.672 18.0137 155.133 17.4277C155.598 16.8379 156.213 16.543 156.979 16.543C157.701 16.543 158.27 16.7949 158.684 17.2988L158.748 16.6602H160.031V22.8066C160.031 23.6387 159.771 24.2949 159.252 24.7754C158.736 25.2559 158.039 25.4961 157.16 25.4961C156.695 25.4961 156.24 25.3984 155.795 25.2031C155.354 25.0117 155.018 24.7598 154.787 24.4473L155.461 23.5918C155.898 24.1113 156.438 24.3711 157.078 24.3711C157.551 24.3711 157.924 24.2422 158.197 23.9844C158.471 23.7305 158.607 23.3555 158.607 22.8594V22.4316C158.197 22.8887 157.65 23.1172 156.967 23.1172C156.225 23.1172 155.617 22.8223 155.145 22.2324C154.676 21.6426 154.441 20.8262 154.441 19.7832ZM155.859 19.9062C155.859 20.543 155.988 21.0449 156.246 21.4121C156.508 21.7754 156.869 21.957 157.33 21.957C157.904 21.957 158.33 21.7109 158.607 21.2188V18.4297C158.338 17.9492 157.916 17.709 157.342 17.709C156.873 17.709 156.508 17.8945 156.246 18.2656C155.988 18.6367 155.859 19.1836 155.859 19.9062Z" fill="#4967EE"/>
<path d="M164.291 23.1172C163.389 23.1172 162.656 22.834 162.094 22.2676C161.535 21.6973 161.256 20.9395 161.256 19.9941V19.8184C161.256 19.1855 161.377 18.6211 161.619 18.125C161.865 17.625 162.209 17.2363 162.65 16.959C163.092 16.6816 163.584 16.543 164.127 16.543C164.99 16.543 165.656 16.8184 166.125 17.3691C166.598 17.9199 166.834 18.6992 166.834 19.707V20.2812H162.691C162.734 20.8047 162.908 21.2188 163.213 21.5234C163.521 21.8281 163.908 21.9805 164.373 21.9805C165.025 21.9805 165.557 21.7168 165.967 21.1895L166.734 21.9219C166.48 22.3008 166.141 22.5957 165.715 22.8066C165.293 23.0137 164.818 23.1172 164.291 23.1172ZM164.121 17.6855C163.73 17.6855 163.414 17.8223 163.172 18.0957C162.934 18.3691 162.781 18.75 162.715 19.2383H165.428V19.1328C165.396 18.6562 165.27 18.2969 165.047 18.0547C164.824 17.8086 164.516 17.6855 164.121 17.6855Z" fill="#4967EE"/>
<path d="M259.666 26.1567L259.763 7.9183" stroke="#C8D1E0" stroke-width="3.04564" stroke-linecap="round" stroke-linejoin="round"/>
<path d="M274.256 31.9927L287.232 19.1754" stroke="#C8D1E0" stroke-width="3.04564" stroke-linecap="round" stroke-linejoin="round"/>
<path d="M294.683 47.313L276.445 47.2161" stroke="#C8D1E0" stroke-width="3.04564" stroke-linecap="round" stroke-linejoin="round"/>
<path d="M91.5215 71.6732L93.4282 73.7301L93.6163 73.933L93.8674 73.8172L96.4132 72.6428L95.0458 75.0884L94.9109 75.3296L95.099 75.5326L97.0057 77.5894L94.2539 77.044L93.9825 76.9902L93.8476 77.2315L92.4802 79.6771L92.1469 76.8944L92.114 76.6199L91.8425 76.5661L89.0907 76.0207L91.6365 74.8463L91.8877 74.7304L91.8548 74.4559L91.5215 71.6732Z" stroke="#4967EE" stroke-width="0.761409" stroke-linecap="round"/>
<path d="M305.56 65.0901L305.789 67.8837L305.811 68.1594L306.08 68.2229L308.809 68.8674L306.222 69.9495L305.966 70.0563L305.989 70.3319L306.217 73.1256L304.39 71.0007L304.209 70.7911L303.954 70.8978L301.367 71.98L302.825 69.5846L302.969 69.3483L302.788 69.1386L300.961 67.0137L303.689 67.6582L303.959 67.7218L304.102 67.4854L305.56 65.0901Z" stroke="#4967EE" stroke-width="0.761409" stroke-linecap="round"/>
<path d="M204.427 6.7949L205.01 9.53691L205.068 9.80743L205.343 9.83622L208.131 10.1281L205.703 11.5309L205.464 11.6693L205.521 11.9398L206.104 14.6818L204.021 12.8067L203.815 12.6218L203.576 12.7602L201.148 14.1629L202.288 11.6013L202.4 11.3486L202.195 11.1636L200.111 9.28854L202.899 9.58043L203.174 9.60923L203.287 9.35651L204.427 6.7949Z" stroke="#4967EE" stroke-width="0.761409" stroke-linecap="round"/>
<path d="M290.685 143.168L292.592 145.225L292.78 145.428L293.031 145.312L295.577 144.137L294.209 146.583L294.075 146.824L294.263 147.027L296.169 149.084L293.418 148.539L293.146 148.485L293.011 148.726L291.644 151.172L291.31 148.389L291.278 148.115L291.006 148.061L288.254 147.515L290.8 146.341L291.051 146.225L291.018 145.951L290.685 143.168Z" stroke="#AFBACC" stroke-width="0.761409" stroke-linecap="round"/>
<path d="M91.1378 156.606L90.7417 159.38L90.7026 159.654L90.9511 159.775L93.4697 161.007L90.7062 161.49L90.4336 161.537L90.3945 161.811L89.9984 164.586L88.6866 162.11L88.5572 161.865L88.2846 161.913L85.5211 162.396L87.4739 160.383L87.6665 160.184L87.5371 159.94L86.2253 157.464L88.744 158.696L88.9924 158.817L89.1851 158.619L91.1378 156.606Z" stroke="#AFBACC" stroke-width="0.761409" stroke-linecap="round"/>
<circle cx="289.212" cy="79.048" r="2.17268" stroke="#707A8A" stroke-width="0.761409"/>
<circle cx="114.852" cy="45.4892" r="2.17268" stroke="#707A8A" stroke-width="0.761409"/>
<circle cx="109.016" cy="168.781" r="2.17268" stroke="#707A8A" stroke-width="0.761409"/>
<circle cx="316.934" cy="156.379" r="2.17268" stroke="#707A8A" stroke-width="0.761409"/>
<circle cx="206.774" cy="27.9804" r="2.17268" stroke="#707A8A" stroke-width="0.761409"/>
<circle cx="109.016" cy="85.6139" r="2.17268" stroke="#AFBACC" stroke-width="0.761409"/>
<circle cx="282.646" cy="176.806" r="2.17268" stroke="#AFBACC" stroke-width="0.761409"/>
<circle cx="224.283" cy="14.1191" r="2.17268" stroke="#AFBACC" stroke-width="0.761409"/>
<circle cx="100.262" cy="107.5" r="2.17268" stroke="#4967EE" stroke-width="0.761409"/>
<circle cx="80.5641" cy="180.454" r="2.17268" stroke="#4967EE" stroke-width="0.761409"/>
<circle cx="301.614" cy="129.386" r="2.17268" stroke="#4967EE" stroke-width="0.761409"/>
<path fill-rule="evenodd" clip-rule="evenodd" d="M78.7758 94.852C78.6168 94.6935 78.359 94.6935 78.2 94.852C78.041 95.0105 78.041 95.2674 78.2 95.4258L80.0321 97.2517L78.13 99.1472C77.971 99.3057 77.971 99.5626 78.13 99.7211C78.289 99.8795 78.5468 99.8795 78.7058 99.7211L80.6079 97.8255L82.4225 99.6339C82.5815 99.7923 82.8393 99.7923 82.9983 99.6339C83.1573 99.4754 83.1573 99.2185 82.9983 99.0601L81.1837 97.2517L82.9283 95.513C83.0873 95.3546 83.0873 95.0976 82.9283 94.9392C82.7693 94.7807 82.5115 94.7807 82.3525 94.9392L80.6079 96.6778L78.7758 94.852Z" fill="#707A8A"/>
<path fill-rule="evenodd" clip-rule="evenodd" d="M113.064 145.92C112.905 145.761 112.647 145.761 112.488 145.92C112.329 146.078 112.329 146.335 112.488 146.493L114.32 148.319L112.418 150.215C112.259 150.373 112.259 150.63 112.418 150.789C112.577 150.947 112.835 150.947 112.994 150.789L114.896 148.893L116.711 150.702C116.87 150.86 117.127 150.86 117.286 150.702C117.445 150.543 117.445 150.286 117.286 150.128L115.472 148.319L117.216 146.581C117.375 146.422 117.375 146.165 117.216 146.007C117.057 145.848 116.8 145.848 116.641 146.007L114.896 147.745L113.064 145.92Z" fill="#AFBACC"/>
<path fill-rule="evenodd" clip-rule="evenodd" d="M179.452 25.5458C179.293 25.3874 179.035 25.3874 178.876 25.5458C178.717 25.7043 178.717 25.9612 178.876 26.1197L180.708 27.9455L178.806 29.8411C178.647 29.9996 178.647 30.2565 178.806 30.4149C178.965 30.5734 179.223 30.5734 179.382 30.4149L181.284 28.5193L183.098 30.3277C183.257 30.4862 183.515 30.4862 183.674 30.3277C183.833 30.1693 183.833 29.9124 183.674 29.7539L181.86 27.9455L183.604 26.2069C183.763 26.0484 183.763 25.7915 183.604 25.633C183.445 25.4746 183.188 25.4746 183.029 25.633L181.284 27.3717L179.452 25.5458Z" fill="#AFBACC"/>
<path fill-rule="evenodd" clip-rule="evenodd" d="M103.58 188.233C103.421 188.074 103.163 188.074 103.004 188.233C102.845 188.391 102.845 188.648 103.004 188.807L104.836 190.633L102.934 192.528C102.775 192.687 102.775 192.943 102.934 193.102C103.093 193.26 103.351 193.26 103.51 193.102L105.412 191.206L107.227 193.015C107.386 193.173 107.643 193.173 107.802 193.015C107.961 192.856 107.961 192.599 107.802 192.441L105.988 190.633L107.732 188.894C107.891 188.735 107.891 188.479 107.732 188.32C107.573 188.162 107.316 188.162 107.157 188.32L105.412 190.059L103.58 188.233Z" fill="#AFBACC"/>
<path fill-rule="evenodd" clip-rule="evenodd" d="M299.826 86.8271C299.667 86.6686 299.409 86.6686 299.25 86.8271C299.091 86.9856 299.091 87.2425 299.25 87.4009L301.082 89.2268L299.18 91.1223C299.021 91.2808 299.021 91.5377 299.18 91.6962C299.339 91.8546 299.597 91.8546 299.756 91.6962L301.658 89.8006L303.472 91.609C303.631 91.7674 303.889 91.7674 304.048 91.609C304.207 91.4505 304.207 91.1936 304.048 91.0352L302.233 89.2268L303.978 87.4881C304.137 87.3297 304.137 87.0727 303.978 86.9143C303.819 86.7558 303.561 86.7558 303.402 86.9143L301.658 88.6529L299.826 86.8271Z" fill="#AFBACC"/>
<path fill-rule="evenodd" clip-rule="evenodd" d="M299.826 166.347C299.667 166.188 299.409 166.188 299.25 166.347C299.091 166.505 299.091 166.762 299.25 166.92L301.082 168.746L299.18 170.642C299.021 170.8 299.021 171.057 299.18 171.216C299.339 171.374 299.597 171.374 299.756 171.216L301.658 169.32L303.472 171.129C303.631 171.287 303.889 171.287 304.048 171.129C304.207 170.97 304.207 170.713 304.048 170.555L302.233 168.746L303.978 167.008C304.137 166.849 304.137 166.592 303.978 166.434C303.819 166.275 303.561 166.275 303.402 166.434L301.658 168.172L299.826 166.347Z" fill="#4967EE"/>
<path fill-rule="evenodd" clip-rule="evenodd" d="M234.897 19.7094C234.738 19.551 234.48 19.551 234.321 19.7094C234.162 19.8679 234.162 20.1248 234.321 20.2832L236.153 22.1091L234.251 24.0047C234.092 24.1631 234.092 24.42 234.251 24.5785C234.41 24.737 234.668 24.737 234.827 24.5785L236.729 22.6829L238.543 24.4913C238.702 24.6498 238.96 24.6498 239.119 24.4913C239.278 24.3328 239.278 24.0759 239.119 23.9175L237.305 22.1091L239.049 20.3704C239.208 20.212 239.208 19.9551 239.049 19.7966C238.89 19.6382 238.632 19.6382 238.473 19.7966L236.729 21.5353L234.897 19.7094Z" fill="#4967EE"/>
<g filter="url(#filter0_d)">
<rect width="105.783" height="105.783" transform="translate(115 48)" fill="white"/>
<rect x="115" y="48" width="105.783" height="35.0178" fill="#707A8A"/>
<rect x="120.107" y="107.822" width="21.1566" height="16.0498" fill="#B6C2F8"/>
<rect x="120.107" y="127.52" width="21.1566" height="16.0498" fill="#DBE1FC"/>
<rect x="144.182" y="107.822" width="21.1566" height="16.0498" fill="#DBE1FC"/>
<rect x="144.182" y="127.52" width="21.1566" height="16.0498" fill="#B6C2F8"/>
<rect x="168.986" y="107.822" width="21.1566" height="16.0498" fill="#B6C2F8"/>
<rect x="168.986" y="127.52" width="21.1566" height="16.0498" fill="#DBE1FC"/>
<rect x="193.79" y="107.822" width="22.6157" height="16.0498" fill="#DBE1FC"/>
<rect x="193.79" y="127.52" width="22.6157" height="16.0498" fill="#B6C2F8"/>
<rect x="120.107" y="68.427" width="48.1495" height="31.3701" fill="#B6C2F8"/>
<rect x="120.107" y="59.6726" width="37.9359" height="4.37722" rx="2.18861" fill="white"/>
<rect x="120.107" y="53.1067" width="18.968" height="4.37722" rx="2.18861" fill="#B6C2F8"/>
<circle cx="217.865" cy="50.9181" r="1.45907" fill="#EDF0FE"/>
</g>
<path d="M5.32617 140.803C5.32617 140.428 5.19336 140.139 4.92773 139.936C4.66602 139.732 4.19141 139.527 3.50391 139.32C2.81641 139.113 2.26953 138.883 1.86328 138.629C1.08594 138.141 0.697266 137.504 0.697266 136.719C0.697266 136.031 0.976562 135.465 1.53516 135.02C2.09766 134.574 2.82617 134.352 3.7207 134.352C4.31445 134.352 4.84375 134.461 5.30859 134.68C5.77344 134.898 6.13867 135.211 6.4043 135.617C6.66992 136.02 6.80273 136.467 6.80273 136.959H5.32617C5.32617 136.514 5.18555 136.166 4.9043 135.916C4.62695 135.662 4.22852 135.535 3.70898 135.535C3.22461 135.535 2.84766 135.639 2.57812 135.846C2.3125 136.053 2.17969 136.342 2.17969 136.713C2.17969 137.025 2.32422 137.287 2.61328 137.498C2.90234 137.705 3.37891 137.908 4.04297 138.107C4.70703 138.303 5.24023 138.527 5.64258 138.781C6.04492 139.031 6.33984 139.32 6.52734 139.648C6.71484 139.973 6.80859 140.354 6.80859 140.791C6.80859 141.502 6.53516 142.068 5.98828 142.49C5.44531 142.908 4.70703 143.117 3.77344 143.117C3.15625 143.117 2.58789 143.004 2.06836 142.777C1.55273 142.547 1.15039 142.23 0.861328 141.828C0.576172 141.426 0.433594 140.957 0.433594 140.422H1.91602C1.91602 140.906 2.07617 141.281 2.39648 141.547C2.7168 141.812 3.17578 141.945 3.77344 141.945C4.28906 141.945 4.67578 141.842 4.93359 141.635C5.19531 141.424 5.32617 141.146 5.32617 140.803Z" fill="#4967EE"/>
<path d="M9.375 137.352C9.83984 136.812 10.4277 136.543 11.1387 136.543C12.4902 136.543 13.1758 137.314 13.1953 138.857V143H11.7715V138.91C11.7715 138.473 11.6758 138.164 11.4844 137.984C11.2969 137.801 11.0195 137.709 10.6523 137.709C10.082 137.709 9.65625 137.963 9.375 138.471V143H7.95117V134H9.375V137.352Z" fill="#4967EE"/>
<path d="M18.4277 143C18.3652 142.879 18.3105 142.682 18.2637 142.408C17.8105 142.881 17.2559 143.117 16.5996 143.117C15.9629 143.117 15.4434 142.936 15.041 142.572C14.6387 142.209 14.4375 141.76 14.4375 141.225C14.4375 140.549 14.6875 140.031 15.1875 139.672C15.6914 139.309 16.4102 139.127 17.3438 139.127H18.2168V138.711C18.2168 138.383 18.125 138.121 17.9414 137.926C17.7578 137.727 17.4785 137.627 17.1035 137.627C16.7793 137.627 16.5137 137.709 16.3066 137.873C16.0996 138.033 15.9961 138.238 15.9961 138.488H14.5723C14.5723 138.141 14.6875 137.816 14.918 137.516C15.1484 137.211 15.4609 136.973 15.8555 136.801C16.2539 136.629 16.6973 136.543 17.1855 136.543C17.9277 136.543 18.5195 136.73 18.9609 137.105C19.4023 137.477 19.6289 138 19.6406 138.676V141.535C19.6406 142.105 19.7207 142.561 19.8809 142.9V143H18.4277ZM16.8633 141.975C17.1445 141.975 17.4082 141.906 17.6543 141.77C17.9043 141.633 18.0918 141.449 18.2168 141.219V140.023H17.4492C16.9219 140.023 16.5254 140.115 16.2598 140.299C15.9941 140.482 15.8613 140.742 15.8613 141.078C15.8613 141.352 15.9512 141.57 16.1309 141.734C16.3145 141.895 16.5586 141.975 16.8633 141.975Z" fill="#4967EE"/>
<path d="M24.4512 137.961C24.2637 137.93 24.0703 137.914 23.8711 137.914C23.2188 137.914 22.7793 138.164 22.5527 138.664V143H21.1289V136.66H22.4883L22.5234 137.369C22.8672 136.818 23.3438 136.543 23.9531 136.543C24.1562 136.543 24.3242 136.57 24.457 136.625L24.4512 137.961Z" fill="#4967EE"/>
<path d="M28.0254 143.117C27.123 143.117 26.3906 142.834 25.8281 142.268C25.2695 141.697 24.9902 140.939 24.9902 139.994V139.818C24.9902 139.186 25.1113 138.621 25.3535 138.125C25.5996 137.625 25.9434 137.236 26.3848 136.959C26.8262 136.682 27.3184 136.543 27.8613 136.543C28.7246 136.543 29.3906 136.818 29.8594 137.369C30.332 137.92 30.5684 138.699 30.5684 139.707V140.281H26.4258C26.4688 140.805 26.6426 141.219 26.9473 141.523C27.2559 141.828 27.6426 141.98 28.1074 141.98C28.7598 141.98 29.291 141.717 29.7012 141.189L30.4688 141.922C30.2148 142.301 29.875 142.596 29.4492 142.807C29.0273 143.014 28.5527 143.117 28.0254 143.117ZM27.8555 137.686C27.4648 137.686 27.1484 137.822 26.9062 138.096C26.668 138.369 26.5156 138.75 26.4492 139.238H29.1621V139.133C29.1309 138.656 29.0039 138.297 28.7812 138.055C28.5586 137.809 28.25 137.686 27.8555 137.686Z" fill="#4967EE"/>
<path d="M36.8848 140.961L38.1738 136.66H39.6914L37.1719 143.961C36.7852 145.027 36.1289 145.561 35.2031 145.561C34.9961 145.561 34.7676 145.525 34.5176 145.455V144.354L34.7871 144.371C35.1465 144.371 35.416 144.305 35.5957 144.172C35.7793 144.043 35.9238 143.824 36.0293 143.516L36.2344 142.971L34.0078 136.66H35.543L36.8848 140.961Z" fill="#4967EE"/>
<path d="M40.1543 139.771C40.1543 139.15 40.2773 138.592 40.5234 138.096C40.7695 137.596 41.1152 137.213 41.5605 136.947C42.0059 136.678 42.5176 136.543 43.0957 136.543C43.9512 136.543 44.6445 136.818 45.1758 137.369C45.7109 137.92 46 138.65 46.043 139.561L46.0488 139.895C46.0488 140.52 45.9277 141.078 45.6855 141.57C45.4473 142.062 45.1035 142.443 44.6543 142.713C44.209 142.982 43.6934 143.117 43.1074 143.117C42.2129 143.117 41.4961 142.82 40.957 142.227C40.4219 141.629 40.1543 140.834 40.1543 139.842V139.771ZM41.5781 139.895C41.5781 140.547 41.7129 141.059 41.9824 141.43C42.252 141.797 42.627 141.98 43.1074 141.98C43.5879 141.98 43.9609 141.793 44.2266 141.418C44.4961 141.043 44.6309 140.494 44.6309 139.771C44.6309 139.131 44.4922 138.623 44.2148 138.248C43.9414 137.873 43.5684 137.686 43.0957 137.686C42.6309 137.686 42.2617 137.871 41.9883 138.242C41.7148 138.609 41.5781 139.16 41.5781 139.895Z" fill="#4967EE"/>
<path d="M51.0938 142.379C50.6758 142.871 50.082 143.117 49.3125 143.117C48.625 143.117 48.1035 142.916 47.748 142.514C47.3965 142.111 47.2207 141.529 47.2207 140.768V136.66H48.6445V140.75C48.6445 141.555 48.9785 141.957 49.6465 141.957C50.3379 141.957 50.8047 141.709 51.0469 141.213V136.66H52.4707V143H51.1289L51.0938 142.379Z" fill="#4967EE"/>
<path d="M57.2402 137.961C57.0527 137.93 56.8594 137.914 56.6602 137.914C56.0078 137.914 55.5684 138.164 55.3418 138.664V143H53.918V136.66H55.2773L55.3125 137.369C55.6562 136.818 56.1328 136.543 56.7422 136.543C56.9453 136.543 57.1133 136.57 57.2461 136.625L57.2402 137.961Z" fill="#4967EE"/>
<path d="M63.7324 141.98C64.0879 141.98 64.3828 141.877 64.6172 141.67C64.8516 141.463 64.9766 141.207 64.9922 140.902H66.334C66.3184 141.297 66.1953 141.666 65.9648 142.01C65.7344 142.35 65.4219 142.619 65.0273 142.818C64.6328 143.018 64.207 143.117 63.75 143.117C62.8633 143.117 62.1602 142.83 61.6406 142.256C61.1211 141.682 60.8613 140.889 60.8613 139.877V139.73C60.8613 138.766 61.1191 137.994 61.6348 137.416C62.1504 136.834 62.8535 136.543 63.7441 136.543C64.498 136.543 65.1113 136.764 65.584 137.205C66.0605 137.643 66.3105 138.219 66.334 138.934H64.9922C64.9766 138.57 64.8516 138.271 64.6172 138.037C64.3867 137.803 64.0918 137.686 63.7324 137.686C63.2715 137.686 62.916 137.854 62.666 138.189C62.416 138.521 62.2891 139.027 62.2852 139.707V139.936C62.2852 140.623 62.4082 141.137 62.6543 141.477C62.9043 141.812 63.2637 141.98 63.7324 141.98Z" fill="#4967EE"/>
<path d="M67.1426 139.771C67.1426 139.15 67.2656 138.592 67.5117 138.096C67.7578 137.596 68.1035 137.213 68.5488 136.947C68.9941 136.678 69.5059 136.543 70.084 136.543C70.9395 136.543 71.6328 136.818 72.1641 137.369C72.6992 137.92 72.9883 138.65 73.0312 139.561L73.0371 139.895C73.0371 140.52 72.916 141.078 72.6738 141.57C72.4355 142.062 72.0918 142.443 71.6426 142.713C71.1973 142.982 70.6816 143.117 70.0957 143.117C69.2012 143.117 68.4844 142.82 67.9453 142.227C67.4102 141.629 67.1426 140.834 67.1426 139.842V139.771ZM68.5664 139.895C68.5664 140.547 68.7012 141.059 68.9707 141.43C69.2402 141.797 69.6152 141.98 70.0957 141.98C70.5762 141.98 70.9492 141.793 71.2148 141.418C71.4844 141.043 71.6191 140.494 71.6191 139.771C71.6191 139.131 71.4805 138.623 71.2031 138.248C70.9297 137.873 70.5566 137.686 70.084 137.686C69.6191 137.686 69.25 137.871 68.9766 138.242C68.7031 138.609 68.5664 139.16 68.5664 139.895Z" fill="#4967EE"/>
<path d="M75.5625 136.66L75.6035 137.393C76.0723 136.826 76.6875 136.543 77.4492 136.543C78.7695 136.543 79.4414 137.299 79.4648 138.811V143H78.041V138.893C78.041 138.49 77.9531 138.193 77.7773 138.002C77.6055 137.807 77.3223 137.709 76.9277 137.709C76.3535 137.709 75.9258 137.969 75.6445 138.488V143H74.2207V136.66H75.5625Z" fill="#4967EE"/>
<path d="M82.7051 135.119V136.66H83.8242V137.715H82.7051V141.254C82.7051 141.496 82.752 141.672 82.8457 141.781C82.9434 141.887 83.1152 141.939 83.3613 141.939C83.5254 141.939 83.6914 141.92 83.8594 141.881V142.982C83.5352 143.072 83.2227 143.117 82.9219 143.117C81.8281 143.117 81.2812 142.514 81.2812 141.307V137.715H80.2383V136.66H81.2812V135.119H82.7051Z" fill="#4967EE"/>
<path d="M87.709 143.117C86.8066 143.117 86.0742 142.834 85.5117 142.268C84.9531 141.697 84.6738 140.939 84.6738 139.994V139.818C84.6738 139.186 84.7949 138.621 85.0371 138.125C85.2832 137.625 85.627 137.236 86.0684 136.959C86.5098 136.682 87.002 136.543 87.5449 136.543C88.4082 136.543 89.0742 136.818 89.543 137.369C90.0156 137.92 90.252 138.699 90.252 139.707V140.281H86.1094C86.1523 140.805 86.3262 141.219 86.6309 141.523C86.9395 141.828 87.3262 141.98 87.791 141.98C88.4434 141.98 88.9746 141.717 89.3848 141.189L90.1523 141.922C89.8984 142.301 89.5586 142.596 89.1328 142.807C88.7109 143.014 88.2363 143.117 87.709 143.117ZM87.5391 137.686C87.1484 137.686 86.832 137.822 86.5898 138.096C86.3516 138.369 86.1992 138.75 86.1328 139.238H88.8457V139.133C88.8145 138.656 88.6875 138.297 88.4648 138.055C88.2422 137.809 87.9336 137.686 87.5391 137.686Z" fill="#4967EE"/>
<path d="M92.6836 136.66L92.7246 137.393C93.1934 136.826 93.8086 136.543 94.5703 136.543C95.8906 136.543 96.5625 137.299 96.5859 138.811V143H95.1621V138.893C95.1621 138.49 95.0742 138.193 94.8984 138.002C94.7266 137.807 94.4434 137.709 94.0488 137.709C93.4746 137.709 93.0469 137.969 92.7656 138.488V143H91.3418V136.66H92.6836Z" fill="#4967EE"/>
<path d="M99.8262 135.119V136.66H100.945V137.715H99.8262V141.254C99.8262 141.496 99.873 141.672 99.9668 141.781C100.064 141.887 100.236 141.939 100.482 141.939C100.646 141.939 100.812 141.92 100.98 141.881V142.982C100.656 143.072 100.344 143.117 100.043 143.117C98.9492 143.117 98.4023 142.514 98.4023 141.307V137.715H97.3594V136.66H98.4023V135.119H99.8262Z" fill="#4967EE"/>
<defs>
<filter id="filter0_d" x="104.123" y="38.2105" width="127.537" height="127.537" filterUnits="userSpaceOnUse" color-interpolation-filters="sRGB">
<feFlood flood-opacity="0" result="BackgroundImageFix"/>
<feColorMatrix in="SourceAlpha" type="matrix" values="0 0 0 0 0 0 0 0 0 0 0 0 0 0 0 0 0 0 127 0" result="hardAlpha"/>
<feOffset dy="1.08773"/>
<feGaussianBlur stdDeviation="5.43863"/>
<feColorMatrix type="matrix" values="0 0 0 0 0 0 0 0 0 0 0 0 0 0 0 0 0 0 0.25 0"/>
<feBlend mode="normal" in2="BackgroundImageFix" result="effect1_dropShadow"/>
<feBlend mode="normal" in="SourceGraphic" in2="effect1_dropShadow" result="shape"/>
</filter>
</defs>
</svg>
