<svg width="372" height="227" viewBox="0 0 372 227" fill="none" xmlns="http://www.w3.org/2000/svg">
<circle cx="186.5" cy="113.5" r="111.5" fill="#EDF0FE"/>
<path d="M53.6644 24.6586C53.6644 24.2365 53.5107 23.911 53.2031 23.6823C52.9001 23.4537 52.3506 23.2228 51.5547 22.9897C50.7587 22.7566 50.1256 22.4972 49.6552 22.2113C48.7553 21.6616 48.3053 20.9448 48.3053 20.0608C48.3053 19.2868 48.6286 18.6491 49.2753 18.1478C49.9266 17.6465 50.77 17.3958 51.8057 17.3958C52.4931 17.3958 53.1059 17.5189 53.6441 17.7652C54.1823 18.0115 54.6051 18.3633 54.9126 18.8207C55.2202 19.2736 55.3739 19.7772 55.3739 20.3313H53.6644C53.6644 19.8299 53.5016 19.4385 53.176 19.1571C52.8549 18.8712 52.3936 18.7283 51.7921 18.7283C51.2313 18.7283 50.7949 18.8448 50.4829 19.0779C50.1753 19.311 50.0216 19.6364 50.0216 20.0542C50.0216 20.406 50.1889 20.7007 50.5236 20.9382C50.8582 21.1712 51.41 21.3999 52.1788 21.6242C52.9476 21.8441 53.5649 22.097 54.0308 22.3828C54.4966 22.6643 54.838 22.9897 55.0551 23.3591C55.2722 23.7241 55.3807 24.1529 55.3807 24.6455C55.3807 25.4458 55.0641 26.0835 54.431 26.5585C53.8024 27.029 52.9476 27.2643 51.8667 27.2643C51.1522 27.2643 50.4942 27.1368 49.8927 26.8817C49.2957 26.6222 48.8299 26.266 48.4952 25.813C48.1651 25.3601 48 24.8324 48 24.2299H49.7163C49.7163 24.7752 49.9017 25.1974 50.2726 25.4964C50.6434 25.7955 51.1748 25.945 51.8667 25.945C52.4637 25.945 52.9114 25.8284 53.2099 25.5954C53.5129 25.3579 53.6644 25.0456 53.6644 24.6586Z" fill="#4967EE"/>
<path d="M58.352 20.7733C58.8902 20.1664 59.5708 19.8629 60.3939 19.8629C61.9587 19.8629 62.7524 20.7315 62.775 22.4686V27.1324H61.1265V22.5279C61.1265 22.0354 61.0157 21.688 60.7941 21.4857C60.5771 21.279 60.256 21.1756 59.8309 21.1756C59.1706 21.1756 58.6776 21.4615 58.352 22.0332V27.1324H56.7035V17H58.352V20.7733Z" fill="#4967EE"/>
<path d="M64.1385 23.4976C64.1385 22.7984 64.281 22.1695 64.5659 21.611C64.8508 21.0481 65.2511 20.6171 65.7666 20.3181C66.2822 20.0146 66.8746 19.8629 67.544 19.8629C68.5344 19.8629 69.3371 20.173 69.9522 20.793C70.5718 21.4131 70.9064 22.2355 70.9562 23.2602L70.963 23.6362C70.963 24.3398 70.8228 24.9687 70.5424 25.5228C70.2665 26.0769 69.8685 26.5057 69.3484 26.8091C68.8329 27.1126 68.2359 27.2643 67.5575 27.2643C66.5219 27.2643 65.692 26.9301 65.0679 26.2616C64.4483 25.5888 64.1385 24.6938 64.1385 23.5768V23.4976ZM65.787 23.6362C65.787 24.3706 65.943 24.9467 66.2551 25.3645C66.5671 25.7779 67.0013 25.9846 67.5575 25.9846C68.1138 25.9846 68.5457 25.7735 68.8532 25.3513C69.1653 24.9291 69.3213 24.3112 69.3213 23.4976C69.3213 22.7764 69.1608 22.2047 68.8397 21.7825C68.5231 21.3603 68.0912 21.1493 67.544 21.1493C67.0058 21.1493 66.5784 21.3581 66.2618 21.7759C65.9453 22.1893 65.787 22.8094 65.787 23.6362Z" fill="#4967EE"/>
<path d="M78.805 24.9225L79.9718 19.9949H81.5795L79.5783 27.1324H78.2216L76.6478 22.2311L75.1011 27.1324H73.7443L71.7363 19.9949H73.3441L74.5312 24.8697L76.0372 19.9949H77.2786L78.805 24.9225Z" fill="#4967EE"/>
<path d="M85.6973 25.9846C86.1088 25.9846 86.4503 25.868 86.7216 25.6349C86.993 25.4019 87.1377 25.1138 87.1558 24.7708H88.7093C88.6912 25.215 88.5487 25.6305 88.2819 26.0175C88.0151 26.4001 87.6533 26.7036 87.1965 26.9279C86.7397 27.1522 86.2468 27.2643 85.7176 27.2643C84.691 27.2643 83.877 26.9411 83.2755 26.2946C82.674 25.6481 82.3732 24.7554 82.3732 23.6164V23.4515C82.3732 22.3652 82.6717 21.4967 83.2687 20.8458C83.8657 20.1906 84.6797 19.8629 85.7108 19.8629C86.5837 19.8629 87.2937 20.1114 87.8409 20.6083C88.3927 21.1009 88.6821 21.7495 88.7093 22.5543H87.1558C87.1377 22.1453 86.993 21.8089 86.7216 21.5451C86.4548 21.2812 86.1133 21.1493 85.6973 21.1493C85.1636 21.1493 84.7521 21.3384 84.4626 21.7166C84.1732 22.0904 84.0262 22.6599 84.0217 23.4251V23.6823C84.0217 24.4563 84.1642 25.0346 84.4491 25.4173C84.7385 25.7955 85.1546 25.9846 85.6973 25.9846Z" fill="#4967EE"/>
<path d="M94.3398 27.1324C94.2674 26.996 94.2041 26.774 94.1498 26.4661C93.6252 26.9982 92.983 27.2643 92.2232 27.2643C91.4861 27.2643 90.8846 27.0598 90.4188 26.6508C89.9529 26.2418 89.72 25.7361 89.72 25.1336C89.72 24.3728 90.0095 23.7901 90.5884 23.3855C91.1718 22.9765 92.0039 22.772 93.0848 22.772H94.0956V22.3037C94.0956 21.9343 93.9893 21.6396 93.7767 21.4197C93.5642 21.1954 93.2408 21.0833 92.8066 21.0833C92.4313 21.0833 92.1237 21.1756 91.8841 21.3603C91.6444 21.5407 91.5245 21.7715 91.5245 22.053H89.8761C89.8761 21.6616 90.0095 21.2966 90.2763 20.958C90.5431 20.6149 90.9049 20.3467 91.3617 20.1532C91.823 19.9597 92.3363 19.8629 92.9016 19.8629C93.7609 19.8629 94.446 20.074 94.9571 20.4962C95.4681 20.914 95.7304 21.5033 95.744 22.2641V25.4832C95.744 26.1253 95.8367 26.6376 96.0221 27.0202V27.1324H94.3398ZM92.5285 25.978C92.8541 25.978 93.1594 25.901 93.4443 25.7471C93.7338 25.5932 93.9508 25.3865 94.0956 25.127V23.7813H93.2069C92.5963 23.7813 92.1373 23.8846 91.8298 24.0913C91.5223 24.298 91.3685 24.5905 91.3685 24.9687C91.3685 25.2765 91.4725 25.5228 91.6805 25.7075C91.8931 25.8878 92.1758 25.978 92.5285 25.978Z" fill="#4967EE"/>
<path d="M101.585 25.193C101.585 24.9071 101.463 24.6894 101.218 24.5399C100.979 24.3904 100.579 24.2585 100.018 24.1441C99.457 24.0298 98.9889 23.8846 98.6135 23.7087C97.7904 23.3217 97.3789 22.761 97.3789 22.0266C97.3789 21.4109 97.6457 20.8964 98.1794 20.483C98.713 20.0696 99.3914 19.8629 100.214 19.8629C101.092 19.8629 101.8 20.074 102.338 20.4962C102.881 20.9184 103.152 21.4659 103.152 22.1387H101.503C101.503 21.8309 101.386 21.5758 101.151 21.3735C100.915 21.1668 100.603 21.0635 100.214 21.0635C99.8527 21.0635 99.5565 21.1449 99.3258 21.3076C99.0997 21.4703 98.9866 21.688 98.9866 21.9606C98.9866 22.2069 99.0929 22.3982 99.3055 22.5345C99.518 22.6709 99.9477 22.8094 100.594 22.9501C101.241 23.0865 101.748 23.2514 102.114 23.4449C102.485 23.634 102.758 23.8627 102.935 24.1309C103.116 24.3992 103.206 24.7246 103.206 25.1072C103.206 25.7493 102.933 26.2704 102.385 26.6706C101.838 27.0664 101.121 27.2643 100.235 27.2643C99.6334 27.2643 99.0974 27.1588 98.6271 26.9477C98.1568 26.7366 97.7904 26.4463 97.5281 26.0769C97.2658 25.7075 97.1347 25.3095 97.1347 24.8829H98.7356C98.7582 25.2611 98.9052 25.5536 99.1766 25.7603C99.4479 25.9626 99.8075 26.0637 100.255 26.0637C100.689 26.0637 101.019 25.9846 101.246 25.8262C101.472 25.6635 101.585 25.4524 101.585 25.193Z" fill="#4967EE"/>
<path d="M107.88 27.2643C106.835 27.2643 105.987 26.9455 105.336 26.3078C104.69 25.6657 104.366 24.8126 104.366 23.7483V23.5504C104.366 22.838 104.506 22.2025 104.787 21.644C105.072 21.0811 105.47 20.6435 105.981 20.3313C106.492 20.019 107.062 19.8629 107.69 19.8629C108.69 19.8629 109.461 20.173 110.003 20.793C110.551 21.4131 110.824 22.2905 110.824 23.4251V24.0715H106.028C106.078 24.6608 106.279 25.127 106.632 25.47C106.989 25.813 107.437 25.9846 107.975 25.9846C108.73 25.9846 109.345 25.6877 109.82 25.094L110.709 25.9186C110.415 26.3452 110.022 26.6772 109.529 26.9147C109.04 27.1478 108.491 27.2643 107.88 27.2643ZM107.683 21.1493C107.231 21.1493 106.865 21.3032 106.584 21.611C106.309 21.9189 106.132 22.3476 106.055 22.8974H109.196V22.7786C109.16 22.2421 109.013 21.8375 108.755 21.5648C108.497 21.2878 108.14 21.1493 107.683 21.1493Z" fill="#4967EE"/>
<path d="M118.137 24.8368L119.63 19.9949H121.387L118.47 28.2142C118.022 29.4148 117.262 30.0151 116.19 30.0151C115.951 30.0151 115.686 29.9755 115.397 29.8963V28.6562L115.709 28.676C116.125 28.676 116.437 28.6012 116.645 28.4517C116.857 28.3066 117.025 28.0603 117.147 27.7129L117.384 27.0994L114.806 19.9949H116.584L118.137 24.8368Z" fill="#4967EE"/>
<path d="M121.922 23.4976C121.922 22.7984 122.065 22.1695 122.35 21.611C122.635 21.0481 123.035 20.6171 123.551 20.3181C124.066 20.0146 124.659 19.8629 125.328 19.8629C126.318 19.8629 127.121 20.173 127.736 20.793C128.356 21.4131 128.69 22.2355 128.74 23.2602L128.747 23.6362C128.747 24.3398 128.607 24.9687 128.326 25.5228C128.05 26.0769 127.652 26.5057 127.132 26.8091C126.617 27.1126 126.02 27.2643 125.341 27.2643C124.306 27.2643 123.476 26.9301 122.852 26.2616C122.232 25.5888 121.922 24.6938 121.922 23.5768V23.4976ZM123.571 23.6362C123.571 24.3706 123.727 24.9467 124.039 25.3645C124.351 25.7779 124.785 25.9846 125.341 25.9846C125.898 25.9846 126.33 25.7735 126.637 25.3513C126.949 24.9291 127.105 24.3112 127.105 23.4976C127.105 22.7764 126.945 22.2047 126.624 21.7825C126.307 21.3603 125.875 21.1493 125.328 21.1493C124.79 21.1493 124.362 21.3581 124.046 21.7759C123.729 22.1893 123.571 22.8094 123.571 23.6362Z" fill="#4967EE"/>
<path d="M134.588 26.4331C134.104 26.9872 133.416 27.2643 132.525 27.2643C131.73 27.2643 131.126 27.0378 130.714 26.5848C130.307 26.1319 130.104 25.4766 130.104 24.6191V19.9949H131.752V24.5993C131.752 25.5052 132.139 25.9582 132.912 25.9582C133.713 25.9582 134.253 25.6789 134.533 25.1204V19.9949H136.182V27.1324H134.628L134.588 26.4331Z" fill="#4967EE"/>
<path d="M141.704 21.4593C141.487 21.4241 141.263 21.4065 141.032 21.4065C140.277 21.4065 139.768 21.688 139.506 22.2509V27.1324H137.857V19.9949H139.431L139.472 20.793C139.87 20.173 140.422 19.8629 141.127 19.8629C141.362 19.8629 141.557 19.8937 141.711 19.9553L141.704 21.4593Z" fill="#4967EE"/>
<path d="M148.793 25.1006L150.346 19.9949H152.049L149.505 27.1324H148.074L145.51 19.9949H147.219L148.793 25.1006Z" fill="#4967EE"/>
<path d="M154.837 27.1324H153.189V19.9949H154.837V27.1324ZM153.087 18.1412C153.087 17.8949 153.166 17.6904 153.324 17.5277C153.487 17.365 153.718 17.2837 154.016 17.2837C154.315 17.2837 154.546 17.365 154.708 17.5277C154.871 17.6904 154.953 17.8949 154.953 18.1412C154.953 18.3831 154.871 18.5854 154.708 18.7481C154.546 18.9064 154.315 18.9856 154.016 18.9856C153.718 18.9856 153.487 18.9064 153.324 18.7481C153.166 18.5854 153.087 18.3831 153.087 18.1412Z" fill="#4967EE"/>
<path d="M156.33 23.5108C156.33 22.4114 156.592 21.5297 157.117 20.8656C157.641 20.1971 158.344 19.8629 159.226 19.8629C160.004 19.8629 160.633 20.1268 161.112 20.6545V17H162.761V27.1324H161.268L161.187 26.3935C160.694 26.974 160.036 27.2643 159.213 27.2643C158.353 27.2643 157.657 26.9279 157.123 26.255C156.594 25.5822 156.33 24.6674 156.33 23.5108ZM157.978 23.6494C157.978 24.375 158.121 24.9423 158.405 25.3513C158.695 25.7559 159.104 25.9582 159.633 25.9582C160.307 25.9582 160.8 25.6657 161.112 25.0808V22.0332C160.809 21.4615 160.321 21.1756 159.647 21.1756C159.113 21.1756 158.702 21.3823 158.412 21.7957C158.123 22.2047 157.978 22.8226 157.978 23.6494Z" fill="#4967EE"/>
<path d="M167.713 27.2643C166.668 27.2643 165.82 26.9455 165.169 26.3078C164.522 25.6657 164.199 24.8126 164.199 23.7483V23.5504C164.199 22.838 164.339 22.2025 164.619 21.644C164.904 21.0811 165.302 20.6435 165.813 20.3313C166.324 20.019 166.894 19.8629 167.523 19.8629C168.522 19.8629 169.293 20.173 169.836 20.793C170.383 21.4131 170.657 22.2905 170.657 23.4251V24.0715H165.861C165.911 24.6608 166.112 25.127 166.465 25.47C166.822 25.813 167.27 25.9846 167.808 25.9846C168.563 25.9846 169.178 25.6877 169.653 25.094L170.542 25.9186C170.248 26.3452 169.854 26.6772 169.361 26.9147C168.873 27.1478 168.323 27.2643 167.713 27.2643ZM167.516 21.1493C167.064 21.1493 166.697 21.3032 166.417 21.611C166.141 21.9189 165.965 22.3476 165.888 22.8974H169.029V22.7786C168.993 22.2421 168.846 21.8375 168.588 21.5648C168.33 21.2878 167.973 21.1493 167.516 21.1493Z" fill="#4967EE"/>
<path d="M171.634 23.4976C171.634 22.7984 171.776 22.1695 172.061 21.611C172.346 21.0481 172.746 20.6171 173.262 20.3181C173.777 20.0146 174.37 19.8629 175.039 19.8629C176.03 19.8629 176.832 20.173 177.447 20.793C178.067 21.4131 178.402 22.2355 178.451 23.2602L178.458 23.6362C178.458 24.3398 178.318 24.9687 178.038 25.5228C177.762 26.0769 177.364 26.5057 176.844 26.8091C176.328 27.1126 175.731 27.2643 175.053 27.2643C174.017 27.2643 173.187 26.9301 172.563 26.2616C171.944 25.5888 171.634 24.6938 171.634 23.5768V23.4976ZM173.282 23.6362C173.282 24.3706 173.438 24.9467 173.75 25.3645C174.062 25.7779 174.497 25.9846 175.053 25.9846C175.609 25.9846 176.041 25.7735 176.348 25.3513C176.661 24.9291 176.817 24.3112 176.817 23.4976C176.817 22.7764 176.656 22.2047 176.335 21.7825C176.018 21.3603 175.586 21.1493 175.039 21.1493C174.501 21.1493 174.074 21.3581 173.757 21.7759C173.441 22.1893 173.282 22.8094 173.282 23.6362Z" fill="#4967EE"/>
<path d="M183.967 25.193C183.967 24.9071 183.845 24.6894 183.6 24.5399C183.361 24.3904 182.96 24.2585 182.4 24.1441C181.839 24.0298 181.371 23.8846 180.995 23.7087C180.172 23.3217 179.761 22.761 179.761 22.0266C179.761 21.4109 180.028 20.8964 180.561 20.483C181.095 20.0696 181.773 19.8629 182.596 19.8629C183.474 19.8629 184.181 20.074 184.72 20.4962C185.262 20.9184 185.534 21.4659 185.534 22.1387H183.885C183.885 21.8309 183.768 21.5758 183.532 21.3735C183.297 21.1668 182.985 21.0635 182.596 21.0635C182.234 21.0635 181.938 21.1449 181.708 21.3076C181.482 21.4703 181.368 21.688 181.368 21.9606C181.368 22.2069 181.475 22.3982 181.687 22.5345C181.9 22.6709 182.329 22.8094 182.976 22.9501C183.623 23.0865 184.129 23.2514 184.496 23.4449C184.867 23.634 185.14 23.8627 185.317 24.1309C185.497 24.3992 185.588 24.7246 185.588 25.1072C185.588 25.7493 185.314 26.2704 184.767 26.6706C184.22 27.0664 183.503 27.2643 182.617 27.2643C182.015 27.2643 181.479 27.1588 181.009 26.9477C180.539 26.7366 180.172 26.4463 179.91 26.0769C179.648 25.7075 179.516 25.3095 179.516 24.8829H181.117C181.14 25.2611 181.287 25.5536 181.558 25.7603C181.83 25.9626 182.189 26.0637 182.637 26.0637C183.071 26.0637 183.401 25.9846 183.627 25.8262C183.854 25.6635 183.967 25.4524 183.967 25.193Z" fill="#4967EE"/>
<path d="M194.861 210.872C194.762 211.919 194.372 212.737 193.693 213.326C193.013 213.911 192.11 214.203 190.982 214.203C190.193 214.203 189.498 214.019 188.896 213.65C188.298 213.277 187.836 212.749 187.51 212.065C187.183 211.382 187.014 210.588 187 209.685V208.768C187 207.842 187.165 207.026 187.496 206.32C187.827 205.614 188.3 205.07 188.916 204.688C189.537 204.306 190.252 204.115 191.063 204.115C192.155 204.115 193.034 204.409 193.699 204.998C194.365 205.587 194.753 206.419 194.861 207.493H193.149C193.068 206.787 192.859 206.279 192.524 205.969C192.193 205.654 191.706 205.497 191.063 205.497C190.316 205.497 189.74 205.769 189.337 206.313C188.939 206.853 188.735 207.646 188.726 208.694V209.563C188.726 210.624 188.916 211.434 189.297 211.991C189.682 212.549 190.243 212.827 190.982 212.827C191.657 212.827 192.164 212.677 192.504 212.376C192.843 212.074 193.059 211.573 193.149 210.872H194.861Z" fill="#4967EE"/>
<path d="M200.698 213.353C200.213 213.92 199.525 214.203 198.632 214.203C197.835 214.203 197.23 213.971 196.818 213.508C196.411 213.045 196.207 212.376 196.207 211.499V206.772H197.858V211.479C197.858 212.405 198.245 212.868 199.02 212.868C199.821 212.868 200.363 212.582 200.644 212.011V206.772H202.295V214.068H200.739L200.698 213.353Z" fill="#4967EE"/>
<path d="M208.097 212.086C208.097 211.793 207.975 211.571 207.73 211.418C207.49 211.265 207.089 211.13 206.528 211.013C205.966 210.896 205.497 210.748 205.121 210.568C204.297 210.173 203.885 209.599 203.885 208.849C203.885 208.219 204.152 207.693 204.686 207.271C205.221 206.848 205.9 206.637 206.725 206.637C207.604 206.637 208.312 206.853 208.851 207.284C209.395 207.716 209.667 208.275 209.667 208.963H208.016C208.016 208.649 207.898 208.388 207.662 208.181C207.427 207.97 207.114 207.864 206.725 207.864C206.362 207.864 206.066 207.947 205.835 208.114C205.608 208.28 205.495 208.502 205.495 208.781C205.495 209.033 205.601 209.229 205.814 209.368C206.027 209.507 206.457 209.649 207.105 209.793C207.753 209.932 208.26 210.101 208.627 210.298C208.999 210.492 209.273 210.726 209.449 211C209.631 211.274 209.721 211.607 209.721 211.998C209.721 212.654 209.447 213.187 208.899 213.596C208.351 214.001 207.633 214.203 206.745 214.203C206.143 214.203 205.606 214.095 205.135 213.879C204.664 213.664 204.297 213.367 204.034 212.989C203.771 212.612 203.64 212.205 203.64 211.769H205.244C205.266 212.155 205.413 212.454 205.685 212.665C205.957 212.872 206.317 212.976 206.766 212.976C207.2 212.976 207.531 212.895 207.758 212.733C207.984 212.567 208.097 212.351 208.097 212.086Z" fill="#4967EE"/>
<path d="M213.234 204.998V206.772H214.532V207.985H213.234V212.059C213.234 212.337 213.288 212.54 213.397 212.665C213.51 212.787 213.71 212.848 213.995 212.848C214.185 212.848 214.378 212.825 214.573 212.78V214.048C214.197 214.151 213.834 214.203 213.485 214.203C212.217 214.203 211.583 213.508 211.583 212.119V207.985H210.373V206.772H211.583V204.998H213.234Z" fill="#4967EE"/>
<path d="M215.286 210.352C215.286 209.638 215.429 208.995 215.714 208.424C215.999 207.848 216.4 207.408 216.917 207.102C217.433 206.792 218.026 206.637 218.697 206.637C219.689 206.637 220.493 206.954 221.109 207.588C221.73 208.221 222.065 209.062 222.115 210.11L222.121 210.494C222.121 211.213 221.981 211.856 221.7 212.423C221.424 212.989 221.025 213.428 220.504 213.738C219.988 214.048 219.39 214.203 218.71 214.203C217.673 214.203 216.842 213.861 216.217 213.178C215.596 212.49 215.286 211.575 215.286 210.433V210.352ZM216.937 210.494C216.937 211.245 217.093 211.834 217.406 212.261C217.718 212.683 218.153 212.895 218.71 212.895C219.268 212.895 219.7 212.679 220.008 212.247C220.321 211.816 220.477 211.184 220.477 210.352C220.477 209.615 220.316 209.031 219.995 208.599C219.678 208.168 219.245 207.952 218.697 207.952C218.158 207.952 217.73 208.165 217.413 208.592C217.096 209.015 216.937 209.649 216.937 210.494Z" fill="#4967EE"/>
<path d="M225.07 206.772L225.118 207.534C225.634 206.936 226.341 206.637 227.238 206.637C228.221 206.637 228.893 207.01 229.256 207.756C229.79 207.01 230.542 206.637 231.511 206.637C232.322 206.637 232.925 206.859 233.319 207.304C233.717 207.749 233.921 208.406 233.93 209.273V214.068H232.279V209.321C232.279 208.858 232.177 208.518 231.974 208.302C231.77 208.087 231.432 207.979 230.961 207.979C230.585 207.979 230.277 208.08 230.037 208.282C229.802 208.48 229.636 208.741 229.541 209.064L229.548 214.068H227.897V209.267C227.874 208.408 227.432 207.979 226.572 207.979C225.91 207.979 225.442 208.246 225.165 208.781V214.068H223.514V206.772H225.07Z" fill="#4967EE"/>
<path d="M237.382 214.068H235.731V206.772H237.382V214.068ZM235.629 204.877C235.629 204.625 235.708 204.416 235.867 204.25C236.03 204.083 236.261 204 236.56 204C236.859 204 237.09 204.083 237.253 204.25C237.416 204.416 237.498 204.625 237.498 204.877C237.498 205.124 237.416 205.331 237.253 205.497C237.09 205.659 236.859 205.74 236.56 205.74C236.261 205.74 236.03 205.659 235.867 205.497C235.708 205.331 235.629 205.124 235.629 204.877Z" fill="#4967EE"/>
<path d="M240.949 212.76H244.863V214.068H238.897V212.996L242.627 208.093H238.965V206.772H244.72V207.81L240.949 212.76Z" fill="#4967EE"/>
<path d="M249.313 214.203C248.267 214.203 247.418 213.877 246.765 213.225C246.118 212.569 245.794 211.697 245.794 210.609V210.406C245.794 209.678 245.934 209.028 246.215 208.457C246.5 207.882 246.899 207.435 247.411 207.116C247.923 206.796 248.493 206.637 249.123 206.637C250.124 206.637 250.897 206.954 251.44 207.588C251.988 208.221 252.262 209.118 252.262 210.278V210.939H247.458C247.508 211.542 247.71 212.018 248.063 212.369C248.421 212.719 248.869 212.895 249.408 212.895C250.165 212.895 250.781 212.591 251.257 211.984L252.147 212.827C251.852 213.263 251.458 213.603 250.964 213.846C250.475 214.084 249.925 214.203 249.313 214.203ZM249.116 207.952C248.663 207.952 248.296 208.109 248.016 208.424C247.739 208.738 247.563 209.177 247.486 209.739H250.632V209.617C250.595 209.069 250.448 208.655 250.19 208.377C249.932 208.093 249.574 207.952 249.116 207.952Z" fill="#4967EE"/>
<path d="M259.587 211.721L261.082 206.772H262.841L259.92 215.174C259.471 216.401 258.71 217.015 257.637 217.015C257.397 217.015 257.132 216.975 256.842 216.894V215.626L257.154 215.646C257.571 215.646 257.884 215.57 258.092 215.417C258.305 215.268 258.473 215.017 258.595 214.662L258.833 214.034L256.251 206.772H258.031L259.587 211.721Z" fill="#4967EE"/>
<path d="M263.378 210.352C263.378 209.638 263.521 208.995 263.806 208.424C264.092 207.848 264.493 207.408 265.009 207.102C265.525 206.792 266.119 206.637 266.789 206.637C267.781 206.637 268.585 206.954 269.201 207.588C269.822 208.221 270.157 209.062 270.207 210.11L270.214 210.494C270.214 211.213 270.073 211.856 269.792 212.423C269.516 212.989 269.117 213.428 268.596 213.738C268.08 214.048 267.482 214.203 266.803 214.203C265.765 214.203 264.934 213.861 264.309 213.178C263.688 212.49 263.378 211.575 263.378 210.433V210.352ZM265.029 210.494C265.029 211.245 265.186 211.834 265.498 212.261C265.811 212.683 266.246 212.895 266.803 212.895C267.36 212.895 267.792 212.679 268.1 212.247C268.413 211.816 268.569 211.184 268.569 210.352C268.569 209.615 268.408 209.031 268.087 208.599C267.77 208.168 267.337 207.952 266.789 207.952C266.25 207.952 265.822 208.165 265.505 208.592C265.188 209.015 265.029 209.649 265.029 210.494Z" fill="#4967EE"/>
<path d="M276.064 213.353C275.579 213.92 274.891 214.203 273.998 214.203C273.201 214.203 272.596 213.971 272.184 213.508C271.776 213.045 271.573 212.376 271.573 211.499V206.772H273.224V211.479C273.224 212.405 273.611 212.868 274.385 212.868C275.187 212.868 275.729 212.582 276.009 212.011V206.772H277.66V214.068H276.105L276.064 213.353Z" fill="#4967EE"/>
<path d="M283.191 208.269C282.974 208.233 282.75 208.215 282.519 208.215C281.762 208.215 281.253 208.502 280.99 209.078V214.068H279.339V206.772H280.915L280.956 207.588C281.354 206.954 281.907 206.637 282.614 206.637C282.849 206.637 283.044 206.668 283.198 206.731L283.191 208.269Z" fill="#4967EE"/>
<path d="M294.137 210.494C294.137 211.622 293.879 212.524 293.363 213.198C292.846 213.868 292.153 214.203 291.284 214.203C290.477 214.203 289.832 213.94 289.347 213.414V216.873H287.696V206.772H289.218L289.286 207.513C289.771 206.929 290.43 206.637 291.263 206.637C292.16 206.637 292.862 206.969 293.37 207.635C293.881 208.296 294.137 209.215 294.137 210.393V210.494ZM292.493 210.352C292.493 209.624 292.346 209.046 292.051 208.619C291.762 208.192 291.345 207.979 290.801 207.979C290.126 207.979 289.642 208.255 289.347 208.808V212.045C289.646 212.612 290.135 212.895 290.815 212.895C291.34 212.895 291.75 212.686 292.045 212.268C292.344 211.845 292.493 211.207 292.493 210.352Z" fill="#4967EE"/>
<path d="M299.933 214.068C299.861 213.929 299.797 213.702 299.743 213.387C299.218 213.931 298.574 214.203 297.813 214.203C297.075 214.203 296.472 213.994 296.006 213.576C295.539 213.158 295.306 212.641 295.306 212.025C295.306 211.247 295.596 210.651 296.176 210.238C296.76 209.82 297.594 209.611 298.676 209.611H299.689V209.132C299.689 208.754 299.582 208.453 299.369 208.228C299.156 207.999 298.832 207.884 298.398 207.884C298.022 207.884 297.714 207.979 297.474 208.168C297.233 208.352 297.113 208.588 297.113 208.876H295.462C295.462 208.475 295.596 208.102 295.863 207.756C296.131 207.405 296.493 207.131 296.95 206.933C297.412 206.736 297.927 206.637 298.493 206.637C299.353 206.637 300.04 206.853 300.552 207.284C301.063 207.711 301.326 208.314 301.34 209.091V212.382C301.34 213.039 301.433 213.562 301.618 213.953V214.068H299.933ZM298.119 212.888C298.445 212.888 298.751 212.809 299.036 212.652C299.326 212.495 299.544 212.283 299.689 212.018V210.642H298.799C298.187 210.642 297.727 210.748 297.419 210.959C297.111 211.171 296.957 211.47 296.957 211.856C296.957 212.171 297.061 212.423 297.27 212.612C297.483 212.796 297.766 212.888 298.119 212.888Z" fill="#4967EE"/>
<path d="M302.78 210.366C302.78 209.233 303.047 208.329 303.582 207.655C304.121 206.976 304.834 206.637 305.722 206.637C306.56 206.637 307.219 206.927 307.699 207.507L307.774 206.772H309.262V213.846C309.262 214.803 308.961 215.558 308.359 216.111C307.761 216.664 306.952 216.941 305.933 216.941C305.394 216.941 304.866 216.829 304.35 216.604C303.838 216.383 303.448 216.093 303.181 215.734L303.962 214.749C304.47 215.347 305.095 215.646 305.838 215.646C306.386 215.646 306.818 215.498 307.136 215.201C307.453 214.909 307.611 214.477 307.611 213.906V213.414C307.136 213.94 306.501 214.203 305.709 214.203C304.848 214.203 304.144 213.864 303.596 213.185C303.052 212.506 302.78 211.566 302.78 210.366ZM304.424 210.508C304.424 211.24 304.574 211.818 304.873 212.241C305.176 212.659 305.595 212.868 306.13 212.868C306.796 212.868 307.29 212.585 307.611 212.018V208.808C307.299 208.255 306.809 207.979 306.143 207.979C305.6 207.979 305.176 208.192 304.873 208.619C304.574 209.046 304.424 209.676 304.424 210.508Z" fill="#4967EE"/>
<path d="M314.202 214.203C313.156 214.203 312.306 213.877 311.654 213.225C311.006 212.569 310.682 211.697 310.682 210.609V210.406C310.682 209.678 310.823 209.028 311.104 208.457C311.389 207.882 311.788 207.435 312.299 207.116C312.811 206.796 313.382 206.637 314.012 206.637C315.013 206.637 315.785 206.954 316.329 207.588C316.877 208.221 317.151 209.118 317.151 210.278V210.939H312.347C312.397 211.542 312.598 212.018 312.952 212.369C313.31 212.719 313.758 212.895 314.297 212.895C315.053 212.895 315.67 212.591 316.145 211.984L317.035 212.827C316.741 213.263 316.347 213.603 315.853 213.846C315.364 214.084 314.813 214.203 314.202 214.203ZM314.005 207.952C313.552 207.952 313.185 208.109 312.904 208.424C312.628 208.738 312.451 209.177 312.374 209.739H315.52V209.617C315.484 209.069 315.337 208.655 315.078 208.377C314.82 208.093 314.462 207.952 314.005 207.952Z" fill="#4967EE"/>
<path d="M302.277 28.0552L302.389 6.67327" stroke="#C8D1E0" stroke-width="3.52973" stroke-linecap="round" stroke-linejoin="round"/>
<path d="M319.01 35.4924L334.209 20.4529" stroke="#C8D1E0" stroke-width="3.52973" stroke-linecap="round" stroke-linejoin="round"/>
<path d="M344.111 53.156L322.729 53.0436" stroke="#C8D1E0" stroke-width="3.52973" stroke-linecap="round" stroke-linejoin="round"/>
<path d="M107.979 81.4713L110.269 83.944L110.487 84.1792L110.778 84.0447L113.837 82.6311L112.193 85.5729L112.036 85.8528L112.254 86.088L114.544 88.5607L111.238 87.9061L110.924 87.8438L110.767 88.1237L109.123 91.0655L108.724 87.7191L108.686 87.4008L108.372 87.3385L105.066 86.684L108.125 85.2704L108.416 85.1359L108.378 84.8176L107.979 81.4713Z" stroke="#4967EE" stroke-width="0.882432" stroke-linecap="round"/>
<path d="M355.693 73.7067L355.968 77.0655L355.994 77.385L356.306 77.4588L359.586 78.2347L356.477 79.5346L356.181 79.6583L356.207 79.9778L356.483 83.3366L354.285 80.7812L354.076 80.5381L353.781 80.6618L350.671 81.9618L352.423 79.0825L352.589 78.8086L352.38 78.5656L350.183 76.0102L353.463 76.7861L353.775 76.8599L353.941 76.586L355.693 73.7067Z" stroke="#4967EE" stroke-width="0.882432" stroke-linecap="round"/>
<path d="M238.876 5.98315L239.577 9.27941L239.644 9.59295L239.963 9.62638L243.315 9.97782L240.396 11.6636L240.119 11.8239L240.186 12.1375L240.887 15.4337L238.382 13.1793L238.144 12.9649L237.866 13.1252L234.948 14.811L236.318 11.7319L236.448 11.4391L236.21 11.2246L233.705 8.97023L237.057 9.32167L237.376 9.35509L237.506 9.06221L238.876 5.98315Z" stroke="#4967EE" stroke-width="0.882432" stroke-linecap="round"/>
<path d="M339.461 164.21L341.751 166.682L341.969 166.917L342.26 166.783L345.319 165.369L343.675 168.311L343.518 168.591L343.736 168.826L346.026 171.299L342.72 170.644L342.406 170.582L342.249 170.862L340.605 173.804L340.206 170.457L340.168 170.139L339.854 170.077L336.548 169.422L339.607 168.009L339.898 167.874L339.86 167.556L339.461 164.21Z" stroke="#AFBACC" stroke-width="0.882432" stroke-linecap="round"/>
<path d="M107.618 180.014L107.143 183.351L107.098 183.668L107.386 183.809L110.413 185.291L107.093 185.871L106.777 185.926L106.732 186.243L106.257 189.58L104.68 186.602L104.53 186.318L104.214 186.374L100.894 186.953L103.239 184.533L103.463 184.303L103.313 184.019L101.735 181.041L104.762 182.524L105.05 182.665L105.273 182.434L107.618 180.014Z" stroke="#AFBACC" stroke-width="0.882432" stroke-linecap="round"/>
<circle cx="337.138" cy="89.8771" r="2.81255" stroke="#707A8A" stroke-width="0.882432"/>
<circle cx="134.475" cy="51.7613" r="2.81255" stroke="#707A8A" stroke-width="0.882432"/>
<circle cx="128.897" cy="193.998" r="2.81255" stroke="#707A8A" stroke-width="0.882432"/>
<circle cx="368.746" cy="180.053" r="2.81255" stroke="#707A8A" stroke-width="0.882432"/>
<circle cx="242.314" cy="30.3795" r="2.81255" stroke="#707A8A" stroke-width="0.882432"/>
<circle cx="128.897" cy="98.244" r="2.81255" stroke="#AFBACC" stroke-width="0.882432"/>
<circle cx="329.701" cy="203.294" r="2.81255" stroke="#AFBACC" stroke-width="0.882432"/>
<circle cx="261.837" cy="15.505" r="2.81255" stroke="#AFBACC" stroke-width="0.882432"/>
<circle cx="118.671" cy="123.344" r="2.81255" stroke="#4967EE" stroke-width="0.882432"/>
<circle cx="95.4296" cy="207.012" r="2.81255" stroke="#4967EE" stroke-width="0.882432"/>
<circle cx="352.012" cy="148.445" r="2.81255" stroke="#4967EE" stroke-width="0.882432"/>
<path fill-rule="evenodd" clip-rule="evenodd" d="M93.1506 108.156C92.948 107.954 92.6195 107.954 92.4169 108.156C92.2143 108.358 92.2143 108.685 92.4169 108.887L94.7516 111.214L92.3277 113.63C92.1251 113.831 92.1251 114.159 92.3277 114.361C92.5304 114.563 92.8589 114.563 93.0615 114.361L95.4853 111.945L97.7976 114.25C98.0002 114.452 98.3287 114.452 98.5314 114.25C98.734 114.048 98.734 113.72 98.5314 113.518L96.219 111.214L98.4422 108.998C98.6448 108.796 98.6448 108.469 98.4422 108.267C98.2396 108.065 97.9111 108.065 97.7085 108.267L95.4853 110.483L93.1506 108.156Z" fill="#707A8A"/>
<path fill-rule="evenodd" clip-rule="evenodd" d="M132.196 167.654C131.993 167.452 131.665 167.452 131.462 167.654C131.259 167.856 131.259 168.183 131.462 168.385L133.797 170.712L131.373 173.127C131.17 173.329 131.17 173.657 131.373 173.859C131.576 174.06 131.904 174.06 132.107 173.859L134.53 171.443L136.843 173.747C137.045 173.949 137.374 173.949 137.577 173.747C137.779 173.546 137.779 173.218 137.577 173.016L135.264 170.712L137.487 168.496C137.69 168.294 137.69 167.967 137.487 167.765C137.285 167.563 136.956 167.563 136.754 167.765L134.53 169.981L132.196 167.654Z" fill="#AFBACC"/>
<path fill-rule="evenodd" clip-rule="evenodd" d="M209.357 27.2772C209.154 27.0753 208.826 27.0753 208.623 27.2772C208.421 27.4791 208.421 27.8065 208.623 28.0084L210.958 30.3351L208.534 32.7506C208.331 32.9525 208.331 33.2799 208.534 33.4818C208.737 33.6838 209.065 33.6838 209.268 33.4818L211.692 31.0663L214.004 33.3707C214.207 33.5726 214.535 33.5726 214.738 33.3707C214.94 33.1688 214.94 32.8414 214.738 32.6395L212.425 30.3351L214.648 28.1195C214.851 27.9176 214.851 27.5902 214.648 27.3883C214.446 27.1864 214.117 27.1864 213.915 27.3883L211.692 29.6038L209.357 27.2772Z" fill="#AFBACC"/>
<path fill-rule="evenodd" clip-rule="evenodd" d="M121.04 215.995C120.837 215.794 120.509 215.794 120.306 215.995C120.104 216.197 120.104 216.525 120.306 216.727L122.641 219.053L120.217 221.469C120.015 221.671 120.015 221.998 120.217 222.2C120.42 222.402 120.748 222.402 120.951 222.2L123.375 219.785L125.687 222.089C125.89 222.291 126.218 222.291 126.421 222.089C126.623 221.887 126.623 221.56 126.421 221.358L124.108 219.053L126.332 216.838C126.534 216.636 126.534 216.308 126.332 216.107C126.129 215.905 125.8 215.905 125.598 216.107L123.375 218.322L121.04 215.995Z" fill="#AFBACC"/>
<path fill-rule="evenodd" clip-rule="evenodd" d="M349.733 98.8599C349.531 98.658 349.202 98.658 349 98.8599C348.797 99.0619 348.797 99.3892 349 99.5912L351.334 101.918L348.911 104.333C348.708 104.535 348.708 104.863 348.911 105.065C349.113 105.267 349.442 105.267 349.644 105.065L352.068 102.649L354.38 104.953C354.583 105.155 354.912 105.155 355.114 104.953C355.317 104.752 355.317 104.424 355.114 104.222L352.802 101.918L355.025 99.7023C355.228 99.5003 355.228 99.173 355.025 98.971C354.822 98.7691 354.494 98.7691 354.291 98.971L352.068 101.187L349.733 98.8599Z" fill="#AFBACC"/>
<path fill-rule="evenodd" clip-rule="evenodd" d="M349.733 190.895C349.531 190.693 349.202 190.693 349 190.895C348.797 191.097 348.797 191.425 349 191.627L351.334 193.953L348.911 196.369C348.708 196.571 348.708 196.898 348.911 197.1C349.113 197.302 349.442 197.302 349.644 197.1L352.068 194.684L354.38 196.989C354.583 197.191 354.912 197.191 355.114 196.989C355.317 196.787 355.317 196.46 355.114 196.258L352.802 193.953L355.025 191.738C355.228 191.536 355.228 191.208 355.025 191.006C354.822 190.805 354.494 190.805 354.291 191.006L352.068 193.222L349.733 190.895Z" fill="#4967EE"/>
<path fill-rule="evenodd" clip-rule="evenodd" d="M274.432 20.7694C274.23 20.5674 273.901 20.5674 273.698 20.7694C273.496 20.9713 273.496 21.2987 273.698 21.5006L276.033 23.8273L273.609 26.2428C273.407 26.4447 273.407 26.7721 273.609 26.974C273.812 27.1759 274.14 27.1759 274.343 26.974L276.767 24.5585L279.079 26.8629C279.282 27.0648 279.61 27.0648 279.813 26.8629C280.015 26.661 280.015 26.3336 279.813 26.1317L277.501 23.8273L279.724 21.6117C279.926 21.4098 279.926 21.0824 279.724 20.8805C279.521 20.6785 279.193 20.6785 278.99 20.8805L276.767 23.096L274.432 20.7694Z" fill="#4967EE"/>
<g filter="url(#filter0_d)">
<rect width="122.714" height="122.714" transform="translate(125 53.156)" fill="white"/>
<rect x="125" y="53.156" width="122.714" height="39.9749" fill="#707A8A"/>
<rect x="131.507" y="122.88" width="24.1709" height="18.593" fill="#B6C2F8"/>
<rect x="131.507" y="145.191" width="24.1709" height="18.593" fill="#DBE1FC"/>
<rect x="158.467" y="122.88" width="24.1709" height="18.593" fill="#DBE1FC"/>
<rect x="158.467" y="145.191" width="24.1709" height="18.593" fill="#B6C2F8"/>
<rect x="187.286" y="122.88" width="24.1709" height="18.593" fill="#B6C2F8"/>
<rect x="187.286" y="145.191" width="24.1709" height="18.593" fill="#DBE1FC"/>
<rect x="216.106" y="122.88" width="26.0302" height="18.593" fill="#DBE1FC"/>
<rect x="216.106" y="145.191" width="26.0302" height="18.593" fill="#B6C2F8"/>
<rect x="131.507" y="76.3967" width="55.7789" height="36.2563" fill="#B6C2F8"/>
<rect x="131.507" y="66.1707" width="43.6935" height="4.64824" rx="2.32412" fill="white"/>
<rect x="131.507" y="59.6633" width="22.3116" height="4.64824" rx="2.32412" fill="#B6C2F8"/>
<circle cx="243.53" cy="56.4096" r="1.39447" fill="#EDF0FE"/>
</g>
<path d="M7.65455 161.217C7.65455 160.794 7.50105 160.469 7.19406 160.24C6.89158 160.012 6.34305 159.781 5.54848 159.548C4.75391 159.314 4.12187 159.055 3.65235 158.769C2.75394 158.219 2.30474 157.503 2.30474 156.619C2.30474 155.845 2.62753 155.207 3.27312 154.706C3.92322 154.204 4.7652 153.954 5.79904 153.954C6.48526 153.954 7.09699 154.077 7.63423 154.323C8.17147 154.569 8.59359 154.921 8.90058 155.379C9.20757 155.831 9.36107 156.335 9.36107 156.889H7.65455C7.65455 156.388 7.49202 155.996 7.16697 155.715C6.84643 155.429 6.38594 155.286 5.7855 155.286C5.22569 155.286 4.79003 155.403 4.47852 155.636C4.17153 155.869 4.01803 156.194 4.01803 156.612C4.01803 156.964 4.18507 157.259 4.51915 157.496C4.85323 157.729 5.40402 157.958 6.1715 158.182C6.93898 158.402 7.55523 158.655 8.02023 158.941C8.48524 159.222 8.82609 159.548 9.04279 159.917C9.25949 160.282 9.36784 160.711 9.36784 161.203C9.36784 162.004 9.05182 162.641 8.41977 163.116C7.79224 163.587 6.93898 163.822 5.85999 163.822C5.14668 163.822 4.48981 163.695 3.88936 163.44C3.29344 163.18 2.82843 162.824 2.49435 162.371C2.16478 161.918 2 161.39 2 160.788H3.71329C3.71329 161.333 3.89839 161.755 4.26859 162.054C4.63879 162.353 5.16926 162.503 5.85999 162.503C6.45592 162.503 6.90287 162.386 7.20083 162.153C7.50331 161.916 7.65455 161.604 7.65455 161.217Z" fill="#4967EE"/>
<path d="M12.3339 157.331C12.8712 156.724 13.5506 156.421 14.3723 156.421C15.9343 156.421 16.7267 157.289 16.7492 159.026V163.69H15.1037V159.086C15.1037 158.593 14.993 158.246 14.7718 158.044C14.5551 157.837 14.2346 157.734 13.8102 157.734C13.1511 157.734 12.659 158.019 12.3339 158.591V163.69H10.6884V153.558H12.3339V157.331Z" fill="#4967EE"/>
<path d="M22.7965 163.69C22.7243 163.554 22.6611 163.332 22.6069 163.024C22.0832 163.556 21.4422 163.822 20.6837 163.822C19.9478 163.822 19.3474 163.618 18.8824 163.209C18.4174 162.8 18.1849 162.294 18.1849 161.691C18.1849 160.931 18.4738 160.348 19.0517 159.943C19.6341 159.534 20.4648 159.33 21.5437 159.33H22.5528V158.862C22.5528 158.492 22.4467 158.197 22.2345 157.978C22.0223 157.753 21.6995 157.641 21.2661 157.641C20.8914 157.641 20.5844 157.734 20.3451 157.918C20.1058 158.099 19.9862 158.329 19.9862 158.611H18.3406C18.3406 158.219 18.4738 157.854 18.7402 157.516C19.0065 157.173 19.3677 156.905 19.8237 156.711C20.2842 156.518 20.7966 156.421 21.3609 156.421C22.2187 156.421 22.9026 156.632 23.4128 157.054C23.9229 157.472 24.1848 158.061 24.1983 158.822V162.041C24.1983 162.683 24.2909 163.195 24.476 163.578V163.69H22.7965ZM20.9884 162.536C21.3135 162.536 21.6182 162.459 21.9027 162.305C22.1916 162.151 22.4083 161.944 22.5528 161.685V160.339H21.6656C21.0562 160.339 20.5979 160.443 20.2909 160.649C19.9839 160.856 19.8304 161.148 19.8304 161.527C19.8304 161.834 19.9343 162.081 20.142 162.265C20.3541 162.446 20.6363 162.536 20.9884 162.536Z" fill="#4967EE"/>
<path d="M29.7581 158.017C29.5414 157.982 29.3179 157.964 29.0877 157.964C28.3337 157.964 27.8258 158.246 27.564 158.809V163.69H25.9184V156.553H27.4895L27.5301 157.351C27.9274 156.731 28.4782 156.421 29.1825 156.421C29.4172 156.421 29.6113 156.452 29.7648 156.513L29.7581 158.017Z" fill="#4967EE"/>
<path d="M33.8889 163.822C32.8461 163.822 31.9996 163.503 31.3495 162.866C30.7039 162.224 30.3811 161.37 30.3811 160.306V160.108C30.3811 159.396 30.521 158.76 30.8009 158.202C31.0854 157.639 31.4827 157.201 31.9928 156.889C32.503 156.577 33.0718 156.421 33.6993 156.421C34.6971 156.421 35.4668 156.731 36.0085 157.351C36.5548 157.971 36.8279 158.848 36.8279 159.983V160.629H32.0402C32.0899 161.219 32.2908 161.685 32.6429 162.028C32.9996 162.371 33.4465 162.542 33.9837 162.542C34.7377 162.542 35.3517 162.246 35.8257 161.652L36.7128 162.476C36.4194 162.903 36.0266 163.235 35.5345 163.473C35.0469 163.706 34.4984 163.822 33.8889 163.822ZM33.6926 157.707C33.2411 157.707 32.8754 157.861 32.5955 158.169C32.3201 158.477 32.144 158.905 32.0673 159.455H35.2027V159.336C35.1666 158.8 35.0199 158.395 34.7625 158.123C34.5052 157.846 34.1485 157.707 33.6926 157.707Z" fill="#4967EE"/>
<path d="M44.1281 161.395L45.6179 156.553H47.3718L44.4599 164.772C44.013 165.973 43.2545 166.573 42.1845 166.573C41.9453 166.573 41.6812 166.533 41.3922 166.454V165.214L41.7037 165.234C42.1191 165.234 42.4306 165.159 42.6383 165.01C42.8504 164.864 43.0175 164.618 43.1394 164.271L43.3764 163.657L40.8031 156.553H42.5773L44.1281 161.395Z" fill="#4967EE"/>
<path d="M47.9068 160.056C47.9068 159.356 48.049 158.727 48.3334 158.169C48.6179 157.606 49.0174 157.175 49.5321 156.876C50.0467 156.573 50.6381 156.421 51.3063 156.421C52.295 156.421 53.0963 156.731 53.7103 157.351C54.3288 157.971 54.6629 158.793 54.7126 159.818L54.7193 160.194C54.7193 160.898 54.5794 161.527 54.2995 162.081C54.0241 162.635 53.6268 163.064 53.1076 163.367C52.593 163.67 51.997 163.822 51.3198 163.822C50.286 163.822 49.4576 163.488 48.8346 162.819C48.2161 162.147 47.9068 161.252 47.9068 160.135V160.056ZM49.5524 160.194C49.5524 160.928 49.7081 161.505 50.0196 161.922C50.3311 162.336 50.7645 162.542 51.3198 162.542C51.8751 162.542 52.3063 162.331 52.6133 161.909C52.9248 161.487 53.0805 160.869 53.0805 160.056C53.0805 159.334 52.9203 158.763 52.5997 158.34C52.2837 157.918 51.8526 157.707 51.3063 157.707C50.7691 157.707 50.3424 157.916 50.0264 158.334C49.7104 158.747 49.5524 159.367 49.5524 160.194Z" fill="#4967EE"/>
<path d="M60.55 162.991C60.0669 163.545 59.3807 163.822 58.4913 163.822C57.6967 163.822 57.094 163.596 56.6832 163.143C56.2769 162.69 56.0737 162.034 56.0737 161.177V156.553H57.7193V161.157C57.7193 162.063 58.1053 162.516 58.8773 162.516C59.6764 162.516 60.2159 162.237 60.4958 161.678V156.553H62.1414V163.69H60.5906L60.55 162.991Z" fill="#4967EE"/>
<path d="M67.6537 158.017C67.437 157.982 67.2135 157.964 66.9833 157.964C66.2293 157.964 65.7214 158.246 65.4596 158.809V163.69H63.814V156.553H65.3851L65.4257 157.351C65.823 156.731 66.3738 156.421 67.0781 156.421C67.3129 156.421 67.507 156.452 67.6605 156.513L67.6537 158.017Z" fill="#4967EE"/>
<path d="M75.157 162.542C75.5678 162.542 75.9087 162.426 76.1795 162.193C76.4504 161.96 76.5949 161.672 76.6129 161.329H78.1637C78.1457 161.773 78.0034 162.188 77.7371 162.575C77.4707 162.958 77.1096 163.261 76.6536 163.486C76.1976 163.71 75.7055 163.822 75.1773 163.822C74.1525 163.822 73.3399 163.499 72.7394 162.852C72.139 162.206 71.8387 161.313 71.8387 160.174V160.009C71.8387 158.923 72.1367 158.055 72.7326 157.404C73.3286 156.748 74.1412 156.421 75.1705 156.421C76.0418 156.421 76.7506 156.669 77.2969 157.166C77.8477 157.659 78.1366 158.307 78.1637 159.112H76.6129C76.5949 158.703 76.4504 158.367 76.1795 158.103C75.9132 157.839 75.5723 157.707 75.157 157.707C74.6243 157.707 74.2134 157.896 73.9245 158.274C73.6356 158.648 73.4888 159.218 73.4843 159.983V160.24C73.4843 161.014 73.6265 161.593 73.9109 161.975C74.1999 162.353 74.6152 162.542 75.157 162.542Z" fill="#4967EE"/>
<path d="M79.0982 160.056C79.0982 159.356 79.2404 158.727 79.5249 158.169C79.8093 157.606 80.2088 157.175 80.7235 156.876C81.2382 156.573 81.8296 156.421 82.4977 156.421C83.4864 156.421 84.2878 156.731 84.9018 157.351C85.5203 157.971 85.8543 158.793 85.904 159.818L85.9108 160.194C85.9108 160.898 85.7708 161.527 85.4909 162.081C85.2155 162.635 84.8182 163.064 84.2991 163.367C83.7844 163.67 83.1885 163.822 82.5113 163.822C81.4774 163.822 80.649 163.488 80.026 162.819C79.4075 162.147 79.0982 161.252 79.0982 160.135V160.056ZM80.7438 160.194C80.7438 160.928 80.8996 161.505 81.2111 161.922C81.5226 162.336 81.956 162.542 82.5113 162.542C83.0666 162.542 83.4977 162.331 83.8047 161.909C84.1162 161.487 84.272 160.869 84.272 160.056C84.272 159.334 84.1117 158.763 83.7912 158.34C83.4752 157.918 83.044 157.707 82.4977 157.707C81.9605 157.707 81.5339 157.916 81.2178 158.334C80.9018 158.747 80.7438 159.367 80.7438 160.194Z" fill="#4967EE"/>
<path d="M88.8295 156.553L88.8769 157.377C89.4186 156.74 90.1297 156.421 91.01 156.421C92.536 156.421 93.3125 157.272 93.3396 158.974V163.69H91.694V159.066C91.694 158.613 91.5924 158.279 91.3893 158.063C91.1906 157.843 90.8633 157.734 90.4073 157.734C89.7437 157.734 89.2493 158.026 88.9243 158.611V163.69H87.2787V156.553H88.8295Z" fill="#4967EE"/>
<path d="M97.0844 154.818V156.553H98.3779V157.74H97.0844V161.724C97.0844 161.997 97.1386 162.195 97.247 162.318C97.3598 162.437 97.5585 162.496 97.8429 162.496C98.0325 162.496 98.2244 162.474 98.4185 162.43V163.67C98.0438 163.772 97.6826 163.822 97.335 163.822C96.0709 163.822 95.4389 163.143 95.4389 161.784V157.74H94.2335V156.553H95.4389V154.818H97.0844Z" fill="#4967EE"/>
<path d="M102.868 163.822C101.825 163.822 100.978 163.503 100.328 162.866C99.6826 162.224 99.3598 161.37 99.3598 160.306V160.108C99.3598 159.396 99.4998 158.76 99.7797 158.202C100.064 157.639 100.461 157.201 100.972 156.889C101.482 156.577 102.051 156.421 102.678 156.421C103.676 156.421 104.446 156.731 104.987 157.351C105.534 157.971 105.807 158.848 105.807 159.983V160.629H101.019C101.069 161.219 101.269 161.685 101.622 162.028C101.978 162.371 102.425 162.542 102.962 162.542C103.716 162.542 104.33 162.246 104.804 161.652L105.692 162.476C105.398 162.903 105.005 163.235 104.513 163.473C104.026 163.706 103.477 163.822 102.868 163.822ZM102.671 157.707C102.22 157.707 101.854 157.861 101.574 158.169C101.299 158.477 101.123 158.905 101.046 159.455H104.181V159.336C104.145 158.8 103.999 158.395 103.741 158.123C103.484 157.846 103.127 157.707 102.671 157.707Z" fill="#4967EE"/>
<path d="M108.617 156.553L108.664 157.377C109.206 156.74 109.917 156.421 110.798 156.421C112.324 156.421 113.1 157.272 113.127 158.974V163.69H111.482V159.066C111.482 158.613 111.38 158.279 111.177 158.063C110.978 157.843 110.651 157.734 110.195 157.734C109.531 157.734 109.037 158.026 108.712 158.611V163.69H107.066V156.553H108.617Z" fill="#4967EE"/>
<path d="M116.872 154.818V156.553H118.165V157.74H116.872V161.724C116.872 161.997 116.926 162.195 117.034 162.318C117.147 162.437 117.346 162.496 117.63 162.496C117.82 162.496 118.012 162.474 118.206 162.43V163.67C117.831 163.772 117.47 163.822 117.123 163.822C115.858 163.822 115.226 163.143 115.226 161.784V157.74H114.021V156.553H115.226V154.818H116.872Z" fill="#4967EE"/>
<defs>
<filter id="filter0_d" x="112.394" y="41.8104" width="147.926" height="147.926" filterUnits="userSpaceOnUse" color-interpolation-filters="sRGB">
<feFlood flood-opacity="0" result="BackgroundImageFix"/>
<feColorMatrix in="SourceAlpha" type="matrix" values="0 0 0 0 0 0 0 0 0 0 0 0 0 0 0 0 0 0 127 0" result="hardAlpha"/>
<feOffset dy="1.26062"/>
<feGaussianBlur stdDeviation="6.30309"/>
<feColorMatrix type="matrix" values="0 0 0 0 0 0 0 0 0 0 0 0 0 0 0 0 0 0 0.25 0"/>
<feBlend mode="normal" in2="BackgroundImageFix" result="effect1_dropShadow"/>
<feBlend mode="normal" in="SourceGraphic" in2="effect1_dropShadow" result="shape"/>
</filter>
</defs>
</svg>
