<svg width="395" height="240" viewBox="0 0 395 240" fill="none" xmlns="http://www.w3.org/2000/svg">
<path d="M227 25L227.113 5" stroke="#C8D1E0" stroke-width="3.54479" stroke-linecap="round" stroke-linejoin="round"/>
<path d="M245 31L259.202 16.9184" stroke="#C8D1E0" stroke-width="3.54479" stroke-linecap="round" stroke-linejoin="round"/>
<path d="M268 50L248 49.8868" stroke="#C8D1E0" stroke-width="3.54479" stroke-linecap="round" stroke-linejoin="round"/>
<path d="M31.4977 78.5695L33.7764 81.0344L33.9948 81.2706L34.2869 81.1353L37.3344 79.7232L35.6951 82.6587L35.538 82.94L35.7564 83.1763L38.0351 85.6411L34.7433 84.9905L34.4278 84.9281L34.2707 85.2095L32.6314 88.1449L32.2363 84.8074L32.1984 84.4875L31.8829 84.4251L28.5911 83.7745L31.6387 82.3624L31.9308 82.227L31.8929 81.9071L31.4977 78.5695Z" stroke="#4967EE" stroke-width="0.886197" stroke-linecap="round"/>
<path d="M280.995 68.896L281.272 72.2447L281.298 72.5656L281.611 72.6399L284.879 73.4152L281.782 74.7095L281.485 74.8335L281.512 75.1545L281.788 78.5032L279.597 75.9544L279.388 75.7101L279.091 75.8342L275.993 77.1284L277.737 74.2589L277.904 73.9839L277.694 73.7396L275.503 71.1909L278.771 71.9662L279.085 72.0405L279.252 71.7655L280.995 68.896Z" stroke="#4967EE" stroke-width="0.886197" stroke-linecap="round"/>
<path d="M164.315 2.10583L165.015 5.39146L165.082 5.70637L165.403 5.74004L168.743 6.09127L165.835 7.77067L165.556 7.93164L165.624 8.24655L166.324 11.5322L163.826 9.28448L163.587 9.06904L163.308 9.23001L160.401 10.9094L161.765 7.84085L161.896 7.54674L161.657 7.33131L159.159 5.0836L162.5 5.43483L162.82 5.4685L162.951 5.17439L164.315 2.10583Z" stroke="#4967EE" stroke-width="0.886197" stroke-linecap="round"/>
<path d="M263.498 160.57L265.776 163.034L265.995 163.271L266.287 163.135L269.334 161.723L267.695 164.659L267.538 164.94L267.756 165.176L270.035 167.641L266.743 166.99L266.428 166.928L266.271 167.209L264.631 170.145L264.236 166.807L264.198 166.487L263.883 166.425L260.591 165.774L263.639 164.362L263.931 164.227L263.893 163.907L263.498 160.57Z" stroke="#AFBACC" stroke-width="0.886197" stroke-linecap="round"/>
<path d="M31.2049 177.154L30.7346 180.482L30.6895 180.801L30.9784 180.943L33.9932 182.423L30.6877 182.999L30.3709 183.055L30.3258 183.374L29.8554 186.702L28.2829 183.73L28.1322 183.445L27.8154 183.5L24.5098 184.076L26.8435 181.663L27.0671 181.432L26.9164 181.147L25.3439 178.175L28.3587 179.656L28.6476 179.798L28.8713 179.567L31.2049 177.154Z" stroke="#AFBACC" stroke-width="0.886197" stroke-linecap="round"/>
<circle cx="262" cy="86" r="2.5569" stroke="#707A8A" stroke-width="0.886197"/>
<circle cx="59" cy="47" r="2.5569" stroke="#707A8A" stroke-width="0.886197"/>
<circle cx="52" cy="192" r="2.5569" stroke="#707A8A" stroke-width="0.886197"/>
<circle cx="294" cy="177" r="2.5569" stroke="#707A8A" stroke-width="0.886197"/>
<circle cx="166" cy="27" r="2.5569" stroke="#707A8A" stroke-width="0.886197"/>
<circle cx="52" cy="94" r="2.5569" stroke="#AFBACC" stroke-width="0.886197"/>
<circle cx="254" cy="201" r="2.5569" stroke="#AFBACC" stroke-width="0.886197"/>
<circle cx="186" cy="11" r="2.5569" stroke="#AFBACC" stroke-width="0.886197"/>
<circle cx="42" cy="119" r="2.5569" stroke="#4967EE" stroke-width="0.886197"/>
<circle cx="19" cy="205" r="2.5569" stroke="#4967EE" stroke-width="0.886197"/>
<circle cx="276" cy="145" r="2.5569" stroke="#4967EE" stroke-width="0.886197"/>
<path fill-rule="evenodd" clip-rule="evenodd" d="M16.8988 105.14C16.712 104.953 16.4091 104.953 16.2223 105.14C16.0355 105.326 16.0355 105.628 16.2223 105.814L18.3749 107.959L16.1401 110.186C15.9533 110.372 15.9533 110.674 16.1401 110.86C16.3269 111.047 16.6298 111.047 16.8166 110.86L19.0514 108.633L21.1834 110.758C21.3702 110.944 21.6731 110.944 21.8599 110.758C22.0467 110.572 22.0467 110.27 21.8599 110.084L19.7279 107.959L21.7777 105.916C21.9645 105.73 21.9645 105.428 21.7777 105.242C21.5909 105.056 21.288 105.056 21.1012 105.242L19.0514 107.285L16.8988 105.14Z" fill="#707A8A"/>
<path fill-rule="evenodd" clip-rule="evenodd" d="M56.8988 165.14C56.712 164.953 56.4091 164.953 56.2223 165.14C56.0355 165.326 56.0355 165.628 56.2223 165.814L58.3749 167.959L56.1401 170.186C55.9533 170.372 55.9533 170.674 56.1401 170.86C56.3269 171.047 56.6298 171.047 56.8166 170.86L59.0514 168.633L61.1834 170.758C61.3702 170.944 61.6731 170.944 61.8599 170.758C62.0467 170.572 62.0467 170.27 61.8599 170.084L59.7279 167.959L61.7777 165.916C61.9645 165.73 61.9645 165.428 61.7777 165.242C61.5909 165.056 61.288 165.056 61.1012 165.242L59.0514 167.285L56.8988 165.14Z" fill="#AFBACC"/>
<path fill-rule="evenodd" clip-rule="evenodd" d="M133.899 24.1396C133.712 23.9535 133.409 23.9535 133.222 24.1396C133.036 24.3258 133.036 24.6277 133.222 24.8138L135.375 26.959L133.14 29.1862C132.953 29.3723 132.953 29.6742 133.14 29.8604C133.327 30.0465 133.63 30.0465 133.817 29.8604L136.051 27.6332L138.183 29.7579C138.37 29.9441 138.673 29.9441 138.86 29.7579C139.047 29.5718 139.047 29.2699 138.86 29.0837L136.728 26.959L138.778 24.9163C138.964 24.7301 138.964 24.4282 138.778 24.2421C138.591 24.0559 138.288 24.0559 138.101 24.2421L136.051 26.2848L133.899 24.1396Z" fill="#AFBACC"/>
<path fill-rule="evenodd" clip-rule="evenodd" d="M45.8988 214.14C45.712 213.953 45.4091 213.953 45.2223 214.14C45.0355 214.326 45.0355 214.628 45.2223 214.814L47.3749 216.959L45.1401 219.186C44.9533 219.372 44.9533 219.674 45.1401 219.86C45.3269 220.047 45.6298 220.047 45.8166 219.86L48.0514 217.633L50.1834 219.758C50.3702 219.944 50.6731 219.944 50.8599 219.758C51.0467 219.572 51.0467 219.27 50.8599 219.084L48.7279 216.959L50.7777 214.916C50.9645 214.73 50.9645 214.428 50.7777 214.242C50.5909 214.056 50.288 214.056 50.1012 214.242L48.0514 216.285L45.8988 214.14Z" fill="#AFBACC"/>
<path fill-rule="evenodd" clip-rule="evenodd" d="M273.899 96.1396C273.712 95.9535 273.409 95.9535 273.222 96.1396C273.036 96.3258 273.036 96.6277 273.222 96.8138L275.375 98.959L273.14 101.186C272.953 101.372 272.953 101.674 273.14 101.86C273.327 102.047 273.63 102.047 273.817 101.86L276.051 99.6332L278.183 101.758C278.37 101.944 278.673 101.944 278.86 101.758C279.047 101.572 279.047 101.27 278.86 101.084L276.728 98.959L278.778 96.9163C278.964 96.7301 278.964 96.4282 278.778 96.2421C278.591 96.0559 278.288 96.0559 278.101 96.2421L276.051 98.2848L273.899 96.1396Z" fill="#AFBACC"/>
<path fill-rule="evenodd" clip-rule="evenodd" d="M273.899 189.14C273.712 188.953 273.409 188.953 273.222 189.14C273.036 189.326 273.036 189.628 273.222 189.814L275.375 191.959L273.14 194.186C272.953 194.372 272.953 194.674 273.14 194.86C273.327 195.047 273.63 195.047 273.817 194.86L276.051 192.633L278.183 194.758C278.37 194.944 278.673 194.944 278.86 194.758C279.047 194.572 279.047 194.27 278.86 194.084L276.728 191.959L278.778 189.916C278.964 189.73 278.964 189.428 278.778 189.242C278.591 189.056 278.288 189.056 278.101 189.242L276.051 191.285L273.899 189.14Z" fill="#4967EE"/>
<path fill-rule="evenodd" clip-rule="evenodd" d="M199.899 17.1396C199.712 16.9535 199.409 16.9535 199.222 17.1396C199.036 17.3258 199.036 17.6277 199.222 17.8138L201.375 19.959L199.14 22.1862C198.953 22.3723 198.953 22.6742 199.14 22.8604C199.327 23.0465 199.63 23.0465 199.817 22.8604L202.051 20.6332L204.183 22.7579C204.37 22.9441 204.673 22.9441 204.86 22.7579C205.047 22.5718 205.047 22.2699 204.86 22.0837L202.728 19.959L204.778 17.9163C204.964 17.7301 204.964 17.4282 204.778 17.2421C204.591 17.0559 204.288 17.0559 204.101 17.2421L202.051 19.2848L199.899 17.1396Z" fill="#4967EE"/>
<circle cx="155.5" cy="126.5" r="111.5" fill="#EDF0FE"/>
<mask id="mask0" mask-type="alpha" maskUnits="userSpaceOnUse" x="91" y="90" width="129" height="72">
<rect x="91" y="90" width="129" height="72" fill="#C4C4C4"/>
</mask>
<g mask="url(#mask0)">
<rect x="90" y="72" width="130" height="104" fill="#707A8A"/>
<rect opacity="0.5" x="91" y="157" width="129" height="1" fill="white"/>
<rect x="91" y="156" width="129" height="2" fill="#4967EE"/>
<g filter="url(#filter0_d)">
<text fill="white" xml:space="preserve" style="white-space: pre" font-family="Roboto" font-size="7.83282" font-weight="500" letter-spacing="0em"><tspan x="110" y="105.677">LIVE</tspan></text>
<circle cx="104.5" cy="103.5" r="2.5" fill="#4967EE"/>
<rect x="97.2448" y="94.2448" width="36.5104" height="15.5104" rx="0.734327" stroke="white" stroke-width="0.489551"/>
</g>
<path fill-rule="evenodd" clip-rule="evenodd" d="M206 138.75C201.833 138.75 198.275 141.342 196.833 145C198.275 148.658 201.833 151.25 206 151.25C210.167 151.25 213.725 148.658 215.167 145C213.725 141.342 210.167 138.75 206 138.75ZM206 149.167C203.7 149.167 201.833 147.3 201.833 145C201.833 142.7 203.7 140.833 206 140.833C208.3 140.833 210.167 142.7 210.167 145C210.167 147.3 208.3 149.167 206 149.167ZM203.5 145C203.5 143.617 204.617 142.5 206 142.5C207.383 142.5 208.5 143.617 208.5 145C208.5 146.383 207.383 147.5 206 147.5C204.617 147.5 203.5 146.383 203.5 145Z" fill="white"/>
<circle opacity="0.5" cx="156" cy="126" r="18" fill="#DBE1FC"/>
<g filter="url(#filter1_d)">
<path d="M151.078 120.108V131.892C151.078 132.791 152.043 133.337 152.786 132.848L161.812 126.955C162.5 126.512 162.5 125.488 161.812 125.033L152.786 119.152C152.043 118.663 151.078 119.209 151.078 120.108Z" fill="white"/>
</g>
<rect opacity="0.5" x="91" y="157" width="129" height="1" fill="white"/>
<rect x="91" y="157" width="129" height="1" fill="#4967EE"/>
<rect opacity="0.5" x="91" y="156" width="129" height="7" fill="#DBE1FC"/>
<rect x="91" y="156" width="129" height="2" fill="#4967EE"/>
</g>
<path d="M16 30.8586V20.5656H19.4086C20.5334 20.5656 21.3896 20.7988 21.977 21.2654C22.5645 21.732 22.8582 22.4272 22.8582 23.3509C22.8582 23.8222 22.7353 24.2464 22.4893 24.6234C22.2434 25.0004 21.8837 25.2926 21.4101 25.5C21.9474 25.6508 22.3618 25.9359 22.6533 26.3554C22.9493 26.7701 23.0973 27.2697 23.0973 27.8541C23.0973 28.8203 22.7967 29.5626 22.1956 30.081C21.599 30.5994 20.7429 30.8586 19.6272 30.8586H16ZM17.7282 26.214V29.4306H19.6477C20.1896 29.4306 20.6131 29.2916 20.9182 29.0135C21.2233 28.7354 21.3759 28.349 21.3759 27.8541C21.3759 26.7843 20.8477 26.2376 19.7911 26.214H17.7282ZM17.7282 24.8991H19.4223C19.9596 24.8991 20.3786 24.7742 20.6792 24.5244C20.9843 24.2699 21.1368 23.9117 21.1368 23.4499C21.1368 22.9409 20.9957 22.5733 20.7133 22.347C20.4355 22.1208 20.0006 22.0077 19.4086 22.0077H17.7282V24.8991Z" fill="#4967EE"/>
<path d="M28.5347 24.7789C28.3161 24.7412 28.0907 24.7224 27.8584 24.7224C27.0979 24.7224 26.5856 25.024 26.3215 25.6272V30.8586H24.6616V23.2095H26.2463L26.2873 24.0649C26.6881 23.4004 27.2436 23.0681 27.954 23.0681C28.1909 23.0681 28.3867 23.1011 28.5415 23.1671L28.5347 24.7789Z" fill="#4967EE"/>
<path d="M29.0265 26.9634C29.0265 26.214 29.1699 25.5401 29.4568 24.9415C29.7437 24.3383 30.1468 23.8764 30.6659 23.5559C31.1851 23.2307 31.7816 23.0681 32.4556 23.0681C33.4529 23.0681 34.2612 23.4004 34.8806 24.0649C35.5044 24.7294 35.8414 25.6108 35.8915 26.7089L35.8984 27.1118C35.8984 27.8659 35.7572 28.5398 35.4748 29.1337C35.1971 29.7275 34.7963 30.187 34.2726 30.5122C33.7535 30.8374 33.1523 31 32.4693 31C31.4264 31 30.5908 30.6418 29.9623 29.9255C29.3384 29.2044 29.0265 28.2453 29.0265 27.0482V26.9634ZM30.6864 27.1118C30.6864 27.8989 30.8435 28.5163 31.1577 28.964C31.472 29.407 31.9091 29.6285 32.4693 29.6285C33.0294 29.6285 33.4643 29.4023 33.774 28.9499C34.0882 28.4974 34.2453 27.8353 34.2453 26.9634C34.2453 26.1904 34.0836 25.5778 33.7603 25.1253C33.4415 24.6729 33.0066 24.4467 32.4556 24.4467C31.9137 24.4467 31.4833 24.6705 31.1646 25.1183C30.8458 25.5613 30.6864 26.2258 30.6864 27.1118Z" fill="#4967EE"/>
<path d="M41.7183 30.8586C41.6454 30.7125 41.5817 30.4745 41.527 30.1446C40.9988 30.7149 40.3521 31 39.587 31C38.8448 31 38.2391 30.7808 37.77 30.3425C37.301 29.9042 37.0664 29.3623 37.0664 28.7166C37.0664 27.9012 37.3579 27.2768 37.9408 26.8432C38.5283 26.4049 39.3662 26.1857 40.4546 26.1857H41.4724V25.6838C41.4724 25.2879 41.3653 24.9722 41.1513 24.7365C40.9373 24.4961 40.6117 24.376 40.1745 24.376C39.7965 24.376 39.4869 24.4749 39.2455 24.6729C39.0041 24.8661 38.8835 25.1135 38.8835 25.4152H37.2236C37.2236 24.9957 37.3579 24.6045 37.6266 24.2416C37.8953 23.874 38.2596 23.5865 38.7195 23.3792C39.184 23.1718 39.7009 23.0681 40.2701 23.0681C41.1354 23.0681 41.8253 23.2943 42.3399 23.7468C42.8545 24.1945 43.1186 24.826 43.1323 25.6414V29.0913C43.1323 29.7793 43.2256 30.3284 43.4123 30.7384V30.8586H41.7183ZM39.8944 29.6215C40.2223 29.6215 40.5297 29.539 40.8166 29.374C41.1081 29.2091 41.3266 28.9876 41.4724 28.7095V27.2674H40.5775C39.9627 27.2674 39.5005 27.3781 39.1909 27.5996C38.8812 27.8211 38.7263 28.1345 38.7263 28.5398C38.7263 28.8698 38.8311 29.1337 39.0406 29.3316C39.2546 29.5249 39.5392 29.6215 39.8944 29.6215Z" fill="#4967EE"/>
<path d="M44.5599 26.9775C44.5599 25.7993 44.8241 24.8543 45.3523 24.1427C45.8806 23.4263 46.5887 23.0681 47.4767 23.0681C48.26 23.0681 48.893 23.3509 49.3757 23.9165V20H51.0356V30.8586H49.5328L49.4508 30.0668C48.9545 30.6889 48.2919 31 47.4631 31C46.5978 31 45.8965 30.6395 45.3591 29.9184C44.8263 29.1973 44.5599 28.217 44.5599 26.9775ZM46.2198 27.126C46.2198 27.9036 46.3633 28.5116 46.6502 28.9499C46.9416 29.3835 47.3538 29.6003 47.8866 29.6003C48.5651 29.6003 49.0615 29.2868 49.3757 28.66V25.394C49.0706 24.7813 48.5788 24.4749 47.9002 24.4749C47.3629 24.4749 46.9485 24.6964 46.657 25.1395C46.3656 25.5778 46.2198 26.2399 46.2198 27.126Z" fill="#4967EE"/>
<path d="M55.8036 29.6285C56.218 29.6285 56.5618 29.5036 56.835 29.2539C57.1083 29.0041 57.254 28.6954 57.2722 28.3278H58.8365C58.8183 28.8038 58.6748 29.2491 58.4061 29.6639C58.1374 30.0739 57.7731 30.3991 57.3132 30.6395C56.8532 30.8798 56.3569 31 55.8241 31C54.7903 31 53.9706 30.6536 53.3649 29.9608C52.7593 29.268 52.4564 28.3113 52.4564 27.0906V26.9139C52.4564 25.7498 52.757 24.819 53.3581 24.1215C53.9592 23.4192 54.7789 23.0681 55.8172 23.0681C56.6961 23.0681 57.4111 23.3344 57.9621 23.867C58.5177 24.3948 58.8091 25.09 58.8365 25.9524H57.2722C57.254 25.5141 57.1083 25.1536 56.835 24.8708C56.5663 24.588 56.2225 24.4467 55.8036 24.4467C55.2662 24.4467 54.8518 24.6493 54.5603 25.0546C54.2689 25.4552 54.1209 26.0656 54.1163 26.8856V27.1613C54.1163 27.9908 54.2598 28.6105 54.5467 29.0206C54.8381 29.4259 55.2571 29.6285 55.8036 29.6285Z" fill="#4967EE"/>
<path d="M64.5061 30.8586C64.4332 30.7125 64.3695 30.4745 64.3148 30.1446C63.7866 30.7149 63.1399 31 62.3749 31C61.6326 31 61.0269 30.7808 60.5579 30.3425C60.0888 29.9042 59.8543 29.3623 59.8543 28.7166C59.8543 27.9012 60.1457 27.2768 60.7286 26.8432C61.3161 26.4049 62.154 26.1857 63.2424 26.1857H64.2602V25.6838C64.2602 25.2879 64.1532 24.9722 63.9391 24.7365C63.7251 24.4961 63.3995 24.376 62.9623 24.376C62.5843 24.376 62.2747 24.4749 62.0333 24.6729C61.792 24.8661 61.6713 25.1135 61.6713 25.4152H60.0114C60.0114 24.9957 60.1457 24.6045 60.4144 24.2416C60.6831 23.874 61.0474 23.5865 61.5073 23.3792C61.9718 23.1718 62.4887 23.0681 63.058 23.0681C63.9232 23.0681 64.6131 23.2943 65.1277 23.7468C65.6423 24.1945 65.9064 24.826 65.9201 25.6414V29.0913C65.9201 29.7793 66.0135 30.3284 66.2002 30.7384V30.8586H64.5061ZM62.6823 29.6215C63.0101 29.6215 63.3175 29.539 63.6044 29.374C63.8959 29.2091 64.1145 28.9876 64.2602 28.7095V27.2674H63.3653C62.7506 27.2674 62.2883 27.3781 61.9787 27.5996C61.669 27.8211 61.5142 28.1345 61.5142 28.5398C61.5142 28.8698 61.6189 29.1337 61.8284 29.3316C62.0424 29.5249 62.3271 29.6215 62.6823 29.6215Z" fill="#4967EE"/>
<path d="M71.8015 28.7802C71.8015 28.4739 71.6785 28.2406 71.4326 28.0803C71.1913 27.9201 70.7882 27.7787 70.2236 27.6562C69.6589 27.5336 69.1875 27.3781 68.8096 27.1896C67.9807 26.7749 67.5663 26.174 67.5663 25.3869C67.5663 24.7271 67.835 24.1757 68.3724 23.7326C68.9097 23.2896 69.5928 23.0681 70.4217 23.0681C71.3051 23.0681 72.0178 23.2943 72.5597 23.7468C73.1062 24.1992 73.3794 24.786 73.3794 25.5071H71.7195C71.7195 25.1772 71.6011 24.9038 71.3643 24.687C71.1275 24.4655 70.8133 24.3548 70.4217 24.3548C70.0573 24.3548 69.7591 24.4419 69.5268 24.6163C69.2991 24.7907 69.1853 25.024 69.1853 25.3162C69.1853 25.5801 69.2923 25.7851 69.5063 25.9312C69.7203 26.0773 70.153 26.2258 70.8042 26.3766C71.4554 26.5227 71.9654 26.6994 72.3343 26.9068C72.7077 27.1095 72.9832 27.3545 73.1608 27.642C73.343 27.9295 73.4341 28.2783 73.4341 28.6883C73.4341 29.3764 73.1586 29.9349 72.6075 30.3638C72.0565 30.7879 71.3347 31 70.4421 31C69.8365 31 69.2968 30.8869 68.8232 30.6607C68.3496 30.4344 67.9807 30.1234 67.7166 29.7275C67.4525 29.3316 67.3204 28.9051 67.3204 28.4479H68.9325C68.9553 28.8533 69.1033 29.1667 69.3765 29.3882C69.6498 29.605 70.0118 29.7134 70.4626 29.7134C70.8998 29.7134 71.2322 29.6285 71.4599 29.4589C71.6876 29.2845 71.8015 29.0583 71.8015 28.7802Z" fill="#4967EE"/>
<path d="M76.9656 21.3503V23.2095H78.2703V24.482H76.9656V28.7519C76.9656 29.0441 77.0203 29.2562 77.1296 29.3882C77.2434 29.5154 77.4438 29.579 77.7307 29.579C77.922 29.579 78.1155 29.5555 78.3113 29.5084V30.8374C77.9333 30.9458 77.569 31 77.2184 31C75.9433 31 75.3057 30.2719 75.3057 28.8156V24.482H74.0898V23.2095H75.3057V21.3503H76.9656Z" fill="#4967EE"/>
<path d="M84.7938 30.8586H83.1339V20H84.7938V30.8586Z" fill="#4967EE"/>
<path d="M88.3732 30.8586H86.7133V23.2095H88.3732V30.8586ZM86.6108 21.223C86.6108 20.9591 86.6905 20.7399 86.8499 20.5656C87.0139 20.3912 87.2461 20.304 87.5467 20.304C87.8472 20.304 88.0795 20.3912 88.2434 20.5656C88.4074 20.7399 88.4893 20.9591 88.4893 21.223C88.4893 21.4822 88.4074 21.699 88.2434 21.8734C88.0795 22.0431 87.8472 22.1279 87.5467 22.1279C87.2461 22.1279 87.0139 22.0431 86.8499 21.8734C86.6905 21.699 86.6108 21.4822 86.6108 21.223Z" fill="#4967EE"/>
<path d="M92.7928 28.6812L94.3571 23.2095H96.0716L93.51 30.8586H92.0687L89.4866 23.2095H91.208L92.7928 28.6812Z" fill="#4967EE"/>
<path d="M100.273 31C99.2207 31 98.3668 30.6583 97.711 29.9749C97.0598 29.2868 96.7342 28.3725 96.7342 27.232V27.0199C96.7342 26.2564 96.8754 25.5754 97.1577 24.9769C97.4446 24.3736 97.8454 23.9047 98.36 23.5701C98.8746 23.2354 99.4484 23.0681 100.081 23.0681C101.088 23.0681 101.864 23.4004 102.411 24.0649C102.962 24.7294 103.237 25.6697 103.237 26.8856V27.5784H98.4078C98.4579 28.2099 98.6605 28.7095 99.0157 29.0771C99.3755 29.4447 99.8263 29.6285 100.368 29.6285C101.129 29.6285 101.748 29.3104 102.226 28.6742L103.121 29.5578C102.825 30.015 102.429 30.3708 101.933 30.6253C101.441 30.8751 100.887 31 100.273 31ZM100.075 24.4467C99.6191 24.4467 99.2503 24.6116 98.9679 24.9415C98.6901 25.2714 98.5125 25.7309 98.4351 26.3201H101.598V26.1928C101.561 25.6178 101.413 25.1842 101.154 24.892C100.894 24.5951 100.534 24.4467 100.075 24.4467Z" fill="#4967EE"/>
<path d="M111.27 31C110.218 31 109.365 30.6583 108.709 29.9749C108.058 29.2868 107.732 28.3725 107.732 27.232V27.0199C107.732 26.2564 107.873 25.5754 108.155 24.9769C108.442 24.3736 108.843 23.9047 109.358 23.5701C109.872 23.2354 110.446 23.0681 111.079 23.0681C112.085 23.0681 112.862 23.4004 113.408 24.0649C113.959 24.7294 114.235 25.6697 114.235 26.8856V27.5784H109.406C109.456 28.2099 109.658 28.7095 110.013 29.0771C110.373 29.4447 110.824 29.6285 111.366 29.6285C112.126 29.6285 112.746 29.3104 113.224 28.6742L114.119 29.5578C113.823 30.015 113.427 30.3708 112.93 30.6253C112.438 30.8751 111.885 31 111.27 31ZM111.072 24.4467C110.617 24.4467 110.248 24.6116 109.966 24.9415C109.688 25.2714 109.51 25.7309 109.433 26.3201H112.596V26.1928C112.559 25.6178 112.411 25.1842 112.152 24.892C111.892 24.5951 111.532 24.4467 111.072 24.4467Z" fill="#4967EE"/>
<path d="M118.04 28.6812L119.604 23.2095H121.319L118.757 30.8586H117.316L114.734 23.2095H116.455L118.04 28.6812Z" fill="#4967EE"/>
<path d="M125.52 31C124.468 31 123.614 30.6583 122.958 29.9749C122.307 29.2868 121.981 28.3725 121.981 27.232V27.0199C121.981 26.2564 122.122 25.5754 122.405 24.9769C122.692 24.3736 123.092 23.9047 123.607 23.5701C124.122 23.2354 124.695 23.0681 125.328 23.0681C126.335 23.0681 127.111 23.4004 127.658 24.0649C128.209 24.7294 128.484 25.6697 128.484 26.8856V27.5784H123.655C123.705 28.2099 123.907 28.7095 124.263 29.0771C124.622 29.4447 125.073 29.6285 125.615 29.6285C126.376 29.6285 126.995 29.3104 127.473 28.6742L128.368 29.5578C128.072 30.015 127.676 30.3708 127.179 30.6253C126.688 30.8751 126.134 31 125.52 31ZM125.321 24.4467C124.866 24.4467 124.497 24.6116 124.215 24.9415C123.937 25.2714 123.759 25.7309 123.682 26.3201H126.845V26.1928C126.808 25.6178 126.66 25.1842 126.401 24.892C126.141 24.5951 125.781 24.4467 125.321 24.4467Z" fill="#4967EE"/>
<path d="M131.319 23.2095L131.367 24.0932C131.913 23.4098 132.631 23.0681 133.519 23.0681C135.058 23.0681 135.841 23.9801 135.868 25.804V30.8586H134.208V25.903C134.208 25.4175 134.106 25.0593 133.901 24.8284C133.701 24.5928 133.371 24.4749 132.911 24.4749C132.241 24.4749 131.742 24.7883 131.415 25.4152V30.8586H129.755V23.2095H131.319Z" fill="#4967EE"/>
<path d="M139.646 21.3503V23.2095H140.951V24.482H139.646V28.7519C139.646 29.0441 139.7 29.2562 139.81 29.3882C139.924 29.5154 140.124 29.579 140.411 29.579C140.602 29.579 140.796 29.5555 140.992 29.5084V30.8374C140.614 30.9458 140.249 31 139.899 31C138.623 31 137.986 30.2719 137.986 28.8156V24.482H136.77V23.2095H137.986V21.3503H139.646Z" fill="#4967EE"/>
<path d="M146.367 28.7802C146.367 28.4739 146.244 28.2406 145.999 28.0803C145.757 27.9201 145.354 27.7787 144.789 27.6562C144.225 27.5336 143.753 27.3781 143.375 27.1896C142.547 26.7749 142.132 26.174 142.132 25.3869C142.132 24.7271 142.401 24.1757 142.938 23.7326C143.476 23.2896 144.159 23.0681 144.988 23.0681C145.871 23.0681 146.584 23.2943 147.126 23.7468C147.672 24.1992 147.945 24.786 147.945 25.5071H146.285C146.285 25.1772 146.167 24.9038 145.93 24.687C145.693 24.4655 145.379 24.3548 144.988 24.3548C144.623 24.3548 144.325 24.4419 144.093 24.6163C143.865 24.7907 143.751 25.024 143.751 25.3162C143.751 25.5801 143.858 25.7851 144.072 25.9312C144.286 26.0773 144.719 26.2258 145.37 26.3766C146.021 26.5227 146.531 26.6994 146.9 26.9068C147.274 27.1095 147.549 27.3545 147.727 27.642C147.909 27.9295 148 28.2783 148 28.6883C148 29.3764 147.724 29.9349 147.173 30.3638C146.622 30.7879 145.901 31 145.008 31C144.402 31 143.863 30.8869 143.389 30.6607C142.916 30.4344 142.547 30.1234 142.283 29.7275C142.018 29.3316 141.886 28.9051 141.886 28.4479H143.498C143.521 28.8533 143.669 29.1667 143.942 29.3882C144.216 29.605 144.578 29.7134 145.029 29.7134C145.466 29.7134 145.798 29.6285 146.026 29.4589C146.254 29.2845 146.367 29.0583 146.367 28.7802Z" fill="#4967EE"/>
<path d="M232.835 118.287H228.735V121.466H233.527V122.899H227V112.568H233.479V114.015H228.735V116.868H232.835V118.287Z" fill="#4967EE"/>
<path d="M236.325 115.221L236.373 116.108C236.921 115.423 237.641 115.08 238.532 115.08C240.077 115.08 240.864 115.995 240.891 117.826V122.899H239.225V117.925C239.225 117.438 239.122 117.078 238.916 116.846C238.715 116.61 238.384 116.492 237.922 116.492C237.25 116.492 236.75 116.806 236.421 117.435V122.899H234.755V115.221H236.325Z" fill="#4967EE"/>
<path d="M242.303 119.004C242.303 117.811 242.573 116.861 243.112 116.151C243.656 115.437 244.376 115.08 245.272 115.08C246.118 115.08 246.783 115.385 247.267 115.995L247.343 115.221H248.844V122.665C248.844 123.673 248.54 124.467 247.932 125.049C247.329 125.631 246.513 125.922 245.485 125.922C244.941 125.922 244.408 125.804 243.887 125.567C243.371 125.335 242.978 125.03 242.708 124.652L243.496 123.616C244.008 124.245 244.639 124.56 245.389 124.56C245.942 124.56 246.378 124.403 246.698 124.091C247.018 123.784 247.178 123.33 247.178 122.729V122.211C246.698 122.764 246.058 123.041 245.258 123.041C244.39 123.041 243.679 122.684 243.126 121.97C242.578 121.255 242.303 120.267 242.303 119.004ZM243.963 119.153C243.963 119.924 244.113 120.532 244.415 120.976C244.721 121.416 245.144 121.636 245.684 121.636C246.355 121.636 246.854 121.338 247.178 120.742V117.364C246.863 116.783 246.369 116.492 245.697 116.492C245.149 116.492 244.721 116.716 244.415 117.166C244.113 117.615 243.963 118.277 243.963 119.153Z" fill="#4967EE"/>
<path d="M254.994 122.899C254.921 122.752 254.857 122.514 254.802 122.182C254.272 122.755 253.623 123.041 252.855 123.041C252.11 123.041 251.502 122.821 251.031 122.381C250.561 121.941 250.325 121.397 250.325 120.749C250.325 119.931 250.618 119.304 251.203 118.869C251.793 118.429 252.634 118.209 253.726 118.209H254.748V117.705C254.748 117.308 254.64 116.991 254.425 116.754C254.211 116.513 253.884 116.392 253.445 116.392C253.066 116.392 252.755 116.492 252.512 116.69C252.27 116.884 252.149 117.133 252.149 117.435H250.483C250.483 117.014 250.618 116.622 250.888 116.257C251.157 115.888 251.523 115.6 251.985 115.392C252.451 115.184 252.97 115.08 253.541 115.08C254.409 115.08 255.102 115.307 255.618 115.761C256.135 116.21 256.4 116.844 256.414 117.662V121.125C256.414 121.816 256.507 122.367 256.695 122.779V122.899H254.994ZM253.164 121.657C253.493 121.657 253.801 121.575 254.089 121.409C254.382 121.243 254.601 121.021 254.748 120.742V119.294H253.849C253.232 119.294 252.768 119.406 252.458 119.628C252.147 119.85 251.991 120.165 251.991 120.572C251.991 120.903 252.097 121.168 252.307 121.366C252.522 121.56 252.807 121.657 253.164 121.657Z" fill="#4967EE"/>
<path d="M257.867 119.004C257.867 117.811 258.137 116.861 258.676 116.151C259.22 115.437 259.94 115.08 260.836 115.08C261.682 115.08 262.347 115.385 262.831 115.995L262.907 115.221H264.408V122.665C264.408 123.673 264.104 124.467 263.496 125.049C262.893 125.631 262.077 125.922 261.049 125.922C260.505 125.922 259.972 125.804 259.451 125.567C258.935 125.335 258.541 125.03 258.272 124.652L259.06 123.616C259.572 124.245 260.203 124.56 260.953 124.56C261.506 124.56 261.942 124.403 262.262 124.091C262.582 123.784 262.742 123.33 262.742 122.729V122.211C262.262 122.764 261.622 123.041 260.822 123.041C259.954 123.041 259.243 122.684 258.69 121.97C258.142 121.255 257.867 120.267 257.867 119.004ZM259.527 119.153C259.527 119.924 259.677 120.532 259.979 120.976C260.285 121.416 260.708 121.636 261.247 121.636C261.919 121.636 262.418 121.338 262.742 120.742V117.364C262.427 116.783 261.933 116.492 261.261 116.492C260.713 116.492 260.285 116.716 259.979 117.166C259.677 117.615 259.527 118.277 259.527 119.153Z" fill="#4967EE"/>
<path d="M269.393 123.041C268.337 123.041 267.48 122.698 266.822 122.012C266.168 121.322 265.841 120.404 265.841 119.259V119.046C265.841 118.28 265.983 117.596 266.266 116.995C266.554 116.39 266.956 115.919 267.473 115.583C267.99 115.248 268.565 115.08 269.201 115.08C270.211 115.08 270.99 115.413 271.539 116.08C272.092 116.747 272.368 117.691 272.368 118.911V119.607H267.521C267.571 120.241 267.775 120.742 268.131 121.111C268.492 121.48 268.945 121.664 269.489 121.664C270.252 121.664 270.874 121.345 271.354 120.707L272.252 121.594C271.955 122.052 271.557 122.41 271.059 122.665C270.565 122.916 270.01 123.041 269.393 123.041ZM269.194 116.463C268.737 116.463 268.367 116.629 268.083 116.96C267.804 117.291 267.626 117.752 267.548 118.344H270.723V118.216C270.686 117.639 270.538 117.204 270.277 116.91C270.017 116.612 269.656 116.463 269.194 116.463Z" fill="#4967EE"/>
<path d="M283.681 120.522L284.861 115.221H286.486L284.463 122.899H283.092L281.501 117.627L279.938 122.899H278.567L276.537 115.221H278.162L279.362 120.465L280.884 115.221H282.139L283.681 120.522Z" fill="#4967EE"/>
<path d="M289.372 122.899H287.706V115.221H289.372V122.899ZM287.603 113.228C287.603 112.963 287.683 112.743 287.843 112.568C288.008 112.393 288.241 112.305 288.543 112.305C288.844 112.305 289.077 112.393 289.242 112.568C289.406 112.743 289.489 112.963 289.489 113.228C289.489 113.488 289.406 113.705 289.242 113.88C289.077 114.051 288.844 114.136 288.543 114.136C288.241 114.136 288.008 114.051 287.843 113.88C287.683 113.705 287.603 113.488 287.603 113.228Z" fill="#4967EE"/>
<path d="M293.28 113.355V115.221H294.59V116.499H293.28V120.785C293.28 121.078 293.335 121.291 293.445 121.423C293.559 121.551 293.76 121.615 294.048 121.615C294.24 121.615 294.434 121.591 294.631 121.544V122.878C294.252 122.987 293.886 123.041 293.534 123.041C292.254 123.041 291.614 122.31 291.614 120.848V116.499H290.394V115.221H291.614V113.355H293.28Z" fill="#4967EE"/>
<path d="M297.511 116.059C298.055 115.406 298.743 115.08 299.574 115.08C301.156 115.08 301.958 116.014 301.981 117.882V122.899H300.315V117.946C300.315 117.416 300.203 117.043 299.979 116.825C299.76 116.603 299.435 116.492 299.005 116.492C298.338 116.492 297.84 116.799 297.511 117.414V122.899H295.845V112H297.511V116.059Z" fill="#4967EE"/>
<path d="M309.763 120.43L311.271 115.221H313.047L310.099 124.063C309.646 125.354 308.878 126 307.795 126C307.553 126 307.286 125.957 306.993 125.872V124.538L307.308 124.56C307.729 124.56 308.044 124.479 308.255 124.318C308.469 124.162 308.639 123.897 308.762 123.524L309.002 122.864L306.396 115.221H308.193L309.763 120.43Z" fill="#4967EE"/>
<path d="M313.589 118.989C313.589 118.237 313.733 117.561 314.021 116.96C314.309 116.354 314.713 115.891 315.234 115.569C315.755 115.243 316.354 115.08 317.031 115.08C318.032 115.08 318.843 115.413 319.465 116.08C320.091 116.747 320.429 117.632 320.479 118.734L320.486 119.138C320.486 119.895 320.345 120.572 320.061 121.168C319.782 121.764 319.38 122.225 318.854 122.551C318.333 122.878 317.73 123.041 317.044 123.041C315.998 123.041 315.159 122.682 314.528 121.962C313.902 121.239 313.589 120.276 313.589 119.075V118.989ZM315.255 119.138C315.255 119.928 315.413 120.548 315.728 120.997C316.043 121.442 316.482 121.664 317.044 121.664C317.607 121.664 318.043 121.437 318.354 120.983C318.669 120.529 318.827 119.865 318.827 118.989C318.827 118.214 318.665 117.599 318.34 117.144C318.02 116.69 317.584 116.463 317.031 116.463C316.487 116.463 316.055 116.688 315.735 117.137C315.415 117.582 315.255 118.249 315.255 119.138Z" fill="#4967EE"/>
<path d="M326.39 122.147C325.9 122.743 325.206 123.041 324.305 123.041C323.501 123.041 322.891 122.797 322.475 122.31C322.063 121.823 321.858 121.118 321.858 120.196V115.221H323.524V120.174C323.524 121.149 323.914 121.636 324.696 121.636C325.505 121.636 326.051 121.336 326.335 120.735V115.221H328.001V122.899H326.431L326.39 122.147Z" fill="#4967EE"/>
<path d="M333.582 116.797C333.362 116.759 333.136 116.74 332.903 116.74C332.14 116.74 331.626 117.043 331.36 117.648V122.899H329.694V115.221H331.285L331.326 116.08C331.728 115.413 332.286 115.08 332.999 115.08C333.237 115.08 333.433 115.113 333.589 115.179L333.582 116.797Z" fill="#4967EE"/>
<path d="M342.564 122.899C342.491 122.752 342.427 122.514 342.372 122.182C341.841 122.755 341.192 123.041 340.425 123.041C339.679 123.041 339.072 122.821 338.601 122.381C338.13 121.941 337.895 121.397 337.895 120.749C337.895 119.931 338.187 119.304 338.772 118.869C339.362 118.429 340.203 118.209 341.295 118.209H342.317V117.705C342.317 117.308 342.209 116.991 341.995 116.754C341.78 116.513 341.453 116.392 341.014 116.392C340.635 116.392 340.324 116.492 340.082 116.69C339.839 116.884 339.718 117.133 339.718 117.435H338.052C338.052 117.014 338.187 116.622 338.457 116.257C338.726 115.888 339.092 115.6 339.554 115.392C340.02 115.184 340.539 115.08 341.11 115.08C341.979 115.08 342.671 115.307 343.188 115.761C343.704 116.21 343.969 116.844 343.983 117.662V121.125C343.983 121.816 344.077 122.367 344.264 122.779V122.899H342.564ZM340.733 121.657C341.062 121.657 341.371 121.575 341.659 121.409C341.951 121.243 342.171 121.021 342.317 120.742V119.294H341.419C340.802 119.294 340.338 119.406 340.027 119.628C339.716 119.85 339.561 120.165 339.561 120.572C339.561 120.903 339.666 121.168 339.876 121.366C340.091 121.56 340.377 121.657 340.733 121.657Z" fill="#4967EE"/>
<path d="M350.222 122.147C349.733 122.743 349.038 123.041 348.138 123.041C347.333 123.041 346.723 122.797 346.307 122.31C345.896 121.823 345.69 121.118 345.69 120.196V115.221H347.356V120.174C347.356 121.149 347.747 121.636 348.529 121.636C349.338 121.636 349.884 121.336 350.167 120.735V115.221H351.833V122.899H350.263L350.222 122.147Z" fill="#4967EE"/>
<path d="M353.218 119.004C353.218 117.821 353.484 116.872 354.014 116.158C354.544 115.439 355.255 115.08 356.146 115.08C356.932 115.08 357.568 115.363 358.052 115.931V112H359.718V122.899H358.21L358.128 122.104C357.629 122.729 356.964 123.041 356.132 123.041C355.264 123.041 354.56 122.679 354.021 121.955C353.486 121.232 353.218 120.248 353.218 119.004ZM354.885 119.153C354.885 119.933 355.029 120.543 355.316 120.983C355.609 121.418 356.023 121.636 356.557 121.636C357.239 121.636 357.737 121.322 358.052 120.692V117.414C357.746 116.799 357.252 116.492 356.571 116.492C356.032 116.492 355.616 116.714 355.323 117.159C355.031 117.599 354.885 118.263 354.885 119.153Z" fill="#4967EE"/>
<path d="M363.229 122.899H361.563V115.221H363.229V122.899ZM361.46 113.228C361.46 112.963 361.54 112.743 361.7 112.568C361.864 112.393 362.097 112.305 362.399 112.305C362.701 112.305 362.934 112.393 363.098 112.568C363.263 112.743 363.345 112.963 363.345 113.228C363.345 113.488 363.263 113.705 363.098 113.88C362.934 114.051 362.701 114.136 362.399 114.136C362.097 114.136 361.864 114.051 361.7 113.88C361.54 113.705 361.46 113.488 361.46 113.228Z" fill="#4967EE"/>
<path d="M368.316 123.041C367.26 123.041 366.403 122.698 365.745 122.012C365.091 121.322 364.765 120.404 364.765 119.259V119.046C364.765 118.28 364.906 117.596 365.19 116.995C365.478 116.39 365.88 115.919 366.396 115.583C366.913 115.248 367.489 115.08 368.124 115.08C369.134 115.08 369.914 115.413 370.462 116.08C371.015 116.747 371.292 117.691 371.292 118.911V119.607H366.444C366.495 120.241 366.698 120.742 367.055 121.111C367.416 121.48 367.868 121.664 368.412 121.664C369.175 121.664 369.797 121.345 370.277 120.707L371.175 121.594C370.878 122.052 370.48 122.41 369.982 122.665C369.489 122.916 368.933 123.041 368.316 123.041ZM368.117 116.463C367.66 116.463 367.29 116.629 367.007 116.96C366.728 117.291 366.549 117.752 366.472 118.344H369.646V118.216C369.61 117.639 369.461 117.204 369.201 116.91C368.94 116.612 368.579 116.463 368.117 116.463Z" fill="#4967EE"/>
<path d="M374.137 115.221L374.185 116.108C374.734 115.423 375.454 115.08 376.345 115.08C377.89 115.08 378.676 115.995 378.703 117.826V122.899H377.037V117.925C377.037 117.438 376.935 117.078 376.729 116.846C376.528 116.61 376.196 116.492 375.735 116.492C375.063 116.492 374.562 116.806 374.233 117.435V122.899H372.567V115.221H374.137Z" fill="#4967EE"/>
<path d="M383.455 121.664C383.871 121.664 384.216 121.539 384.49 121.288C384.764 121.038 384.911 120.728 384.929 120.359H386.499C386.481 120.837 386.337 121.284 386.067 121.7C385.798 122.112 385.432 122.438 384.97 122.679C384.509 122.92 384.01 123.041 383.476 123.041C382.438 123.041 381.615 122.693 381.007 121.998C380.399 121.303 380.095 120.342 380.095 119.117V118.94C380.095 117.771 380.397 116.837 381 116.137C381.604 115.432 382.426 115.08 383.469 115.08C384.351 115.08 385.068 115.347 385.622 115.881C386.179 116.411 386.472 117.109 386.499 117.975H384.929C384.911 117.535 384.764 117.173 384.49 116.889C384.221 116.605 383.875 116.463 383.455 116.463C382.916 116.463 382.5 116.667 382.207 117.073C381.915 117.476 381.766 118.088 381.761 118.911V119.188C381.761 120.021 381.905 120.643 382.193 121.054C382.486 121.461 382.906 121.664 383.455 121.664Z" fill="#4967EE"/>
<path d="M391.024 123.041C389.968 123.041 389.111 122.698 388.453 122.012C387.8 121.322 387.473 120.404 387.473 119.259V119.046C387.473 118.28 387.614 117.596 387.898 116.995C388.186 116.39 388.588 115.919 389.105 115.583C389.621 115.248 390.197 115.08 390.832 115.08C391.843 115.08 392.622 115.413 393.17 116.08C393.723 116.747 394 117.691 394 118.911V119.607H389.153C389.203 120.241 389.406 120.742 389.763 121.111C390.124 121.48 390.576 121.664 391.12 121.664C391.884 121.664 392.505 121.345 392.985 120.707L393.883 121.594C393.586 122.052 393.189 122.41 392.69 122.665C392.197 122.916 391.641 123.041 391.024 123.041ZM390.826 116.463C390.368 116.463 389.998 116.629 389.715 116.96C389.436 117.291 389.258 117.752 389.18 118.344H392.354V118.216C392.318 117.639 392.169 117.204 391.909 116.91C391.648 116.612 391.287 116.463 390.826 116.463Z" fill="#4967EE"/>
<path d="M162.945 224.536C162.844 225.638 162.451 226.499 161.764 227.119C161.077 227.734 160.164 228.041 159.024 228.041C158.227 228.041 157.525 227.847 156.916 227.459C156.312 227.067 155.845 226.511 155.515 225.792C155.185 225.073 155.014 224.238 155 223.287V222.322C155 221.347 155.167 220.489 155.501 219.746C155.835 219.003 156.314 218.431 156.936 218.029C157.564 217.627 158.287 217.426 159.106 217.426C160.21 217.426 161.098 217.736 161.771 218.355C162.444 218.975 162.835 219.85 162.945 220.981H161.215C161.132 220.238 160.922 219.703 160.583 219.377C160.249 219.046 159.756 218.88 159.106 218.88C158.351 218.88 157.77 219.167 157.362 219.739C156.959 220.307 156.753 221.142 156.744 222.244V223.159C156.744 224.276 156.936 225.127 157.321 225.714C157.71 226.3 158.278 226.594 159.024 226.594C159.706 226.594 160.219 226.435 160.562 226.118C160.906 225.801 161.123 225.274 161.215 224.536H162.945Z" fill="#4967EE"/>
<path d="M168.844 227.147C168.354 227.743 167.658 228.041 166.756 228.041C165.95 228.041 165.339 227.797 164.923 227.31C164.511 226.823 164.305 226.118 164.305 225.196V220.221H165.973V225.174C165.973 226.149 166.365 226.636 167.148 226.636C167.958 226.636 168.505 226.336 168.789 225.735V220.221H170.457V227.899H168.885L168.844 227.147Z" fill="#4967EE"/>
<path d="M176.322 225.813C176.322 225.505 176.198 225.271 175.951 225.11C175.708 224.95 175.303 224.808 174.736 224.685C174.168 224.562 173.694 224.406 173.314 224.216C172.481 223.8 172.064 223.197 172.064 222.407C172.064 221.745 172.334 221.191 172.875 220.747C173.415 220.302 174.101 220.08 174.935 220.08C175.823 220.08 176.539 220.307 177.084 220.761C177.633 221.215 177.908 221.804 177.908 222.528H176.239C176.239 222.196 176.12 221.922 175.882 221.705C175.644 221.482 175.328 221.371 174.935 221.371C174.568 221.371 174.269 221.459 174.035 221.634C173.806 221.809 173.692 222.043 173.692 222.336C173.692 222.601 173.799 222.807 174.014 222.953C174.23 223.1 174.665 223.249 175.319 223.4C175.974 223.547 176.487 223.724 176.857 223.933C177.233 224.136 177.51 224.382 177.688 224.671C177.871 224.959 177.963 225.309 177.963 225.721C177.963 226.411 177.686 226.972 177.132 227.402C176.578 227.828 175.853 228.041 174.955 228.041C174.346 228.041 173.804 227.928 173.328 227.7C172.852 227.473 172.481 227.161 172.215 226.764C171.95 226.366 171.817 225.938 171.817 225.479H173.438C173.461 225.886 173.609 226.201 173.884 226.423C174.159 226.641 174.523 226.75 174.976 226.75C175.415 226.75 175.75 226.664 175.978 226.494C176.207 226.319 176.322 226.092 176.322 225.813Z" fill="#4967EE"/>
<path d="M181.513 218.355V220.221H182.825V221.499H181.513V225.785C181.513 226.078 181.568 226.291 181.678 226.423C181.792 226.551 181.994 226.615 182.282 226.615C182.475 226.615 182.669 226.591 182.866 226.544V227.878C182.486 227.987 182.12 228.041 181.767 228.041C180.485 228.041 179.844 227.31 179.844 225.848V221.499H178.622V220.221H179.844V218.355H181.513Z" fill="#4967EE"/>
<path d="M183.587 223.989C183.587 223.237 183.731 222.561 184.02 221.96C184.308 221.354 184.713 220.891 185.235 220.569C185.757 220.243 186.357 220.08 187.034 220.08C188.037 220.08 188.849 220.413 189.472 221.08C190.099 221.747 190.438 222.632 190.488 223.734L190.495 224.138C190.495 224.895 190.353 225.572 190.069 226.168C189.79 226.764 189.387 227.225 188.861 227.551C188.339 227.878 187.735 228.041 187.048 228.041C186 228.041 185.159 227.682 184.528 226.962C183.901 226.239 183.587 225.276 183.587 224.075V223.989ZM185.256 224.138C185.256 224.928 185.414 225.548 185.729 225.997C186.045 226.442 186.485 226.664 187.048 226.664C187.611 226.664 188.048 226.437 188.359 225.983C188.675 225.529 188.833 224.865 188.833 223.989C188.833 223.214 188.671 222.599 188.346 222.144C188.025 221.69 187.588 221.463 187.034 221.463C186.489 221.463 186.057 221.688 185.736 222.137C185.416 222.582 185.256 223.249 185.256 224.138Z" fill="#4967EE"/>
<path d="M193.475 220.221L193.523 221.023C194.045 220.394 194.759 220.08 195.666 220.08C196.659 220.08 197.339 220.472 197.705 221.257C198.246 220.472 199.005 220.08 199.985 220.08C200.805 220.08 201.413 220.314 201.812 220.782C202.215 221.25 202.421 221.941 202.43 222.854V227.899H200.761V222.904C200.761 222.416 200.658 222.059 200.452 221.832C200.246 221.605 199.905 221.492 199.429 221.492C199.049 221.492 198.738 221.598 198.495 221.811C198.257 222.019 198.09 222.293 197.994 222.634L198.001 227.899H196.332V222.847C196.309 221.943 195.863 221.492 194.993 221.492C194.325 221.492 193.851 221.773 193.571 222.336V227.899H191.903V220.221H193.475Z" fill="#4967EE"/>
<path d="M205.918 227.899H204.249V220.221H205.918V227.899ZM204.146 218.228C204.146 217.963 204.227 217.743 204.387 217.568C204.552 217.393 204.785 217.305 205.087 217.305C205.389 217.305 205.623 217.393 205.788 217.568C205.952 217.743 206.035 217.963 206.035 218.228C206.035 218.488 205.952 218.705 205.788 218.88C205.623 219.051 205.389 219.136 205.087 219.136C204.785 219.136 204.552 219.051 204.387 218.88C204.227 218.705 204.146 218.488 204.146 218.228Z" fill="#4967EE"/>
<path d="M209.523 226.523H213.479V227.899H207.449V226.771L211.219 221.612H207.518V220.221H213.334V221.314L209.523 226.523Z" fill="#4967EE"/>
<path d="M217.976 228.041C216.919 228.041 216.061 227.698 215.401 227.012C214.747 226.322 214.419 225.404 214.419 224.259V224.046C214.419 223.28 214.561 222.596 214.845 221.995C215.134 221.39 215.536 220.919 216.054 220.583C216.571 220.248 217.148 220.08 217.784 220.08C218.796 220.08 219.576 220.413 220.126 221.08C220.68 221.747 220.957 222.691 220.957 223.911V224.607H216.102C216.152 225.241 216.356 225.742 216.713 226.111C217.075 226.48 217.528 226.664 218.073 226.664C218.837 226.664 219.46 226.345 219.94 225.707L220.84 226.594C220.542 227.052 220.144 227.41 219.645 227.665C219.151 227.916 218.594 228.041 217.976 228.041ZM217.777 221.463C217.32 221.463 216.949 221.629 216.665 221.96C216.386 222.291 216.207 222.752 216.129 223.344H219.309V223.216C219.272 222.639 219.123 222.204 218.862 221.91C218.601 221.612 218.24 221.463 217.777 221.463Z" fill="#4967EE"/>
<path d="M228.359 225.43L229.87 220.221H231.648L228.696 229.063C228.242 230.354 227.473 231 226.388 231C226.146 231 225.878 230.957 225.585 230.872V229.538L225.901 229.56C226.322 229.56 226.638 229.479 226.848 229.318C227.064 229.162 227.233 228.897 227.357 228.524L227.597 227.864L224.988 220.221H226.787L228.359 225.43Z" fill="#4967EE"/>
<path d="M232.191 223.989C232.191 223.237 232.335 222.561 232.624 221.96C232.912 221.354 233.317 220.891 233.839 220.569C234.361 220.243 234.961 220.08 235.638 220.08C236.641 220.08 237.453 220.413 238.076 221.08C238.703 221.747 239.042 222.632 239.092 223.734L239.099 224.138C239.099 224.895 238.957 225.572 238.673 226.168C238.394 226.764 237.991 227.225 237.465 227.551C236.943 227.878 236.339 228.041 235.652 228.041C234.604 228.041 233.763 227.682 233.132 226.962C232.505 226.239 232.191 225.276 232.191 224.075V223.989ZM233.86 224.138C233.86 224.928 234.018 225.548 234.333 225.997C234.649 226.442 235.089 226.664 235.652 226.664C236.215 226.664 236.652 226.437 236.963 225.983C237.279 225.529 237.437 224.865 237.437 223.989C237.437 223.214 237.275 222.599 236.95 222.144C236.629 221.69 236.192 221.463 235.638 221.463C235.093 221.463 234.661 221.688 234.34 222.137C234.02 222.582 233.86 223.249 233.86 224.138Z" fill="#4967EE"/>
<path d="M245.011 227.147C244.522 227.743 243.826 228.041 242.924 228.041C242.118 228.041 241.507 227.797 241.09 227.31C240.678 226.823 240.472 226.118 240.472 225.196V220.221H242.141V225.174C242.141 226.149 242.533 226.636 243.315 226.636C244.126 226.636 244.673 226.336 244.957 225.735V220.221H246.625V227.899H245.053L245.011 227.147Z" fill="#4967EE"/>
<path d="M252.215 221.797C251.995 221.759 251.769 221.74 251.535 221.74C250.771 221.74 250.255 222.043 249.99 222.648V227.899H248.321V220.221H249.914L249.956 221.08C250.358 220.413 250.917 220.08 251.631 220.08C251.869 220.08 252.066 220.113 252.222 220.179L252.215 221.797Z" fill="#4967EE"/>
<path d="M263.277 224.138C263.277 225.326 263.016 226.274 262.495 226.984C261.973 227.689 261.272 228.041 260.393 228.041C259.578 228.041 258.926 227.764 258.436 227.211V230.851H256.768V220.221H258.306L258.374 221.002C258.864 220.387 259.53 220.08 260.373 220.08C261.279 220.08 261.989 220.43 262.501 221.13C263.019 221.825 263.277 222.793 263.277 224.032V224.138ZM261.616 223.989C261.616 223.223 261.467 222.615 261.169 222.166C260.876 221.716 260.455 221.492 259.906 221.492C259.224 221.492 258.734 221.783 258.436 222.364V225.77C258.738 226.366 259.233 226.664 259.92 226.664C260.451 226.664 260.865 226.445 261.162 226.005C261.465 225.56 261.616 224.888 261.616 223.989Z" fill="#4967EE"/>
<path d="M266.471 227.899H264.802V217H266.471V227.899Z" fill="#4967EE"/>
<path d="M272.733 227.899C272.66 227.752 272.596 227.514 272.541 227.182C272.01 227.755 271.36 228.041 270.591 228.041C269.845 228.041 269.236 227.821 268.764 227.381C268.293 226.941 268.057 226.397 268.057 225.749C268.057 224.931 268.35 224.304 268.936 223.869C269.526 223.429 270.369 223.209 271.463 223.209H272.486V222.705C272.486 222.308 272.378 221.991 272.163 221.754C271.948 221.513 271.621 221.392 271.181 221.392C270.801 221.392 270.49 221.492 270.247 221.69C270.005 221.884 269.883 222.133 269.883 222.435H268.215C268.215 222.014 268.35 221.622 268.62 221.257C268.89 220.888 269.256 220.6 269.719 220.392C270.186 220.184 270.705 220.08 271.277 220.08C272.147 220.08 272.841 220.307 273.358 220.761C273.875 221.21 274.141 221.844 274.155 222.662V226.125C274.155 226.816 274.248 227.367 274.436 227.779V227.899H272.733ZM270.9 226.657C271.229 226.657 271.538 226.575 271.827 226.409C272.12 226.243 272.339 226.021 272.486 225.742V224.294H271.586C270.968 224.294 270.504 224.406 270.192 224.628C269.881 224.85 269.725 225.165 269.725 225.572C269.725 225.903 269.831 226.168 270.041 226.366C270.257 226.56 270.543 226.657 270.9 226.657Z" fill="#4967EE"/>
<path d="M278.392 225.43L279.902 220.221H281.681L278.728 229.063C278.275 230.354 277.506 231 276.421 231C276.178 231 275.91 230.957 275.617 230.872V229.538L275.933 229.56C276.354 229.56 276.67 229.479 276.881 229.318C277.096 229.162 277.265 228.897 277.389 228.524L277.629 227.864L275.02 220.221H276.819L278.392 225.43Z" fill="#4967EE"/>
<path d="M285.822 228.041C284.764 228.041 283.906 227.698 283.246 227.012C282.592 226.322 282.264 225.404 282.264 224.259V224.046C282.264 223.28 282.406 222.596 282.69 221.995C282.979 221.39 283.381 220.919 283.899 220.583C284.416 220.248 284.993 220.08 285.629 220.08C286.641 220.08 287.422 220.413 287.971 221.08C288.525 221.747 288.802 222.691 288.802 223.911V224.607H283.947C283.997 225.241 284.201 225.742 284.558 226.111C284.92 226.48 285.373 226.664 285.918 226.664C286.682 226.664 287.305 226.345 287.785 225.707L288.685 226.594C288.387 227.052 287.989 227.41 287.49 227.665C286.996 227.916 286.44 228.041 285.822 228.041ZM285.622 221.463C285.165 221.463 284.794 221.629 284.51 221.96C284.231 222.291 284.052 222.752 283.974 223.344H287.154V223.216C287.117 222.639 286.968 222.204 286.707 221.91C286.446 221.612 286.085 221.463 285.622 221.463Z" fill="#4967EE"/>
<path d="M293.993 221.797C293.773 221.759 293.547 221.74 293.313 221.74C292.549 221.74 292.034 222.043 291.768 222.648V227.899H290.1V220.221H291.693L291.734 221.08C292.137 220.413 292.695 220.08 293.409 220.08C293.648 220.08 293.844 220.113 294 220.179L293.993 221.797Z" fill="#4967EE"/>
<defs>
<filter id="filter0_d" x="95.0418" y="92.0209" width="40.9164" height="22.9164" filterUnits="userSpaceOnUse" color-interpolation-filters="sRGB">
<feFlood flood-opacity="0" result="BackgroundImageFix"/>
<feColorMatrix in="SourceAlpha" type="matrix" values="0 0 0 0 0 0 0 0 0 0 0 0 0 0 0 0 0 0 127 0" result="hardAlpha"/>
<feOffset dy="0.979102"/>
<feGaussianBlur stdDeviation="0.979102"/>
<feColorMatrix type="matrix" values="0 0 0 0 0 0 0 0 0 0 0 0 0 0 0 0 0 0 0.25 0"/>
<feBlend mode="normal" in2="BackgroundImageFix" result="effect1_dropShadow"/>
<feBlend mode="normal" in="SourceGraphic" in2="effect1_dropShadow" result="shape"/>
</filter>
<filter id="filter1_d" x="143.617" y="114.183" width="24.7661" height="24.7661" filterUnits="userSpaceOnUse" color-interpolation-filters="sRGB">
<feFlood flood-opacity="0" result="BackgroundImageFix"/>
<feColorMatrix in="SourceAlpha" type="matrix" values="0 0 0 0 0 0 0 0 0 0 0 0 0 0 0 0 0 0 127 0" result="hardAlpha"/>
<feOffset dy="0.566522"/>
<feGaussianBlur stdDeviation="0.566522"/>
<feColorMatrix type="matrix" values="0 0 0 0 0 0 0 0 0 0 0 0 0 0 0 0 0 0 0.25 0"/>
<feBlend mode="normal" in2="BackgroundImageFix" result="effect1_dropShadow"/>
<feBlend mode="normal" in="SourceGraphic" in2="effect1_dropShadow" result="shape"/>
</filter>
</defs>
</svg>
