<svg width="313" height="205" viewBox="0 0 313 205" fill="none" xmlns="http://www.w3.org/2000/svg">
<circle cx="133.349" cy="108.349" r="95.3488" fill="#EDF0FE"/>
<path d="M194.567 21.4535L194.663 4.17152" stroke="#C8D1E0" stroke-width="3.03147" stroke-linecap="round" stroke-linejoin="round"/>
<path d="M209.465 26.2209L221.747 14.0622" stroke="#C8D1E0" stroke-width="3.03147" stroke-linecap="round" stroke-linejoin="round"/>
<path d="M229.727 42.311L212.445 42.2144" stroke="#C8D1E0" stroke-width="3.03147" stroke-linecap="round" stroke-linejoin="round"/>
<path d="M27.1287 66.7976L28.9828 68.8011L29.1698 69.0031L29.4196 68.8876L31.8978 67.7412L30.5655 70.1258L30.4312 70.3663L30.6181 70.5683L32.4722 72.5718L29.7947 72.0421L29.5247 71.9887L29.3904 72.2291L28.0581 74.6138L27.7356 71.9017L27.7031 71.6283L27.4332 71.5748L24.7557 71.0451L27.2339 69.8987L27.4837 69.7831L27.4512 69.5096L27.1287 66.7976Z" stroke="#4967EE" stroke-width="0.757868" stroke-linecap="round"/>
<path d="M240.623 59.0429L240.847 61.7646L240.869 62.039L241.137 62.1025L243.794 62.7318L241.276 63.7846L241.022 63.8908L241.044 64.1652L241.268 66.8869L239.488 64.8158L239.308 64.607L239.054 64.7132L236.536 65.766L237.954 63.4332L238.097 63.198L237.917 62.9892L236.137 60.9181L238.794 61.5474L239.062 61.6109L239.205 61.3757L240.623 59.0429Z" stroke="#4967EE" stroke-width="0.757868" stroke-linecap="round"/>
<path d="M140.18 1.77953L140.749 4.45033L140.806 4.71962L141.08 4.74837L143.796 5.03343L141.431 6.39901L141.193 6.5367L141.25 6.806L141.819 9.4768L139.789 7.64997L139.585 7.46578L139.346 7.60347L136.982 8.96905L138.092 6.47443L138.204 6.2229L137.999 6.0387L135.969 4.21187L138.685 4.49694L138.959 4.52568L139.071 4.27415L140.18 1.77953Z" stroke="#4967EE" stroke-width="0.757868" stroke-linecap="round"/>
<path d="M224.978 137.117L226.832 139.121L227.019 139.323L227.268 139.207L229.747 138.061L228.414 140.446L228.28 140.686L228.467 140.888L230.321 142.892L227.644 142.362L227.374 142.308L227.239 142.549L225.907 144.934L225.584 142.221L225.552 141.948L225.282 141.895L222.605 141.365L225.083 140.218L225.333 140.103L225.3 139.829L224.978 137.117Z" stroke="#AFBACC" stroke-width="0.757868" stroke-linecap="round"/>
<path d="M27.2156 150.658L26.832 153.362L26.7933 153.634L27.0405 153.756L29.4921 154.958L26.8034 155.427L26.5323 155.474L26.4936 155.747L26.1099 158.451L24.8319 156.037L24.703 155.793L24.4319 155.841L21.7432 156.31L23.642 154.348L23.8335 154.151L23.7046 153.907L22.4266 151.493L24.8782 152.695L25.1254 152.816L25.3168 152.619L27.2156 150.658Z" stroke="#AFBACC" stroke-width="0.757868" stroke-linecap="round"/>
<circle cx="223.767" cy="73.2994" r="2.00479" stroke="#707A8A" stroke-width="0.757868"/>
<circle cx="50.3517" cy="39.9273" r="2.00479" stroke="#707A8A" stroke-width="0.757868"/>
<circle cx="44.3924" cy="163.285" r="2.00479" stroke="#707A8A" stroke-width="0.757868"/>
<circle cx="251.776" cy="150.77" r="2.00479" stroke="#707A8A" stroke-width="0.757868"/>
<circle cx="142.125" cy="22.6453" r="2.00479" stroke="#707A8A" stroke-width="0.757868"/>
<circle cx="44.3924" cy="79.8547" r="2.00479" stroke="#AFBACC" stroke-width="0.757868"/>
<circle cx="217.212" cy="171.032" r="2.00479" stroke="#AFBACC" stroke-width="0.757868"/>
<circle cx="159.407" cy="9.5349" r="2.00479" stroke="#AFBACC" stroke-width="0.757868"/>
<circle cx="36.0494" cy="101.308" r="2.00479" stroke="#4967EE" stroke-width="0.757868"/>
<circle cx="16.3837" cy="174.608" r="2.00479" stroke="#4967EE" stroke-width="0.757868"/>
<circle cx="236.282" cy="123.953" r="2.00479" stroke="#4967EE" stroke-width="0.757868"/>
<path fill-rule="evenodd" clip-rule="evenodd" d="M14.7142 89.5005C14.5658 89.3525 14.3251 89.3525 14.1767 89.5005C14.0282 89.6484 14.0282 89.8882 14.1767 90.0362L15.887 91.7407L14.1113 93.5103C13.9629 93.6583 13.9629 93.8981 14.1113 94.046C14.2598 94.194 14.5004 94.194 14.6489 94.046L16.4246 92.2764L18.1186 93.9646C18.267 94.1126 18.5077 94.1126 18.6561 93.9646C18.8046 93.8167 18.8046 93.5769 18.6561 93.4289L16.9621 91.7407L18.5908 90.1176C18.7392 89.9696 18.7392 89.7298 18.5908 89.5819C18.4424 89.4339 18.2017 89.4339 18.0533 89.5819L16.4246 91.205L14.7142 89.5005Z" fill="#707A8A"/>
<path fill-rule="evenodd" clip-rule="evenodd" d="M48.6822 140.75C48.5338 140.603 48.2931 140.603 48.1447 140.75C47.9962 140.898 47.9962 141.138 48.1447 141.286L49.855 142.991L48.0793 144.76C47.9309 144.908 47.9309 145.148 48.0793 145.296C48.2278 145.444 48.4684 145.444 48.6169 145.296L50.3926 143.526L52.0866 145.215C52.235 145.363 52.4757 145.363 52.6241 145.215C52.7726 145.067 52.7726 144.827 52.6241 144.679L50.9301 142.991L52.5588 141.368C52.7072 141.22 52.7072 140.98 52.5588 140.832C52.4104 140.684 52.1697 140.684 52.0213 140.832L50.3926 142.455L48.6822 140.75Z" fill="#AFBACC"/>
<path fill-rule="evenodd" clip-rule="evenodd" d="M114.83 20.9685C114.682 20.8206 114.441 20.8206 114.293 20.9685C114.144 21.1164 114.144 21.3563 114.293 21.5042L116.003 23.2087L114.228 24.9783C114.079 25.1263 114.079 25.3661 114.228 25.514C114.376 25.662 114.617 25.662 114.765 25.514L116.541 23.7444L118.235 25.4326C118.383 25.5806 118.624 25.5806 118.772 25.4326C118.921 25.2847 118.921 25.0449 118.772 24.8969L117.078 23.2087L118.707 21.5856C118.855 21.4377 118.855 21.1978 118.707 21.0499C118.559 20.902 118.318 20.902 118.17 21.0499L116.541 22.673L114.83 20.9685Z" fill="#AFBACC"/>
<path fill-rule="evenodd" clip-rule="evenodd" d="M39.1473 183.062C38.9989 182.914 38.7582 182.914 38.6098 183.062C38.4614 183.209 38.4614 183.449 38.6098 183.597L40.3202 185.302L38.5445 187.071C38.396 187.219 38.396 187.459 38.5445 187.607C38.6929 187.755 38.9336 187.755 39.082 187.607L40.8577 185.837L42.5517 187.526C42.7002 187.674 42.9408 187.674 43.0893 187.526C43.2377 187.378 43.2377 187.138 43.0893 186.99L41.3952 185.302L43.0239 183.679C43.1724 183.531 43.1724 183.291 43.0239 183.143C42.8755 182.995 42.6348 182.995 42.4864 183.143L40.8577 184.766L39.1473 183.062Z" fill="#AFBACC"/>
<path fill-rule="evenodd" clip-rule="evenodd" d="M234.017 81.7534C233.868 81.6055 233.627 81.6055 233.479 81.7534C233.331 81.9013 233.331 82.1412 233.479 82.2891L235.189 83.9936L233.414 85.7633C233.265 85.9112 233.265 86.151 233.414 86.299C233.562 86.4469 233.803 86.4469 233.951 86.299L235.727 84.5293L237.421 86.2176C237.569 86.3655 237.81 86.3655 237.958 86.2176C238.107 86.0696 238.107 85.8298 237.958 85.6819L236.264 83.9936L237.893 82.3705C238.042 82.2226 238.042 81.9827 237.893 81.8348C237.745 81.6869 237.504 81.6869 237.356 81.8348L235.727 83.4579L234.017 81.7534Z" fill="#AFBACC"/>
<path fill-rule="evenodd" clip-rule="evenodd" d="M234.017 161.012C233.868 160.864 233.627 160.864 233.479 161.012C233.331 161.16 233.331 161.4 233.479 161.548L235.189 163.252L233.414 165.022C233.265 165.17 233.265 165.41 233.414 165.558C233.562 165.706 233.803 165.706 233.951 165.558L235.727 163.788L237.421 165.476C237.569 165.624 237.81 165.624 237.958 165.476C238.107 165.328 238.107 165.089 237.958 164.941L236.264 163.252L237.893 161.629C238.042 161.481 238.042 161.241 237.893 161.094C237.745 160.946 237.504 160.946 237.356 161.094L235.727 162.717L234.017 161.012Z" fill="#4967EE"/>
<path fill-rule="evenodd" clip-rule="evenodd" d="M170.848 15.0092C170.699 14.8613 170.459 14.8613 170.31 15.0092C170.162 15.1571 170.162 15.397 170.31 15.5449L172.021 17.2494L170.245 19.0191C170.097 19.167 170.097 19.4068 170.245 19.5547C170.393 19.7027 170.634 19.7027 170.783 19.5547L172.558 17.7851L174.252 19.4734C174.401 19.6213 174.641 19.6213 174.79 19.4734C174.938 19.3254 174.938 19.0856 174.79 18.9377L173.096 17.2494L174.725 15.6263C174.873 15.4784 174.873 15.2385 174.725 15.0906C174.576 14.9427 174.335 14.9427 174.187 15.0906L172.558 16.7137L170.848 15.0092Z" fill="#4967EE"/>
<mask id="mask0" mask-type="alpha" maskUnits="userSpaceOnUse" x="78" y="77" width="111" height="62">
<rect x="78" y="77" width="110.247" height="61.9767" fill="#C4C4C4"/>
</mask>
<g mask="url(#mask0)">
<rect x="77.4041" y="61.5058" width="111.439" height="88.7936" fill="#707A8A"/>
<rect opacity="0.5" x="78" y="134.209" width="110.247" height="0.59593" fill="white"/>
<rect x="78.0001" y="133.613" width="110.247" height="1.78779" fill="#4967EE"/>
<g filter="url(#filter0_d)">
<text fill="white" xml:space="preserve" style="white-space: pre" font-family="Roboto" font-size="6.69856" font-weight="500" letter-spacing="0em"><tspan x="93.4942" y="90.3142">LIVE</tspan></text>
<circle cx="89.0247" cy="88.0247" r="2.08576" fill="#4967EE"/>
<rect x="82.9768" y="80.7849" width="31.1656" height="13.2877" rx="0.62799" stroke="white" stroke-width="0.41866"/>
</g>
<path fill-rule="evenodd" clip-rule="evenodd" d="M175.733 118.268C172.256 118.268 169.288 120.43 168.085 123.483C169.288 126.535 172.256 128.697 175.733 128.697C179.209 128.697 182.178 126.535 183.38 123.483C182.178 120.43 179.209 118.268 175.733 118.268ZM175.733 126.959C173.814 126.959 172.256 125.401 172.256 123.483C172.256 121.564 173.814 120.006 175.733 120.006C177.652 120.006 179.209 121.564 179.209 123.483C179.209 125.401 177.652 126.959 175.733 126.959ZM173.647 123.483C173.647 122.328 174.579 121.397 175.733 121.397C176.887 121.397 177.818 122.328 177.818 123.483C177.818 124.637 176.887 125.568 175.733 125.568C174.579 125.568 173.647 124.637 173.647 123.483Z" fill="white"/>
<circle opacity="0.5" cx="133.422" cy="107.988" r="15.4942" fill="#DBE1FC"/>
<g filter="url(#filter1_d)">
<path d="M129.185 102.916V113.06C129.185 113.834 130.015 114.304 130.655 113.883L138.425 108.811C139.017 108.429 139.017 107.548 138.425 107.156L130.655 102.094C130.015 101.673 129.185 102.143 129.185 102.916Z" fill="white"/>
</g>
<rect opacity="0.5" x="78.0001" y="134.209" width="110.247" height="0.59593" fill="white"/>
<rect x="78.0001" y="134.209" width="110.247" height="1.19186" fill="#4967EE"/>
<rect opacity="0.5" x="78.0001" y="133.613" width="110.247" height="5.9593" fill="#DBE1FC"/>
<rect x="78.0001" y="133.613" width="110.247" height="1.78779" fill="#4967EE"/>
</g>
<text fill="#4967EE" xml:space="preserve" style="white-space: pre" font-family="Roboto" font-size="12" font-weight="500" letter-spacing="0em"><tspan x="198" y="106.286">Broadcast live events</tspan></text>
<text fill="#4967EE" xml:space="preserve" style="white-space: pre" font-family="Roboto" font-size="12" font-weight="500" letter-spacing="0em"><tspan x="123" y="194.286">Engage with your audience</tspan></text>
<text fill="#4967EE" xml:space="preserve" style="white-space: pre" font-family="Roboto" font-size="12" font-weight="500" letter-spacing="0em"><tspan x="0" y="30.2861">Customize your player</tspan></text>
<defs>
<filter id="filter0_d" x="81.0928" y="78.5464" width="34.9336" height="19.4394" filterUnits="userSpaceOnUse" color-interpolation-filters="sRGB">
<feFlood flood-opacity="0" result="BackgroundImageFix"/>
<feColorMatrix in="SourceAlpha" type="matrix" values="0 0 0 0 0 0 0 0 0 0 0 0 0 0 0 0 0 0 127 0" result="hardAlpha"/>
<feOffset dy="0.83732"/>
<feGaussianBlur stdDeviation="0.83732"/>
<feColorMatrix type="matrix" values="0 0 0 0 0 0 0 0 0 0 0 0 0 0 0 0 0 0 0.25 0"/>
<feBlend mode="normal" in2="BackgroundImageFix" result="effect1_dropShadow"/>
<feBlend mode="normal" in="SourceGraphic" in2="effect1_dropShadow" result="shape"/>
</filter>
<filter id="filter1_d" x="122.769" y="97.82" width="21.3057" height="21.3057" filterUnits="userSpaceOnUse" color-interpolation-filters="sRGB">
<feFlood flood-opacity="0" result="BackgroundImageFix"/>
<feColorMatrix in="SourceAlpha" type="matrix" values="0 0 0 0 0 0 0 0 0 0 0 0 0 0 0 0 0 0 127 0" result="hardAlpha"/>
<feOffset dy="0.484484"/>
<feGaussianBlur stdDeviation="0.484484"/>
<feColorMatrix type="matrix" values="0 0 0 0 0 0 0 0 0 0 0 0 0 0 0 0 0 0 0.25 0"/>
<feBlend mode="normal" in2="BackgroundImageFix" result="effect1_dropShadow"/>
<feBlend mode="normal" in="SourceGraphic" in2="effect1_dropShadow" result="shape"/>
</filter>
</defs>
</svg>
