<svg width="313" height="205" viewBox="0 0 313 205" fill="none" xmlns="http://www.w3.org/2000/svg">
<circle cx="133.349" cy="108.349" r="95.3488" fill="#EDF0FE"/>
<path d="M194.567 21.4535L194.663 4.17152" stroke="#C8D1E0" stroke-width="3.03147" stroke-linecap="round" stroke-linejoin="round"/>
<path d="M209.465 26.2209L221.747 14.0622" stroke="#C8D1E0" stroke-width="3.03147" stroke-linecap="round" stroke-linejoin="round"/>
<path d="M229.727 42.311L212.445 42.2144" stroke="#C8D1E0" stroke-width="3.03147" stroke-linecap="round" stroke-linejoin="round"/>
<path d="M27.1287 66.7976L28.9828 68.8011L29.1698 69.0031L29.4196 68.8876L31.8978 67.7412L30.5655 70.1258L30.4312 70.3663L30.6181 70.5683L32.4722 72.5718L29.7947 72.0421L29.5247 71.9887L29.3904 72.2291L28.0581 74.6138L27.7356 71.9017L27.7031 71.6283L27.4332 71.5748L24.7557 71.0451L27.2339 69.8987L27.4837 69.7831L27.4512 69.5096L27.1287 66.7976Z" stroke="#4967EE" stroke-width="0.757868" stroke-linecap="round"/>
<path d="M240.623 59.0429L240.847 61.7646L240.869 62.039L241.137 62.1025L243.794 62.7318L241.276 63.7846L241.022 63.8908L241.044 64.1652L241.268 66.8869L239.488 64.8158L239.308 64.607L239.054 64.7132L236.536 65.766L237.954 63.4332L238.097 63.198L237.917 62.9892L236.137 60.9181L238.794 61.5474L239.062 61.6109L239.205 61.3757L240.623 59.0429Z" stroke="#4967EE" stroke-width="0.757868" stroke-linecap="round"/>
<path d="M140.18 1.77953L140.749 4.45033L140.806 4.71962L141.08 4.74837L143.796 5.03343L141.431 6.39901L141.193 6.5367L141.25 6.806L141.819 9.4768L139.789 7.64997L139.585 7.46578L139.346 7.60347L136.982 8.96905L138.092 6.47443L138.204 6.2229L137.999 6.0387L135.969 4.21187L138.685 4.49694L138.959 4.52568L139.071 4.27415L140.18 1.77953Z" stroke="#4967EE" stroke-width="0.757868" stroke-linecap="round"/>
<path d="M224.978 137.117L226.832 139.121L227.019 139.323L227.268 139.207L229.747 138.061L228.414 140.446L228.28 140.686L228.467 140.888L230.321 142.892L227.644 142.362L227.374 142.308L227.239 142.549L225.907 144.934L225.584 142.221L225.552 141.948L225.282 141.895L222.605 141.365L225.083 140.218L225.333 140.103L225.3 139.829L224.978 137.117Z" stroke="#AFBACC" stroke-width="0.757868" stroke-linecap="round"/>
<path d="M27.2156 150.658L26.832 153.362L26.7933 153.634L27.0405 153.756L29.4921 154.958L26.8034 155.427L26.5323 155.474L26.4936 155.747L26.1099 158.451L24.8319 156.037L24.703 155.793L24.4319 155.841L21.7432 156.31L23.642 154.348L23.8335 154.151L23.7046 153.907L22.4266 151.493L24.8782 152.695L25.1254 152.816L25.3168 152.619L27.2156 150.658Z" stroke="#AFBACC" stroke-width="0.757868" stroke-linecap="round"/>
<circle cx="223.767" cy="73.2994" r="2.00479" stroke="#707A8A" stroke-width="0.757868"/>
<circle cx="50.3517" cy="39.9273" r="2.00479" stroke="#707A8A" stroke-width="0.757868"/>
<circle cx="44.3924" cy="163.285" r="2.00479" stroke="#707A8A" stroke-width="0.757868"/>
<circle cx="251.776" cy="150.77" r="2.00479" stroke="#707A8A" stroke-width="0.757868"/>
<circle cx="142.125" cy="22.6453" r="2.00479" stroke="#707A8A" stroke-width="0.757868"/>
<circle cx="44.3924" cy="79.8547" r="2.00479" stroke="#AFBACC" stroke-width="0.757868"/>
<circle cx="217.212" cy="171.032" r="2.00479" stroke="#AFBACC" stroke-width="0.757868"/>
<circle cx="159.407" cy="9.5349" r="2.00479" stroke="#AFBACC" stroke-width="0.757868"/>
<circle cx="36.0494" cy="101.308" r="2.00479" stroke="#4967EE" stroke-width="0.757868"/>
<circle cx="16.3837" cy="174.608" r="2.00479" stroke="#4967EE" stroke-width="0.757868"/>
<circle cx="236.282" cy="123.953" r="2.00479" stroke="#4967EE" stroke-width="0.757868"/>
<path fill-rule="evenodd" clip-rule="evenodd" d="M14.7142 89.5005C14.5658 89.3525 14.3251 89.3525 14.1767 89.5005C14.0282 89.6484 14.0282 89.8882 14.1767 90.0362L15.887 91.7407L14.1113 93.5103C13.9629 93.6583 13.9629 93.8981 14.1113 94.046C14.2598 94.194 14.5004 94.194 14.6489 94.046L16.4246 92.2764L18.1186 93.9646C18.267 94.1126 18.5077 94.1126 18.6561 93.9646C18.8046 93.8167 18.8046 93.5769 18.6561 93.4289L16.9621 91.7407L18.5908 90.1176C18.7392 89.9696 18.7392 89.7298 18.5908 89.5819C18.4424 89.4339 18.2017 89.4339 18.0533 89.5819L16.4246 91.205L14.7142 89.5005Z" fill="#707A8A"/>
<path fill-rule="evenodd" clip-rule="evenodd" d="M48.6822 140.75C48.5338 140.603 48.2931 140.603 48.1447 140.75C47.9962 140.898 47.9962 141.138 48.1447 141.286L49.855 142.991L48.0793 144.76C47.9309 144.908 47.9309 145.148 48.0793 145.296C48.2278 145.444 48.4684 145.444 48.6169 145.296L50.3926 143.526L52.0866 145.215C52.235 145.363 52.4757 145.363 52.6241 145.215C52.7726 145.067 52.7726 144.827 52.6241 144.679L50.9301 142.991L52.5588 141.368C52.7072 141.22 52.7072 140.98 52.5588 140.832C52.4104 140.684 52.1697 140.684 52.0213 140.832L50.3926 142.455L48.6822 140.75Z" fill="#AFBACC"/>
<path fill-rule="evenodd" clip-rule="evenodd" d="M114.83 20.9685C114.682 20.8206 114.441 20.8206 114.293 20.9685C114.144 21.1164 114.144 21.3563 114.293 21.5042L116.003 23.2087L114.228 24.9783C114.079 25.1263 114.079 25.3661 114.228 25.514C114.376 25.662 114.617 25.662 114.765 25.514L116.541 23.7444L118.235 25.4326C118.383 25.5806 118.624 25.5806 118.772 25.4326C118.921 25.2847 118.921 25.0449 118.772 24.8969L117.078 23.2087L118.707 21.5856C118.855 21.4377 118.855 21.1978 118.707 21.0499C118.559 20.902 118.318 20.902 118.17 21.0499L116.541 22.673L114.83 20.9685Z" fill="#AFBACC"/>
<path fill-rule="evenodd" clip-rule="evenodd" d="M39.1473 183.062C38.9989 182.914 38.7582 182.914 38.6098 183.062C38.4614 183.209 38.4614 183.449 38.6098 183.597L40.3202 185.302L38.5445 187.071C38.396 187.219 38.396 187.459 38.5445 187.607C38.6929 187.755 38.9336 187.755 39.082 187.607L40.8577 185.837L42.5517 187.526C42.7002 187.674 42.9408 187.674 43.0893 187.526C43.2377 187.378 43.2377 187.138 43.0893 186.99L41.3952 185.302L43.0239 183.679C43.1724 183.531 43.1724 183.291 43.0239 183.143C42.8755 182.995 42.6348 182.995 42.4864 183.143L40.8577 184.766L39.1473 183.062Z" fill="#AFBACC"/>
<path fill-rule="evenodd" clip-rule="evenodd" d="M234.017 81.7534C233.868 81.6055 233.627 81.6055 233.479 81.7534C233.331 81.9013 233.331 82.1412 233.479 82.2891L235.189 83.9936L233.414 85.7633C233.265 85.9112 233.265 86.151 233.414 86.299C233.562 86.4469 233.803 86.4469 233.951 86.299L235.727 84.5293L237.421 86.2176C237.569 86.3655 237.81 86.3655 237.958 86.2176C238.107 86.0696 238.107 85.8298 237.958 85.6819L236.264 83.9936L237.893 82.3705C238.042 82.2226 238.042 81.9827 237.893 81.8348C237.745 81.6869 237.504 81.6869 237.356 81.8348L235.727 83.4579L234.017 81.7534Z" fill="#AFBACC"/>
<path fill-rule="evenodd" clip-rule="evenodd" d="M234.017 161.012C233.868 160.864 233.627 160.864 233.479 161.012C233.331 161.16 233.331 161.4 233.479 161.548L235.189 163.252L233.414 165.022C233.265 165.17 233.265 165.41 233.414 165.558C233.562 165.706 233.803 165.706 233.951 165.558L235.727 163.788L237.421 165.476C237.569 165.624 237.81 165.624 237.958 165.476C238.107 165.328 238.107 165.089 237.958 164.941L236.264 163.252L237.893 161.629C238.042 161.481 238.042 161.241 237.893 161.094C237.745 160.946 237.504 160.946 237.356 161.094L235.727 162.717L234.017 161.012Z" fill="#4967EE"/>
<path fill-rule="evenodd" clip-rule="evenodd" d="M170.848 15.0092C170.699 14.8613 170.459 14.8613 170.31 15.0092C170.162 15.1571 170.162 15.397 170.31 15.5449L172.021 17.2494L170.245 19.0191C170.097 19.167 170.097 19.4068 170.245 19.5547C170.393 19.7027 170.634 19.7027 170.783 19.5547L172.558 17.7851L174.252 19.4734C174.401 19.6213 174.641 19.6213 174.79 19.4734C174.938 19.3254 174.938 19.0856 174.79 18.9377L173.096 17.2494L174.725 15.6263C174.873 15.4784 174.873 15.2385 174.725 15.0906C174.576 14.9427 174.335 14.9427 174.187 15.0906L172.558 16.7137L170.848 15.0092Z" fill="#4967EE"/>
<mask id="mask0" mask-type="alpha" maskUnits="userSpaceOnUse" x="78" y="77" width="111" height="62">
<rect x="78" y="77" width="110.247" height="61.9767" fill="#C4C4C4"/>
</mask>
<g mask="url(#mask0)">
<rect x="77.4041" y="61.5058" width="111.439" height="88.7936" fill="#707A8A"/>
<rect opacity="0.5" x="78" y="134.209" width="110.247" height="0.59593" fill="white"/>
<rect x="78.0001" y="133.613" width="110.247" height="1.78779" fill="#4967EE"/>
<g filter="url(#filter0_d)">
<text fill="white" xml:space="preserve" style="white-space: pre" font-family="Roboto" font-size="6.69856" font-weight="500" letter-spacing="0em"><tspan x="93.4942" y="90.3142">LIVE</tspan></text>
<circle cx="89.0247" cy="88.0247" r="2.08576" fill="#4967EE"/>
<rect x="82.9768" y="80.7849" width="31.1656" height="13.2877" rx="0.62799" stroke="white" stroke-width="0.41866"/>
</g>
<path fill-rule="evenodd" clip-rule="evenodd" d="M175.733 118.268C172.256 118.268 169.288 120.43 168.085 123.483C169.288 126.535 172.256 128.697 175.733 128.697C179.209 128.697 182.178 126.535 183.38 123.483C182.178 120.43 179.209 118.268 175.733 118.268ZM175.733 126.959C173.814 126.959 172.256 125.401 172.256 123.483C172.256 121.564 173.814 120.006 175.733 120.006C177.652 120.006 179.209 121.564 179.209 123.483C179.209 125.401 177.652 126.959 175.733 126.959ZM173.647 123.483C173.647 122.328 174.579 121.397 175.733 121.397C176.887 121.397 177.818 122.328 177.818 123.483C177.818 124.637 176.887 125.568 175.733 125.568C174.579 125.568 173.647 124.637 173.647 123.483Z" fill="white"/>
<circle opacity="0.5" cx="133.422" cy="107.988" r="15.4942" fill="#DBE1FC"/>
<g filter="url(#filter1_d)">
<path d="M129.185 102.916V113.06C129.185 113.834 130.015 114.304 130.655 113.883L138.425 108.811C139.017 108.429 139.017 107.548 138.425 107.156L130.655 102.094C130.015 101.673 129.185 102.143 129.185 102.916Z" fill="white"/>
</g>
<rect opacity="0.5" x="78.0001" y="134.209" width="110.247" height="0.59593" fill="white"/>
<rect x="78.0001" y="134.209" width="110.247" height="1.19186" fill="#4967EE"/>
<rect opacity="0.5" x="78.0001" y="133.613" width="110.247" height="5.9593" fill="#DBE1FC"/>
<rect x="78.0001" y="133.613" width="110.247" height="1.78779" fill="#4967EE"/>
</g>
<path d="M198.867 106V97.4688H201.791C202.756 97.4688 203.49 97.6621 203.994 98.0488C204.498 98.4355 204.75 99.0117 204.75 99.7773C204.75 100.168 204.645 100.52 204.434 100.832C204.223 101.145 203.914 101.387 203.508 101.559C203.969 101.684 204.324 101.92 204.574 102.268C204.828 102.611 204.955 103.025 204.955 103.51C204.955 104.311 204.697 104.926 204.182 105.355C203.67 105.785 202.936 106 201.979 106H198.867ZM200.35 102.15V104.816H201.996C202.461 104.816 202.824 104.701 203.086 104.471C203.348 104.24 203.479 103.92 203.479 103.51C203.479 102.623 203.025 102.17 202.119 102.15H200.35ZM200.35 101.061H201.803C202.264 101.061 202.623 100.957 202.881 100.75C203.143 100.539 203.273 100.242 203.273 99.8594C203.273 99.4375 203.152 99.1328 202.91 98.9453C202.672 98.7578 202.299 98.6641 201.791 98.6641H200.35V101.061Z" fill="#4967EE"/>
<path d="M209.619 100.961C209.432 100.93 209.238 100.914 209.039 100.914C208.387 100.914 207.947 101.164 207.721 101.664V106H206.297V99.6602H207.656L207.691 100.369C208.035 99.8184 208.512 99.543 209.121 99.543C209.324 99.543 209.492 99.5703 209.625 99.625L209.619 100.961Z" fill="#4967EE"/>
<path d="M210.041 102.771C210.041 102.15 210.164 101.592 210.41 101.096C210.656 100.596 211.002 100.213 211.447 99.9473C211.893 99.6777 212.404 99.543 212.982 99.543C213.838 99.543 214.531 99.8184 215.062 100.369C215.598 100.92 215.887 101.65 215.93 102.561L215.936 102.895C215.936 103.52 215.814 104.078 215.572 104.57C215.334 105.062 214.99 105.443 214.541 105.713C214.096 105.982 213.58 106.117 212.994 106.117C212.1 106.117 211.383 105.82 210.844 105.227C210.309 104.629 210.041 103.834 210.041 102.842V102.771ZM211.465 102.895C211.465 103.547 211.6 104.059 211.869 104.43C212.139 104.797 212.514 104.98 212.994 104.98C213.475 104.98 213.848 104.793 214.113 104.418C214.383 104.043 214.518 103.494 214.518 102.771C214.518 102.131 214.379 101.623 214.102 101.248C213.828 100.873 213.455 100.686 212.982 100.686C212.518 100.686 212.148 100.871 211.875 101.242C211.602 101.609 211.465 102.16 211.465 102.895Z" fill="#4967EE"/>
<path d="M220.928 106C220.865 105.879 220.811 105.682 220.764 105.408C220.311 105.881 219.756 106.117 219.1 106.117C218.463 106.117 217.943 105.936 217.541 105.572C217.139 105.209 216.938 104.76 216.938 104.225C216.938 103.549 217.188 103.031 217.688 102.672C218.191 102.309 218.91 102.127 219.844 102.127H220.717V101.711C220.717 101.383 220.625 101.121 220.441 100.926C220.258 100.727 219.979 100.627 219.604 100.627C219.279 100.627 219.014 100.709 218.807 100.873C218.6 101.033 218.496 101.238 218.496 101.488H217.072C217.072 101.141 217.188 100.816 217.418 100.516C217.648 100.211 217.961 99.9727 218.355 99.8008C218.754 99.6289 219.197 99.543 219.686 99.543C220.428 99.543 221.02 99.7305 221.461 100.105C221.902 100.477 222.129 101 222.141 101.676V104.535C222.141 105.105 222.221 105.561 222.381 105.9V106H220.928ZM219.363 104.975C219.645 104.975 219.908 104.906 220.154 104.77C220.404 104.633 220.592 104.449 220.717 104.219V103.023H219.949C219.422 103.023 219.025 103.115 218.76 103.299C218.494 103.482 218.361 103.742 218.361 104.078C218.361 104.352 218.451 104.57 218.631 104.734C218.814 104.895 219.059 104.975 219.363 104.975Z" fill="#4967EE"/>
<path d="M223.365 102.783C223.365 101.807 223.592 101.023 224.045 100.434C224.498 99.8398 225.105 99.543 225.867 99.543C226.539 99.543 227.082 99.7773 227.496 100.246V97H228.92V106H227.631L227.561 105.344C227.135 105.859 226.566 106.117 225.855 106.117C225.113 106.117 224.512 105.818 224.051 105.221C223.594 104.623 223.365 103.811 223.365 102.783ZM224.789 102.906C224.789 103.551 224.912 104.055 225.158 104.418C225.408 104.777 225.762 104.957 226.219 104.957C226.801 104.957 227.227 104.697 227.496 104.178V101.471C227.234 100.963 226.812 100.709 226.23 100.709C225.77 100.709 225.414 100.893 225.164 101.26C224.914 101.623 224.789 102.172 224.789 102.906Z" fill="#4967EE"/>
<path d="M233.01 104.98C233.365 104.98 233.66 104.877 233.895 104.67C234.129 104.463 234.254 104.207 234.27 103.902H235.611C235.596 104.297 235.473 104.666 235.242 105.01C235.012 105.35 234.699 105.619 234.305 105.818C233.91 106.018 233.484 106.117 233.027 106.117C232.141 106.117 231.438 105.83 230.918 105.256C230.398 104.682 230.139 103.889 230.139 102.877V102.73C230.139 101.766 230.396 100.994 230.912 100.416C231.428 99.834 232.131 99.543 233.021 99.543C233.775 99.543 234.389 99.7637 234.861 100.205C235.338 100.643 235.588 101.219 235.611 101.934H234.27C234.254 101.57 234.129 101.271 233.895 101.037C233.664 100.803 233.369 100.686 233.01 100.686C232.549 100.686 232.193 100.854 231.943 101.189C231.693 101.521 231.566 102.027 231.562 102.707V102.936C231.562 103.623 231.686 104.137 231.932 104.477C232.182 104.812 232.541 104.98 233.01 104.98Z" fill="#4967EE"/>
<path d="M240.475 106C240.412 105.879 240.357 105.682 240.311 105.408C239.857 105.881 239.303 106.117 238.646 106.117C238.01 106.117 237.49 105.936 237.088 105.572C236.686 105.209 236.484 104.76 236.484 104.225C236.484 103.549 236.734 103.031 237.234 102.672C237.738 102.309 238.457 102.127 239.391 102.127H240.264V101.711C240.264 101.383 240.172 101.121 239.988 100.926C239.805 100.727 239.525 100.627 239.15 100.627C238.826 100.627 238.561 100.709 238.354 100.873C238.146 101.033 238.043 101.238 238.043 101.488H236.619C236.619 101.141 236.734 100.816 236.965 100.516C237.195 100.211 237.508 99.9727 237.902 99.8008C238.301 99.6289 238.744 99.543 239.232 99.543C239.975 99.543 240.566 99.7305 241.008 100.105C241.449 100.477 241.676 101 241.688 101.676V104.535C241.688 105.105 241.768 105.561 241.928 105.9V106H240.475ZM238.91 104.975C239.191 104.975 239.455 104.906 239.701 104.77C239.951 104.633 240.139 104.449 240.264 104.219V103.023H239.496C238.969 103.023 238.572 103.115 238.307 103.299C238.041 103.482 237.908 103.742 237.908 104.078C237.908 104.352 237.998 104.57 238.178 104.734C238.361 104.895 238.605 104.975 238.91 104.975Z" fill="#4967EE"/>
<path d="M246.732 104.277C246.732 104.023 246.627 103.83 246.416 103.697C246.209 103.564 245.863 103.447 245.379 103.346C244.895 103.244 244.49 103.115 244.166 102.959C243.455 102.615 243.1 102.117 243.1 101.465C243.1 100.918 243.33 100.461 243.791 100.094C244.252 99.7266 244.838 99.543 245.549 99.543C246.307 99.543 246.918 99.7305 247.383 100.105C247.852 100.48 248.086 100.967 248.086 101.564H246.662C246.662 101.291 246.561 101.064 246.357 100.885C246.154 100.701 245.885 100.609 245.549 100.609C245.236 100.609 244.98 100.682 244.781 100.826C244.586 100.971 244.488 101.164 244.488 101.406C244.488 101.625 244.58 101.795 244.764 101.916C244.947 102.037 245.318 102.16 245.877 102.285C246.436 102.406 246.873 102.553 247.189 102.725C247.51 102.893 247.746 103.096 247.898 103.334C248.055 103.572 248.133 103.861 248.133 104.201C248.133 104.771 247.896 105.234 247.424 105.59C246.951 105.941 246.332 106.117 245.566 106.117C245.047 106.117 244.584 106.023 244.178 105.836C243.771 105.648 243.455 105.391 243.229 105.062C243.002 104.734 242.889 104.381 242.889 104.002H244.271C244.291 104.338 244.418 104.598 244.652 104.781C244.887 104.961 245.197 105.051 245.584 105.051C245.959 105.051 246.244 104.98 246.439 104.84C246.635 104.695 246.732 104.508 246.732 104.277Z" fill="#4967EE"/>
<path d="M251.162 98.1191V99.6602H252.281V100.715H251.162V104.254C251.162 104.496 251.209 104.672 251.303 104.781C251.4 104.887 251.572 104.939 251.818 104.939C251.982 104.939 252.148 104.92 252.316 104.881V105.982C251.992 106.072 251.68 106.117 251.379 106.117C250.285 106.117 249.738 105.514 249.738 104.307V100.715H248.695V99.6602H249.738V98.1191H251.162Z" fill="#4967EE"/>
<path d="M257.877 106H256.453V97H257.877V106Z" fill="#4967EE"/>
<path d="M260.947 106H259.523V99.6602H260.947V106ZM259.436 98.0137C259.436 97.7949 259.504 97.6133 259.641 97.4688C259.781 97.3242 259.98 97.252 260.238 97.252C260.496 97.252 260.695 97.3242 260.836 97.4688C260.977 97.6133 261.047 97.7949 261.047 98.0137C261.047 98.2285 260.977 98.4082 260.836 98.5527C260.695 98.6934 260.496 98.7637 260.238 98.7637C259.98 98.7637 259.781 98.6934 259.641 98.5527C259.504 98.4082 259.436 98.2285 259.436 98.0137Z" fill="#4967EE"/>
<path d="M264.738 104.195L266.08 99.6602H267.551L265.354 106H264.117L261.902 99.6602H263.379L264.738 104.195Z" fill="#4967EE"/>
<path d="M271.154 106.117C270.252 106.117 269.52 105.834 268.957 105.268C268.398 104.697 268.119 103.939 268.119 102.994V102.818C268.119 102.186 268.24 101.621 268.482 101.125C268.729 100.625 269.072 100.236 269.514 99.959C269.955 99.6816 270.447 99.543 270.99 99.543C271.854 99.543 272.52 99.8184 272.988 100.369C273.461 100.92 273.697 101.699 273.697 102.707V103.281H269.555C269.598 103.805 269.771 104.219 270.076 104.523C270.385 104.828 270.771 104.98 271.236 104.98C271.889 104.98 272.42 104.717 272.83 104.189L273.598 104.922C273.344 105.301 273.004 105.596 272.578 105.807C272.156 106.014 271.682 106.117 271.154 106.117ZM270.984 100.686C270.594 100.686 270.277 100.822 270.035 101.096C269.797 101.369 269.645 101.75 269.578 102.238H272.291V102.133C272.26 101.656 272.133 101.297 271.91 101.055C271.688 100.809 271.379 100.686 270.984 100.686Z" fill="#4967EE"/>
<path d="M280.588 106.117C279.686 106.117 278.953 105.834 278.391 105.268C277.832 104.697 277.553 103.939 277.553 102.994V102.818C277.553 102.186 277.674 101.621 277.916 101.125C278.162 100.625 278.506 100.236 278.947 99.959C279.389 99.6816 279.881 99.543 280.424 99.543C281.287 99.543 281.953 99.8184 282.422 100.369C282.895 100.92 283.131 101.699 283.131 102.707V103.281H278.988C279.031 103.805 279.205 104.219 279.51 104.523C279.818 104.828 280.205 104.98 280.67 104.98C281.322 104.98 281.854 104.717 282.264 104.189L283.031 104.922C282.777 105.301 282.438 105.596 282.012 105.807C281.59 106.014 281.115 106.117 280.588 106.117ZM280.418 100.686C280.027 100.686 279.711 100.822 279.469 101.096C279.23 101.369 279.078 101.75 279.012 102.238H281.725V102.133C281.693 101.656 281.566 101.297 281.344 101.055C281.121 100.809 280.812 100.686 280.418 100.686Z" fill="#4967EE"/>
<path d="M286.395 104.195L287.736 99.6602H289.207L287.01 106H285.773L283.559 99.6602H285.035L286.395 104.195Z" fill="#4967EE"/>
<path d="M292.811 106.117C291.908 106.117 291.176 105.834 290.613 105.268C290.055 104.697 289.775 103.939 289.775 102.994V102.818C289.775 102.186 289.896 101.621 290.139 101.125C290.385 100.625 290.729 100.236 291.17 99.959C291.611 99.6816 292.104 99.543 292.646 99.543C293.51 99.543 294.176 99.8184 294.645 100.369C295.117 100.92 295.354 101.699 295.354 102.707V103.281H291.211C291.254 103.805 291.428 104.219 291.732 104.523C292.041 104.828 292.428 104.98 292.893 104.98C293.545 104.98 294.076 104.717 294.486 104.189L295.254 104.922C295 105.301 294.66 105.596 294.234 105.807C293.812 106.014 293.338 106.117 292.811 106.117ZM292.641 100.686C292.25 100.686 291.934 100.822 291.691 101.096C291.453 101.369 291.301 101.75 291.234 102.238H293.947V102.133C293.916 101.656 293.789 101.297 293.566 101.055C293.344 100.809 293.035 100.686 292.641 100.686Z" fill="#4967EE"/>
<path d="M297.785 99.6602L297.826 100.393C298.295 99.8262 298.91 99.543 299.672 99.543C300.992 99.543 301.664 100.299 301.688 101.811V106H300.264V101.893C300.264 101.49 300.176 101.193 300 101.002C299.828 100.807 299.545 100.709 299.15 100.709C298.576 100.709 298.148 100.969 297.867 101.488V106H296.443V99.6602H297.785Z" fill="#4967EE"/>
<path d="M304.928 98.1191V99.6602H306.047V100.715H304.928V104.254C304.928 104.496 304.975 104.672 305.068 104.781C305.166 104.887 305.338 104.939 305.584 104.939C305.748 104.939 305.914 104.92 306.082 104.881V105.982C305.758 106.072 305.445 106.117 305.145 106.117C304.051 106.117 303.504 105.514 303.504 104.307V100.715H302.461V99.6602H303.504V98.1191H304.928Z" fill="#4967EE"/>
<path d="M310.693 104.277C310.693 104.023 310.588 103.83 310.377 103.697C310.17 103.564 309.824 103.447 309.34 103.346C308.855 103.244 308.451 103.115 308.127 102.959C307.416 102.615 307.061 102.117 307.061 101.465C307.061 100.918 307.291 100.461 307.752 100.094C308.213 99.7266 308.799 99.543 309.51 99.543C310.268 99.543 310.879 99.7305 311.344 100.105C311.812 100.48 312.047 100.967 312.047 101.564H310.623C310.623 101.291 310.521 101.064 310.318 100.885C310.115 100.701 309.846 100.609 309.51 100.609C309.197 100.609 308.941 100.682 308.742 100.826C308.547 100.971 308.449 101.164 308.449 101.406C308.449 101.625 308.541 101.795 308.725 101.916C308.908 102.037 309.279 102.16 309.838 102.285C310.396 102.406 310.834 102.553 311.15 102.725C311.471 102.893 311.707 103.096 311.859 103.334C312.016 103.572 312.094 103.861 312.094 104.201C312.094 104.771 311.857 105.234 311.385 105.59C310.912 105.941 310.293 106.117 309.527 106.117C309.008 106.117 308.545 106.023 308.139 105.836C307.732 105.648 307.416 105.391 307.189 105.062C306.963 104.734 306.85 104.381 306.85 104.002H308.232C308.252 104.338 308.379 104.598 308.613 104.781C308.848 104.961 309.158 105.051 309.545 105.051C309.92 105.051 310.205 104.98 310.4 104.84C310.596 104.695 310.693 104.508 310.693 104.277Z" fill="#4967EE"/>
<path d="M128.854 190.191H125.35V192.816H129.445V194H123.867V185.469H129.404V186.664H125.35V189.02H128.854V190.191Z" fill="#4967EE"/>
<path d="M131.836 187.66L131.877 188.393C132.346 187.826 132.961 187.543 133.723 187.543C135.043 187.543 135.715 188.299 135.738 189.811V194H134.314V189.893C134.314 189.49 134.227 189.193 134.051 189.002C133.879 188.807 133.596 188.709 133.201 188.709C132.627 188.709 132.199 188.969 131.918 189.488V194H130.494V187.66H131.836Z" fill="#4967EE"/>
<path d="M136.945 190.783C136.945 189.799 137.176 189.014 137.637 188.428C138.102 187.838 138.717 187.543 139.482 187.543C140.205 187.543 140.773 187.795 141.188 188.299L141.252 187.66H142.535V193.807C142.535 194.639 142.275 195.295 141.756 195.775C141.24 196.256 140.543 196.496 139.664 196.496C139.199 196.496 138.744 196.398 138.299 196.203C137.857 196.012 137.521 195.76 137.291 195.447L137.965 194.592C138.402 195.111 138.941 195.371 139.582 195.371C140.055 195.371 140.428 195.242 140.701 194.984C140.975 194.73 141.111 194.355 141.111 193.859V193.432C140.701 193.889 140.154 194.117 139.471 194.117C138.729 194.117 138.121 193.822 137.648 193.232C137.18 192.643 136.945 191.826 136.945 190.783ZM138.363 190.906C138.363 191.543 138.492 192.045 138.75 192.412C139.012 192.775 139.373 192.957 139.834 192.957C140.408 192.957 140.834 192.711 141.111 192.219V189.43C140.842 188.949 140.42 188.709 139.846 188.709C139.377 188.709 139.012 188.895 138.75 189.266C138.492 189.637 138.363 190.184 138.363 190.906Z" fill="#4967EE"/>
<path d="M147.791 194C147.729 193.879 147.674 193.682 147.627 193.408C147.174 193.881 146.619 194.117 145.963 194.117C145.326 194.117 144.807 193.936 144.404 193.572C144.002 193.209 143.801 192.76 143.801 192.225C143.801 191.549 144.051 191.031 144.551 190.672C145.055 190.309 145.773 190.127 146.707 190.127H147.58V189.711C147.58 189.383 147.488 189.121 147.305 188.926C147.121 188.727 146.842 188.627 146.467 188.627C146.143 188.627 145.877 188.709 145.67 188.873C145.463 189.033 145.359 189.238 145.359 189.488H143.936C143.936 189.141 144.051 188.816 144.281 188.516C144.512 188.211 144.824 187.973 145.219 187.801C145.617 187.629 146.061 187.543 146.549 187.543C147.291 187.543 147.883 187.73 148.324 188.105C148.766 188.477 148.992 189 149.004 189.676V192.535C149.004 193.105 149.084 193.561 149.244 193.9V194H147.791ZM146.227 192.975C146.508 192.975 146.771 192.906 147.018 192.77C147.268 192.633 147.455 192.449 147.58 192.219V191.023H146.812C146.285 191.023 145.889 191.115 145.623 191.299C145.357 191.482 145.225 191.742 145.225 192.078C145.225 192.352 145.314 192.57 145.494 192.734C145.678 192.895 145.922 192.975 146.227 192.975Z" fill="#4967EE"/>
<path d="M150.246 190.783C150.246 189.799 150.477 189.014 150.938 188.428C151.402 187.838 152.018 187.543 152.783 187.543C153.506 187.543 154.074 187.795 154.488 188.299L154.553 187.66H155.836V193.807C155.836 194.639 155.576 195.295 155.057 195.775C154.541 196.256 153.844 196.496 152.965 196.496C152.5 196.496 152.045 196.398 151.6 196.203C151.158 196.012 150.822 195.76 150.592 195.447L151.266 194.592C151.703 195.111 152.242 195.371 152.883 195.371C153.355 195.371 153.729 195.242 154.002 194.984C154.275 194.73 154.412 194.355 154.412 193.859V193.432C154.002 193.889 153.455 194.117 152.771 194.117C152.029 194.117 151.422 193.822 150.949 193.232C150.48 192.643 150.246 191.826 150.246 190.783ZM151.664 190.906C151.664 191.543 151.793 192.045 152.051 192.412C152.312 192.775 152.674 192.957 153.135 192.957C153.709 192.957 154.135 192.711 154.412 192.219V189.43C154.143 188.949 153.721 188.709 153.146 188.709C152.678 188.709 152.312 188.895 152.051 189.266C151.793 189.637 151.664 190.184 151.664 190.906Z" fill="#4967EE"/>
<path d="M160.096 194.117C159.193 194.117 158.461 193.834 157.898 193.268C157.34 192.697 157.061 191.939 157.061 190.994V190.818C157.061 190.186 157.182 189.621 157.424 189.125C157.67 188.625 158.014 188.236 158.455 187.959C158.896 187.682 159.389 187.543 159.932 187.543C160.795 187.543 161.461 187.818 161.93 188.369C162.402 188.92 162.639 189.699 162.639 190.707V191.281H158.496C158.539 191.805 158.713 192.219 159.018 192.523C159.326 192.828 159.713 192.98 160.178 192.98C160.83 192.98 161.361 192.717 161.771 192.189L162.539 192.922C162.285 193.301 161.945 193.596 161.52 193.807C161.098 194.014 160.623 194.117 160.096 194.117ZM159.926 188.686C159.535 188.686 159.219 188.822 158.977 189.096C158.738 189.369 158.586 189.75 158.52 190.238H161.232V190.133C161.201 189.656 161.074 189.297 160.852 189.055C160.629 188.809 160.32 188.686 159.926 188.686Z" fill="#4967EE"/>
<path d="M172.307 192.037L173.314 187.66H174.703L172.975 194H171.803L170.443 189.646L169.107 194H167.936L166.201 187.66H167.59L168.615 191.99L169.916 187.66H170.988L172.307 192.037Z" fill="#4967EE"/>
<path d="M177.17 194H175.746V187.66H177.17V194ZM175.658 186.014C175.658 185.795 175.727 185.613 175.863 185.469C176.004 185.324 176.203 185.252 176.461 185.252C176.719 185.252 176.918 185.324 177.059 185.469C177.199 185.613 177.27 185.795 177.27 186.014C177.27 186.229 177.199 186.408 177.059 186.553C176.918 186.693 176.719 186.764 176.461 186.764C176.203 186.764 176.004 186.693 175.863 186.553C175.727 186.408 175.658 186.229 175.658 186.014Z" fill="#4967EE"/>
<path d="M180.51 186.119V187.66H181.629V188.715H180.51V192.254C180.51 192.496 180.557 192.672 180.65 192.781C180.748 192.887 180.92 192.939 181.166 192.939C181.33 192.939 181.496 192.92 181.664 192.881V193.982C181.34 194.072 181.027 194.117 180.727 194.117C179.633 194.117 179.086 193.514 179.086 192.307V188.715H178.043V187.66H179.086V186.119H180.51Z" fill="#4967EE"/>
<path d="M184.125 188.352C184.59 187.812 185.178 187.543 185.889 187.543C187.24 187.543 187.926 188.314 187.945 189.857V194H186.521V189.91C186.521 189.473 186.426 189.164 186.234 188.984C186.047 188.801 185.77 188.709 185.402 188.709C184.832 188.709 184.406 188.963 184.125 189.471V194H182.701V185H184.125V188.352Z" fill="#4967EE"/>
<path d="M194.596 191.961L195.885 187.66H197.402L194.883 194.961C194.496 196.027 193.84 196.561 192.914 196.561C192.707 196.561 192.479 196.525 192.229 196.455V195.354L192.498 195.371C192.857 195.371 193.127 195.305 193.307 195.172C193.49 195.043 193.635 194.824 193.74 194.516L193.945 193.971L191.719 187.66H193.254L194.596 191.961Z" fill="#4967EE"/>
<path d="M197.865 190.771C197.865 190.15 197.988 189.592 198.234 189.096C198.48 188.596 198.826 188.213 199.271 187.947C199.717 187.678 200.229 187.543 200.807 187.543C201.662 187.543 202.355 187.818 202.887 188.369C203.422 188.92 203.711 189.65 203.754 190.561L203.76 190.895C203.76 191.52 203.639 192.078 203.396 192.57C203.158 193.062 202.814 193.443 202.365 193.713C201.92 193.982 201.404 194.117 200.818 194.117C199.924 194.117 199.207 193.82 198.668 193.227C198.133 192.629 197.865 191.834 197.865 190.842V190.771ZM199.289 190.895C199.289 191.547 199.424 192.059 199.693 192.43C199.963 192.797 200.338 192.98 200.818 192.98C201.299 192.98 201.672 192.793 201.938 192.418C202.207 192.043 202.342 191.494 202.342 190.771C202.342 190.131 202.203 189.623 201.926 189.248C201.652 188.873 201.279 188.686 200.807 188.686C200.342 188.686 199.973 188.871 199.699 189.242C199.426 189.609 199.289 190.16 199.289 190.895Z" fill="#4967EE"/>
<path d="M208.805 193.379C208.387 193.871 207.793 194.117 207.023 194.117C206.336 194.117 205.814 193.916 205.459 193.514C205.107 193.111 204.932 192.529 204.932 191.768V187.66H206.355V191.75C206.355 192.555 206.689 192.957 207.357 192.957C208.049 192.957 208.516 192.709 208.758 192.213V187.66H210.182V194H208.84L208.805 193.379Z" fill="#4967EE"/>
<path d="M214.951 188.961C214.764 188.93 214.57 188.914 214.371 188.914C213.719 188.914 213.279 189.164 213.053 189.664V194H211.629V187.66H212.988L213.023 188.369C213.367 187.818 213.844 187.543 214.453 187.543C214.656 187.543 214.824 187.57 214.957 187.625L214.951 188.961Z" fill="#4967EE"/>
<path d="M222.627 194C222.564 193.879 222.51 193.682 222.463 193.408C222.01 193.881 221.455 194.117 220.799 194.117C220.162 194.117 219.643 193.936 219.24 193.572C218.838 193.209 218.637 192.76 218.637 192.225C218.637 191.549 218.887 191.031 219.387 190.672C219.891 190.309 220.609 190.127 221.543 190.127H222.416V189.711C222.416 189.383 222.324 189.121 222.141 188.926C221.957 188.727 221.678 188.627 221.303 188.627C220.979 188.627 220.713 188.709 220.506 188.873C220.299 189.033 220.195 189.238 220.195 189.488H218.771C218.771 189.141 218.887 188.816 219.117 188.516C219.348 188.211 219.66 187.973 220.055 187.801C220.453 187.629 220.896 187.543 221.385 187.543C222.127 187.543 222.719 187.73 223.16 188.105C223.602 188.477 223.828 189 223.84 189.676V192.535C223.84 193.105 223.92 193.561 224.08 193.9V194H222.627ZM221.062 192.975C221.344 192.975 221.607 192.906 221.854 192.77C222.104 192.633 222.291 192.449 222.416 192.219V191.023H221.648C221.121 191.023 220.725 191.115 220.459 191.299C220.193 191.482 220.061 191.742 220.061 192.078C220.061 192.352 220.15 192.57 220.33 192.734C220.514 192.895 220.758 192.975 221.062 192.975Z" fill="#4967EE"/>
<path d="M229.172 193.379C228.754 193.871 228.16 194.117 227.391 194.117C226.703 194.117 226.182 193.916 225.826 193.514C225.475 193.111 225.299 192.529 225.299 191.768V187.66H226.723V191.75C226.723 192.555 227.057 192.957 227.725 192.957C228.416 192.957 228.883 192.709 229.125 192.213V187.66H230.549V194H229.207L229.172 193.379Z" fill="#4967EE"/>
<path d="M231.732 190.783C231.732 189.807 231.959 189.023 232.412 188.434C232.865 187.84 233.473 187.543 234.234 187.543C234.906 187.543 235.449 187.777 235.863 188.246V185H237.287V194H235.998L235.928 193.344C235.502 193.859 234.934 194.117 234.223 194.117C233.48 194.117 232.879 193.818 232.418 193.221C231.961 192.623 231.732 191.811 231.732 190.783ZM233.156 190.906C233.156 191.551 233.279 192.055 233.525 192.418C233.775 192.777 234.129 192.957 234.586 192.957C235.168 192.957 235.594 192.697 235.863 192.178V189.471C235.602 188.963 235.18 188.709 234.598 188.709C234.137 188.709 233.781 188.893 233.531 189.26C233.281 189.623 233.156 190.172 233.156 190.906Z" fill="#4967EE"/>
<path d="M240.287 194H238.863V187.66H240.287V194ZM238.775 186.014C238.775 185.795 238.844 185.613 238.98 185.469C239.121 185.324 239.32 185.252 239.578 185.252C239.836 185.252 240.035 185.324 240.176 185.469C240.316 185.613 240.387 185.795 240.387 186.014C240.387 186.229 240.316 186.408 240.176 186.553C240.035 186.693 239.836 186.764 239.578 186.764C239.32 186.764 239.121 186.693 238.98 186.553C238.844 186.408 238.775 186.229 238.775 186.014Z" fill="#4967EE"/>
<path d="M244.635 194.117C243.732 194.117 243 193.834 242.438 193.268C241.879 192.697 241.6 191.939 241.6 190.994V190.818C241.6 190.186 241.721 189.621 241.963 189.125C242.209 188.625 242.553 188.236 242.994 187.959C243.436 187.682 243.928 187.543 244.471 187.543C245.334 187.543 246 187.818 246.469 188.369C246.941 188.92 247.178 189.699 247.178 190.707V191.281H243.035C243.078 191.805 243.252 192.219 243.557 192.523C243.865 192.828 244.252 192.98 244.717 192.98C245.369 192.98 245.9 192.717 246.311 192.189L247.078 192.922C246.824 193.301 246.484 193.596 246.059 193.807C245.637 194.014 245.162 194.117 244.635 194.117ZM244.465 188.686C244.074 188.686 243.758 188.822 243.516 189.096C243.277 189.369 243.125 189.75 243.059 190.238H245.771V190.133C245.74 189.656 245.613 189.297 245.391 189.055C245.168 188.809 244.859 188.686 244.465 188.686Z" fill="#4967EE"/>
<path d="M249.609 187.66L249.65 188.393C250.119 187.826 250.734 187.543 251.496 187.543C252.816 187.543 253.488 188.299 253.512 189.811V194H252.088V189.893C252.088 189.49 252 189.193 251.824 189.002C251.652 188.807 251.369 188.709 250.975 188.709C250.4 188.709 249.973 188.969 249.691 189.488V194H248.268V187.66H249.609Z" fill="#4967EE"/>
<path d="M257.572 192.98C257.928 192.98 258.223 192.877 258.457 192.67C258.691 192.463 258.816 192.207 258.832 191.902H260.174C260.158 192.297 260.035 192.666 259.805 193.01C259.574 193.35 259.262 193.619 258.867 193.818C258.473 194.018 258.047 194.117 257.59 194.117C256.703 194.117 256 193.83 255.48 193.256C254.961 192.682 254.701 191.889 254.701 190.877V190.73C254.701 189.766 254.959 188.994 255.475 188.416C255.99 187.834 256.693 187.543 257.584 187.543C258.338 187.543 258.951 187.764 259.424 188.205C259.9 188.643 260.15 189.219 260.174 189.934H258.832C258.816 189.57 258.691 189.271 258.457 189.037C258.227 188.803 257.932 188.686 257.572 188.686C257.111 188.686 256.756 188.854 256.506 189.189C256.256 189.521 256.129 190.027 256.125 190.707V190.936C256.125 191.623 256.248 192.137 256.494 192.477C256.744 192.812 257.104 192.98 257.572 192.98Z" fill="#4967EE"/>
<path d="M264.041 194.117C263.139 194.117 262.406 193.834 261.844 193.268C261.285 192.697 261.006 191.939 261.006 190.994V190.818C261.006 190.186 261.127 189.621 261.369 189.125C261.615 188.625 261.959 188.236 262.4 187.959C262.842 187.682 263.334 187.543 263.877 187.543C264.74 187.543 265.406 187.818 265.875 188.369C266.348 188.92 266.584 189.699 266.584 190.707V191.281H262.441C262.484 191.805 262.658 192.219 262.963 192.523C263.271 192.828 263.658 192.98 264.123 192.98C264.775 192.98 265.307 192.717 265.717 192.189L266.484 192.922C266.23 193.301 265.891 193.596 265.465 193.807C265.043 194.014 264.568 194.117 264.041 194.117ZM263.871 188.686C263.48 188.686 263.164 188.822 262.922 189.096C262.684 189.369 262.531 189.75 262.465 190.238H265.178V190.133C265.146 189.656 265.02 189.297 264.797 189.055C264.574 188.809 264.266 188.686 263.871 188.686Z" fill="#4967EE"/>
<path d="M7.37695 27.2227C7.29102 28.1328 6.95508 28.8438 6.36914 29.3555C5.7832 29.8633 5.00391 30.1172 4.03125 30.1172C3.35156 30.1172 2.75195 29.957 2.23242 29.6367C1.7168 29.3125 1.31836 28.8535 1.03711 28.2598C0.755859 27.666 0.609375 26.9766 0.597656 26.1914V25.3945C0.597656 24.5898 0.740234 23.8809 1.02539 23.2676C1.31055 22.6543 1.71875 22.1816 2.25 21.8496C2.78516 21.5176 3.40234 21.3516 4.10156 21.3516C5.04297 21.3516 5.80078 21.6074 6.375 22.1191C6.94922 22.6309 7.2832 23.3535 7.37695 24.2871H5.90039C5.83008 23.6738 5.65039 23.2324 5.36133 22.9629C5.07617 22.6895 4.65625 22.5527 4.10156 22.5527C3.45703 22.5527 2.96094 22.7891 2.61328 23.2617C2.26953 23.7305 2.09375 24.4199 2.08594 25.3301V26.0859C2.08594 27.0078 2.25 27.7109 2.57812 28.1953C2.91016 28.6797 3.39453 28.9219 4.03125 28.9219C4.61328 28.9219 5.05078 28.791 5.34375 28.5293C5.63672 28.2676 5.82227 27.832 5.90039 27.2227H7.37695Z" fill="#4967EE"/>
<path d="M12.4102 29.3789C11.9922 29.8711 11.3984 30.1172 10.6289 30.1172C9.94141 30.1172 9.41992 29.916 9.06445 29.5137C8.71289 29.1113 8.53711 28.5293 8.53711 27.7676V23.6602H9.96094V27.75C9.96094 28.5547 10.2949 28.957 10.9629 28.957C11.6543 28.957 12.1211 28.709 12.3633 28.2129V23.6602H13.7871V30H12.4453L12.4102 29.3789Z" fill="#4967EE"/>
<path d="M18.791 28.2773C18.791 28.0234 18.6855 27.8301 18.4746 27.6973C18.2676 27.5645 17.9219 27.4473 17.4375 27.3457C16.9531 27.2441 16.5488 27.1152 16.2246 26.959C15.5137 26.6152 15.1582 26.1172 15.1582 25.4648C15.1582 24.918 15.3887 24.4609 15.8496 24.0938C16.3105 23.7266 16.8965 23.543 17.6074 23.543C18.3652 23.543 18.9766 23.7305 19.4414 24.1055C19.9102 24.4805 20.1445 24.9668 20.1445 25.5645H18.7207C18.7207 25.291 18.6191 25.0645 18.416 24.8848C18.2129 24.7012 17.9434 24.6094 17.6074 24.6094C17.2949 24.6094 17.0391 24.6816 16.8398 24.8262C16.6445 24.9707 16.5469 25.1641 16.5469 25.4062C16.5469 25.625 16.6387 25.7949 16.8223 25.916C17.0059 26.0371 17.377 26.1602 17.9355 26.2852C18.4941 26.4062 18.9316 26.5527 19.248 26.7246C19.5684 26.8926 19.8047 27.0957 19.957 27.334C20.1133 27.5723 20.1914 27.8613 20.1914 28.2012C20.1914 28.7715 19.9551 29.2344 19.4824 29.5898C19.0098 29.9414 18.3906 30.1172 17.625 30.1172C17.1055 30.1172 16.6426 30.0234 16.2363 29.8359C15.8301 29.6484 15.5137 29.3906 15.2871 29.0625C15.0605 28.7344 14.9473 28.3809 14.9473 28.002H16.3301C16.3496 28.3379 16.4766 28.5977 16.7109 28.7812C16.9453 28.9609 17.2559 29.0508 17.6426 29.0508C18.0176 29.0508 18.3027 28.9805 18.498 28.8398C18.6934 28.6953 18.791 28.5078 18.791 28.2773Z" fill="#4967EE"/>
<path d="M23.2207 22.1191V23.6602H24.3398V24.7148H23.2207V28.2539C23.2207 28.4961 23.2676 28.6719 23.3613 28.7812C23.459 28.8867 23.6309 28.9395 23.877 28.9395C24.041 28.9395 24.207 28.9199 24.375 28.8809V29.9824C24.0508 30.0723 23.7383 30.1172 23.4375 30.1172C22.3438 30.1172 21.7969 29.5137 21.7969 28.3066V24.7148H20.7539V23.6602H21.7969V22.1191H23.2207Z" fill="#4967EE"/>
<path d="M24.9902 26.7715C24.9902 26.1504 25.1133 25.5918 25.3594 25.0957C25.6055 24.5957 25.9512 24.2129 26.3965 23.9473C26.8418 23.6777 27.3535 23.543 27.9316 23.543C28.7871 23.543 29.4805 23.8184 30.0117 24.3691C30.5469 24.9199 30.8359 25.6504 30.8789 26.5605L30.8848 26.8945C30.8848 27.5195 30.7637 28.0781 30.5215 28.5703C30.2832 29.0625 29.9395 29.4434 29.4902 29.7129C29.0449 29.9824 28.5293 30.1172 27.9434 30.1172C27.0488 30.1172 26.332 29.8203 25.793 29.2266C25.2578 28.6289 24.9902 27.834 24.9902 26.8418V26.7715ZM26.4141 26.8945C26.4141 27.5469 26.5488 28.0586 26.8184 28.4297C27.0879 28.7969 27.4629 28.9805 27.9434 28.9805C28.4238 28.9805 28.7969 28.793 29.0625 28.418C29.332 28.043 29.4668 27.4941 29.4668 26.7715C29.4668 26.1309 29.3281 25.623 29.0508 25.248C28.7773 24.873 28.4043 24.6855 27.9316 24.6855C27.4668 24.6855 27.0977 24.8711 26.8242 25.2422C26.5508 25.6094 26.4141 26.1602 26.4141 26.8945Z" fill="#4967EE"/>
<path d="M33.4277 23.6602L33.4688 24.3223C33.9141 23.8027 34.5234 23.543 35.2969 23.543C36.1445 23.543 36.7246 23.8672 37.0371 24.5156C37.498 23.8672 38.1465 23.543 38.9824 23.543C39.6816 23.543 40.2012 23.7363 40.541 24.123C40.8848 24.5098 41.0605 25.0801 41.0684 25.834V30H39.6445V25.875C39.6445 25.4727 39.5566 25.1777 39.3809 24.9902C39.2051 24.8027 38.9141 24.709 38.5078 24.709C38.1836 24.709 37.918 24.7969 37.7109 24.9727C37.5078 25.1445 37.3652 25.3711 37.2832 25.6523L37.2891 30H35.8652V25.8281C35.8457 25.082 35.4648 24.709 34.7227 24.709C34.1523 24.709 33.748 24.9414 33.5098 25.4062V30H32.0859V23.6602H33.4277Z" fill="#4967EE"/>
<path d="M44.0449 30H42.6211V23.6602H44.0449V30ZM42.5332 22.0137C42.5332 21.7949 42.6016 21.6133 42.7383 21.4688C42.8789 21.3242 43.0781 21.252 43.3359 21.252C43.5938 21.252 43.793 21.3242 43.9336 21.4688C44.0742 21.6133 44.1445 21.7949 44.1445 22.0137C44.1445 22.2285 44.0742 22.4082 43.9336 22.5527C43.793 22.6934 43.5938 22.7637 43.3359 22.7637C43.0781 22.7637 42.8789 22.6934 42.7383 22.5527C42.6016 22.4082 42.5332 22.2285 42.5332 22.0137Z" fill="#4967EE"/>
<path d="M47.1211 28.8633H50.4961V30H45.3516V29.0684L48.5684 24.8086H45.4102V23.6602H50.373V24.5625L47.1211 28.8633Z" fill="#4967EE"/>
<path d="M54.334 30.1172C53.4316 30.1172 52.6992 29.834 52.1367 29.2676C51.5781 28.6973 51.2988 27.9395 51.2988 26.9941V26.8184C51.2988 26.1855 51.4199 25.6211 51.6621 25.125C51.9082 24.625 52.252 24.2363 52.6934 23.959C53.1348 23.6816 53.627 23.543 54.1699 23.543C55.0332 23.543 55.6992 23.8184 56.168 24.3691C56.6406 24.9199 56.877 25.6992 56.877 26.707V27.2812H52.7344C52.7773 27.8047 52.9512 28.2188 53.2559 28.5234C53.5645 28.8281 53.9512 28.9805 54.416 28.9805C55.0684 28.9805 55.5996 28.7168 56.0098 28.1895L56.7773 28.9219C56.5234 29.3008 56.1836 29.5957 55.7578 29.8066C55.3359 30.0137 54.8613 30.1172 54.334 30.1172ZM54.1641 24.6855C53.7734 24.6855 53.457 24.8223 53.2148 25.0957C52.9766 25.3691 52.8242 25.75 52.7578 26.2383H55.4707V26.1328C55.4395 25.6562 55.3125 25.2969 55.0898 25.0547C54.8672 24.8086 54.5586 24.6855 54.1641 24.6855Z" fill="#4967EE"/>
<path d="M63.1934 27.9609L64.4824 23.6602H66L63.4805 30.9609C63.0938 32.0273 62.4375 32.5605 61.5117 32.5605C61.3047 32.5605 61.0762 32.5254 60.8262 32.4551V31.3535L61.0957 31.3711C61.4551 31.3711 61.7246 31.3047 61.9043 31.1719C62.0879 31.043 62.2324 30.8242 62.3379 30.5156L62.543 29.9707L60.3164 23.6602H61.8516L63.1934 27.9609Z" fill="#4967EE"/>
<path d="M66.4629 26.7715C66.4629 26.1504 66.5859 25.5918 66.832 25.0957C67.0781 24.5957 67.4238 24.2129 67.8691 23.9473C68.3145 23.6777 68.8262 23.543 69.4043 23.543C70.2598 23.543 70.9531 23.8184 71.4844 24.3691C72.0195 24.9199 72.3086 25.6504 72.3516 26.5605L72.3574 26.8945C72.3574 27.5195 72.2363 28.0781 71.9941 28.5703C71.7559 29.0625 71.4121 29.4434 70.9629 29.7129C70.5176 29.9824 70.002 30.1172 69.416 30.1172C68.5215 30.1172 67.8047 29.8203 67.2656 29.2266C66.7305 28.6289 66.4629 27.834 66.4629 26.8418V26.7715ZM67.8867 26.8945C67.8867 27.5469 68.0215 28.0586 68.291 28.4297C68.5605 28.7969 68.9355 28.9805 69.416 28.9805C69.8965 28.9805 70.2695 28.793 70.5352 28.418C70.8047 28.043 70.9395 27.4941 70.9395 26.7715C70.9395 26.1309 70.8008 25.623 70.5234 25.248C70.25 24.873 69.877 24.6855 69.4043 24.6855C68.9395 24.6855 68.5703 24.8711 68.2969 25.2422C68.0234 25.6094 67.8867 26.1602 67.8867 26.8945Z" fill="#4967EE"/>
<path d="M77.4023 29.3789C76.9844 29.8711 76.3906 30.1172 75.6211 30.1172C74.9336 30.1172 74.4121 29.916 74.0566 29.5137C73.7051 29.1113 73.5293 28.5293 73.5293 27.7676V23.6602H74.9531V27.75C74.9531 28.5547 75.2871 28.957 75.9551 28.957C76.6465 28.957 77.1133 28.709 77.3555 28.2129V23.6602H78.7793V30H77.4375L77.4023 29.3789Z" fill="#4967EE"/>
<path d="M83.5488 24.9609C83.3613 24.9297 83.168 24.9141 82.9688 24.9141C82.3164 24.9141 81.877 25.1641 81.6504 25.6641V30H80.2266V23.6602H81.5859L81.6211 24.3691C81.9648 23.8184 82.4414 23.543 83.0508 23.543C83.2539 23.543 83.4219 23.5703 83.5547 23.625L83.5488 24.9609Z" fill="#4967EE"/>
<path d="M92.9883 26.8945C92.9883 27.875 92.7656 28.6582 92.3203 29.2441C91.875 29.8262 91.2773 30.1172 90.5273 30.1172C89.832 30.1172 89.2754 29.8887 88.8574 29.4316V32.4375H87.4336V23.6602H88.7461L88.8047 24.3047C89.2227 23.7969 89.791 23.543 90.5098 23.543C91.2832 23.543 91.8887 23.832 92.3262 24.4102C92.7676 24.9844 92.9883 25.7832 92.9883 26.8066V26.8945ZM91.5703 26.7715C91.5703 26.1387 91.4434 25.6367 91.1895 25.2656C90.9395 24.8945 90.5801 24.709 90.1113 24.709C89.5293 24.709 89.1113 24.9492 88.8574 25.4297V28.2422C89.1152 28.7344 89.5371 28.9805 90.123 28.9805C90.5762 28.9805 90.9297 28.7988 91.1836 28.4355C91.4414 28.0684 91.5703 27.5137 91.5703 26.7715Z" fill="#4967EE"/>
<path d="M95.7129 30H94.2891V21H95.7129V30Z" fill="#4967EE"/>
<path d="M101.057 30C100.994 29.8789 100.939 29.6816 100.893 29.4082C100.439 29.8809 99.8848 30.1172 99.2285 30.1172C98.5918 30.1172 98.0723 29.9355 97.6699 29.5723C97.2676 29.209 97.0664 28.7598 97.0664 28.2246C97.0664 27.5488 97.3164 27.0312 97.8164 26.6719C98.3203 26.3086 99.0391 26.127 99.9727 26.127H100.846V25.7109C100.846 25.3828 100.754 25.1211 100.57 24.9258C100.387 24.7266 100.107 24.627 99.7324 24.627C99.4082 24.627 99.1426 24.709 98.9355 24.873C98.7285 25.0332 98.625 25.2383 98.625 25.4883H97.2012C97.2012 25.1406 97.3164 24.8164 97.5469 24.5156C97.7773 24.2109 98.0898 23.9727 98.4844 23.8008C98.8828 23.6289 99.3262 23.543 99.8145 23.543C100.557 23.543 101.148 23.7305 101.59 24.1055C102.031 24.4766 102.258 25 102.27 25.6758V28.5352C102.27 29.1055 102.35 29.5605 102.51 29.9004V30H101.057ZM99.4922 28.9746C99.7734 28.9746 100.037 28.9062 100.283 28.7695C100.533 28.6328 100.721 28.4492 100.846 28.2188V27.0234H100.078C99.5508 27.0234 99.1543 27.1152 98.8887 27.2988C98.623 27.4824 98.4902 27.7422 98.4902 28.0781C98.4902 28.3516 98.5801 28.5703 98.7598 28.7344C98.9434 28.8945 99.1875 28.9746 99.4922 28.9746Z" fill="#4967EE"/>
<path d="M105.885 27.9609L107.174 23.6602H108.691L106.172 30.9609C105.785 32.0273 105.129 32.5605 104.203 32.5605C103.996 32.5605 103.768 32.5254 103.518 32.4551V31.3535L103.787 31.3711C104.146 31.3711 104.416 31.3047 104.596 31.1719C104.779 31.043 104.924 30.8242 105.029 30.5156L105.234 29.9707L103.008 23.6602H104.543L105.885 27.9609Z" fill="#4967EE"/>
<path d="M112.225 30.1172C111.322 30.1172 110.59 29.834 110.027 29.2676C109.469 28.6973 109.189 27.9395 109.189 26.9941V26.8184C109.189 26.1855 109.311 25.6211 109.553 25.125C109.799 24.625 110.143 24.2363 110.584 23.959C111.025 23.6816 111.518 23.543 112.061 23.543C112.924 23.543 113.59 23.8184 114.059 24.3691C114.531 24.9199 114.768 25.6992 114.768 26.707V27.2812H110.625C110.668 27.8047 110.842 28.2188 111.146 28.5234C111.455 28.8281 111.842 28.9805 112.307 28.9805C112.959 28.9805 113.49 28.7168 113.9 28.1895L114.668 28.9219C114.414 29.3008 114.074 29.5957 113.648 29.8066C113.227 30.0137 112.752 30.1172 112.225 30.1172ZM112.055 24.6855C111.664 24.6855 111.348 24.8223 111.105 25.0957C110.867 25.3691 110.715 25.75 110.648 26.2383H113.361V26.1328C113.33 25.6562 113.203 25.2969 112.98 25.0547C112.758 24.8086 112.449 24.6855 112.055 24.6855Z" fill="#4967EE"/>
<path d="M119.197 24.9609C119.01 24.9297 118.816 24.9141 118.617 24.9141C117.965 24.9141 117.525 25.1641 117.299 25.6641V30H115.875V23.6602H117.234L117.27 24.3691C117.613 23.8184 118.09 23.543 118.699 23.543C118.902 23.543 119.07 23.5703 119.203 23.625L119.197 24.9609Z" fill="#4967EE"/>
<defs>
<filter id="filter0_d" x="81.0928" y="78.5464" width="34.9336" height="19.4394" filterUnits="userSpaceOnUse" color-interpolation-filters="sRGB">
<feFlood flood-opacity="0" result="BackgroundImageFix"/>
<feColorMatrix in="SourceAlpha" type="matrix" values="0 0 0 0 0 0 0 0 0 0 0 0 0 0 0 0 0 0 127 0" result="hardAlpha"/>
<feOffset dy="0.83732"/>
<feGaussianBlur stdDeviation="0.83732"/>
<feColorMatrix type="matrix" values="0 0 0 0 0 0 0 0 0 0 0 0 0 0 0 0 0 0 0.25 0"/>
<feBlend mode="normal" in2="BackgroundImageFix" result="effect1_dropShadow"/>
<feBlend mode="normal" in="SourceGraphic" in2="effect1_dropShadow" result="shape"/>
</filter>
<filter id="filter1_d" x="122.769" y="97.82" width="21.3057" height="21.3057" filterUnits="userSpaceOnUse" color-interpolation-filters="sRGB">
<feFlood flood-opacity="0" result="BackgroundImageFix"/>
<feColorMatrix in="SourceAlpha" type="matrix" values="0 0 0 0 0 0 0 0 0 0 0 0 0 0 0 0 0 0 127 0" result="hardAlpha"/>
<feOffset dy="0.484484"/>
<feGaussianBlur stdDeviation="0.484484"/>
<feColorMatrix type="matrix" values="0 0 0 0 0 0 0 0 0 0 0 0 0 0 0 0 0 0 0.25 0"/>
<feBlend mode="normal" in2="BackgroundImageFix" result="effect1_dropShadow"/>
<feBlend mode="normal" in="SourceGraphic" in2="effect1_dropShadow" result="shape"/>
</filter>
</defs>
</svg>
