<svg width="264" height="172" viewBox="0 0 264 172" fill="none" xmlns="http://www.w3.org/2000/svg">
<path d="M158.753 18.0208L158.837 3.60415" stroke="#C8D1E0" stroke-width="2.5552" stroke-linecap="round" stroke-linejoin="round"/>
<path d="M172.21 22.3458L182.828 12.1953" stroke="#C8D1E0" stroke-width="2.5552" stroke-linecap="round" stroke-linejoin="round"/>
<path d="M189.406 36.0417L174.453 35.9601" stroke="#C8D1E0" stroke-width="2.5552" stroke-linecap="round" stroke-linejoin="round"/>
<path d="M12.5744 56.6097L14.3002 58.4096L14.4608 58.5771L14.6711 58.4831L16.9598 57.4607L15.7327 59.5792L15.6156 59.7814L15.7805 59.9535L17.4951 61.7417L15.0052 61.2672L14.7799 61.2242L14.6677 61.418L13.4277 63.5588L13.1304 61.1374L13.1018 60.9045L12.8666 60.8596L10.4026 60.3901L12.6912 59.3677L12.9015 59.2737L12.8737 59.0468L12.5744 56.6097Z" stroke="#4967EE" stroke-width="0.6388" stroke-linecap="round"/>
<path d="M199.129 49.6314L199.339 52.0816L199.359 52.3095L199.582 52.3607L202.034 52.9214L199.721 53.8532L199.498 53.9429L199.519 54.1792L199.726 56.6075L198.067 54.7458L197.918 54.5794L197.709 54.6639L195.362 55.6092L196.674 53.5284L196.801 53.3259L196.644 53.1493L195.008 51.3143L197.459 51.875L197.683 51.9262L197.806 51.731L199.129 49.6314Z" stroke="#4967EE" stroke-width="0.6388" stroke-linecap="round"/>
<path d="M111.89 1.48497L112.422 3.89075L112.471 4.11434L112.7 4.13748L115.204 4.39138L113.035 5.59949L112.825 5.71607L112.877 5.94879L113.403 8.33103L111.51 6.68841L111.342 6.54213L111.146 6.65143L108.942 7.87873L109.968 5.65388L110.068 5.43653L109.888 5.2805L108.025 3.66358L110.53 3.91748L110.758 3.94062L110.854 3.73181L111.89 1.48497Z" stroke="#4967EE" stroke-width="0.6388" stroke-linecap="round"/>
<path d="M12.3806 127.673L12.0245 130.103L11.9913 130.329L12.1996 130.427L14.464 131.5L11.9888 131.916L11.7529 131.955L11.7189 132.187L11.3649 134.602L10.1757 132.435L10.0679 132.238L9.84131 132.276L7.34154 132.696L9.09762 130.946L9.26629 130.778L9.15405 130.573L7.97653 128.428L10.2409 129.5L10.4492 129.599L10.6137 129.435L12.3806 127.673Z" stroke="#AFBACC" stroke-width="0.6388" stroke-linecap="round"/>
<path d="M186.844 61.9917C186.844 62.9987 185.993 63.8348 184.92 63.8348C183.847 63.8348 182.996 62.9987 182.996 61.9917C182.996 60.9846 183.847 60.1486 184.92 60.1486C185.993 60.1486 186.844 60.9846 186.844 61.9917Z" stroke="#707A8A" stroke-width="0.6388"/>
<path d="M29.8387 138.4C29.8387 139.407 28.9886 140.243 27.9151 140.243C26.8417 140.243 25.9916 139.407 25.9916 138.4C25.9916 137.393 26.8417 136.557 27.9151 136.557C28.9886 136.557 29.8387 137.393 29.8387 138.4Z" stroke="#707A8A" stroke-width="0.6388"/>
<path d="M210.768 127.587C210.768 128.595 209.918 129.431 208.845 129.431C207.771 129.431 206.921 128.595 206.921 127.587C206.921 126.58 207.771 125.744 208.845 125.744C209.918 125.744 210.768 126.58 210.768 127.587Z" stroke="#707A8A" stroke-width="0.6388"/>
<path d="M115.07 19.4625C115.07 20.4695 114.22 21.3056 113.146 21.3056C112.073 21.3056 111.223 20.4695 111.223 19.4625C111.223 18.4555 112.073 17.6194 113.146 17.6194C114.22 17.6194 115.07 18.4555 115.07 19.4625Z" stroke="#707A8A" stroke-width="0.6388"/>
<path d="M29.8387 67.7583C29.8387 68.7653 28.9886 69.6014 27.9151 69.6014C26.8417 69.6014 25.9916 68.7653 25.9916 67.7583C25.9916 66.7513 26.8417 65.9152 27.9151 65.9152C28.9886 65.9152 29.8387 66.7513 29.8387 67.7583Z" stroke="#AFBACC" stroke-width="0.6388"/>
<path d="M130.023 7.92916C130.023 8.93619 129.173 9.77226 128.099 9.77226C127.026 9.77226 126.176 8.93619 126.176 7.92916C126.176 6.92214 127.026 6.08606 128.099 6.08606C129.173 6.08606 130.023 6.92214 130.023 7.92916Z" stroke="#AFBACC" stroke-width="0.6388"/>
<path d="M22.3622 85.7792C22.3622 86.7862 21.5121 87.6223 20.4387 87.6223C19.3653 87.6223 18.5152 86.7862 18.5152 85.7792C18.5152 84.7722 19.3653 83.9361 20.4387 83.9361C21.5121 83.9361 22.3622 84.7722 22.3622 85.7792Z" stroke="#4967EE" stroke-width="0.6388"/>
<path d="M5.16645 147.771C5.16645 148.778 4.31635 149.614 3.24293 149.614C2.1695 149.614 1.3194 148.778 1.3194 147.771C1.3194 146.764 2.1695 145.928 3.24293 145.928C4.31635 145.928 5.16645 146.764 5.16645 147.771Z" stroke="#4967EE" stroke-width="0.6388"/>
<path fill-rule="evenodd" clip-rule="evenodd" d="M1.672 75.7882C1.53233 75.6539 1.30589 75.6539 1.16622 75.7882C1.02655 75.9224 1.02655 76.1399 1.16622 76.2741L2.77557 77.8205L1.10475 79.4259C0.965083 79.5601 0.965083 79.7776 1.10475 79.9118C1.24442 80.046 1.47087 80.046 1.61054 79.9118L3.28135 78.3065L4.87532 79.838C5.01498 79.9722 5.24143 79.9722 5.3811 79.838C5.52077 79.7038 5.52077 79.4862 5.3811 79.352L3.78714 77.8205L5.31964 76.348C5.4593 76.2138 5.4593 75.9962 5.31964 75.862C5.17997 75.7278 4.95352 75.7278 4.81385 75.862L3.28135 77.3345L1.672 75.7882Z" fill="#707A8A"/>
<path fill-rule="evenodd" clip-rule="evenodd" d="M31.5777 119.038C31.438 118.904 31.2116 118.904 31.0719 119.038C30.9322 119.172 30.9322 119.39 31.0719 119.524L32.6813 121.07L31.0105 122.676C30.8708 122.81 30.8708 123.028 31.0105 123.162C31.1501 123.296 31.3766 123.296 31.5162 123.162L33.1871 121.556L34.781 123.088C34.9207 123.222 35.1471 123.222 35.2868 123.088C35.4265 122.954 35.4265 122.736 35.2868 122.602L33.6928 121.07L35.2253 119.598C35.365 119.464 35.365 119.246 35.2253 119.112C35.0857 118.978 34.8592 118.978 34.7196 119.112L33.1871 120.584L31.5777 119.038Z" fill="#AFBACC"/>
<path fill-rule="evenodd" clip-rule="evenodd" d="M89.1462 17.4006C89.0065 17.2664 88.7801 17.2664 88.6404 17.4006C88.5007 17.5348 88.5007 17.7524 88.6404 17.8866L90.2497 19.433L88.5789 21.0384C88.4393 21.1726 88.4393 21.3901 88.5789 21.5243C88.7186 21.6585 88.9451 21.6585 89.0847 21.5243L90.7555 19.9189L92.3495 21.4505C92.4892 21.5847 92.7156 21.5847 92.8553 21.4505C92.995 21.3163 92.995 21.0987 92.8553 20.9645L91.2613 19.433L92.7938 17.9605C92.9335 17.8263 92.9335 17.6087 92.7938 17.4745C92.6541 17.3403 92.4277 17.3403 92.288 17.4745L90.7555 18.947L89.1462 17.4006Z" fill="#AFBACC"/>
<path fill-rule="evenodd" clip-rule="evenodd" d="M23.3536 154.359C23.214 154.225 22.9875 154.225 22.8479 154.359C22.7082 154.493 22.7082 154.711 22.8479 154.845L24.4572 156.391L22.7864 157.997C22.6467 158.131 22.6467 158.348 22.7864 158.483C22.9261 158.617 23.1525 158.617 23.2922 158.483L24.963 156.877L26.557 158.409C26.6966 158.543 26.9231 158.543 27.0627 158.409C27.2024 158.275 27.2024 158.057 27.0627 157.923L25.4688 156.391L27.0013 154.919C27.1409 154.785 27.1409 154.567 27.0013 154.433C26.8616 154.299 26.6352 154.299 26.4955 154.433L24.963 155.905L23.3536 154.359Z" fill="#AFBACC"/>
<path fill-rule="evenodd" clip-rule="evenodd" d="M193.816 136.338C193.676 136.204 193.45 136.204 193.31 136.338C193.171 136.472 193.171 136.69 193.31 136.824L194.92 138.37L193.249 139.976C193.109 140.11 193.109 140.328 193.249 140.462C193.388 140.596 193.615 140.596 193.755 140.462L195.425 138.856L197.019 140.388C197.159 140.522 197.385 140.522 197.525 140.388C197.665 140.254 197.665 140.036 197.525 139.902L195.931 138.37L197.464 136.898C197.603 136.764 197.603 136.546 197.464 136.412C197.324 136.278 197.098 136.278 196.958 136.412L195.425 137.884L193.816 136.338Z" fill="#4967EE"/>
<circle cx="113" cy="91" r="80" fill="#EDF0FE"/>
<mask id="mask0" mask-type="alpha" maskUnits="userSpaceOnUse" x="66" y="64" width="94" height="53">
<rect x="66.8792" y="64.875" width="92.9875" height="51.9" fill="#C4C4C4"/>
</mask>
<g mask="url(#mask0)">
<rect x="66.1583" y="51.9" width="93.7083" height="74.9667" fill="#707A8A"/>
<rect opacity="0.5" x="66.8792" y="113.171" width="92.9875" height="0.720833" fill="white"/>
<rect x="66.8792" y="112.45" width="92.9875" height="1.44167" fill="#4967EE"/>
<g filter="url(#filter0_d)">
<text fill="white" xml:space="preserve" style="white-space: pre" font-family="Roboto" font-size="5.64616" font-weight="500" letter-spacing="0em"><tspan x="80.5751" y="76.1757">LIVE</tspan></text>
<circle cx="76.6105" cy="74.6062" r="1.80208" fill="#4967EE"/>
<rect x="71.3807" y="67.9348" width="26.3179" height="11.1804" rx="0.529327" stroke="white" stroke-width="0.352885"/>
</g>
<path fill-rule="evenodd" clip-rule="evenodd" d="M149.775 100.016C146.772 100.016 144.207 101.884 143.167 104.521C144.207 107.158 146.772 109.026 149.775 109.026C152.778 109.026 155.343 107.158 156.383 104.521C155.343 101.884 152.778 100.016 149.775 100.016ZM149.775 107.524C148.117 107.524 146.772 106.179 146.772 104.521C146.772 102.863 148.117 101.517 149.775 101.517C151.433 101.517 152.778 102.863 152.778 104.521C152.778 106.179 151.433 107.524 149.775 107.524ZM147.973 104.521C147.973 103.524 148.778 102.719 149.775 102.719C150.772 102.719 151.577 103.524 151.577 104.521C151.577 105.518 150.772 106.323 149.775 106.323C148.778 106.323 147.973 105.518 147.973 104.521Z" fill="white"/>
<circle opacity="0.5" cx="113.733" cy="90.825" r="12.975" fill="#DBE1FC"/>
<g filter="url(#filter1_d)">
<path d="M110.185 86.5777V95.0722C110.185 95.72 110.881 96.1135 111.416 95.761L117.923 91.5137C118.419 91.1939 118.419 90.456 117.923 90.128L111.416 85.8889C110.881 85.5364 110.185 85.9299 110.185 86.5777Z" fill="white"/>
</g>
<rect opacity="0.5" x="66.8792" y="113.171" width="92.9875" height="0.720833" fill="white"/>
<rect x="66.8792" y="113.171" width="92.9875" height="0.720833" fill="#4967EE"/>
<rect opacity="0.5" x="66.8792" y="112.45" width="92.9875" height="5.04583" fill="#DBE1FC"/>
<rect x="66.8792" y="112.45" width="92.9875" height="1.44167" fill="#4967EE"/>
</g>
<path d="M1.86719 35V26.4688H4.79102C5.75586 26.4688 6.49023 26.6621 6.99414 27.0488C7.49805 27.4355 7.75 28.0117 7.75 28.7773C7.75 29.168 7.64453 29.5195 7.43359 29.832C7.22266 30.1445 6.91406 30.3867 6.50781 30.5586C6.96875 30.6836 7.32422 30.9199 7.57422 31.2676C7.82812 31.6113 7.95508 32.0254 7.95508 32.5098C7.95508 33.3105 7.69727 33.9258 7.18164 34.3555C6.66992 34.7852 5.93555 35 4.97852 35H1.86719ZM3.34961 31.1504V33.8164H4.99609C5.46094 33.8164 5.82422 33.7012 6.08594 33.4707C6.34766 33.2402 6.47852 32.9199 6.47852 32.5098C6.47852 31.623 6.02539 31.1699 5.11914 31.1504H3.34961ZM3.34961 30.0605H4.80273C5.26367 30.0605 5.62305 29.957 5.88086 29.75C6.14258 29.5391 6.27344 29.2422 6.27344 28.8594C6.27344 28.4375 6.15234 28.1328 5.91016 27.9453C5.67188 27.7578 5.29883 27.6641 4.79102 27.6641H3.34961V30.0605Z" fill="#4967EE"/>
<path d="M12.6191 29.9609C12.4316 29.9297 12.2383 29.9141 12.0391 29.9141C11.3867 29.9141 10.9473 30.1641 10.7207 30.6641V35H9.29688V28.6602H10.6562L10.6914 29.3691C11.0352 28.8184 11.5117 28.543 12.1211 28.543C12.3242 28.543 12.4922 28.5703 12.625 28.625L12.6191 29.9609Z" fill="#4967EE"/>
<path d="M13.041 31.7715C13.041 31.1504 13.1641 30.5918 13.4102 30.0957C13.6562 29.5957 14.002 29.2129 14.4473 28.9473C14.8926 28.6777 15.4043 28.543 15.9824 28.543C16.8379 28.543 17.5312 28.8184 18.0625 29.3691C18.5977 29.9199 18.8867 30.6504 18.9297 31.5605L18.9355 31.8945C18.9355 32.5195 18.8145 33.0781 18.5723 33.5703C18.334 34.0625 17.9902 34.4434 17.541 34.7129C17.0957 34.9824 16.5801 35.1172 15.9941 35.1172C15.0996 35.1172 14.3828 34.8203 13.8438 34.2266C13.3086 33.6289 13.041 32.834 13.041 31.8418V31.7715ZM14.4648 31.8945C14.4648 32.5469 14.5996 33.0586 14.8691 33.4297C15.1387 33.7969 15.5137 33.9805 15.9941 33.9805C16.4746 33.9805 16.8477 33.793 17.1133 33.418C17.3828 33.043 17.5176 32.4941 17.5176 31.7715C17.5176 31.1309 17.3789 30.623 17.1016 30.248C16.8281 29.873 16.4551 29.6855 15.9824 29.6855C15.5176 29.6855 15.1484 29.8711 14.875 30.2422C14.6016 30.6094 14.4648 31.1602 14.4648 31.8945Z" fill="#4967EE"/>
<path d="M23.9277 35C23.8652 34.8789 23.8105 34.6816 23.7637 34.4082C23.3105 34.8809 22.7559 35.1172 22.0996 35.1172C21.4629 35.1172 20.9434 34.9355 20.541 34.5723C20.1387 34.209 19.9375 33.7598 19.9375 33.2246C19.9375 32.5488 20.1875 32.0312 20.6875 31.6719C21.1914 31.3086 21.9102 31.127 22.8438 31.127H23.7168V30.7109C23.7168 30.3828 23.625 30.1211 23.4414 29.9258C23.2578 29.7266 22.9785 29.627 22.6035 29.627C22.2793 29.627 22.0137 29.709 21.8066 29.873C21.5996 30.0332 21.4961 30.2383 21.4961 30.4883H20.0723C20.0723 30.1406 20.1875 29.8164 20.418 29.5156C20.6484 29.2109 20.9609 28.9727 21.3555 28.8008C21.7539 28.6289 22.1973 28.543 22.6855 28.543C23.4277 28.543 24.0195 28.7305 24.4609 29.1055C24.9023 29.4766 25.1289 30 25.1406 30.6758V33.5352C25.1406 34.1055 25.2207 34.5605 25.3809 34.9004V35H23.9277ZM22.3633 33.9746C22.6445 33.9746 22.9082 33.9062 23.1543 33.7695C23.4043 33.6328 23.5918 33.4492 23.7168 33.2188V32.0234H22.9492C22.4219 32.0234 22.0254 32.1152 21.7598 32.2988C21.4941 32.4824 21.3613 32.7422 21.3613 33.0781C21.3613 33.3516 21.4512 33.5703 21.6309 33.7344C21.8145 33.8945 22.0586 33.9746 22.3633 33.9746Z" fill="#4967EE"/>
<path d="M26.3652 31.7832C26.3652 30.8066 26.5918 30.0234 27.0449 29.4336C27.498 28.8398 28.1055 28.543 28.8672 28.543C29.5391 28.543 30.082 28.7773 30.4961 29.2461V26H31.9199V35H30.6309L30.5605 34.3438C30.1348 34.8594 29.5664 35.1172 28.8555 35.1172C28.1133 35.1172 27.5117 34.8184 27.0508 34.2207C26.5938 33.623 26.3652 32.8105 26.3652 31.7832ZM27.7891 31.9062C27.7891 32.5508 27.9121 33.0547 28.1582 33.418C28.4082 33.7773 28.7617 33.957 29.2188 33.957C29.8008 33.957 30.2266 33.6973 30.4961 33.1777V30.4707C30.2344 29.9629 29.8125 29.709 29.2305 29.709C28.7695 29.709 28.4141 29.8926 28.1641 30.2598C27.9141 30.623 27.7891 31.1719 27.7891 31.9062Z" fill="#4967EE"/>
<path d="M36.0098 33.9805C36.3652 33.9805 36.6602 33.877 36.8945 33.6699C37.1289 33.4629 37.2539 33.207 37.2695 32.9023H38.6113C38.5957 33.2969 38.4727 33.666 38.2422 34.0098C38.0117 34.3496 37.6992 34.6191 37.3047 34.8184C36.9102 35.0176 36.4844 35.1172 36.0273 35.1172C35.1406 35.1172 34.4375 34.8301 33.918 34.2559C33.3984 33.6816 33.1387 32.8887 33.1387 31.877V31.7305C33.1387 30.7656 33.3965 29.9941 33.9121 29.416C34.4277 28.834 35.1309 28.543 36.0215 28.543C36.7754 28.543 37.3887 28.7637 37.8613 29.2051C38.3379 29.6426 38.5879 30.2188 38.6113 30.9336H37.2695C37.2539 30.5703 37.1289 30.2715 36.8945 30.0371C36.6641 29.8027 36.3691 29.6855 36.0098 29.6855C35.5488 29.6855 35.1934 29.8535 34.9434 30.1895C34.6934 30.5215 34.5664 31.0273 34.5625 31.707V31.9355C34.5625 32.623 34.6855 33.1367 34.9316 33.4766C35.1816 33.8125 35.541 33.9805 36.0098 33.9805Z" fill="#4967EE"/>
<path d="M43.4746 35C43.4121 34.8789 43.3574 34.6816 43.3105 34.4082C42.8574 34.8809 42.3027 35.1172 41.6465 35.1172C41.0098 35.1172 40.4902 34.9355 40.0879 34.5723C39.6855 34.209 39.4844 33.7598 39.4844 33.2246C39.4844 32.5488 39.7344 32.0312 40.2344 31.6719C40.7383 31.3086 41.457 31.127 42.3906 31.127H43.2637V30.7109C43.2637 30.3828 43.1719 30.1211 42.9883 29.9258C42.8047 29.7266 42.5254 29.627 42.1504 29.627C41.8262 29.627 41.5605 29.709 41.3535 29.873C41.1465 30.0332 41.043 30.2383 41.043 30.4883H39.6191C39.6191 30.1406 39.7344 29.8164 39.9648 29.5156C40.1953 29.2109 40.5078 28.9727 40.9023 28.8008C41.3008 28.6289 41.7441 28.543 42.2324 28.543C42.9746 28.543 43.5664 28.7305 44.0078 29.1055C44.4492 29.4766 44.6758 30 44.6875 30.6758V33.5352C44.6875 34.1055 44.7676 34.5605 44.9277 34.9004V35H43.4746ZM41.9102 33.9746C42.1914 33.9746 42.4551 33.9062 42.7012 33.7695C42.9512 33.6328 43.1387 33.4492 43.2637 33.2188V32.0234H42.4961C41.9688 32.0234 41.5723 32.1152 41.3066 32.2988C41.041 32.4824 40.9082 32.7422 40.9082 33.0781C40.9082 33.3516 40.998 33.5703 41.1777 33.7344C41.3613 33.8945 41.6055 33.9746 41.9102 33.9746Z" fill="#4967EE"/>
<path d="M49.7324 33.2773C49.7324 33.0234 49.627 32.8301 49.416 32.6973C49.209 32.5645 48.8633 32.4473 48.3789 32.3457C47.8945 32.2441 47.4902 32.1152 47.166 31.959C46.4551 31.6152 46.0996 31.1172 46.0996 30.4648C46.0996 29.918 46.3301 29.4609 46.791 29.0938C47.252 28.7266 47.8379 28.543 48.5488 28.543C49.3066 28.543 49.918 28.7305 50.3828 29.1055C50.8516 29.4805 51.0859 29.9668 51.0859 30.5645H49.6621C49.6621 30.291 49.5605 30.0645 49.3574 29.8848C49.1543 29.7012 48.8848 29.6094 48.5488 29.6094C48.2363 29.6094 47.9805 29.6816 47.7812 29.8262C47.5859 29.9707 47.4883 30.1641 47.4883 30.4062C47.4883 30.625 47.5801 30.7949 47.7637 30.916C47.9473 31.0371 48.3184 31.1602 48.877 31.2852C49.4355 31.4062 49.873 31.5527 50.1895 31.7246C50.5098 31.8926 50.7461 32.0957 50.8984 32.334C51.0547 32.5723 51.1328 32.8613 51.1328 33.2012C51.1328 33.7715 50.8965 34.2344 50.4238 34.5898C49.9512 34.9414 49.332 35.1172 48.5664 35.1172C48.0469 35.1172 47.584 35.0234 47.1777 34.8359C46.7715 34.6484 46.4551 34.3906 46.2285 34.0625C46.002 33.7344 45.8887 33.3809 45.8887 33.002H47.2715C47.291 33.3379 47.418 33.5977 47.6523 33.7812C47.8867 33.9609 48.1973 34.0508 48.584 34.0508C48.959 34.0508 49.2441 33.9805 49.4395 33.8398C49.6348 33.6953 49.7324 33.5078 49.7324 33.2773Z" fill="#4967EE"/>
<path d="M54.1621 27.1191V28.6602H55.2812V29.7148H54.1621V33.2539C54.1621 33.4961 54.209 33.6719 54.3027 33.7812C54.4004 33.8867 54.5723 33.9395 54.8184 33.9395C54.9824 33.9395 55.1484 33.9199 55.3164 33.8809V34.9824C54.9922 35.0723 54.6797 35.1172 54.3789 35.1172C53.2852 35.1172 52.7383 34.5137 52.7383 33.3066V29.7148H51.6953V28.6602H52.7383V27.1191H54.1621Z" fill="#4967EE"/>
<path d="M60.877 35H59.4531V26H60.877V35Z" fill="#4967EE"/>
<path d="M63.9473 35H62.5234V28.6602H63.9473V35ZM62.4355 27.0137C62.4355 26.7949 62.5039 26.6133 62.6406 26.4688C62.7812 26.3242 62.9805 26.252 63.2383 26.252C63.4961 26.252 63.6953 26.3242 63.8359 26.4688C63.9766 26.6133 64.0469 26.7949 64.0469 27.0137C64.0469 27.2285 63.9766 27.4082 63.8359 27.5527C63.6953 27.6934 63.4961 27.7637 63.2383 27.7637C62.9805 27.7637 62.7812 27.6934 62.6406 27.5527C62.5039 27.4082 62.4355 27.2285 62.4355 27.0137Z" fill="#4967EE"/>
<path d="M67.7383 33.1953L69.0801 28.6602H70.5508L68.3535 35H67.1172L64.9023 28.6602H66.3789L67.7383 33.1953Z" fill="#4967EE"/>
<path d="M74.1543 35.1172C73.252 35.1172 72.5195 34.834 71.957 34.2676C71.3984 33.6973 71.1191 32.9395 71.1191 31.9941V31.8184C71.1191 31.1855 71.2402 30.6211 71.4824 30.125C71.7285 29.625 72.0723 29.2363 72.5137 28.959C72.9551 28.6816 73.4473 28.543 73.9902 28.543C74.8535 28.543 75.5195 28.8184 75.9883 29.3691C76.4609 29.9199 76.6973 30.6992 76.6973 31.707V32.2812H72.5547C72.5977 32.8047 72.7715 33.2188 73.0762 33.5234C73.3848 33.8281 73.7715 33.9805 74.2363 33.9805C74.8887 33.9805 75.4199 33.7168 75.8301 33.1895L76.5977 33.9219C76.3438 34.3008 76.0039 34.5957 75.5781 34.8066C75.1562 35.0137 74.6816 35.1172 74.1543 35.1172ZM73.9844 29.6855C73.5938 29.6855 73.2773 29.8223 73.0352 30.0957C72.7969 30.3691 72.6445 30.75 72.5781 31.2383H75.291V31.1328C75.2598 30.6562 75.1328 30.2969 74.9102 30.0547C74.6875 29.8086 74.3789 29.6855 73.9844 29.6855Z" fill="#4967EE"/>
<path d="M83.5879 35.1172C82.6855 35.1172 81.9531 34.834 81.3906 34.2676C80.832 33.6973 80.5527 32.9395 80.5527 31.9941V31.8184C80.5527 31.1855 80.6738 30.6211 80.916 30.125C81.1621 29.625 81.5059 29.2363 81.9473 28.959C82.3887 28.6816 82.8809 28.543 83.4238 28.543C84.2871 28.543 84.9531 28.8184 85.4219 29.3691C85.8945 29.9199 86.1309 30.6992 86.1309 31.707V32.2812H81.9883C82.0312 32.8047 82.2051 33.2188 82.5098 33.5234C82.8184 33.8281 83.2051 33.9805 83.6699 33.9805C84.3223 33.9805 84.8535 33.7168 85.2637 33.1895L86.0312 33.9219C85.7773 34.3008 85.4375 34.5957 85.0117 34.8066C84.5898 35.0137 84.1152 35.1172 83.5879 35.1172ZM83.418 29.6855C83.0273 29.6855 82.7109 29.8223 82.4688 30.0957C82.2305 30.3691 82.0781 30.75 82.0117 31.2383H84.7246V31.1328C84.6934 30.6562 84.5664 30.2969 84.3438 30.0547C84.1211 29.8086 83.8125 29.6855 83.418 29.6855Z" fill="#4967EE"/>
<path d="M89.3945 33.1953L90.7363 28.6602H92.207L90.0098 35H88.7734L86.5586 28.6602H88.0352L89.3945 33.1953Z" fill="#4967EE"/>
<path d="M95.8105 35.1172C94.9082 35.1172 94.1758 34.834 93.6133 34.2676C93.0547 33.6973 92.7754 32.9395 92.7754 31.9941V31.8184C92.7754 31.1855 92.8965 30.6211 93.1387 30.125C93.3848 29.625 93.7285 29.2363 94.1699 28.959C94.6113 28.6816 95.1035 28.543 95.6465 28.543C96.5098 28.543 97.1758 28.8184 97.6445 29.3691C98.1172 29.9199 98.3535 30.6992 98.3535 31.707V32.2812H94.2109C94.2539 32.8047 94.4277 33.2188 94.7324 33.5234C95.041 33.8281 95.4277 33.9805 95.8926 33.9805C96.5449 33.9805 97.0762 33.7168 97.4863 33.1895L98.2539 33.9219C98 34.3008 97.6602 34.5957 97.2344 34.8066C96.8125 35.0137 96.3379 35.1172 95.8105 35.1172ZM95.6406 29.6855C95.25 29.6855 94.9336 29.8223 94.6914 30.0957C94.4531 30.3691 94.3008 30.75 94.2344 31.2383H96.9473V31.1328C96.916 30.6562 96.7891 30.2969 96.5664 30.0547C96.3438 29.8086 96.0352 29.6855 95.6406 29.6855Z" fill="#4967EE"/>
<path d="M100.785 28.6602L100.826 29.3926C101.295 28.8262 101.91 28.543 102.672 28.543C103.992 28.543 104.664 29.2988 104.688 30.8105V35H103.264V30.8926C103.264 30.4902 103.176 30.1934 103 30.002C102.828 29.8066 102.545 29.709 102.15 29.709C101.576 29.709 101.148 29.9688 100.867 30.4883V35H99.4434V28.6602H100.785Z" fill="#4967EE"/>
<path d="M107.928 27.1191V28.6602H109.047V29.7148H107.928V33.2539C107.928 33.4961 107.975 33.6719 108.068 33.7812C108.166 33.8867 108.338 33.9395 108.584 33.9395C108.748 33.9395 108.914 33.9199 109.082 33.8809V34.9824C108.758 35.0723 108.445 35.1172 108.145 35.1172C107.051 35.1172 106.504 34.5137 106.504 33.3066V29.7148H105.461V28.6602H106.504V27.1191H107.928Z" fill="#4967EE"/>
<path d="M113.693 33.2773C113.693 33.0234 113.588 32.8301 113.377 32.6973C113.17 32.5645 112.824 32.4473 112.34 32.3457C111.855 32.2441 111.451 32.1152 111.127 31.959C110.416 31.6152 110.061 31.1172 110.061 30.4648C110.061 29.918 110.291 29.4609 110.752 29.0938C111.213 28.7266 111.799 28.543 112.51 28.543C113.268 28.543 113.879 28.7305 114.344 29.1055C114.812 29.4805 115.047 29.9668 115.047 30.5645H113.623C113.623 30.291 113.521 30.0645 113.318 29.8848C113.115 29.7012 112.846 29.6094 112.51 29.6094C112.197 29.6094 111.941 29.6816 111.742 29.8262C111.547 29.9707 111.449 30.1641 111.449 30.4062C111.449 30.625 111.541 30.7949 111.725 30.916C111.908 31.0371 112.279 31.1602 112.838 31.2852C113.396 31.4062 113.834 31.5527 114.15 31.7246C114.471 31.8926 114.707 32.0957 114.859 32.334C115.016 32.5723 115.094 32.8613 115.094 33.2012C115.094 33.7715 114.857 34.2344 114.385 34.5898C113.912 34.9414 113.293 35.1172 112.527 35.1172C112.008 35.1172 111.545 35.0234 111.139 34.8359C110.732 34.6484 110.416 34.3906 110.189 34.0625C109.963 33.7344 109.85 33.3809 109.85 33.002H111.232C111.252 33.3379 111.379 33.5977 111.613 33.7812C111.848 33.9609 112.158 34.0508 112.545 34.0508C112.92 34.0508 113.205 33.9805 113.4 33.8398C113.596 33.6953 113.693 33.5078 113.693 33.2773Z" fill="#4967EE"/>
<path d="M177.299 86.1914H173.795V88.8164H177.891V90H172.312V81.4688H177.85V82.6641H173.795V85.0195H177.299V86.1914Z" fill="#4967EE"/>
<path d="M180.281 83.6602L180.322 84.3926C180.791 83.8262 181.406 83.543 182.168 83.543C183.488 83.543 184.16 84.2988 184.184 85.8105V90H182.76V85.8926C182.76 85.4902 182.672 85.1934 182.496 85.002C182.324 84.8066 182.041 84.709 181.646 84.709C181.072 84.709 180.645 84.9688 180.363 85.4883V90H178.939V83.6602H180.281Z" fill="#4967EE"/>
<path d="M185.391 86.7832C185.391 85.7988 185.621 85.0137 186.082 84.4277C186.547 83.8379 187.162 83.543 187.928 83.543C188.65 83.543 189.219 83.7949 189.633 84.2988L189.697 83.6602H190.98V89.8066C190.98 90.6387 190.721 91.2949 190.201 91.7754C189.686 92.2559 188.988 92.4961 188.109 92.4961C187.645 92.4961 187.189 92.3984 186.744 92.2031C186.303 92.0117 185.967 91.7598 185.736 91.4473L186.41 90.5918C186.848 91.1113 187.387 91.3711 188.027 91.3711C188.5 91.3711 188.873 91.2422 189.146 90.9844C189.42 90.7305 189.557 90.3555 189.557 89.8594V89.4316C189.146 89.8887 188.6 90.1172 187.916 90.1172C187.174 90.1172 186.566 89.8223 186.094 89.2324C185.625 88.6426 185.391 87.8262 185.391 86.7832ZM186.809 86.9062C186.809 87.543 186.938 88.0449 187.195 88.4121C187.457 88.7754 187.818 88.957 188.279 88.957C188.854 88.957 189.279 88.7109 189.557 88.2188V85.4297C189.287 84.9492 188.865 84.709 188.291 84.709C187.822 84.709 187.457 84.8945 187.195 85.2656C186.938 85.6367 186.809 86.1836 186.809 86.9062Z" fill="#4967EE"/>
<path d="M196.236 90C196.174 89.8789 196.119 89.6816 196.072 89.4082C195.619 89.8809 195.064 90.1172 194.408 90.1172C193.771 90.1172 193.252 89.9355 192.85 89.5723C192.447 89.209 192.246 88.7598 192.246 88.2246C192.246 87.5488 192.496 87.0312 192.996 86.6719C193.5 86.3086 194.219 86.127 195.152 86.127H196.025V85.7109C196.025 85.3828 195.934 85.1211 195.75 84.9258C195.566 84.7266 195.287 84.627 194.912 84.627C194.588 84.627 194.322 84.709 194.115 84.873C193.908 85.0332 193.805 85.2383 193.805 85.4883H192.381C192.381 85.1406 192.496 84.8164 192.727 84.5156C192.957 84.2109 193.27 83.9727 193.664 83.8008C194.062 83.6289 194.506 83.543 194.994 83.543C195.736 83.543 196.328 83.7305 196.77 84.1055C197.211 84.4766 197.438 85 197.449 85.6758V88.5352C197.449 89.1055 197.529 89.5605 197.689 89.9004V90H196.236ZM194.672 88.9746C194.953 88.9746 195.217 88.9062 195.463 88.7695C195.713 88.6328 195.9 88.4492 196.025 88.2188V87.0234H195.258C194.73 87.0234 194.334 87.1152 194.068 87.2988C193.803 87.4824 193.67 87.7422 193.67 88.0781C193.67 88.3516 193.76 88.5703 193.939 88.7344C194.123 88.8945 194.367 88.9746 194.672 88.9746Z" fill="#4967EE"/>
<path d="M198.691 86.7832C198.691 85.7988 198.922 85.0137 199.383 84.4277C199.848 83.8379 200.463 83.543 201.229 83.543C201.951 83.543 202.52 83.7949 202.934 84.2988L202.998 83.6602H204.281V89.8066C204.281 90.6387 204.021 91.2949 203.502 91.7754C202.986 92.2559 202.289 92.4961 201.41 92.4961C200.945 92.4961 200.49 92.3984 200.045 92.2031C199.604 92.0117 199.268 91.7598 199.037 91.4473L199.711 90.5918C200.148 91.1113 200.688 91.3711 201.328 91.3711C201.801 91.3711 202.174 91.2422 202.447 90.9844C202.721 90.7305 202.857 90.3555 202.857 89.8594V89.4316C202.447 89.8887 201.9 90.1172 201.217 90.1172C200.475 90.1172 199.867 89.8223 199.395 89.2324C198.926 88.6426 198.691 87.8262 198.691 86.7832ZM200.109 86.9062C200.109 87.543 200.238 88.0449 200.496 88.4121C200.758 88.7754 201.119 88.957 201.58 88.957C202.154 88.957 202.58 88.7109 202.857 88.2188V85.4297C202.588 84.9492 202.166 84.709 201.592 84.709C201.123 84.709 200.758 84.8945 200.496 85.2656C200.238 85.6367 200.109 86.1836 200.109 86.9062Z" fill="#4967EE"/>
<path d="M208.541 90.1172C207.639 90.1172 206.906 89.834 206.344 89.2676C205.785 88.6973 205.506 87.9395 205.506 86.9941V86.8184C205.506 86.1855 205.627 85.6211 205.869 85.125C206.115 84.625 206.459 84.2363 206.9 83.959C207.342 83.6816 207.834 83.543 208.377 83.543C209.24 83.543 209.906 83.8184 210.375 84.3691C210.848 84.9199 211.084 85.6992 211.084 86.707V87.2812H206.941C206.984 87.8047 207.158 88.2188 207.463 88.5234C207.771 88.8281 208.158 88.9805 208.623 88.9805C209.275 88.9805 209.807 88.7168 210.217 88.1895L210.984 88.9219C210.73 89.3008 210.391 89.5957 209.965 89.8066C209.543 90.0137 209.068 90.1172 208.541 90.1172ZM208.371 84.6855C207.98 84.6855 207.664 84.8223 207.422 85.0957C207.184 85.3691 207.031 85.75 206.965 86.2383H209.678V86.1328C209.646 85.6562 209.52 85.2969 209.297 85.0547C209.074 84.8086 208.766 84.6855 208.371 84.6855Z" fill="#4967EE"/>
<path d="M220.752 88.0371L221.76 83.6602H223.148L221.42 90H220.248L218.889 85.6465L217.553 90H216.381L214.646 83.6602H216.035L217.061 87.9902L218.361 83.6602H219.434L220.752 88.0371Z" fill="#4967EE"/>
<path d="M225.615 90H224.191V83.6602H225.615V90ZM224.104 82.0137C224.104 81.7949 224.172 81.6133 224.309 81.4688C224.449 81.3242 224.648 81.252 224.906 81.252C225.164 81.252 225.363 81.3242 225.504 81.4688C225.645 81.6133 225.715 81.7949 225.715 82.0137C225.715 82.2285 225.645 82.4082 225.504 82.5527C225.363 82.6934 225.164 82.7637 224.906 82.7637C224.648 82.7637 224.449 82.6934 224.309 82.5527C224.172 82.4082 224.104 82.2285 224.104 82.0137Z" fill="#4967EE"/>
<path d="M228.955 82.1191V83.6602H230.074V84.7148H228.955V88.2539C228.955 88.4961 229.002 88.6719 229.096 88.7812C229.193 88.8867 229.365 88.9395 229.611 88.9395C229.775 88.9395 229.941 88.9199 230.109 88.8809V89.9824C229.785 90.0723 229.473 90.1172 229.172 90.1172C228.078 90.1172 227.531 89.5137 227.531 88.3066V84.7148H226.488V83.6602H227.531V82.1191H228.955Z" fill="#4967EE"/>
<path d="M232.57 84.3516C233.035 83.8125 233.623 83.543 234.334 83.543C235.686 83.543 236.371 84.3145 236.391 85.8574V90H234.967V85.9102C234.967 85.4727 234.871 85.1641 234.68 84.9844C234.492 84.8008 234.215 84.709 233.848 84.709C233.277 84.709 232.852 84.9629 232.57 85.4707V90H231.146V81H232.57V84.3516Z" fill="#4967EE"/>
<path d="M243.041 87.9609L244.33 83.6602H245.848L243.328 90.9609C242.941 92.0273 242.285 92.5605 241.359 92.5605C241.152 92.5605 240.924 92.5254 240.674 92.4551V91.3535L240.943 91.3711C241.303 91.3711 241.572 91.3047 241.752 91.1719C241.936 91.043 242.08 90.8242 242.186 90.5156L242.391 89.9707L240.164 83.6602H241.699L243.041 87.9609Z" fill="#4967EE"/>
<path d="M246.311 86.7715C246.311 86.1504 246.434 85.5918 246.68 85.0957C246.926 84.5957 247.271 84.2129 247.717 83.9473C248.162 83.6777 248.674 83.543 249.252 83.543C250.107 83.543 250.801 83.8184 251.332 84.3691C251.867 84.9199 252.156 85.6504 252.199 86.5605L252.205 86.8945C252.205 87.5195 252.084 88.0781 251.842 88.5703C251.604 89.0625 251.26 89.4434 250.811 89.7129C250.365 89.9824 249.85 90.1172 249.264 90.1172C248.369 90.1172 247.652 89.8203 247.113 89.2266C246.578 88.6289 246.311 87.834 246.311 86.8418V86.7715ZM247.734 86.8945C247.734 87.5469 247.869 88.0586 248.139 88.4297C248.408 88.7969 248.783 88.9805 249.264 88.9805C249.744 88.9805 250.117 88.793 250.383 88.418C250.652 88.043 250.787 87.4941 250.787 86.7715C250.787 86.1309 250.648 85.623 250.371 85.248C250.098 84.873 249.725 84.6855 249.252 84.6855C248.787 84.6855 248.418 84.8711 248.145 85.2422C247.871 85.6094 247.734 86.1602 247.734 86.8945Z" fill="#4967EE"/>
<path d="M257.25 89.3789C256.832 89.8711 256.238 90.1172 255.469 90.1172C254.781 90.1172 254.26 89.916 253.904 89.5137C253.553 89.1113 253.377 88.5293 253.377 87.7676V83.6602H254.801V87.75C254.801 88.5547 255.135 88.957 255.803 88.957C256.494 88.957 256.961 88.709 257.203 88.2129V83.6602H258.627V90H257.285L257.25 89.3789Z" fill="#4967EE"/>
<path d="M263.396 84.9609C263.209 84.9297 263.016 84.9141 262.816 84.9141C262.164 84.9141 261.725 85.1641 261.498 85.6641V90H260.074V83.6602H261.434L261.469 84.3691C261.812 83.8184 262.289 83.543 262.898 83.543C263.102 83.543 263.27 83.5703 263.402 83.625L263.396 84.9609Z" fill="#4967EE"/>
<path d="M199.09 106C199.027 105.879 198.973 105.682 198.926 105.408C198.473 105.881 197.918 106.117 197.262 106.117C196.625 106.117 196.105 105.936 195.703 105.572C195.301 105.209 195.1 104.76 195.1 104.225C195.1 103.549 195.35 103.031 195.85 102.672C196.354 102.309 197.072 102.127 198.006 102.127H198.879V101.711C198.879 101.383 198.787 101.121 198.604 100.926C198.42 100.727 198.141 100.627 197.766 100.627C197.441 100.627 197.176 100.709 196.969 100.873C196.762 101.033 196.658 101.238 196.658 101.488H195.234C195.234 101.141 195.35 100.816 195.58 100.516C195.811 100.211 196.123 99.9727 196.518 99.8008C196.916 99.6289 197.359 99.543 197.848 99.543C198.59 99.543 199.182 99.7305 199.623 100.105C200.064 100.477 200.291 101 200.303 101.676V104.535C200.303 105.105 200.383 105.561 200.543 105.9V106H199.09ZM197.525 104.975C197.807 104.975 198.07 104.906 198.316 104.77C198.566 104.633 198.754 104.449 198.879 104.219V103.023H198.111C197.584 103.023 197.188 103.115 196.922 103.299C196.656 103.482 196.523 103.742 196.523 104.078C196.523 104.352 196.613 104.57 196.793 104.734C196.977 104.895 197.221 104.975 197.525 104.975Z" fill="#4967EE"/>
<path d="M205.635 105.379C205.217 105.871 204.623 106.117 203.854 106.117C203.166 106.117 202.645 105.916 202.289 105.514C201.938 105.111 201.762 104.529 201.762 103.768V99.6602H203.186V103.75C203.186 104.555 203.52 104.957 204.188 104.957C204.879 104.957 205.346 104.709 205.588 104.213V99.6602H207.012V106H205.67L205.635 105.379Z" fill="#4967EE"/>
<path d="M208.195 102.783C208.195 101.807 208.422 101.023 208.875 100.434C209.328 99.8398 209.936 99.543 210.697 99.543C211.369 99.543 211.912 99.7773 212.326 100.246V97H213.75V106H212.461L212.391 105.344C211.965 105.859 211.396 106.117 210.686 106.117C209.943 106.117 209.342 105.818 208.881 105.221C208.424 104.623 208.195 103.811 208.195 102.783ZM209.619 102.906C209.619 103.551 209.742 104.055 209.988 104.418C210.238 104.777 210.592 104.957 211.049 104.957C211.631 104.957 212.057 104.697 212.326 104.178V101.471C212.064 100.963 211.643 100.709 211.061 100.709C210.6 100.709 210.244 100.893 209.994 101.26C209.744 101.623 209.619 102.172 209.619 102.906Z" fill="#4967EE"/>
<path d="M216.75 106H215.326V99.6602H216.75V106ZM215.238 98.0137C215.238 97.7949 215.307 97.6133 215.443 97.4688C215.584 97.3242 215.783 97.252 216.041 97.252C216.299 97.252 216.498 97.3242 216.639 97.4688C216.779 97.6133 216.85 97.7949 216.85 98.0137C216.85 98.2285 216.779 98.4082 216.639 98.5527C216.498 98.6934 216.299 98.7637 216.041 98.7637C215.783 98.7637 215.584 98.6934 215.443 98.5527C215.307 98.4082 215.238 98.2285 215.238 98.0137Z" fill="#4967EE"/>
<path d="M221.098 106.117C220.195 106.117 219.463 105.834 218.9 105.268C218.342 104.697 218.062 103.939 218.062 102.994V102.818C218.062 102.186 218.184 101.621 218.426 101.125C218.672 100.625 219.016 100.236 219.457 99.959C219.898 99.6816 220.391 99.543 220.934 99.543C221.797 99.543 222.463 99.8184 222.932 100.369C223.404 100.92 223.641 101.699 223.641 102.707V103.281H219.498C219.541 103.805 219.715 104.219 220.02 104.523C220.328 104.828 220.715 104.98 221.18 104.98C221.832 104.98 222.363 104.717 222.773 104.189L223.541 104.922C223.287 105.301 222.947 105.596 222.521 105.807C222.1 106.014 221.625 106.117 221.098 106.117ZM220.928 100.686C220.537 100.686 220.221 100.822 219.979 101.096C219.74 101.369 219.588 101.75 219.521 102.238H222.234V102.133C222.203 101.656 222.076 101.297 221.854 101.055C221.631 100.809 221.322 100.686 220.928 100.686Z" fill="#4967EE"/>
<path d="M226.072 99.6602L226.113 100.393C226.582 99.8262 227.197 99.543 227.959 99.543C229.279 99.543 229.951 100.299 229.975 101.811V106H228.551V101.893C228.551 101.49 228.463 101.193 228.287 101.002C228.115 100.807 227.832 100.709 227.438 100.709C226.863 100.709 226.436 100.969 226.154 101.488V106H224.73V99.6602H226.072Z" fill="#4967EE"/>
<path d="M234.035 104.98C234.391 104.98 234.686 104.877 234.92 104.67C235.154 104.463 235.279 104.207 235.295 103.902H236.637C236.621 104.297 236.498 104.666 236.268 105.01C236.037 105.35 235.725 105.619 235.33 105.818C234.936 106.018 234.51 106.117 234.053 106.117C233.166 106.117 232.463 105.83 231.943 105.256C231.424 104.682 231.164 103.889 231.164 102.877V102.73C231.164 101.766 231.422 100.994 231.938 100.416C232.453 99.834 233.156 99.543 234.047 99.543C234.801 99.543 235.414 99.7637 235.887 100.205C236.363 100.643 236.613 101.219 236.637 101.934H235.295C235.279 101.57 235.154 101.271 234.92 101.037C234.689 100.803 234.395 100.686 234.035 100.686C233.574 100.686 233.219 100.854 232.969 101.189C232.719 101.521 232.592 102.027 232.588 102.707V102.936C232.588 103.623 232.711 104.137 232.957 104.477C233.207 104.812 233.566 104.98 234.035 104.98Z" fill="#4967EE"/>
<path d="M240.504 106.117C239.602 106.117 238.869 105.834 238.307 105.268C237.748 104.697 237.469 103.939 237.469 102.994V102.818C237.469 102.186 237.59 101.621 237.832 101.125C238.078 100.625 238.422 100.236 238.863 99.959C239.305 99.6816 239.797 99.543 240.34 99.543C241.203 99.543 241.869 99.8184 242.338 100.369C242.811 100.92 243.047 101.699 243.047 102.707V103.281H238.904C238.947 103.805 239.121 104.219 239.426 104.523C239.734 104.828 240.121 104.98 240.586 104.98C241.238 104.98 241.77 104.717 242.18 104.189L242.947 104.922C242.693 105.301 242.354 105.596 241.928 105.807C241.506 106.014 241.031 106.117 240.504 106.117ZM240.334 100.686C239.943 100.686 239.627 100.822 239.385 101.096C239.146 101.369 238.994 101.75 238.928 102.238H241.641V102.133C241.609 101.656 241.482 101.297 241.26 101.055C241.037 100.809 240.729 100.686 240.334 100.686Z" fill="#4967EE"/>
<path d="M62.6934 160.223C62.6074 161.133 62.2715 161.844 61.6855 162.355C61.0996 162.863 60.3203 163.117 59.3477 163.117C58.668 163.117 58.0684 162.957 57.5488 162.637C57.0332 162.312 56.6348 161.854 56.3535 161.26C56.0723 160.666 55.9258 159.977 55.9141 159.191V158.395C55.9141 157.59 56.0566 156.881 56.3418 156.268C56.627 155.654 57.0352 155.182 57.5664 154.85C58.1016 154.518 58.7188 154.352 59.418 154.352C60.3594 154.352 61.1172 154.607 61.6914 155.119C62.2656 155.631 62.5996 156.354 62.6934 157.287H61.2168C61.1465 156.674 60.9668 156.232 60.6777 155.963C60.3926 155.689 59.9727 155.553 59.418 155.553C58.7734 155.553 58.2773 155.789 57.9297 156.262C57.5859 156.73 57.4102 157.42 57.4023 158.33V159.086C57.4023 160.008 57.5664 160.711 57.8945 161.195C58.2266 161.68 58.7109 161.922 59.3477 161.922C59.9297 161.922 60.3672 161.791 60.6602 161.529C60.9531 161.268 61.1387 160.832 61.2168 160.223H62.6934Z" fill="#4967EE"/>
<path d="M67.7266 162.379C67.3086 162.871 66.7148 163.117 65.9453 163.117C65.2578 163.117 64.7363 162.916 64.3809 162.514C64.0293 162.111 63.8535 161.529 63.8535 160.768V156.66H65.2773V160.75C65.2773 161.555 65.6113 161.957 66.2793 161.957C66.9707 161.957 67.4375 161.709 67.6797 161.213V156.66H69.1035V163H67.7617L67.7266 162.379Z" fill="#4967EE"/>
<path d="M74.1074 161.277C74.1074 161.023 74.002 160.83 73.791 160.697C73.584 160.564 73.2383 160.447 72.7539 160.346C72.2695 160.244 71.8652 160.115 71.541 159.959C70.8301 159.615 70.4746 159.117 70.4746 158.465C70.4746 157.918 70.7051 157.461 71.166 157.094C71.627 156.727 72.2129 156.543 72.9238 156.543C73.6816 156.543 74.293 156.73 74.7578 157.105C75.2266 157.48 75.4609 157.967 75.4609 158.564H74.0371C74.0371 158.291 73.9355 158.064 73.7324 157.885C73.5293 157.701 73.2598 157.609 72.9238 157.609C72.6113 157.609 72.3555 157.682 72.1562 157.826C71.9609 157.971 71.8633 158.164 71.8633 158.406C71.8633 158.625 71.9551 158.795 72.1387 158.916C72.3223 159.037 72.6934 159.16 73.252 159.285C73.8105 159.406 74.248 159.553 74.5645 159.725C74.8848 159.893 75.1211 160.096 75.2734 160.334C75.4297 160.572 75.5078 160.861 75.5078 161.201C75.5078 161.771 75.2715 162.234 74.7988 162.59C74.3262 162.941 73.707 163.117 72.9414 163.117C72.4219 163.117 71.959 163.023 71.5527 162.836C71.1465 162.648 70.8301 162.391 70.6035 162.062C70.377 161.734 70.2637 161.381 70.2637 161.002H71.6465C71.666 161.338 71.793 161.598 72.0273 161.781C72.2617 161.961 72.5723 162.051 72.959 162.051C73.334 162.051 73.6191 161.98 73.8145 161.84C74.0098 161.695 74.1074 161.508 74.1074 161.277Z" fill="#4967EE"/>
<path d="M78.5371 155.119V156.66H79.6562V157.715H78.5371V161.254C78.5371 161.496 78.584 161.672 78.6777 161.781C78.7754 161.887 78.9473 161.939 79.1934 161.939C79.3574 161.939 79.5234 161.92 79.6914 161.881V162.982C79.3672 163.072 79.0547 163.117 78.7539 163.117C77.6602 163.117 77.1133 162.514 77.1133 161.307V157.715H76.0703V156.66H77.1133V155.119H78.5371Z" fill="#4967EE"/>
<path d="M80.3066 159.771C80.3066 159.15 80.4297 158.592 80.6758 158.096C80.9219 157.596 81.2676 157.213 81.7129 156.947C82.1582 156.678 82.6699 156.543 83.248 156.543C84.1035 156.543 84.7969 156.818 85.3281 157.369C85.8633 157.92 86.1523 158.65 86.1953 159.561L86.2012 159.895C86.2012 160.52 86.0801 161.078 85.8379 161.57C85.5996 162.062 85.2559 162.443 84.8066 162.713C84.3613 162.982 83.8457 163.117 83.2598 163.117C82.3652 163.117 81.6484 162.82 81.1094 162.227C80.5742 161.629 80.3066 160.834 80.3066 159.842V159.771ZM81.7305 159.895C81.7305 160.547 81.8652 161.059 82.1348 161.43C82.4043 161.797 82.7793 161.98 83.2598 161.98C83.7402 161.98 84.1133 161.793 84.3789 161.418C84.6484 161.043 84.7832 160.494 84.7832 159.771C84.7832 159.131 84.6445 158.623 84.3672 158.248C84.0938 157.873 83.7207 157.686 83.248 157.686C82.7832 157.686 82.4141 157.871 82.1406 158.242C81.8672 158.609 81.7305 159.16 81.7305 159.895Z" fill="#4967EE"/>
<path d="M88.7441 156.66L88.7852 157.322C89.2305 156.803 89.8398 156.543 90.6133 156.543C91.4609 156.543 92.041 156.867 92.3535 157.516C92.8145 156.867 93.4629 156.543 94.2988 156.543C94.998 156.543 95.5176 156.736 95.8574 157.123C96.2012 157.51 96.377 158.08 96.3848 158.834V163H94.9609V158.875C94.9609 158.473 94.873 158.178 94.6973 157.99C94.5215 157.803 94.2305 157.709 93.8242 157.709C93.5 157.709 93.2344 157.797 93.0273 157.973C92.8242 158.145 92.6816 158.371 92.5996 158.652L92.6055 163H91.1816V158.828C91.1621 158.082 90.7812 157.709 90.0391 157.709C89.4688 157.709 89.0645 157.941 88.8262 158.406V163H87.4023V156.66H88.7441Z" fill="#4967EE"/>
<path d="M99.3613 163H97.9375V156.66H99.3613V163ZM97.8496 155.014C97.8496 154.795 97.918 154.613 98.0547 154.469C98.1953 154.324 98.3945 154.252 98.6523 154.252C98.9102 154.252 99.1094 154.324 99.25 154.469C99.3906 154.613 99.4609 154.795 99.4609 155.014C99.4609 155.229 99.3906 155.408 99.25 155.553C99.1094 155.693 98.9102 155.764 98.6523 155.764C98.3945 155.764 98.1953 155.693 98.0547 155.553C97.918 155.408 97.8496 155.229 97.8496 155.014Z" fill="#4967EE"/>
<path d="M102.438 161.863H105.812V163H100.668V162.068L103.885 157.809H100.727V156.66H105.689V157.562L102.438 161.863Z" fill="#4967EE"/>
<path d="M109.65 163.117C108.748 163.117 108.016 162.834 107.453 162.268C106.895 161.697 106.615 160.939 106.615 159.994V159.818C106.615 159.186 106.736 158.621 106.979 158.125C107.225 157.625 107.568 157.236 108.01 156.959C108.451 156.682 108.943 156.543 109.486 156.543C110.35 156.543 111.016 156.818 111.484 157.369C111.957 157.92 112.193 158.699 112.193 159.707V160.281H108.051C108.094 160.805 108.268 161.219 108.572 161.523C108.881 161.828 109.268 161.98 109.732 161.98C110.385 161.98 110.916 161.717 111.326 161.189L112.094 161.922C111.84 162.301 111.5 162.596 111.074 162.807C110.652 163.014 110.178 163.117 109.65 163.117ZM109.48 157.686C109.09 157.686 108.773 157.822 108.531 158.096C108.293 158.369 108.141 158.75 108.074 159.238H110.787V159.133C110.756 158.656 110.629 158.297 110.406 158.055C110.184 157.809 109.875 157.686 109.48 157.686Z" fill="#4967EE"/>
<path d="M118.51 160.961L119.799 156.66H121.316L118.797 163.961C118.41 165.027 117.754 165.561 116.828 165.561C116.621 165.561 116.393 165.525 116.143 165.455V164.354L116.412 164.371C116.771 164.371 117.041 164.305 117.221 164.172C117.404 164.043 117.549 163.824 117.654 163.516L117.859 162.971L115.633 156.66H117.168L118.51 160.961Z" fill="#4967EE"/>
<path d="M121.779 159.771C121.779 159.15 121.902 158.592 122.148 158.096C122.395 157.596 122.74 157.213 123.186 156.947C123.631 156.678 124.143 156.543 124.721 156.543C125.576 156.543 126.27 156.818 126.801 157.369C127.336 157.92 127.625 158.65 127.668 159.561L127.674 159.895C127.674 160.52 127.553 161.078 127.311 161.57C127.072 162.062 126.729 162.443 126.279 162.713C125.834 162.982 125.318 163.117 124.732 163.117C123.838 163.117 123.121 162.82 122.582 162.227C122.047 161.629 121.779 160.834 121.779 159.842V159.771ZM123.203 159.895C123.203 160.547 123.338 161.059 123.607 161.43C123.877 161.797 124.252 161.98 124.732 161.98C125.213 161.98 125.586 161.793 125.852 161.418C126.121 161.043 126.256 160.494 126.256 159.771C126.256 159.131 126.117 158.623 125.84 158.248C125.566 157.873 125.193 157.686 124.721 157.686C124.256 157.686 123.887 157.871 123.613 158.242C123.34 158.609 123.203 159.16 123.203 159.895Z" fill="#4967EE"/>
<path d="M132.719 162.379C132.301 162.871 131.707 163.117 130.938 163.117C130.25 163.117 129.729 162.916 129.373 162.514C129.021 162.111 128.846 161.529 128.846 160.768V156.66H130.27V160.75C130.27 161.555 130.604 161.957 131.271 161.957C131.963 161.957 132.43 161.709 132.672 161.213V156.66H134.096V163H132.754L132.719 162.379Z" fill="#4967EE"/>
<path d="M138.865 157.961C138.678 157.93 138.484 157.914 138.285 157.914C137.633 157.914 137.193 158.164 136.967 158.664V163H135.543V156.66H136.902L136.938 157.369C137.281 156.818 137.758 156.543 138.367 156.543C138.57 156.543 138.738 156.57 138.871 156.625L138.865 157.961Z" fill="#4967EE"/>
<path d="M148.305 159.895C148.305 160.875 148.082 161.658 147.637 162.244C147.191 162.826 146.594 163.117 145.844 163.117C145.148 163.117 144.592 162.889 144.174 162.432V165.438H142.75V156.66H144.062L144.121 157.305C144.539 156.797 145.107 156.543 145.826 156.543C146.6 156.543 147.205 156.832 147.643 157.41C148.084 157.984 148.305 158.783 148.305 159.807V159.895ZM146.887 159.771C146.887 159.139 146.76 158.637 146.506 158.266C146.256 157.895 145.896 157.709 145.428 157.709C144.846 157.709 144.428 157.949 144.174 158.43V161.242C144.432 161.734 144.854 161.98 145.439 161.98C145.893 161.98 146.246 161.799 146.5 161.436C146.758 161.068 146.887 160.514 146.887 159.771Z" fill="#4967EE"/>
<path d="M151.029 163H149.605V154H151.029V163Z" fill="#4967EE"/>
<path d="M156.373 163C156.311 162.879 156.256 162.682 156.209 162.408C155.756 162.881 155.201 163.117 154.545 163.117C153.908 163.117 153.389 162.936 152.986 162.572C152.584 162.209 152.383 161.76 152.383 161.225C152.383 160.549 152.633 160.031 153.133 159.672C153.637 159.309 154.355 159.127 155.289 159.127H156.162V158.711C156.162 158.383 156.07 158.121 155.887 157.926C155.703 157.727 155.424 157.627 155.049 157.627C154.725 157.627 154.459 157.709 154.252 157.873C154.045 158.033 153.941 158.238 153.941 158.488H152.518C152.518 158.141 152.633 157.816 152.863 157.516C153.094 157.211 153.406 156.973 153.801 156.801C154.199 156.629 154.643 156.543 155.131 156.543C155.873 156.543 156.465 156.73 156.906 157.105C157.348 157.477 157.574 158 157.586 158.676V161.535C157.586 162.105 157.666 162.561 157.826 162.9V163H156.373ZM154.809 161.975C155.09 161.975 155.354 161.906 155.6 161.77C155.85 161.633 156.037 161.449 156.162 161.219V160.023H155.395C154.867 160.023 154.471 160.115 154.205 160.299C153.939 160.482 153.807 160.742 153.807 161.078C153.807 161.352 153.896 161.57 154.076 161.734C154.26 161.895 154.504 161.975 154.809 161.975Z" fill="#4967EE"/>
<path d="M161.201 160.961L162.49 156.66H164.008L161.488 163.961C161.102 165.027 160.445 165.561 159.52 165.561C159.312 165.561 159.084 165.525 158.834 165.455V164.354L159.104 164.371C159.463 164.371 159.732 164.305 159.912 164.172C160.096 164.043 160.24 163.824 160.346 163.516L160.551 162.971L158.324 156.66H159.859L161.201 160.961Z" fill="#4967EE"/>
<path d="M167.541 163.117C166.639 163.117 165.906 162.834 165.344 162.268C164.785 161.697 164.506 160.939 164.506 159.994V159.818C164.506 159.186 164.627 158.621 164.869 158.125C165.115 157.625 165.459 157.236 165.9 156.959C166.342 156.682 166.834 156.543 167.377 156.543C168.24 156.543 168.906 156.818 169.375 157.369C169.848 157.92 170.084 158.699 170.084 159.707V160.281H165.941C165.984 160.805 166.158 161.219 166.463 161.523C166.771 161.828 167.158 161.98 167.623 161.98C168.275 161.98 168.807 161.717 169.217 161.189L169.984 161.922C169.73 162.301 169.391 162.596 168.965 162.807C168.543 163.014 168.068 163.117 167.541 163.117ZM167.371 157.686C166.98 157.686 166.664 157.822 166.422 158.096C166.184 158.369 166.031 158.75 165.965 159.238H168.678V159.133C168.646 158.656 168.52 158.297 168.297 158.055C168.074 157.809 167.766 157.686 167.371 157.686Z" fill="#4967EE"/>
<path d="M174.514 157.961C174.326 157.93 174.133 157.914 173.934 157.914C173.281 157.914 172.842 158.164 172.615 158.664V163H171.191V156.66H172.551L172.586 157.369C172.93 156.818 173.406 156.543 174.016 156.543C174.219 156.543 174.387 156.57 174.52 156.625L174.514 157.961Z" fill="#4967EE"/>
<defs>
<filter id="filter0_d" x="69.7926" y="66.3317" width="29.494" height="16.5189" filterUnits="userSpaceOnUse" color-interpolation-filters="sRGB">
<feFlood flood-opacity="0" result="BackgroundImageFix"/>
<feColorMatrix in="SourceAlpha" type="matrix" values="0 0 0 0 0 0 0 0 0 0 0 0 0 0 0 0 0 0 127 0" result="hardAlpha"/>
<feOffset dy="0.705769"/>
<feGaussianBlur stdDeviation="0.705769"/>
<feColorMatrix type="matrix" values="0 0 0 0 0 0 0 0 0 0 0 0 0 0 0 0 0 0 0.25 0"/>
<feBlend mode="normal" in2="BackgroundImageFix" result="effect1_dropShadow"/>
<feBlend mode="normal" in="SourceGraphic" in2="effect1_dropShadow" result="shape"/>
</filter>
<filter id="filter1_d" x="104.807" y="82.3072" width="17.8522" height="17.8522" filterUnits="userSpaceOnUse" color-interpolation-filters="sRGB">
<feFlood flood-opacity="0" result="BackgroundImageFix"/>
<feColorMatrix in="SourceAlpha" type="matrix" values="0 0 0 0 0 0 0 0 0 0 0 0 0 0 0 0 0 0 127 0" result="hardAlpha"/>
<feOffset dy="0.408368"/>
<feGaussianBlur stdDeviation="0.408368"/>
<feColorMatrix type="matrix" values="0 0 0 0 0 0 0 0 0 0 0 0 0 0 0 0 0 0 0.25 0"/>
<feBlend mode="normal" in2="BackgroundImageFix" result="effect1_dropShadow"/>
<feBlend mode="normal" in="SourceGraphic" in2="effect1_dropShadow" result="shape"/>
</filter>
</defs>
</svg>
