<?xml version="1.0" encoding="UTF-8" standalone="no"?><!-- Generator: Gravit.io --><svg xmlns="http://www.w3.org/2000/svg" xmlns:xlink="http://www.w3.org/1999/xlink" style="isolation:isolate" viewBox="0 0 113.181 128" width="113.181pt" height="128pt"><g><path d=" M 0.879 123.371 C -0.908 125.017 0.256 128 2.685 128 L 46.516 128 C 59.672 128 71.286 125.318 81.359 119.954 C 91.433 114.469 99.255 106.911 104.825 97.281 C 110.396 87.529 113.181 76.436 113.181 64.002 C 113.181 51.568 110.396 40.537 104.825 30.906 C 104.422 30.2 104.007 29.505 103.579 28.822 L 0.879 123.371 Z " fill-rule="evenodd" fill="rgb(255,255,255)"/><path d=" M 99.224 22.741 L 59.773 59.004 L 0.863 4.626 C -0.92 2.98 0.245 0 2.672 0 L 46.517 0 C 59.672 0 71.286 2.743 81.359 8.228 C 88.421 11.988 94.375 16.825 99.224 22.741 Z " fill-rule="evenodd" fill="rgb(255,255,255)"/></g></svg>