<svg width="383" height="240" viewBox="0 0 383 240" fill="none" xmlns="http://www.w3.org/2000/svg">
<circle cx="162.5" cy="126.5" r="111.5" fill="#EDF0FE"/>
<path d="M232.278 25.1313L232.391 4.90992" stroke="#C8D1E0" stroke-width="3.54707" stroke-linecap="round" stroke-linejoin="round"/>
<path d="M249.71 30.7096L264.081 16.4828" stroke="#C8D1E0" stroke-width="3.54707" stroke-linecap="round" stroke-linejoin="round"/>
<path d="M273.418 49.5364L253.197 49.4233" stroke="#C8D1E0" stroke-width="3.54707" stroke-linecap="round" stroke-linejoin="round"/>
<path d="M36.3617 78.1877L38.5311 80.532L38.7498 80.7684L39.0422 80.6331L41.9419 79.2917L40.383 82.082L40.2258 82.3633L40.4445 82.5997L42.6139 84.944L39.4811 84.3242L39.1652 84.2617L39.008 84.543L37.4491 87.3333L37.0718 84.1599L37.0338 83.8399L36.7179 83.7774L33.585 83.1576L36.4847 81.8162L36.7771 81.681L36.739 81.361L36.3617 78.1877Z" stroke="#4967EE" stroke-width="0.886769" stroke-linecap="round"/>
<path d="M286.168 69.114L286.43 72.2986L286.456 72.6197L286.77 72.694L289.878 73.4303L286.931 74.6622L286.634 74.7864L286.661 75.1075L286.923 78.2921L284.839 75.8688L284.629 75.6245L284.332 75.7487L281.385 76.9805L283.045 74.251L283.212 73.9758L283.002 73.7314L280.919 71.3081L284.028 72.0445L284.341 72.1187L284.508 71.8435L286.168 69.114Z" stroke="#4967EE" stroke-width="0.886769" stroke-linecap="round"/>
<path d="M168.641 2.11109L169.307 5.23615L169.374 5.55125L169.694 5.58488L172.872 5.91843L170.105 7.51628L169.826 7.67739L169.894 7.99248L170.559 11.1175L168.184 8.98001L167.944 8.76448L167.666 8.92559L164.899 10.5234L166.198 7.60452L166.329 7.31021L166.089 7.09468L163.714 4.95714L166.892 5.29069L167.212 5.32432L167.343 5.03001L168.641 2.11109Z" stroke="#4967EE" stroke-width="0.886769" stroke-linecap="round"/>
<path d="M267.861 160.468L270.031 162.812L270.249 163.048L270.542 162.913L273.442 161.572L271.883 164.362L271.725 164.643L271.944 164.88L274.114 167.224L270.981 166.604L270.665 166.542L270.508 166.823L268.949 169.613L268.571 166.44L268.533 166.12L268.218 166.057L265.085 165.438L267.984 164.096L268.277 163.961L268.239 163.641L267.861 160.468Z" stroke="#AFBACC" stroke-width="0.886769" stroke-linecap="round"/>
<path d="M36.4634 176.311L36.0144 179.475L35.9692 179.794L36.2584 179.936L39.127 181.342L35.981 181.891L35.6638 181.947L35.6185 182.266L35.1696 185.43L33.6742 182.605L33.5234 182.32L33.2062 182.375L30.0602 182.924L32.2819 180.63L32.506 180.398L32.3552 180.113L30.8597 177.288L33.7283 178.695L34.0175 178.837L34.2416 178.606L36.4634 176.311Z" stroke="#AFBACC" stroke-width="0.886769" stroke-linecap="round"/>
<circle cx="266.445" cy="85.7953" r="2.34577" stroke="#707A8A" stroke-width="0.886769"/>
<circle cx="56.5616" cy="191.086" r="2.34577" stroke="#707A8A" stroke-width="0.886769"/>
<circle cx="299.218" cy="176.443" r="2.34577" stroke="#707A8A" stroke-width="0.886769"/>
<circle cx="170.917" cy="26.5258" r="2.34577" stroke="#707A8A" stroke-width="0.886769"/>
<circle cx="56.5616" cy="93.4655" r="2.34577" stroke="#AFBACC" stroke-width="0.886769"/>
<circle cx="258.775" cy="200.151" r="2.34577" stroke="#AFBACC" stroke-width="0.886769"/>
<circle cx="191.138" cy="11.1855" r="2.34577" stroke="#AFBACC" stroke-width="0.886769"/>
<circle cx="46.7996" cy="118.568" r="2.34577" stroke="#4967EE" stroke-width="0.886769"/>
<circle cx="23.7891" cy="204.334" r="2.34577" stroke="#4967EE" stroke-width="0.886769"/>
<path fill-rule="evenodd" clip-rule="evenodd" d="M21.8356 104.752C21.6619 104.579 21.3803 104.579 21.2066 104.752C21.033 104.925 21.033 105.206 21.2066 105.379L23.2079 107.373L21.1302 109.444C20.9565 109.617 20.9565 109.897 21.1302 110.071C21.3039 110.244 21.5855 110.244 21.7592 110.071L23.8369 108L25.819 109.975C25.9927 110.148 26.2743 110.148 26.448 109.975C26.6217 109.802 26.6217 109.522 26.448 109.349L24.4658 107.373L26.3715 105.474C26.5452 105.301 26.5452 105.02 26.3715 104.847C26.1979 104.674 25.9163 104.674 25.7426 104.847L23.8369 106.746L21.8356 104.752Z" fill="#707A8A"/>
<path fill-rule="evenodd" clip-rule="evenodd" d="M61.5811 164.719C61.4074 164.546 61.1258 164.546 60.9521 164.719C60.7784 164.892 60.7784 165.172 60.9521 165.346L62.9534 167.34L60.8757 169.411C60.702 169.584 60.702 169.864 60.8757 170.037C61.0493 170.21 61.3309 170.21 61.5046 170.037L63.5823 167.967L65.5645 169.942C65.7382 170.115 66.0198 170.115 66.1934 169.942C66.3671 169.769 66.3671 169.488 66.1934 169.315L64.2113 167.34L66.117 165.441C66.2907 165.268 66.2907 164.987 66.117 164.814C65.9433 164.641 65.6617 164.641 65.488 164.814L63.5823 166.713L61.5811 164.719Z" fill="#AFBACC"/>
<path fill-rule="evenodd" clip-rule="evenodd" d="M50.4244 214.226C50.2508 214.053 49.9692 214.053 49.7955 214.226C49.6218 214.399 49.6218 214.68 49.7955 214.853L51.7968 216.847L49.719 218.918C49.5454 219.091 49.5454 219.372 49.719 219.545C49.8927 219.718 50.1743 219.718 50.348 219.545L52.4257 217.474L54.4079 219.45C54.5815 219.623 54.8631 219.623 55.0368 219.45C55.2105 219.276 55.2105 218.996 55.0368 218.823L53.0547 216.847L54.9604 214.948C55.1341 214.775 55.1341 214.494 54.9604 214.321C54.7867 214.148 54.5051 214.148 54.3314 214.321L52.4257 216.221L50.4244 214.226Z" fill="#AFBACC"/>
<path fill-rule="evenodd" clip-rule="evenodd" d="M278.438 188.427C278.264 188.253 277.982 188.253 277.809 188.427C277.635 188.6 277.635 188.88 277.809 189.053L279.81 191.048L277.732 193.118C277.559 193.291 277.559 193.572 277.732 193.745C277.906 193.918 278.188 193.918 278.361 193.745L280.439 191.675L282.421 193.65C282.595 193.823 282.876 193.823 283.05 193.65C283.224 193.477 283.224 193.196 283.05 193.023L281.068 191.048L282.974 189.149C283.147 188.975 283.147 188.695 282.974 188.522C282.8 188.349 282.518 188.349 282.345 188.522L280.439 190.421L278.438 188.427Z" fill="#4967EE"/>
<path fill-rule="evenodd" clip-rule="evenodd" d="M204.525 17.5909C204.351 17.4178 204.07 17.4178 203.896 17.5909C203.722 17.764 203.722 18.0446 203.896 18.2177L205.897 20.2122L203.82 22.2828C203.646 22.4559 203.646 22.7365 203.82 22.9096C203.993 23.0827 204.275 23.0827 204.449 22.9096L206.526 20.839L208.509 22.8143C208.682 22.9874 208.964 22.9874 209.137 22.8143C209.311 22.6412 209.311 22.3606 209.137 22.1875L207.155 20.2122L209.061 18.313C209.235 18.1399 209.235 17.8592 209.061 17.6861C208.887 17.5131 208.606 17.5131 208.432 17.6861L206.526 19.5853L204.525 17.5909Z" fill="#4967EE"/>
<mask id="mask0" mask-type="alpha" maskUnits="userSpaceOnUse" x="114" y="86" width="113" height="64">
<rect x="114.538" y="86.6727" width="111.566" height="62.7559" fill="#C4C4C4"/>
</mask>
<g mask="url(#mask0)">
<rect x="114.538" y="86.6727" width="112.263" height="62.7559" fill="#DBE1FC"/>
</g>
<rect opacity="0.5" x="114.538" y="142.456" width="111.566" height="6.97288" fill="white"/>
<rect x="114.538" y="142.456" width="111.566" height="1.39458" fill="#4967EE"/>
<mask id="mask1" mask-type="alpha" maskUnits="userSpaceOnUse" x="106" y="95" width="112" height="64">
<rect x="106.171" y="95.7374" width="111.566" height="62.7559" fill="#C4C4C4"/>
</mask>
<g mask="url(#mask1)">
<rect x="106.171" y="95.7374" width="112.263" height="62.7559" fill="#B6C2F8"/>
</g>
<rect opacity="0.5" x="106.171" y="151.52" width="111.566" height="6.97288" fill="#DBE1FC"/>
<rect x="106.171" y="151.52" width="111.566" height="1.39458" fill="#4967EE"/>
<mask id="mask2" mask-type="alpha" maskUnits="userSpaceOnUse" x="97" y="104" width="112" height="63">
<rect x="97.106" y="104.105" width="111.566" height="62.7559" fill="#C4C4C4"/>
</mask>
<g mask="url(#mask2)">
<rect x="97.106" y="104.105" width="112.263" height="62.7559" fill="#707A8A"/>
</g>
<rect opacity="0.5" x="97.1059" y="159.888" width="111.566" height="6.97288" fill="#DBE1FC"/>
<rect x="97.1059" y="159.888" width="111.566" height="1.39458" fill="#4967EE"/>
<circle opacity="0.75" cx="153.935" cy="136.529" r="15.689" fill="#DBE1FC"/>
<g filter="url(#filter0_d)">
<path d="M149.645 131.393V141.664C149.645 142.448 150.486 142.924 151.133 142.497L159.001 137.362C159.6 136.975 159.6 136.083 159.001 135.686L151.133 130.56C150.486 130.134 149.645 130.61 149.645 131.393Z" fill="white"/>
</g>
<path d="M1 59.5378V49.5488H4.4234C5.5531 49.5488 6.41295 49.7752 7.00296 50.228C7.59297 50.6808 7.88797 51.3554 7.88797 52.2519C7.88797 52.7093 7.76448 53.1209 7.5175 53.4868C7.27052 53.8527 6.9092 54.1362 6.43354 54.3375C6.97323 54.4838 7.38944 54.7606 7.68215 55.1676C7.97944 55.5701 8.12809 56.0549 8.12809 56.622C8.12809 57.5596 7.82622 58.28 7.2225 58.7831C6.62334 59.2862 5.76349 59.5378 4.64294 59.5378H1ZM2.73571 55.0304V58.1519H4.66352C5.20779 58.1519 5.63314 58.017 5.93958 57.7472C6.24602 57.4773 6.39923 57.1023 6.39923 56.622C6.39923 55.5838 5.86869 55.0533 4.80759 55.0304H2.73571ZM2.73571 53.7543H4.43712C4.97682 53.7543 5.3976 53.6331 5.69946 53.3907C6.0059 53.1438 6.15912 52.7962 6.15912 52.3479C6.15912 51.854 6.01733 51.4972 5.73376 51.2777C5.45477 51.0582 5.01798 50.9484 4.4234 50.9484H2.73571V53.7543Z" fill="#4967EE"/>
<path d="M14.1997 58.8106C13.7103 59.3868 13.0151 59.675 12.1141 59.675C11.3091 59.675 10.6985 59.4394 10.2823 58.9683C9.87066 58.4973 9.66484 57.8158 9.66484 56.9239V52.1147H11.332V56.9033C11.332 57.8455 11.723 58.3166 12.5051 58.3166C13.3146 58.3166 13.8612 58.0262 14.1448 57.4453V52.1147H15.8119V59.5378H14.2408L14.1997 58.8106Z" fill="#4967EE"/>
<path d="M19.0569 52.1147L19.1049 52.9722C19.6538 52.3091 20.3741 51.9775 21.266 51.9775C22.8119 51.9775 23.5986 52.8625 23.626 54.6325V59.5378H21.9589V54.7285C21.9589 54.2574 21.856 53.9098 21.6502 53.6857C21.4489 53.4571 21.1173 53.3427 20.6554 53.3427C19.9831 53.3427 19.4823 53.6469 19.153 54.2552V59.5378H17.4858V52.1147H19.0569Z" fill="#4967EE"/>
<path d="M25.0187 55.7713C25.0187 54.6279 25.284 53.7109 25.8145 53.0203C26.3451 52.3251 27.0563 51.9775 27.9481 51.9775C28.7348 51.9775 29.3706 52.2519 29.8554 52.8007V49H31.5225V59.5378H30.0132L29.9308 58.7694C29.4323 59.3731 28.7668 59.675 27.9344 59.675C27.0654 59.675 26.3611 59.3251 25.8214 58.6253C25.2863 57.9255 25.0187 56.9742 25.0187 55.7713ZM26.6858 55.9154C26.6858 56.6701 26.8299 57.2601 27.118 57.6854C27.4107 58.1062 27.8247 58.3166 28.3598 58.3166C29.0413 58.3166 29.5398 58.0124 29.8554 57.4041V54.2346C29.5489 53.64 29.055 53.3427 28.3735 53.3427C27.8338 53.3427 27.4176 53.5577 27.1249 53.9876C26.8322 54.413 26.6858 55.0556 26.6858 55.9154Z" fill="#4967EE"/>
<path d="M35.0351 59.5378H33.368V49H35.0351V59.5378Z" fill="#4967EE"/>
<path d="M40.1256 59.675C39.0691 59.675 38.2115 59.3434 37.5529 58.6802C36.8988 58.0124 36.5718 57.1251 36.5718 56.0183V55.8125C36.5718 55.0716 36.7136 54.4107 36.9972 53.8298C37.2853 53.2444 37.6878 52.7893 38.2046 52.4646C38.7215 52.1398 39.2977 51.9775 39.9335 51.9775C40.9443 51.9775 41.7241 52.2999 42.2729 52.9448C42.8263 53.5897 43.103 54.5021 43.103 55.6822V56.3545H38.2527C38.303 56.9674 38.5065 57.4522 38.8632 57.8089C39.2246 58.1657 39.6774 58.344 40.2216 58.344C40.9854 58.344 41.6075 58.0353 42.0877 57.4179L42.9864 58.2754C42.6891 58.7191 42.2912 59.0644 41.7927 59.3114C41.2987 59.5538 40.743 59.675 40.1256 59.675ZM39.9266 53.3153C39.4693 53.3153 39.0988 53.4753 38.8152 53.7955C38.5362 54.1157 38.3578 54.5616 38.2801 55.1333H41.4565V55.0098C41.4199 54.4518 41.2713 54.0311 41.0106 53.7475C40.7499 53.4593 40.3886 53.3153 39.9266 53.3153Z" fill="#4967EE"/>
<path d="M50.4987 57.1503L52.008 52.1147H53.7849L50.8349 60.6629C50.3821 61.9115 49.6137 62.5358 48.5297 62.5358C48.2873 62.5358 48.0198 62.4947 47.727 62.4123V61.1225L48.0426 61.1431C48.4634 61.1431 48.779 61.0654 48.9894 60.9099C49.2043 60.7589 49.3736 60.5028 49.4971 60.1415L49.7372 59.5035L47.1302 52.1147H48.9276L50.4987 57.1503Z" fill="#4967EE"/>
<path d="M54.3269 55.7576C54.3269 55.0304 54.4709 54.3764 54.7591 53.7955C55.0472 53.2101 55.452 52.7619 55.9734 52.4508C56.4948 52.1353 57.0939 51.9775 57.7708 51.9775C58.7725 51.9775 59.5843 52.2999 60.2063 52.9448C60.8329 53.5897 61.1714 54.445 61.2217 55.5106L61.2286 55.9017C61.2286 56.6335 61.0868 57.2875 60.8032 57.8638C60.5242 58.4401 60.1217 58.886 59.5957 59.2016C59.0743 59.5172 58.4706 59.675 57.7846 59.675C56.7372 59.675 55.8979 59.3274 55.2668 58.6322C54.6402 57.9324 54.3269 57.0017 54.3269 55.8399V55.7576ZM55.994 55.9017C55.994 56.6655 56.1518 57.2646 56.4674 57.6991C56.7829 58.1291 57.222 58.344 57.7846 58.344C58.3471 58.344 58.7839 58.1245 59.0949 57.6854C59.4105 57.2464 59.5683 56.6037 59.5683 55.7576C59.5683 55.0075 59.4059 54.413 59.0812 53.9739C58.7611 53.5348 58.3243 53.3153 57.7708 53.3153C57.2266 53.3153 56.7944 53.5325 56.4742 53.967C56.1541 54.3969 55.994 55.0418 55.994 55.9017Z" fill="#4967EE"/>
<path d="M67.1355 58.8106C66.6461 59.3868 65.9509 59.675 65.0499 59.675C64.2449 59.675 63.6343 59.4394 63.2181 58.9683C62.8065 58.4973 62.6007 57.8158 62.6007 56.9239V52.1147H64.2678V56.9033C64.2678 57.8455 64.6588 58.3166 65.4409 58.3166C66.2505 58.3166 66.797 58.0262 67.0806 57.4453V52.1147H68.7477V59.5378H67.1766L67.1355 58.8106Z" fill="#4967EE"/>
<path d="M74.3322 53.6377C74.1126 53.6011 73.8862 53.5828 73.653 53.5828C72.8892 53.5828 72.3746 53.8755 72.1093 54.461V59.5378H70.4422V52.1147H72.0339L72.075 52.9448C72.4775 52.2999 73.0355 51.9775 73.749 51.9775C73.9868 51.9775 74.1835 52.0095 74.339 52.0735L74.3322 53.6377Z" fill="#4967EE"/>
<path d="M80.6576 59.5378H78.9905V49H80.6576V59.5378Z" fill="#4967EE"/>
<path d="M84.2525 59.5378H82.5854V52.1147H84.2525V59.5378ZM82.4825 50.1869C82.4825 49.9307 82.5625 49.7181 82.7226 49.5488C82.8872 49.3796 83.1205 49.295 83.4224 49.295C83.7242 49.295 83.9575 49.3796 84.1221 49.5488C84.2868 49.7181 84.3691 49.9307 84.3691 50.1869C84.3691 50.4384 84.2868 50.6488 84.1221 50.818C83.9575 50.9827 83.7242 51.065 83.4224 51.065C83.1205 51.065 82.8872 50.9827 82.7226 50.818C82.5625 50.6488 82.4825 50.4384 82.4825 50.1869Z" fill="#4967EE"/>
<path d="M88.6912 57.4247L90.2623 52.1147H91.9843L89.4116 59.5378H87.964L85.3707 52.1147H87.0996L88.6912 57.4247Z" fill="#4967EE"/>
<path d="M96.2035 59.675C95.147 59.675 94.2894 59.3434 93.6308 58.6802C92.9768 58.0124 92.6498 57.1251 92.6498 56.0183V55.8125C92.6498 55.0716 92.7915 54.4107 93.0751 53.8298C93.3633 53.2444 93.7657 52.7893 94.2826 52.4646C94.7994 52.1398 95.3757 51.9775 96.0114 51.9775C97.0222 51.9775 97.802 52.2999 98.3509 52.9448C98.9043 53.5897 99.181 54.5021 99.181 55.6822V56.3545H94.3306C94.3809 56.9674 94.5844 57.4522 94.9412 57.8089C95.3025 58.1657 95.7553 58.344 96.2996 58.344C97.0634 58.344 97.6854 58.0353 98.1656 57.4179L99.0644 58.2754C98.7671 58.7191 98.3692 59.0644 97.8706 59.3114C97.3767 59.5538 96.821 59.675 96.2035 59.675ZM96.0046 53.3153C95.5472 53.3153 95.1767 53.4753 94.8932 53.7955C94.6142 54.1157 94.4358 54.5616 94.358 55.1333H97.5345V55.0098C97.4979 54.4518 97.3492 54.0311 97.0885 53.7475C96.8278 53.4593 96.4665 53.3153 96.0046 53.3153Z" fill="#4967EE"/>
<path d="M108.141 57.5208C108.141 57.2235 108.017 56.9971 107.77 56.8416C107.528 56.6861 107.123 56.5489 106.556 56.4299C105.989 56.311 105.516 56.1601 105.136 55.9772C104.304 55.5747 103.887 54.9915 103.887 54.2277C103.887 53.5874 104.157 53.0523 104.697 52.6224C105.237 52.1924 105.923 51.9775 106.755 51.9775C107.642 51.9775 108.358 52.197 108.902 52.6361C109.451 53.0752 109.726 53.6446 109.726 54.3443H108.059C108.059 54.0242 107.94 53.7589 107.702 53.5485C107.464 53.3336 107.148 53.2261 106.755 53.2261C106.389 53.2261 106.09 53.3107 105.856 53.4799C105.628 53.6491 105.513 53.8755 105.513 54.1591C105.513 54.4152 105.621 54.6142 105.836 54.756C106.051 54.8978 106.485 55.0418 107.139 55.1882C107.793 55.33 108.305 55.5015 108.676 55.7027C109.051 55.8994 109.328 56.1372 109.506 56.4162C109.689 56.6952 109.78 57.0337 109.78 57.4316C109.78 58.0993 109.504 58.6413 108.95 59.0575C108.397 59.4692 107.672 59.675 106.776 59.675C106.167 59.675 105.625 59.5652 105.15 59.3457C104.674 59.1261 104.304 58.8243 104.038 58.4401C103.773 58.0559 103.64 57.642 103.64 57.1983H105.259C105.282 57.5917 105.431 57.8958 105.705 58.1108C105.98 58.3212 106.343 58.4264 106.796 58.4264C107.235 58.4264 107.569 58.344 107.798 58.1794C108.026 58.0102 108.141 57.7906 108.141 57.5208Z" fill="#4967EE"/>
<path d="M113.327 50.3104V52.1147H114.638V53.3496H113.327V57.4933C113.327 57.7769 113.382 57.9827 113.492 58.1108C113.606 58.2343 113.808 58.296 114.096 58.296C114.288 58.296 114.482 58.2731 114.679 58.2274V59.5172C114.299 59.6224 113.933 59.675 113.581 59.675C112.301 59.675 111.66 58.9683 111.66 57.5551V53.3496H110.439V52.1147H111.66V50.3104H113.327Z" fill="#4967EE"/>
<path d="M119.804 53.6377C119.584 53.6011 119.358 53.5828 119.125 53.5828C118.361 53.5828 117.846 53.8755 117.581 54.461V59.5378H115.914V52.1147H117.505L117.547 52.9448C117.949 52.2999 118.507 51.9775 119.221 51.9775C119.458 51.9775 119.655 52.0095 119.811 52.0735L119.804 53.6377Z" fill="#4967EE"/>
<path d="M123.989 59.675C122.932 59.675 122.075 59.3434 121.416 58.6802C120.762 58.0124 120.435 57.1251 120.435 56.0183V55.8125C120.435 55.0716 120.577 54.4107 120.86 53.8298C121.148 53.2444 121.551 52.7893 122.068 52.4646C122.585 52.1398 123.161 51.9775 123.797 51.9775C124.807 51.9775 125.587 52.2999 126.136 52.9448C126.689 53.5897 126.966 54.5021 126.966 55.6822V56.3545H122.116C122.166 56.9674 122.37 57.4522 122.726 57.8089C123.088 58.1657 123.54 58.344 124.085 58.344C124.848 58.344 125.471 58.0353 125.951 57.4179L126.849 58.2754C126.552 58.7191 126.154 59.0644 125.656 59.3114C125.162 59.5538 124.606 59.675 123.989 59.675ZM123.79 53.3153C123.332 53.3153 122.962 53.4753 122.678 53.7955C122.399 54.1157 122.221 54.5616 122.143 55.1333H125.32V55.0098C125.283 54.4518 125.134 54.0311 124.874 53.7475C124.613 53.4593 124.252 53.3153 123.79 53.3153Z" fill="#4967EE"/>
<path d="M132.702 59.5378C132.628 59.396 132.564 59.165 132.509 58.8449C131.979 59.3983 131.329 59.675 130.561 59.675C129.816 59.675 129.207 59.4623 128.736 59.0369C128.265 58.6116 128.029 58.0856 128.029 57.459C128.029 56.6678 128.322 56.0618 128.908 55.641C129.498 55.2156 130.339 55.003 131.432 55.003H132.455V54.5159C132.455 54.1317 132.347 53.8252 132.132 53.5966C131.917 53.3633 131.59 53.2467 131.151 53.2467C130.771 53.2467 130.46 53.3427 130.218 53.5348C129.976 53.7223 129.854 53.9624 129.854 54.2552H128.187C128.187 53.8481 128.322 53.4685 128.592 53.1163C128.862 52.7596 129.228 52.4806 129.69 52.2793C130.156 52.0781 130.675 51.9775 131.247 51.9775C132.116 51.9775 132.809 52.197 133.326 52.6361C133.843 53.0706 134.108 53.6835 134.122 54.4747V57.8226C134.122 58.4904 134.215 59.0232 134.403 59.4211V59.5378H132.702ZM130.87 58.3372C131.199 58.3372 131.508 58.2571 131.796 58.0971C132.089 57.937 132.308 57.722 132.455 57.4522V56.0526H131.556C130.938 56.0526 130.474 56.1601 130.163 56.3751C129.852 56.59 129.697 56.8942 129.697 57.2875C129.697 57.6077 129.802 57.8638 130.012 58.0559C130.227 58.2434 130.513 58.3372 130.87 58.3372Z" fill="#4967EE"/>
<path d="M137.435 52.1147L137.483 52.8899C138.005 52.2816 138.718 51.9775 139.624 51.9775C140.616 51.9775 141.295 52.3571 141.661 53.1163C142.201 52.3571 142.96 51.9775 143.939 51.9775C144.758 51.9775 145.366 52.2039 145.764 52.6567C146.166 53.1095 146.372 53.7772 146.381 54.6599V59.5378H144.714V54.708C144.714 54.2369 144.611 53.8916 144.406 53.672C144.2 53.4525 143.859 53.3427 143.383 53.3427C143.004 53.3427 142.693 53.4456 142.45 53.6514C142.212 53.8527 142.046 54.118 141.949 54.4473L141.956 59.5378H140.289V54.6531C140.266 53.7795 139.82 53.3427 138.951 53.3427C138.284 53.3427 137.81 53.6148 137.531 54.1591V59.5378H135.864V52.1147H137.435Z" fill="#4967EE"/>
<path d="M152.254 57.5208C152.254 57.2235 152.131 56.9971 151.884 56.8416C151.641 56.6861 151.236 56.5489 150.669 56.4299C150.102 56.311 149.629 56.1601 149.249 55.9772C148.417 55.5747 148 54.9915 148 54.2277C148 53.5874 148.27 53.0523 148.81 52.6224C149.35 52.1924 150.036 51.9775 150.868 51.9775C151.755 51.9775 152.471 52.197 153.016 52.6361C153.564 53.0752 153.839 53.6446 153.839 54.3443H152.172C152.172 54.0242 152.053 53.7589 151.815 53.5485C151.577 53.3336 151.262 53.2261 150.868 53.2261C150.502 53.2261 150.203 53.3107 149.969 53.4799C149.741 53.6491 149.626 53.8755 149.626 54.1591C149.626 54.4152 149.734 54.6142 149.949 54.756C150.164 54.8978 150.598 55.0418 151.252 55.1882C151.906 55.33 152.419 55.5015 152.789 55.7027C153.164 55.8994 153.441 56.1372 153.619 56.4162C153.802 56.6952 153.894 57.0337 153.894 57.4316C153.894 58.0993 153.617 58.6413 153.064 59.0575C152.51 59.4692 151.785 59.675 150.889 59.675C150.28 59.675 149.738 59.5652 149.263 59.3457C148.787 59.1261 148.417 58.8243 148.151 58.4401C147.886 58.0559 147.754 57.642 147.754 57.1983H149.373C149.395 57.5917 149.544 57.8958 149.819 58.1108C150.093 58.3212 150.457 58.4264 150.909 58.4264C151.348 58.4264 151.682 58.344 151.911 58.1794C152.14 58.0102 152.254 57.7906 152.254 57.5208Z" fill="#4967EE"/>
<path d="M163.286 59.5378C163.213 59.396 163.149 59.165 163.094 58.8449C162.563 59.3983 161.914 59.675 161.145 59.675C160.4 59.675 159.791 59.4623 159.32 59.0369C158.849 58.6116 158.614 58.0856 158.614 57.459C158.614 56.6678 158.906 56.0618 159.492 55.641C160.082 55.2156 160.923 55.003 162.017 55.003H163.039V54.5159C163.039 54.1317 162.931 53.8252 162.716 53.5966C162.501 53.3633 162.174 53.2467 161.735 53.2467C161.356 53.2467 161.045 53.3427 160.802 53.5348C160.56 53.7223 160.439 53.9624 160.439 54.2552H158.771C158.771 53.8481 158.906 53.4685 159.176 53.1163C159.446 52.7596 159.812 52.4806 160.274 52.2793C160.74 52.0781 161.26 51.9775 161.831 51.9775C162.7 51.9775 163.393 52.197 163.91 52.6361C164.427 53.0706 164.692 53.6835 164.706 54.4747V57.8226C164.706 58.4904 164.8 59.0232 164.987 59.4211V59.5378H163.286ZM161.454 58.3372C161.783 58.3372 162.092 58.2571 162.38 58.0971C162.673 57.937 162.892 57.722 163.039 57.4522V56.0526H162.14C161.523 56.0526 161.058 56.1601 160.747 56.3751C160.436 56.59 160.281 56.8942 160.281 57.2875C160.281 57.6077 160.386 57.8638 160.596 58.0559C160.811 58.2434 161.097 58.3372 161.454 58.3372Z" fill="#4967EE"/>
<path d="M167.999 52.1147L168.047 52.9722C168.596 52.3091 169.316 51.9775 170.208 51.9775C171.754 51.9775 172.541 52.8625 172.568 54.6325V59.5378H170.901V54.7285C170.901 54.2574 170.798 53.9098 170.592 53.6857C170.391 53.4571 170.059 53.3427 169.597 53.3427C168.925 53.3427 168.424 53.6469 168.095 54.2552V59.5378H166.428V52.1147H167.999Z" fill="#4967EE"/>
<path d="M173.961 55.7713C173.961 54.6279 174.226 53.7109 174.757 53.0203C175.287 52.3251 175.998 51.9775 176.89 51.9775C177.677 51.9775 178.313 52.2519 178.797 52.8007V49H180.464V59.5378H178.955L178.873 58.7694C178.374 59.3731 177.709 59.675 176.876 59.675C176.007 59.675 175.303 59.3251 174.763 58.6253C174.228 57.9255 173.961 56.9742 173.961 55.7713ZM175.628 55.9154C175.628 56.6701 175.772 57.2601 176.06 57.6854C176.353 58.1062 176.767 58.3166 177.302 58.3166C177.983 58.3166 178.482 58.0124 178.797 57.4041V54.2346C178.491 53.64 177.997 53.3427 177.316 53.3427C176.776 53.3427 176.36 53.5577 176.067 53.9876C175.774 54.413 175.628 55.0556 175.628 55.9154Z" fill="#4967EE"/>
<path d="M188.32 57.4247L189.891 52.1147H191.613L189.04 59.5378H187.593L184.999 52.1147H186.728L188.32 57.4247Z" fill="#4967EE"/>
<path d="M194.433 59.5378H192.765V52.1147H194.433V59.5378ZM192.663 50.1869C192.663 49.9307 192.743 49.7181 192.903 49.5488C193.067 49.3796 193.301 49.295 193.602 49.295C193.904 49.295 194.138 49.3796 194.302 49.5488C194.467 49.7181 194.549 49.9307 194.549 50.1869C194.549 50.4384 194.467 50.6488 194.302 50.818C194.138 50.9827 193.904 51.065 193.602 51.065C193.301 51.065 193.067 50.9827 192.903 50.818C192.743 50.6488 192.663 50.4384 192.663 50.1869Z" fill="#4967EE"/>
<path d="M195.942 55.7713C195.942 54.6279 196.207 53.7109 196.738 53.0203C197.268 52.3251 197.979 51.9775 198.871 51.9775C199.658 51.9775 200.294 52.2519 200.779 52.8007V49H202.446V59.5378H200.936L200.854 58.7694C200.355 59.3731 199.69 59.675 198.858 59.675C197.989 59.675 197.284 59.3251 196.745 58.6253C196.209 57.9255 195.942 56.9742 195.942 55.7713ZM197.609 55.9154C197.609 56.6701 197.753 57.2601 198.041 57.6854C198.334 58.1062 198.748 58.3166 199.283 58.3166C199.964 58.3166 200.463 58.0124 200.779 57.4041V54.2346C200.472 53.64 199.978 53.3427 199.297 53.3427C198.757 53.3427 198.341 53.5577 198.048 53.9876C197.755 54.413 197.609 55.0556 197.609 55.9154Z" fill="#4967EE"/>
<path d="M207.454 59.675C206.397 59.675 205.54 59.3434 204.881 58.6802C204.227 58.0124 203.9 57.1251 203.9 56.0183V55.8125C203.9 55.0716 204.042 54.4107 204.325 53.8298C204.614 53.2444 205.016 52.7893 205.533 52.4646C206.05 52.1398 206.626 51.9775 207.262 51.9775C208.272 51.9775 209.052 52.2999 209.601 52.9448C210.155 53.5897 210.431 54.5021 210.431 55.6822V56.3545H205.581C205.631 56.9674 205.835 57.4522 206.191 57.8089C206.553 58.1657 207.006 58.344 207.55 58.344C208.314 58.344 208.936 58.0353 209.416 57.4179L210.315 58.2754C210.017 58.7191 209.619 59.0644 209.121 59.3114C208.627 59.5538 208.071 59.675 207.454 59.675ZM207.255 53.3153C206.797 53.3153 206.427 53.4753 206.143 53.7955C205.864 54.1157 205.686 54.5616 205.608 55.1333H208.785V55.0098C208.748 54.4518 208.6 54.0311 208.339 53.7475C208.078 53.4593 207.717 53.3153 207.255 53.3153Z" fill="#4967EE"/>
<path d="M211.419 55.7576C211.419 55.0304 211.563 54.3764 211.851 53.7955C212.14 53.2101 212.544 52.7619 213.066 52.4508C213.587 52.1353 214.186 51.9775 214.863 51.9775C215.865 51.9775 216.677 52.2999 217.299 52.9448C217.925 53.5897 218.264 54.445 218.314 55.5106L218.321 55.9017C218.321 56.6335 218.179 57.2875 217.896 57.8638C217.617 58.4401 217.214 58.886 216.688 59.2016C216.167 59.5172 215.563 59.675 214.877 59.675C213.83 59.675 212.99 59.3274 212.359 58.6322C211.732 57.9324 211.419 57.0017 211.419 55.8399V55.7576ZM213.086 55.9017C213.086 56.6655 213.244 57.2646 213.56 57.6991C213.875 58.1291 214.314 58.344 214.877 58.344C215.439 58.344 215.876 58.1245 216.187 57.6854C216.503 57.2464 216.661 56.6037 216.661 55.7576C216.661 55.0075 216.498 54.413 216.174 53.9739C215.853 53.5348 215.417 53.3153 214.863 53.3153C214.319 53.3153 213.887 53.5325 213.567 53.967C213.246 54.3969 213.086 55.0418 213.086 55.9017Z" fill="#4967EE"/>
<path d="M223.892 57.5208C223.892 57.2235 223.768 56.9971 223.521 56.8416C223.279 56.6861 222.874 56.5489 222.307 56.4299C221.74 56.311 221.266 56.1601 220.887 55.9772C220.054 55.5747 219.638 54.9915 219.638 54.2277C219.638 53.5874 219.908 53.0523 220.448 52.6224C220.987 52.1924 221.673 51.9775 222.506 51.9775C223.393 51.9775 224.109 52.197 224.653 52.6361C225.202 53.0752 225.476 53.6446 225.476 54.3443H223.809C223.809 54.0242 223.69 53.7589 223.453 53.5485C223.215 53.3336 222.899 53.2261 222.506 53.2261C222.14 53.2261 221.84 53.3107 221.607 53.4799C221.378 53.6491 221.264 53.8755 221.264 54.1591C221.264 54.4152 221.372 54.6142 221.586 54.756C221.801 54.8978 222.236 55.0418 222.89 55.1882C223.544 55.33 224.056 55.5015 224.427 55.7027C224.802 55.8994 225.078 56.1372 225.257 56.4162C225.44 56.6952 225.531 57.0337 225.531 57.4316C225.531 58.0993 225.255 58.6413 224.701 59.0575C224.148 59.4692 223.423 59.675 222.526 59.675C221.918 59.675 221.376 59.5652 220.9 59.3457C220.425 59.1261 220.054 58.8243 219.789 58.4401C219.524 58.0559 219.391 57.642 219.391 57.1983H221.01C221.033 57.5917 221.182 57.8958 221.456 58.1108C221.731 58.3212 222.094 58.4264 222.547 58.4264C222.986 58.4264 223.32 58.344 223.549 58.1794C223.777 58.0102 223.892 57.7906 223.892 57.5208Z" fill="#4967EE"/>
<path d="M252.288 128.509C252.288 129.488 252.118 130.348 251.78 131.089C251.441 131.825 250.957 132.392 250.325 132.79C249.699 133.183 248.976 133.38 248.157 133.38C247.348 133.38 246.625 133.183 245.99 132.79C245.358 132.392 244.869 131.827 244.521 131.095C244.178 130.364 244.005 129.52 244 128.564V128.001C244 127.027 244.172 126.167 244.515 125.422C244.862 124.676 245.349 124.107 245.976 123.713C246.607 123.316 247.33 123.117 248.144 123.117C248.958 123.117 249.678 123.313 250.305 123.707C250.936 124.095 251.423 124.658 251.766 125.394C252.109 126.126 252.283 126.979 252.288 127.953V128.509ZM250.552 127.988C250.552 126.881 250.341 126.032 249.921 125.442C249.504 124.852 248.912 124.557 248.144 124.557C247.394 124.557 246.806 124.852 246.381 125.442C245.96 126.028 245.745 126.858 245.736 127.933V128.509C245.736 129.607 245.948 130.455 246.374 131.054C246.804 131.653 247.398 131.953 248.157 131.953C248.926 131.953 249.516 131.66 249.927 131.075C250.344 130.489 250.552 129.634 250.552 128.509V127.988Z" fill="#4967EE"/>
<path d="M257.742 127.343C257.522 127.306 257.296 127.288 257.062 127.288C256.299 127.288 255.784 127.581 255.519 128.166V133.243H253.852V125.82H255.443L255.485 126.65C255.887 126.005 256.445 125.682 257.158 125.682C257.396 125.682 257.593 125.714 257.748 125.779L257.742 127.343Z" fill="#4967EE"/>
<path d="M258.366 129.476C258.366 128.324 258.636 127.404 259.175 126.718C259.72 126.028 260.44 125.682 261.337 125.682C262.183 125.682 262.848 125.977 263.333 126.567L263.408 125.82H264.911V133.016C264.911 133.991 264.607 134.759 263.998 135.322C263.395 135.884 262.578 136.165 261.549 136.165C261.005 136.165 260.472 136.051 259.951 135.822C259.434 135.598 259.041 135.303 258.771 134.937L259.56 133.936C260.072 134.544 260.703 134.848 261.453 134.848C262.007 134.848 262.443 134.697 262.764 134.395C263.084 134.098 263.244 133.659 263.244 133.078V132.577C262.764 133.112 262.123 133.38 261.323 133.38C260.454 133.38 259.743 133.035 259.189 132.344C258.64 131.653 258.366 130.698 258.366 129.476ZM260.026 129.62C260.026 130.366 260.177 130.954 260.479 131.384C260.785 131.809 261.208 132.022 261.748 132.022C262.421 132.022 262.919 131.733 263.244 131.157V127.892C262.928 127.329 262.434 127.048 261.762 127.048C261.213 127.048 260.785 127.265 260.479 127.699C260.177 128.134 260.026 128.774 260.026 129.62Z" fill="#4967EE"/>
<path d="M271.065 133.243C270.992 133.101 270.928 132.87 270.873 132.55C270.342 133.103 269.693 133.38 268.924 133.38C268.179 133.38 267.57 133.167 267.099 132.742C266.628 132.317 266.393 131.791 266.393 131.164C266.393 130.373 266.685 129.767 267.271 129.346C267.861 128.921 268.702 128.708 269.796 128.708H270.818V128.221C270.818 127.837 270.71 127.53 270.495 127.302C270.28 127.068 269.953 126.952 269.514 126.952C269.135 126.952 268.824 127.048 268.581 127.24C268.339 127.427 268.218 127.667 268.218 127.96H266.551C266.551 127.553 266.685 127.173 266.955 126.821C267.225 126.465 267.591 126.186 268.053 125.984C268.52 125.783 269.039 125.682 269.61 125.682C270.479 125.682 271.172 125.902 271.689 126.341C272.206 126.776 272.471 127.388 272.485 128.18V131.528C272.485 132.195 272.579 132.728 272.766 133.126V133.243H271.065ZM269.233 132.042C269.562 132.042 269.871 131.962 270.159 131.802C270.452 131.642 270.671 131.427 270.818 131.157V129.758H269.919C269.302 129.758 268.837 129.865 268.526 130.08C268.215 130.295 268.06 130.599 268.06 130.993C268.06 131.313 268.165 131.569 268.375 131.761C268.59 131.948 268.876 132.042 269.233 132.042Z" fill="#4967EE"/>
<path d="M275.778 125.82L275.826 126.677C276.375 126.014 277.095 125.682 277.987 125.682C279.533 125.682 280.32 126.567 280.347 128.337V133.243H278.68V128.434C278.68 127.962 278.577 127.615 278.371 127.391C278.17 127.162 277.838 127.048 277.376 127.048C276.704 127.048 276.203 127.352 275.874 127.96V133.243H274.207V125.82H275.778Z" fill="#4967EE"/>
<path d="M283.825 133.243H282.158V125.82H283.825V133.243ZM282.055 123.892C282.055 123.636 282.135 123.423 282.295 123.254C282.46 123.085 282.693 123 282.995 123C283.297 123 283.53 123.085 283.695 123.254C283.86 123.423 283.942 123.636 283.942 123.892C283.942 124.143 283.86 124.354 283.695 124.523C283.53 124.688 283.297 124.77 282.995 124.77C282.693 124.77 282.46 124.688 282.295 124.523C282.135 124.354 282.055 124.143 282.055 123.892Z" fill="#4967EE"/>
<path d="M287.427 131.912H291.379V133.243H285.355V132.152L289.122 127.164H285.424V125.82H291.235V126.876L287.427 131.912Z" fill="#4967EE"/>
<path d="M295.872 133.38C294.816 133.38 293.958 133.048 293.3 132.385C292.646 131.717 292.319 130.83 292.319 129.723V129.517C292.319 128.777 292.46 128.116 292.744 127.535C293.032 126.949 293.435 126.494 293.951 126.17C294.468 125.845 295.045 125.682 295.68 125.682C296.691 125.682 297.471 126.005 298.02 126.65C298.573 127.295 298.85 128.207 298.85 129.387V130.059H294C294.05 130.672 294.253 131.157 294.61 131.514C294.971 131.871 295.424 132.049 295.968 132.049C296.732 132.049 297.354 131.74 297.835 131.123L298.733 131.98C298.436 132.424 298.038 132.769 297.54 133.016C297.046 133.259 296.49 133.38 295.872 133.38ZM295.673 127.02C295.216 127.02 294.846 127.18 294.562 127.501C294.283 127.821 294.105 128.267 294.027 128.838H297.203V128.715C297.167 128.157 297.018 127.736 296.757 127.452C296.497 127.164 296.135 127.02 295.673 127.02Z" fill="#4967EE"/>
<path d="M306.246 130.855L307.755 125.82H309.532L306.582 134.368C306.129 135.617 305.361 136.241 304.277 136.241C304.034 136.241 303.767 136.2 303.474 136.117V134.828L303.789 134.848C304.21 134.848 304.526 134.77 304.736 134.615C304.951 134.464 305.12 134.208 305.244 133.846L305.484 133.208L302.877 125.82H304.674L306.246 130.855Z" fill="#4967EE"/>
<path d="M310.074 129.463C310.074 128.735 310.218 128.081 310.506 127.501C310.794 126.915 311.199 126.467 311.72 126.156C312.242 125.84 312.841 125.682 313.518 125.682C314.519 125.682 315.331 126.005 315.953 126.65C316.58 127.295 316.918 128.15 316.969 129.216L316.975 129.607C316.975 130.338 316.834 130.993 316.55 131.569C316.271 132.145 315.869 132.591 315.343 132.907C314.821 133.222 314.217 133.38 313.531 133.38C312.484 133.38 311.645 133.032 311.014 132.337C310.387 131.637 310.074 130.707 310.074 129.545V129.463ZM311.741 129.607C311.741 130.37 311.899 130.97 312.214 131.404C312.53 131.834 312.969 132.049 313.531 132.049C314.094 132.049 314.531 131.829 314.842 131.39C315.157 130.951 315.315 130.309 315.315 129.463C315.315 128.713 315.153 128.118 314.828 127.679C314.508 127.24 314.071 127.02 313.518 127.02C312.973 127.02 312.541 127.238 312.221 127.672C311.901 128.102 311.741 128.747 311.741 129.607Z" fill="#4967EE"/>
<path d="M322.882 132.516C322.393 133.092 321.698 133.38 320.797 133.38C319.992 133.38 319.381 133.144 318.965 132.673C318.553 132.202 318.348 131.521 318.348 130.629V125.82H320.015V130.608C320.015 131.55 320.406 132.022 321.188 132.022C321.997 132.022 322.544 131.731 322.827 131.15V125.82H324.495V133.243H322.923L322.882 132.516Z" fill="#4967EE"/>
<path d="M330.079 127.343C329.859 127.306 329.633 127.288 329.4 127.288C328.636 127.288 328.121 127.581 327.856 128.166V133.243H326.189V125.82H327.781L327.822 126.65C328.224 126.005 328.782 125.682 329.496 125.682C329.734 125.682 329.93 125.714 330.086 125.779L330.079 127.343Z" fill="#4967EE"/>
<path d="M337.68 132.049C338.097 132.049 338.442 131.928 338.716 131.685C338.991 131.443 339.137 131.143 339.155 130.787H340.727C340.708 131.249 340.564 131.681 340.294 132.083C340.024 132.481 339.659 132.797 339.197 133.03C338.735 133.263 338.236 133.38 337.701 133.38C336.663 133.38 335.84 133.044 335.231 132.371C334.623 131.699 334.319 130.771 334.319 129.586V129.415C334.319 128.285 334.621 127.382 335.224 126.705C335.828 126.023 336.651 125.682 337.694 125.682C338.577 125.682 339.295 125.941 339.848 126.458C340.406 126.97 340.699 127.645 340.727 128.482H339.155C339.137 128.056 338.991 127.706 338.716 127.432C338.447 127.157 338.101 127.02 337.68 127.02C337.141 127.02 336.725 127.217 336.432 127.61C336.139 127.999 335.99 128.591 335.986 129.387V129.655C335.986 130.46 336.13 131.061 336.418 131.459C336.711 131.852 337.132 132.049 337.68 132.049Z" fill="#4967EE"/>
<path d="M341.673 129.463C341.673 128.735 341.817 128.081 342.106 127.501C342.394 126.915 342.798 126.467 343.32 126.156C343.841 125.84 344.44 125.682 345.117 125.682C346.119 125.682 346.931 126.005 347.553 126.65C348.179 127.295 348.518 128.15 348.568 129.216L348.575 129.607C348.575 130.338 348.433 130.993 348.15 131.569C347.871 132.145 347.468 132.591 346.942 132.907C346.421 133.222 345.817 133.38 345.131 133.38C344.084 133.38 343.244 133.032 342.613 132.337C341.987 131.637 341.673 130.707 341.673 129.545V129.463ZM343.34 129.607C343.34 130.37 343.498 130.97 343.814 131.404C344.129 131.834 344.568 132.049 345.131 132.049C345.694 132.049 346.13 131.829 346.441 131.39C346.757 130.951 346.915 130.309 346.915 129.463C346.915 128.713 346.752 128.118 346.428 127.679C346.107 127.24 345.671 127.02 345.117 127.02C344.573 127.02 344.141 127.238 343.821 127.672C343.5 128.102 343.34 128.747 343.34 129.607Z" fill="#4967EE"/>
<path d="M351.532 125.82L351.58 126.677C352.129 126.014 352.849 125.682 353.741 125.682C355.287 125.682 356.074 126.567 356.101 128.337V133.243H354.434V128.434C354.434 127.962 354.331 127.615 354.125 127.391C353.924 127.162 353.592 127.048 353.13 127.048C352.458 127.048 351.957 127.352 351.628 127.96V133.243H349.961V125.82H351.532Z" fill="#4967EE"/>
<path d="M359.895 124.015V125.82H361.205V127.055H359.895V131.198C359.895 131.482 359.95 131.688 360.06 131.816C360.174 131.939 360.375 132.001 360.663 132.001C360.855 132.001 361.05 131.978 361.246 131.932V133.222C360.867 133.327 360.501 133.38 360.149 133.38C358.868 133.38 358.228 132.673 358.228 131.26V127.055H357.007V125.82H358.228V124.015H359.895Z" fill="#4967EE"/>
<path d="M365.754 133.38C364.697 133.38 363.84 133.048 363.181 132.385C362.527 131.717 362.2 130.83 362.2 129.723V129.517C362.2 128.777 362.342 128.116 362.625 127.535C362.913 126.949 363.316 126.494 363.833 126.17C364.35 125.845 364.926 125.682 365.562 125.682C366.572 125.682 367.352 126.005 367.901 126.65C368.455 127.295 368.731 128.207 368.731 129.387V130.059H363.881C363.931 130.672 364.135 131.157 364.491 131.514C364.853 131.871 365.306 132.049 365.85 132.049C366.614 132.049 367.236 131.74 367.716 131.123L368.615 131.98C368.317 132.424 367.919 132.769 367.421 133.016C366.927 133.259 366.371 133.38 365.754 133.38ZM365.555 127.02C365.097 127.02 364.727 127.18 364.443 127.501C364.164 127.821 363.986 128.267 363.908 128.838H367.085V128.715C367.048 128.157 366.899 127.736 366.639 127.452C366.378 127.164 366.017 127.02 365.555 127.02Z" fill="#4967EE"/>
<path d="M371.578 125.82L371.626 126.677C372.175 126.014 372.896 125.682 373.787 125.682C375.333 125.682 376.12 126.567 376.147 128.337V133.243H374.48V128.434C374.48 127.962 374.377 127.615 374.172 127.391C373.97 127.162 373.639 127.048 373.177 127.048C372.505 127.048 372.004 127.352 371.674 127.96V133.243H370.007V125.82H371.578Z" fill="#4967EE"/>
<path d="M379.941 124.015V125.82H381.252V127.055H379.941V131.198C379.941 131.482 379.996 131.688 380.106 131.816C380.22 131.939 380.422 132.001 380.71 132.001C380.902 132.001 381.096 131.978 381.293 131.932V133.222C380.913 133.327 380.547 133.38 380.195 133.38C378.915 133.38 378.274 132.673 378.274 131.26V127.055H377.053V125.82H378.274V124.015H379.941Z" fill="#4967EE"/>
<path d="M158.606 218.76C158.506 219.822 158.114 220.651 157.431 221.248C156.747 221.84 155.838 222.137 154.703 222.137C153.91 222.137 153.211 221.95 152.604 221.576C152.003 221.198 151.538 220.662 151.21 219.97C150.882 219.277 150.711 218.473 150.697 217.557V216.627C150.697 215.688 150.864 214.861 151.196 214.146C151.529 213.43 152.005 212.879 152.625 212.491C153.249 212.104 153.969 211.91 154.785 211.91C155.883 211.91 156.768 212.209 157.438 212.806C158.107 213.403 158.497 214.246 158.606 215.335H156.884C156.802 214.619 156.592 214.104 156.255 213.79C155.922 213.471 155.432 213.312 154.785 213.312C154.033 213.312 153.454 213.587 153.049 214.139C152.648 214.686 152.443 215.49 152.434 216.552V217.434C152.434 218.509 152.625 219.329 153.008 219.895C153.395 220.46 153.96 220.742 154.703 220.742C155.382 220.742 155.893 220.59 156.234 220.284C156.576 219.979 156.793 219.471 156.884 218.76H158.606Z" fill="#4967EE"/>
<path d="M164.479 221.275C163.991 221.85 163.298 222.137 162.4 222.137C161.598 222.137 160.99 221.902 160.575 221.433C160.165 220.963 159.96 220.284 159.96 219.396V214.604H161.621V219.375C161.621 220.314 162.011 220.783 162.79 220.783C163.597 220.783 164.141 220.494 164.424 219.915V214.604H166.085V222H164.52L164.479 221.275Z" fill="#4967EE"/>
<path d="M171.923 219.99C171.923 219.694 171.8 219.468 171.554 219.313C171.312 219.159 170.909 219.022 170.344 218.903C169.779 218.785 169.307 218.634 168.929 218.452C168.099 218.051 167.685 217.47 167.685 216.709C167.685 216.071 167.953 215.538 168.491 215.109C169.029 214.681 169.713 214.467 170.542 214.467C171.426 214.467 172.139 214.686 172.682 215.123C173.229 215.561 173.502 216.128 173.502 216.825H171.841C171.841 216.506 171.722 216.242 171.485 216.032C171.248 215.818 170.934 215.711 170.542 215.711C170.177 215.711 169.879 215.795 169.646 215.964C169.419 216.132 169.305 216.358 169.305 216.641C169.305 216.896 169.412 217.094 169.626 217.235C169.84 217.377 170.273 217.52 170.925 217.666C171.576 217.807 172.087 217.978 172.456 218.179C172.83 218.375 173.105 218.612 173.283 218.89C173.465 219.168 173.557 219.505 173.557 219.901C173.557 220.567 173.281 221.107 172.729 221.521C172.178 221.932 171.456 222.137 170.562 222.137C169.956 222.137 169.416 222.027 168.942 221.809C168.468 221.59 168.099 221.289 167.835 220.906C167.571 220.523 167.438 220.111 167.438 219.669H169.052C169.075 220.061 169.223 220.364 169.496 220.578C169.77 220.788 170.132 220.893 170.583 220.893C171.021 220.893 171.353 220.811 171.581 220.646C171.809 220.478 171.923 220.259 171.923 219.99Z" fill="#4967EE"/>
<path d="M177.091 212.806V214.604H178.396V215.834H177.091V219.963C177.091 220.245 177.146 220.451 177.255 220.578C177.369 220.701 177.569 220.763 177.856 220.763C178.048 220.763 178.242 220.74 178.438 220.694V221.979C178.059 222.084 177.695 222.137 177.344 222.137C176.068 222.137 175.43 221.433 175.43 220.024V215.834H174.213V214.604H175.43V212.806H177.091Z" fill="#4967EE"/>
<path d="M179.155 218.233C179.155 217.509 179.299 216.857 179.586 216.278C179.873 215.695 180.276 215.248 180.796 214.938C181.315 214.624 181.912 214.467 182.587 214.467C183.585 214.467 184.394 214.788 185.014 215.431C185.638 216.073 185.975 216.925 186.025 217.987L186.032 218.377C186.032 219.106 185.891 219.758 185.608 220.332C185.33 220.906 184.929 221.351 184.405 221.665C183.886 221.979 183.284 222.137 182.601 222.137C181.557 222.137 180.721 221.79 180.092 221.098C179.467 220.4 179.155 219.473 179.155 218.315V218.233ZM180.816 218.377C180.816 219.138 180.974 219.735 181.288 220.168C181.603 220.596 182.04 220.811 182.601 220.811C183.161 220.811 183.596 220.592 183.906 220.154C184.221 219.717 184.378 219.076 184.378 218.233C184.378 217.486 184.216 216.894 183.893 216.456C183.574 216.019 183.138 215.8 182.587 215.8C182.045 215.8 181.614 216.016 181.295 216.449C180.976 216.878 180.816 217.52 180.816 218.377Z" fill="#4967EE"/>
<path d="M188.999 214.604L189.047 215.376C189.566 214.77 190.277 214.467 191.18 214.467C192.169 214.467 192.845 214.845 193.21 215.602C193.748 214.845 194.504 214.467 195.479 214.467C196.295 214.467 196.901 214.692 197.298 215.144C197.699 215.595 197.904 216.26 197.913 217.14V222H196.252V217.188C196.252 216.718 196.149 216.374 195.944 216.155C195.739 215.937 195.4 215.827 194.926 215.827C194.548 215.827 194.238 215.93 193.996 216.135C193.759 216.335 193.593 216.6 193.497 216.928L193.504 222H191.843V217.133C191.82 216.262 191.376 215.827 190.51 215.827C189.844 215.827 189.373 216.098 189.095 216.641V222H187.434V214.604H188.999Z" fill="#4967EE"/>
<path d="M201.386 222H199.725V214.604H201.386V222ZM199.622 212.683C199.622 212.427 199.702 212.215 199.861 212.047C200.025 211.878 200.258 211.794 200.559 211.794C200.859 211.794 201.092 211.878 201.256 212.047C201.42 212.215 201.502 212.427 201.502 212.683C201.502 212.933 201.42 213.143 201.256 213.312C201.092 213.476 200.859 213.558 200.559 213.558C200.258 213.558 200.025 213.476 199.861 213.312C199.702 213.143 199.622 212.933 199.622 212.683Z" fill="#4967EE"/>
<path d="M204.975 220.674H208.912V222H202.91V220.913L206.663 215.943H202.979V214.604H208.769V215.656L204.975 220.674Z" fill="#4967EE"/>
<path d="M213.39 222.137C212.337 222.137 211.482 221.806 210.826 221.146C210.174 220.48 209.849 219.596 209.849 218.493V218.288C209.849 217.55 209.99 216.891 210.272 216.312C210.56 215.729 210.961 215.276 211.476 214.952C211.991 214.629 212.565 214.467 213.198 214.467C214.205 214.467 214.982 214.788 215.529 215.431C216.081 216.073 216.356 216.982 216.356 218.158V218.828H211.523C211.574 219.439 211.776 219.922 212.132 220.277C212.492 220.633 212.943 220.811 213.485 220.811C214.246 220.811 214.866 220.503 215.345 219.888L216.24 220.742C215.944 221.184 215.548 221.528 215.051 221.774C214.559 222.016 214.005 222.137 213.39 222.137ZM213.191 215.8C212.736 215.8 212.367 215.959 212.084 216.278C211.806 216.597 211.628 217.042 211.551 217.611H214.716V217.488C214.679 216.932 214.531 216.513 214.271 216.23C214.012 215.943 213.652 215.8 213.191 215.8Z" fill="#4967EE"/>
<path d="M223.726 219.621L225.229 214.604H227L224.061 223.121C223.609 224.365 222.844 224.987 221.764 224.987C221.522 224.987 221.256 224.946 220.964 224.864V223.579L221.278 223.6C221.698 223.6 222.012 223.522 222.222 223.367C222.436 223.217 222.604 222.962 222.728 222.602L222.967 221.966L220.369 214.604H222.16L223.726 219.621Z" fill="#4967EE"/>
<path d="M227.54 218.233C227.54 217.509 227.684 216.857 227.971 216.278C228.258 215.695 228.661 215.248 229.181 214.938C229.7 214.624 230.297 214.467 230.972 214.467C231.97 214.467 232.779 214.788 233.398 215.431C234.023 216.073 234.36 216.925 234.41 217.987L234.417 218.377C234.417 219.106 234.276 219.758 233.993 220.332C233.715 220.906 233.314 221.351 232.79 221.665C232.271 221.979 231.669 222.137 230.985 222.137C229.942 222.137 229.105 221.79 228.477 221.098C227.852 220.4 227.54 219.473 227.54 218.315V218.233ZM229.201 218.377C229.201 219.138 229.358 219.735 229.673 220.168C229.987 220.596 230.425 220.811 230.985 220.811C231.546 220.811 231.981 220.592 232.291 220.154C232.605 219.717 232.763 219.076 232.763 218.233C232.763 217.486 232.601 216.894 232.277 216.456C231.958 216.019 231.523 215.8 230.972 215.8C230.429 215.8 229.999 216.016 229.68 216.449C229.361 216.878 229.201 217.52 229.201 218.377Z" fill="#4967EE"/>
<path d="M240.303 221.275C239.815 221.85 239.122 222.137 238.225 222.137C237.423 222.137 236.814 221.902 236.399 221.433C235.989 220.963 235.784 220.284 235.784 219.396V214.604H237.445V219.375C237.445 220.314 237.835 220.783 238.614 220.783C239.421 220.783 239.965 220.494 240.248 219.915V214.604H241.909V222H240.344L240.303 221.275Z" fill="#4967EE"/>
<path d="M247.474 216.121C247.255 216.085 247.029 216.066 246.797 216.066C246.036 216.066 245.523 216.358 245.259 216.941V222H243.598V214.604H245.184L245.225 215.431C245.626 214.788 246.182 214.467 246.893 214.467C247.13 214.467 247.326 214.499 247.48 214.562L247.474 216.121Z" fill="#4967EE"/>
<path d="M258.486 218.377C258.486 219.521 258.227 220.435 257.707 221.118C257.188 221.797 256.49 222.137 255.615 222.137C254.804 222.137 254.155 221.87 253.667 221.337V224.844H252.006V214.604H253.537L253.605 215.355C254.093 214.763 254.756 214.467 255.595 214.467C256.497 214.467 257.203 214.804 257.714 215.479C258.229 216.148 258.486 217.08 258.486 218.274V218.377ZM256.832 218.233C256.832 217.495 256.684 216.91 256.388 216.477C256.096 216.044 255.677 215.827 255.13 215.827C254.451 215.827 253.963 216.107 253.667 216.668V219.949C253.968 220.523 254.46 220.811 255.144 220.811C255.672 220.811 256.085 220.599 256.381 220.175C256.682 219.746 256.832 219.099 256.832 218.233Z" fill="#4967EE"/>
<path d="M261.665 222H260.004V211.5H261.665V222Z" fill="#4967EE"/>
<path d="M267.899 222C267.826 221.859 267.763 221.629 267.708 221.31C267.179 221.861 266.532 222.137 265.767 222.137C265.024 222.137 264.418 221.925 263.948 221.501C263.479 221.077 263.244 220.553 263.244 219.929C263.244 219.14 263.536 218.536 264.119 218.117C264.707 217.693 265.546 217.481 266.635 217.481H267.653V216.996C267.653 216.613 267.546 216.308 267.332 216.08C267.118 215.848 266.792 215.731 266.354 215.731C265.976 215.731 265.666 215.827 265.425 216.019C265.183 216.205 265.062 216.445 265.062 216.736H263.401C263.401 216.331 263.536 215.952 263.805 215.602C264.074 215.246 264.438 214.968 264.898 214.768C265.363 214.567 265.881 214.467 266.45 214.467C267.316 214.467 268.007 214.686 268.521 215.123C269.036 215.556 269.301 216.167 269.314 216.955V220.291C269.314 220.956 269.408 221.487 269.595 221.884V222H267.899ZM266.074 220.804C266.402 220.804 266.71 220.724 266.997 220.564C267.289 220.405 267.507 220.191 267.653 219.922V218.527H266.758C266.143 218.527 265.68 218.634 265.37 218.849C265.06 219.063 264.905 219.366 264.905 219.758C264.905 220.077 265.01 220.332 265.22 220.523C265.434 220.71 265.719 220.804 266.074 220.804Z" fill="#4967EE"/>
<path d="M273.532 219.621L275.036 214.604H276.807L273.867 223.121C273.416 224.365 272.65 224.987 271.57 224.987C271.329 224.987 271.062 224.946 270.771 224.864V223.579L271.085 223.6C271.504 223.6 271.819 223.522 272.028 223.367C272.243 223.217 272.411 222.962 272.534 222.602L272.773 221.966L270.176 214.604H271.967L273.532 219.621Z" fill="#4967EE"/>
<path d="M280.929 222.137C279.876 222.137 279.021 221.806 278.365 221.146C277.714 220.48 277.388 219.596 277.388 218.493V218.288C277.388 217.55 277.529 216.891 277.812 216.312C278.099 215.729 278.5 215.276 279.015 214.952C279.53 214.629 280.104 214.467 280.737 214.467C281.744 214.467 282.521 214.788 283.068 215.431C283.62 216.073 283.896 216.982 283.896 218.158V218.828H279.062C279.113 219.439 279.315 219.922 279.671 220.277C280.031 220.633 280.482 220.811 281.024 220.811C281.785 220.811 282.405 220.503 282.884 219.888L283.779 220.742C283.483 221.184 283.087 221.528 282.59 221.774C282.098 222.016 281.544 222.137 280.929 222.137ZM280.73 215.8C280.275 215.8 279.906 215.959 279.623 216.278C279.345 216.597 279.167 217.042 279.09 217.611H282.255V217.488C282.218 216.932 282.07 216.513 281.811 216.23C281.551 215.943 281.191 215.8 280.73 215.8Z" fill="#4967EE"/>
<path d="M289.063 216.121C288.845 216.085 288.619 216.066 288.387 216.066C287.626 216.066 287.113 216.358 286.849 216.941V222H285.188V214.604H286.773L286.814 215.431C287.215 214.788 287.771 214.467 288.482 214.467C288.719 214.467 288.915 214.499 289.07 214.562L289.063 216.121Z" fill="#4967EE"/>
<defs>
<filter id="filter0_d" x="143.148" y="126.233" width="21.573" height="21.573" filterUnits="userSpaceOnUse" color-interpolation-filters="sRGB">
<feFlood flood-opacity="0" result="BackgroundImageFix"/>
<feColorMatrix in="SourceAlpha" type="matrix" values="0 0 0 0 0 0 0 0 0 0 0 0 0 0 0 0 0 0 127 0" result="hardAlpha"/>
<feOffset dy="0.490435"/>
<feGaussianBlur stdDeviation="0.490435"/>
<feColorMatrix type="matrix" values="0 0 0 0 0 0 0 0 0 0 0 0 0 0 0 0 0 0 0.25 0"/>
<feBlend mode="normal" in2="BackgroundImageFix" result="effect1_dropShadow"/>
<feBlend mode="normal" in="SourceGraphic" in2="effect1_dropShadow" result="shape"/>
</filter>
</defs>
</svg>
