<svg width="334" height="205" viewBox="0 0 334 205" fill="none" xmlns="http://www.w3.org/2000/svg">
<circle cx="138.285" cy="108.285" r="95.2854" fill="#EDF0FE"/>
<path d="M198.447 21.4392L198.543 4.16874" stroke="#C8D1E0" stroke-width="3.02945" stroke-linecap="round" stroke-linejoin="round"/>
<path d="M213.335 26.2035L225.608 14.0528" stroke="#C8D1E0" stroke-width="3.02945" stroke-linecap="round" stroke-linejoin="round"/>
<path d="M233.583 42.2829L216.313 42.1863" stroke="#C8D1E0" stroke-width="3.02945" stroke-linecap="round" stroke-linejoin="round"/>
<path d="M31.12 66.7531L32.9728 68.7553L33.1596 68.9572L33.4093 68.8417L35.8859 67.6961L34.5545 70.0791L34.4202 70.3194L34.607 70.5213L36.4599 72.5235L33.7842 71.9941L33.5144 71.9407L33.3802 72.181L32.0488 74.5641L31.7265 71.8538L31.694 71.5806L31.4242 71.5272L28.7485 70.9978L31.225 69.8522L31.4747 69.7366L31.4423 69.4634L31.12 66.7531Z" stroke="#4967EE" stroke-width="0.757363" stroke-linecap="round"/>
<path d="M244.472 59.0036L244.696 61.7235L244.718 61.9977L244.986 62.0611L247.641 62.69L245.124 63.7421L244.871 63.8482L244.893 64.1224L245.117 66.8423L243.338 64.7727L243.158 64.564L242.904 64.6701L240.387 65.7221L241.805 63.3909L241.948 63.1559L241.768 62.9472L239.989 60.8775L242.644 61.5064L242.912 61.5698L243.055 61.3348L244.472 59.0036Z" stroke="#4967EE" stroke-width="0.757363" stroke-linecap="round"/>
<path d="M144.096 1.77834L144.664 4.44737L144.722 4.71648L144.995 4.7452L147.709 5.03008L145.347 6.39475L145.108 6.53235L145.166 6.80147L145.734 9.47049L143.706 7.64488L143.501 7.46081L143.263 7.5984L140.9 8.96308L142.009 6.47012L142.121 6.21875L141.916 6.03468L139.888 4.20907L142.602 4.49394L142.875 4.52267L142.987 4.2713L144.096 1.77834Z" stroke="#4967EE" stroke-width="0.757363" stroke-linecap="round"/>
<path d="M228.837 137.026L230.69 139.028L230.877 139.23L231.126 139.115L233.603 137.969L232.272 140.352L232.137 140.592L232.324 140.794L234.177 142.796L231.501 142.267L231.232 142.214L231.097 142.454L229.766 144.837L229.444 142.127L229.411 141.854L229.141 141.8L226.466 141.271L228.942 140.125L229.192 140.01L229.159 139.736L228.837 137.026Z" stroke="#AFBACC" stroke-width="0.757363" stroke-linecap="round"/>
<path d="M31.2068 150.557L30.8234 153.26L30.7848 153.532L31.0318 153.653L33.4818 154.855L30.7948 155.323L30.5239 155.371L30.4853 155.643L30.1019 158.345L28.8247 155.933L28.6959 155.69L28.425 155.737L25.738 156.206L27.6356 154.246L27.8269 154.048L27.6982 153.805L26.4209 151.392L28.8709 152.594L29.1179 152.715L29.3093 152.517L31.2068 150.557Z" stroke="#AFBACC" stroke-width="0.757363" stroke-linecap="round"/>
<circle cx="227.628" cy="73.2506" r="2.00345" stroke="#707A8A" stroke-width="0.757363"/>
<circle cx="48.3722" cy="163.176" r="2.00345" stroke="#707A8A" stroke-width="0.757363"/>
<circle cx="255.618" cy="150.67" r="2.00345" stroke="#707A8A" stroke-width="0.757363"/>
<circle cx="146.04" cy="22.6303" r="2.00345" stroke="#707A8A" stroke-width="0.757363"/>
<circle cx="48.3722" cy="79.8015" r="2.00345" stroke="#AFBACC" stroke-width="0.757363"/>
<circle cx="221.077" cy="170.918" r="2.00345" stroke="#AFBACC" stroke-width="0.757363"/>
<circle cx="163.31" cy="9.52853" r="2.00345" stroke="#AFBACC" stroke-width="0.757363"/>
<circle cx="40.0347" cy="101.241" r="2.00345" stroke="#4967EE" stroke-width="0.757363"/>
<circle cx="20.3821" cy="174.491" r="2.00345" stroke="#4967EE" stroke-width="0.757363"/>
<path fill-rule="evenodd" clip-rule="evenodd" d="M18.7137 89.4409C18.5654 89.2931 18.3249 89.2931 18.1765 89.4409C18.0282 89.5887 18.0282 89.8284 18.1765 89.9762L19.8858 91.6796L18.1113 93.4481C17.9629 93.5959 17.9629 93.8356 18.1113 93.9834C18.2596 94.1312 18.5001 94.1312 18.6484 93.9834L20.4229 92.215L22.1158 93.9021C22.2642 94.0499 22.5047 94.0499 22.653 93.9021C22.8014 93.7542 22.8014 93.5146 22.653 93.3667L20.9601 91.6796L22.5877 90.0576C22.7361 89.9097 22.7361 89.6701 22.5877 89.5222C22.4394 89.3744 22.1989 89.3744 22.0506 89.5222L20.4229 91.1443L18.7137 89.4409Z" fill="#707A8A"/>
<path fill-rule="evenodd" clip-rule="evenodd" d="M52.6591 140.657C52.5108 140.509 52.2703 140.509 52.1219 140.657C51.9736 140.805 51.9736 141.044 52.1219 141.192L53.8312 142.896L52.0567 144.664C51.9083 144.812 51.9083 145.051 52.0567 145.199C52.205 145.347 52.4455 145.347 52.5938 145.199L54.3684 143.431L56.0612 145.118C56.2096 145.266 56.4501 145.266 56.5984 145.118C56.7468 144.97 56.7468 144.73 56.5984 144.583L54.9055 142.896L56.5331 141.273C56.6815 141.126 56.6815 140.886 56.5331 140.738C56.3848 140.59 56.1443 140.59 55.996 140.738L54.3684 142.36L52.6591 140.657Z" fill="#AFBACC"/>
<path fill-rule="evenodd" clip-rule="evenodd" d="M43.1306 182.94C42.9822 182.792 42.7417 182.792 42.5934 182.94C42.4451 183.087 42.4451 183.327 42.5934 183.475L44.3026 185.178L42.5281 186.947C42.3798 187.095 42.3798 187.334 42.5281 187.482C42.6765 187.63 42.917 187.63 43.0653 187.482L44.8398 185.714L46.5327 187.401C46.681 187.549 46.9216 187.549 47.0699 187.401C47.2182 187.253 47.2182 187.013 47.0699 186.865L45.377 185.178L47.0046 183.556C47.1529 183.409 47.1529 183.169 47.0046 183.021C46.8563 182.873 46.6158 182.873 46.4674 183.021L44.8398 184.643L43.1306 182.94Z" fill="#AFBACC"/>
<path fill-rule="evenodd" clip-rule="evenodd" d="M237.87 160.905C237.722 160.757 237.481 160.757 237.333 160.905C237.185 161.053 237.185 161.292 237.333 161.44L239.042 163.144L237.268 164.912C237.119 165.06 237.119 165.3 237.268 165.447C237.416 165.595 237.656 165.595 237.805 165.447L239.579 163.679L241.272 165.366C241.421 165.514 241.661 165.514 241.809 165.366C241.958 165.218 241.958 164.979 241.809 164.831L240.116 163.144L241.744 161.522C241.892 161.374 241.892 161.134 241.744 160.986C241.596 160.838 241.355 160.838 241.207 160.986L239.579 162.608L237.87 160.905Z" fill="#4967EE"/>
<path fill-rule="evenodd" clip-rule="evenodd" d="M174.743 14.9992C174.595 14.8514 174.355 14.8514 174.206 14.9992C174.058 15.147 174.058 15.3867 174.206 15.5346L175.916 17.2379L174.141 19.0064C173.993 19.1542 173.993 19.3939 174.141 19.5417C174.289 19.6896 174.53 19.6896 174.678 19.5417L176.453 17.7733L178.146 19.4604C178.294 19.6082 178.534 19.6082 178.683 19.4604C178.831 19.3126 178.831 19.0729 178.683 18.925L176.99 17.2379L178.618 15.6159C178.766 15.4681 178.766 15.2284 178.618 15.0806C178.469 14.9327 178.229 14.9327 178.08 15.0806L176.453 16.7026L174.743 14.9992Z" fill="#4967EE"/>
<mask id="mask0" mask-type="alpha" maskUnits="userSpaceOnUse" x="97" y="74" width="97" height="54">
<rect x="97.8883" y="74" width="95.2854" height="53.598" fill="#C4C4C4"/>
</mask>
<g mask="url(#mask0)">
<rect x="97.8883" y="74" width="95.8809" height="53.598" fill="#DBE1FC"/>
</g>
<rect opacity="0.5" x="97.8883" y="121.643" width="95.2854" height="5.95534" fill="white"/>
<rect x="97.8883" y="121.643" width="95.2854" height="1.19107" fill="#4967EE"/>
<mask id="mask1" mask-type="alpha" maskUnits="userSpaceOnUse" x="90" y="81" width="97" height="55">
<rect x="90.7419" y="81.7419" width="95.2854" height="53.598" fill="#C4C4C4"/>
</mask>
<g mask="url(#mask1)">
<rect x="90.7419" y="81.7419" width="95.8809" height="53.598" fill="#B6C2F8"/>
</g>
<rect opacity="0.5" x="90.7419" y="129.385" width="95.2854" height="5.95534" fill="#DBE1FC"/>
<rect x="90.7419" y="129.385" width="95.2854" height="1.19107" fill="#4967EE"/>
<mask id="mask2" mask-type="alpha" maskUnits="userSpaceOnUse" x="83" y="88" width="96" height="55">
<rect x="83" y="88.8883" width="95.2854" height="53.598" fill="#C4C4C4"/>
</mask>
<g mask="url(#mask2)">
<rect x="83" y="88.8883" width="95.8809" height="53.598" fill="#707A8A"/>
</g>
<rect opacity="0.5" x="82.9999" y="136.531" width="95.2854" height="5.95534" fill="#DBE1FC"/>
<rect x="82.9999" y="136.531" width="95.2854" height="1.19107" fill="#4967EE"/>
<circle opacity="0.75" cx="131.536" cy="116.581" r="13.3995" fill="#DBE1FC"/>
<g filter="url(#filter0_d)">
<path d="M127.872 112.194V120.967C127.872 121.636 128.59 122.042 129.143 121.678L135.863 117.292C136.375 116.962 136.375 116.2 135.863 115.861L129.143 111.483C128.59 111.119 127.872 111.525 127.872 112.194Z" fill="white"/>
</g>
<path d="M72.8672 194V185.469H75.791C76.7559 185.469 77.4902 185.662 77.9941 186.049C78.498 186.436 78.75 187.012 78.75 187.777C78.75 188.168 78.6445 188.52 78.4336 188.832C78.2227 189.145 77.9141 189.387 77.5078 189.559C77.9688 189.684 78.3242 189.92 78.5742 190.268C78.8281 190.611 78.9551 191.025 78.9551 191.51C78.9551 192.311 78.6973 192.926 78.1816 193.355C77.6699 193.785 76.9355 194 75.9785 194H72.8672ZM74.3496 190.15V192.816H75.9961C76.4609 192.816 76.8242 192.701 77.0859 192.471C77.3477 192.24 77.4785 191.92 77.4785 191.51C77.4785 190.623 77.0254 190.17 76.1191 190.15H74.3496ZM74.3496 189.061H75.8027C76.2637 189.061 76.623 188.957 76.8809 188.75C77.1426 188.539 77.2734 188.242 77.2734 187.859C77.2734 187.438 77.1523 187.133 76.9102 186.945C76.6719 186.758 76.2988 186.664 75.791 186.664H74.3496V189.061Z" fill="#4967EE"/>
<path d="M84.1406 193.379C83.7227 193.871 83.1289 194.117 82.3594 194.117C81.6719 194.117 81.1504 193.916 80.7949 193.514C80.4434 193.111 80.2676 192.529 80.2676 191.768V187.66H81.6914V191.75C81.6914 192.555 82.0254 192.957 82.6934 192.957C83.3848 192.957 83.8516 192.709 84.0938 192.213V187.66H85.5176V194H84.1758L84.1406 193.379Z" fill="#4967EE"/>
<path d="M88.2891 187.66L88.3301 188.393C88.7988 187.826 89.4141 187.543 90.1758 187.543C91.4961 187.543 92.168 188.299 92.1914 189.811V194H90.7676V189.893C90.7676 189.49 90.6797 189.193 90.5039 189.002C90.332 188.807 90.0488 188.709 89.6543 188.709C89.0801 188.709 88.6523 188.969 88.3711 189.488V194H86.9473V187.66H88.2891Z" fill="#4967EE"/>
<path d="M93.3809 190.783C93.3809 189.807 93.6074 189.023 94.0605 188.434C94.5137 187.84 95.1211 187.543 95.8828 187.543C96.5547 187.543 97.0977 187.777 97.5117 188.246V185H98.9355V194H97.6465L97.5762 193.344C97.1504 193.859 96.582 194.117 95.8711 194.117C95.1289 194.117 94.5273 193.818 94.0664 193.221C93.6094 192.623 93.3809 191.811 93.3809 190.783ZM94.8047 190.906C94.8047 191.551 94.9277 192.055 95.1738 192.418C95.4238 192.777 95.7773 192.957 96.2344 192.957C96.8164 192.957 97.2422 192.697 97.5117 192.178V189.471C97.25 188.963 96.8281 188.709 96.2461 188.709C95.7852 188.709 95.4297 188.893 95.1797 189.26C94.9297 189.623 94.8047 190.172 94.8047 190.906Z" fill="#4967EE"/>
<path d="M101.936 194H100.512V185H101.936V194Z" fill="#4967EE"/>
<path d="M106.283 194.117C105.381 194.117 104.648 193.834 104.086 193.268C103.527 192.697 103.248 191.939 103.248 190.994V190.818C103.248 190.186 103.369 189.621 103.611 189.125C103.857 188.625 104.201 188.236 104.643 187.959C105.084 187.682 105.576 187.543 106.119 187.543C106.982 187.543 107.648 187.818 108.117 188.369C108.59 188.92 108.826 189.699 108.826 190.707V191.281H104.684C104.727 191.805 104.9 192.219 105.205 192.523C105.514 192.828 105.9 192.98 106.365 192.98C107.018 192.98 107.549 192.717 107.959 192.189L108.727 192.922C108.473 193.301 108.133 193.596 107.707 193.807C107.285 194.014 106.811 194.117 106.283 194.117ZM106.113 188.686C105.723 188.686 105.406 188.822 105.164 189.096C104.926 189.369 104.773 189.75 104.707 190.238H107.42V190.133C107.389 189.656 107.262 189.297 107.039 189.055C106.816 188.809 106.508 188.686 106.113 188.686Z" fill="#4967EE"/>
<path d="M115.143 191.961L116.432 187.66H117.949L115.43 194.961C115.043 196.027 114.387 196.561 113.461 196.561C113.254 196.561 113.025 196.525 112.775 196.455V195.354L113.045 195.371C113.404 195.371 113.674 195.305 113.854 195.172C114.037 195.043 114.182 194.824 114.287 194.516L114.492 193.971L112.266 187.66H113.801L115.143 191.961Z" fill="#4967EE"/>
<path d="M118.412 190.771C118.412 190.15 118.535 189.592 118.781 189.096C119.027 188.596 119.373 188.213 119.818 187.947C120.264 187.678 120.775 187.543 121.354 187.543C122.209 187.543 122.902 187.818 123.434 188.369C123.969 188.92 124.258 189.65 124.301 190.561L124.307 190.895C124.307 191.52 124.186 192.078 123.943 192.57C123.705 193.062 123.361 193.443 122.912 193.713C122.467 193.982 121.951 194.117 121.365 194.117C120.471 194.117 119.754 193.82 119.215 193.227C118.68 192.629 118.412 191.834 118.412 190.842V190.771ZM119.836 190.895C119.836 191.547 119.971 192.059 120.24 192.43C120.51 192.797 120.885 192.98 121.365 192.98C121.846 192.98 122.219 192.793 122.484 192.418C122.754 192.043 122.889 191.494 122.889 190.771C122.889 190.131 122.75 189.623 122.473 189.248C122.199 188.873 121.826 188.686 121.354 188.686C120.889 188.686 120.52 188.871 120.246 189.242C119.973 189.609 119.836 190.16 119.836 190.895Z" fill="#4967EE"/>
<path d="M129.352 193.379C128.934 193.871 128.34 194.117 127.57 194.117C126.883 194.117 126.361 193.916 126.006 193.514C125.654 193.111 125.479 192.529 125.479 191.768V187.66H126.902V191.75C126.902 192.555 127.236 192.957 127.904 192.957C128.596 192.957 129.062 192.709 129.305 192.213V187.66H130.729V194H129.387L129.352 193.379Z" fill="#4967EE"/>
<path d="M135.498 188.961C135.311 188.93 135.117 188.914 134.918 188.914C134.266 188.914 133.826 189.164 133.6 189.664V194H132.176V187.66H133.535L133.57 188.369C133.914 187.818 134.391 187.543 135 187.543C135.203 187.543 135.371 187.57 135.504 187.625L135.498 188.961Z" fill="#4967EE"/>
<path d="M140.9 194H139.477V185H140.9V194Z" fill="#4967EE"/>
<path d="M143.971 194H142.547V187.66H143.971V194ZM142.459 186.014C142.459 185.795 142.527 185.613 142.664 185.469C142.805 185.324 143.004 185.252 143.262 185.252C143.52 185.252 143.719 185.324 143.859 185.469C144 185.613 144.07 185.795 144.07 186.014C144.07 186.229 144 186.408 143.859 186.553C143.719 186.693 143.52 186.764 143.262 186.764C143.004 186.764 142.805 186.693 142.664 186.553C142.527 186.408 142.459 186.229 142.459 186.014Z" fill="#4967EE"/>
<path d="M147.762 192.195L149.104 187.66H150.574L148.377 194H147.141L144.926 187.66H146.402L147.762 192.195Z" fill="#4967EE"/>
<path d="M154.178 194.117C153.275 194.117 152.543 193.834 151.98 193.268C151.422 192.697 151.143 191.939 151.143 190.994V190.818C151.143 190.186 151.264 189.621 151.506 189.125C151.752 188.625 152.096 188.236 152.537 187.959C152.979 187.682 153.471 187.543 154.014 187.543C154.877 187.543 155.543 187.818 156.012 188.369C156.484 188.92 156.721 189.699 156.721 190.707V191.281H152.578C152.621 191.805 152.795 192.219 153.1 192.523C153.408 192.828 153.795 192.98 154.26 192.98C154.912 192.98 155.443 192.717 155.854 192.189L156.621 192.922C156.367 193.301 156.027 193.596 155.602 193.807C155.18 194.014 154.705 194.117 154.178 194.117ZM154.008 188.686C153.617 188.686 153.301 188.822 153.059 189.096C152.82 189.369 152.668 189.75 152.602 190.238H155.314V190.133C155.283 189.656 155.156 189.297 154.934 189.055C154.711 188.809 154.402 188.686 154.008 188.686Z" fill="#4967EE"/>
<path d="M164.373 192.277C164.373 192.023 164.268 191.83 164.057 191.697C163.85 191.564 163.504 191.447 163.02 191.346C162.535 191.244 162.131 191.115 161.807 190.959C161.096 190.615 160.74 190.117 160.74 189.465C160.74 188.918 160.971 188.461 161.432 188.094C161.893 187.727 162.479 187.543 163.189 187.543C163.947 187.543 164.559 187.73 165.023 188.105C165.492 188.48 165.727 188.967 165.727 189.564H164.303C164.303 189.291 164.201 189.064 163.998 188.885C163.795 188.701 163.525 188.609 163.189 188.609C162.877 188.609 162.621 188.682 162.422 188.826C162.227 188.971 162.129 189.164 162.129 189.406C162.129 189.625 162.221 189.795 162.404 189.916C162.588 190.037 162.959 190.16 163.518 190.285C164.076 190.406 164.514 190.553 164.83 190.725C165.15 190.893 165.387 191.096 165.539 191.334C165.695 191.572 165.773 191.861 165.773 192.201C165.773 192.771 165.537 193.234 165.064 193.59C164.592 193.941 163.973 194.117 163.207 194.117C162.688 194.117 162.225 194.023 161.818 193.836C161.412 193.648 161.096 193.391 160.869 193.062C160.643 192.734 160.529 192.381 160.529 192.002H161.912C161.932 192.338 162.059 192.598 162.293 192.781C162.527 192.961 162.838 193.051 163.225 193.051C163.6 193.051 163.885 192.98 164.08 192.84C164.275 192.695 164.373 192.508 164.373 192.277Z" fill="#4967EE"/>
<path d="M168.803 186.119V187.66H169.922V188.715H168.803V192.254C168.803 192.496 168.85 192.672 168.943 192.781C169.041 192.887 169.213 192.939 169.459 192.939C169.623 192.939 169.789 192.92 169.957 192.881V193.982C169.633 194.072 169.32 194.117 169.02 194.117C167.926 194.117 167.379 193.514 167.379 192.307V188.715H166.336V187.66H167.379V186.119H168.803Z" fill="#4967EE"/>
<path d="M174.334 188.961C174.146 188.93 173.953 188.914 173.754 188.914C173.102 188.914 172.662 189.164 172.436 189.664V194H171.012V187.66H172.371L172.406 188.369C172.75 187.818 173.227 187.543 173.836 187.543C174.039 187.543 174.207 187.57 174.34 187.625L174.334 188.961Z" fill="#4967EE"/>
<path d="M177.908 194.117C177.006 194.117 176.273 193.834 175.711 193.268C175.152 192.697 174.873 191.939 174.873 190.994V190.818C174.873 190.186 174.994 189.621 175.236 189.125C175.482 188.625 175.826 188.236 176.268 187.959C176.709 187.682 177.201 187.543 177.744 187.543C178.607 187.543 179.273 187.818 179.742 188.369C180.215 188.92 180.451 189.699 180.451 190.707V191.281H176.309C176.352 191.805 176.525 192.219 176.83 192.523C177.139 192.828 177.525 192.98 177.99 192.98C178.643 192.98 179.174 192.717 179.584 192.189L180.352 192.922C180.098 193.301 179.758 193.596 179.332 193.807C178.91 194.014 178.436 194.117 177.908 194.117ZM177.738 188.686C177.348 188.686 177.031 188.822 176.789 189.096C176.551 189.369 176.398 189.75 176.332 190.238H179.045V190.133C179.014 189.656 178.887 189.297 178.664 189.055C178.441 188.809 178.133 188.686 177.738 188.686Z" fill="#4967EE"/>
<path d="M185.35 194C185.287 193.879 185.232 193.682 185.186 193.408C184.732 193.881 184.178 194.117 183.521 194.117C182.885 194.117 182.365 193.936 181.963 193.572C181.561 193.209 181.359 192.76 181.359 192.225C181.359 191.549 181.609 191.031 182.109 190.672C182.613 190.309 183.332 190.127 184.266 190.127H185.139V189.711C185.139 189.383 185.047 189.121 184.863 188.926C184.68 188.727 184.4 188.627 184.025 188.627C183.701 188.627 183.436 188.709 183.229 188.873C183.021 189.033 182.918 189.238 182.918 189.488H181.494C181.494 189.141 181.609 188.816 181.84 188.516C182.07 188.211 182.383 187.973 182.777 187.801C183.176 187.629 183.619 187.543 184.107 187.543C184.85 187.543 185.441 187.73 185.883 188.105C186.324 188.477 186.551 189 186.562 189.676V192.535C186.562 193.105 186.643 193.561 186.803 193.9V194H185.35ZM183.785 192.975C184.066 192.975 184.33 192.906 184.576 192.77C184.826 192.633 185.014 192.449 185.139 192.219V191.023H184.371C183.844 191.023 183.447 191.115 183.182 191.299C182.916 191.482 182.783 191.742 182.783 192.078C182.783 192.352 182.873 192.57 183.053 192.734C183.236 192.895 183.48 192.975 183.785 192.975Z" fill="#4967EE"/>
<path d="M189.393 187.66L189.434 188.322C189.879 187.803 190.488 187.543 191.262 187.543C192.109 187.543 192.689 187.867 193.002 188.516C193.463 187.867 194.111 187.543 194.947 187.543C195.646 187.543 196.166 187.736 196.506 188.123C196.85 188.51 197.025 189.08 197.033 189.834V194H195.609V189.875C195.609 189.473 195.521 189.178 195.346 188.99C195.17 188.803 194.879 188.709 194.473 188.709C194.148 188.709 193.883 188.797 193.676 188.973C193.473 189.145 193.33 189.371 193.248 189.652L193.254 194H191.83V189.828C191.811 189.082 191.43 188.709 190.688 188.709C190.117 188.709 189.713 188.941 189.475 189.406V194H188.051V187.66H189.393Z" fill="#4967EE"/>
<path d="M202.049 192.277C202.049 192.023 201.943 191.83 201.732 191.697C201.525 191.564 201.18 191.447 200.695 191.346C200.211 191.244 199.807 191.115 199.482 190.959C198.771 190.615 198.416 190.117 198.416 189.465C198.416 188.918 198.646 188.461 199.107 188.094C199.568 187.727 200.154 187.543 200.865 187.543C201.623 187.543 202.234 187.73 202.699 188.105C203.168 188.48 203.402 188.967 203.402 189.564H201.979C201.979 189.291 201.877 189.064 201.674 188.885C201.471 188.701 201.201 188.609 200.865 188.609C200.553 188.609 200.297 188.682 200.098 188.826C199.902 188.971 199.805 189.164 199.805 189.406C199.805 189.625 199.896 189.795 200.08 189.916C200.264 190.037 200.635 190.16 201.193 190.285C201.752 190.406 202.189 190.553 202.506 190.725C202.826 190.893 203.062 191.096 203.215 191.334C203.371 191.572 203.449 191.861 203.449 192.201C203.449 192.771 203.213 193.234 202.74 193.59C202.268 193.941 201.648 194.117 200.883 194.117C200.363 194.117 199.9 194.023 199.494 193.836C199.088 193.648 198.771 193.391 198.545 193.062C198.318 192.734 198.205 192.381 198.205 192.002H199.588C199.607 192.338 199.734 192.598 199.969 192.781C200.203 192.961 200.514 193.051 200.9 193.051C201.275 193.051 201.561 192.98 201.756 192.84C201.951 192.695 202.049 192.508 202.049 192.277Z" fill="#4967EE"/>
<path d="M211.471 194C211.408 193.879 211.354 193.682 211.307 193.408C210.854 193.881 210.299 194.117 209.643 194.117C209.006 194.117 208.486 193.936 208.084 193.572C207.682 193.209 207.48 192.76 207.48 192.225C207.48 191.549 207.73 191.031 208.23 190.672C208.734 190.309 209.453 190.127 210.387 190.127H211.26V189.711C211.26 189.383 211.168 189.121 210.984 188.926C210.801 188.727 210.521 188.627 210.146 188.627C209.822 188.627 209.557 188.709 209.35 188.873C209.143 189.033 209.039 189.238 209.039 189.488H207.615C207.615 189.141 207.73 188.816 207.961 188.516C208.191 188.211 208.504 187.973 208.898 187.801C209.297 187.629 209.74 187.543 210.229 187.543C210.971 187.543 211.562 187.73 212.004 188.105C212.445 188.477 212.672 189 212.684 189.676V192.535C212.684 193.105 212.764 193.561 212.924 193.9V194H211.471ZM209.906 192.975C210.188 192.975 210.451 192.906 210.697 192.77C210.947 192.633 211.135 192.449 211.26 192.219V191.023H210.492C209.965 191.023 209.568 191.115 209.303 191.299C209.037 191.482 208.904 191.742 208.904 192.078C208.904 192.352 208.994 192.57 209.174 192.734C209.357 192.895 209.602 192.975 209.906 192.975Z" fill="#4967EE"/>
<path d="M215.496 187.66L215.537 188.393C216.006 187.826 216.621 187.543 217.383 187.543C218.703 187.543 219.375 188.299 219.398 189.811V194H217.975V189.893C217.975 189.49 217.887 189.193 217.711 189.002C217.539 188.807 217.256 188.709 216.861 188.709C216.287 188.709 215.859 188.969 215.578 189.488V194H214.154V187.66H215.496Z" fill="#4967EE"/>
<path d="M220.588 190.783C220.588 189.807 220.814 189.023 221.268 188.434C221.721 187.84 222.328 187.543 223.09 187.543C223.762 187.543 224.305 187.777 224.719 188.246V185H226.143V194H224.854L224.783 193.344C224.357 193.859 223.789 194.117 223.078 194.117C222.336 194.117 221.734 193.818 221.273 193.221C220.816 192.623 220.588 191.811 220.588 190.783ZM222.012 190.906C222.012 191.551 222.135 192.055 222.381 192.418C222.631 192.777 222.984 192.957 223.441 192.957C224.023 192.957 224.449 192.697 224.719 192.178V189.471C224.457 188.963 224.035 188.709 223.453 188.709C222.992 188.709 222.637 188.893 222.387 189.26C222.137 189.623 222.012 190.172 222.012 190.906Z" fill="#4967EE"/>
<path d="M232.852 192.195L234.193 187.66H235.664L233.467 194H232.23L230.016 187.66H231.492L232.852 192.195Z" fill="#4967EE"/>
<path d="M238.072 194H236.648V187.66H238.072V194ZM236.561 186.014C236.561 185.795 236.629 185.613 236.766 185.469C236.906 185.324 237.105 185.252 237.363 185.252C237.621 185.252 237.82 185.324 237.961 185.469C238.102 185.613 238.172 185.795 238.172 186.014C238.172 186.229 238.102 186.408 237.961 186.553C237.82 186.693 237.621 186.764 237.363 186.764C237.105 186.764 236.906 186.693 236.766 186.553C236.629 186.408 236.561 186.229 236.561 186.014Z" fill="#4967EE"/>
<path d="M239.361 190.783C239.361 189.807 239.588 189.023 240.041 188.434C240.494 187.84 241.102 187.543 241.863 187.543C242.535 187.543 243.078 187.777 243.492 188.246V185H244.916V194H243.627L243.557 193.344C243.131 193.859 242.562 194.117 241.852 194.117C241.109 194.117 240.508 193.818 240.047 193.221C239.59 192.623 239.361 191.811 239.361 190.783ZM240.785 190.906C240.785 191.551 240.908 192.055 241.154 192.418C241.404 192.777 241.758 192.957 242.215 192.957C242.797 192.957 243.223 192.697 243.492 192.178V189.471C243.23 188.963 242.809 188.709 242.227 188.709C241.766 188.709 241.41 188.893 241.16 189.26C240.91 189.623 240.785 190.172 240.785 190.906Z" fill="#4967EE"/>
<path d="M249.193 194.117C248.291 194.117 247.559 193.834 246.996 193.268C246.438 192.697 246.158 191.939 246.158 190.994V190.818C246.158 190.186 246.279 189.621 246.521 189.125C246.768 188.625 247.111 188.236 247.553 187.959C247.994 187.682 248.486 187.543 249.029 187.543C249.893 187.543 250.559 187.818 251.027 188.369C251.5 188.92 251.736 189.699 251.736 190.707V191.281H247.594C247.637 191.805 247.811 192.219 248.115 192.523C248.424 192.828 248.811 192.98 249.275 192.98C249.928 192.98 250.459 192.717 250.869 192.189L251.637 192.922C251.383 193.301 251.043 193.596 250.617 193.807C250.195 194.014 249.721 194.117 249.193 194.117ZM249.023 188.686C248.633 188.686 248.316 188.822 248.074 189.096C247.836 189.369 247.684 189.75 247.617 190.238H250.33V190.133C250.299 189.656 250.172 189.297 249.949 189.055C249.727 188.809 249.418 188.686 249.023 188.686Z" fill="#4967EE"/>
<path d="M252.58 190.771C252.58 190.15 252.703 189.592 252.949 189.096C253.195 188.596 253.541 188.213 253.986 187.947C254.432 187.678 254.943 187.543 255.521 187.543C256.377 187.543 257.07 187.818 257.602 188.369C258.137 188.92 258.426 189.65 258.469 190.561L258.475 190.895C258.475 191.52 258.354 192.078 258.111 192.57C257.873 193.062 257.529 193.443 257.08 193.713C256.635 193.982 256.119 194.117 255.533 194.117C254.639 194.117 253.922 193.82 253.383 193.227C252.848 192.629 252.58 191.834 252.58 190.842V190.771ZM254.004 190.895C254.004 191.547 254.139 192.059 254.408 192.43C254.678 192.797 255.053 192.98 255.533 192.98C256.014 192.98 256.387 192.793 256.652 192.418C256.922 192.043 257.057 191.494 257.057 190.771C257.057 190.131 256.918 189.623 256.641 189.248C256.367 188.873 255.994 188.686 255.521 188.686C255.057 188.686 254.688 188.871 254.414 189.242C254.141 189.609 254.004 190.16 254.004 190.895Z" fill="#4967EE"/>
<path d="M263.232 192.277C263.232 192.023 263.127 191.83 262.916 191.697C262.709 191.564 262.363 191.447 261.879 191.346C261.395 191.244 260.99 191.115 260.666 190.959C259.955 190.615 259.6 190.117 259.6 189.465C259.6 188.918 259.83 188.461 260.291 188.094C260.752 187.727 261.338 187.543 262.049 187.543C262.807 187.543 263.418 187.73 263.883 188.105C264.352 188.48 264.586 188.967 264.586 189.564H263.162C263.162 189.291 263.061 189.064 262.857 188.885C262.654 188.701 262.385 188.609 262.049 188.609C261.736 188.609 261.48 188.682 261.281 188.826C261.086 188.971 260.988 189.164 260.988 189.406C260.988 189.625 261.08 189.795 261.264 189.916C261.447 190.037 261.818 190.16 262.377 190.285C262.936 190.406 263.373 190.553 263.689 190.725C264.01 190.893 264.246 191.096 264.398 191.334C264.555 191.572 264.633 191.861 264.633 192.201C264.633 192.771 264.396 193.234 263.924 193.59C263.451 193.941 262.832 194.117 262.066 194.117C261.547 194.117 261.084 194.023 260.678 193.836C260.271 193.648 259.955 193.391 259.729 193.062C259.502 192.734 259.389 192.381 259.389 192.002H260.771C260.791 192.338 260.918 192.598 261.152 192.781C261.387 192.961 261.697 193.051 262.084 193.051C262.459 193.051 262.744 192.98 262.939 192.84C263.135 192.695 263.232 192.508 263.232 192.277Z" fill="#4967EE"/>
<path d="M7.67578 37.957C7.67578 38.793 7.53125 39.5273 7.24219 40.1602C6.95312 40.7891 6.53906 41.2734 6 41.6133C5.46484 41.9492 4.84766 42.1172 4.14844 42.1172C3.45703 42.1172 2.83984 41.9492 2.29688 41.6133C1.75781 41.2734 1.33984 40.791 1.04297 40.166C0.75 39.541 0.601562 38.8203 0.597656 38.0039V37.5234C0.597656 36.6914 0.744141 35.957 1.03711 35.3203C1.33398 34.6836 1.75 34.1973 2.28516 33.8613C2.82422 33.5215 3.44141 33.3516 4.13672 33.3516C4.83203 33.3516 5.44727 33.5195 5.98242 33.8555C6.52148 34.1875 6.9375 34.668 7.23047 35.2969C7.52344 35.9219 7.67188 36.6504 7.67578 37.4824V37.957ZM6.19336 37.5117C6.19336 36.5664 6.01367 35.8418 5.6543 35.3379C5.29883 34.834 4.79297 34.582 4.13672 34.582C3.49609 34.582 2.99414 34.834 2.63086 35.3379C2.27148 35.8379 2.08789 36.5469 2.08008 37.4648V37.957C2.08008 38.8945 2.26172 39.6191 2.625 40.1309C2.99219 40.6426 3.5 40.8984 4.14844 40.8984C4.80469 40.8984 5.30859 40.6484 5.66016 40.1484C6.01562 39.6484 6.19336 38.918 6.19336 37.957V37.5117Z" fill="#4967EE"/>
<path d="M12.334 36.9609C12.1465 36.9297 11.9531 36.9141 11.7539 36.9141C11.1016 36.9141 10.6621 37.1641 10.4355 37.6641V42H9.01172V35.6602H10.3711L10.4062 36.3691C10.75 35.8184 11.2266 35.543 11.8359 35.543C12.0391 35.543 12.207 35.5703 12.3398 35.625L12.334 36.9609Z" fill="#4967EE"/>
<path d="M12.8672 38.7832C12.8672 37.7988 13.0977 37.0137 13.5586 36.4277C14.0234 35.8379 14.6387 35.543 15.4043 35.543C16.127 35.543 16.6953 35.7949 17.1094 36.2988L17.1738 35.6602H18.457V41.8066C18.457 42.6387 18.1973 43.2949 17.6777 43.7754C17.1621 44.2559 16.4648 44.4961 15.5859 44.4961C15.1211 44.4961 14.666 44.3984 14.2207 44.2031C13.7793 44.0117 13.4434 43.7598 13.2129 43.4473L13.8867 42.5918C14.3242 43.1113 14.8633 43.3711 15.5039 43.3711C15.9766 43.3711 16.3496 43.2422 16.623 42.9844C16.8965 42.7305 17.0332 42.3555 17.0332 41.8594V41.4316C16.623 41.8887 16.0762 42.1172 15.3926 42.1172C14.6504 42.1172 14.043 41.8223 13.5703 41.2324C13.1016 40.6426 12.8672 39.8262 12.8672 38.7832ZM14.2852 38.9062C14.2852 39.543 14.4141 40.0449 14.6719 40.4121C14.9336 40.7754 15.2949 40.957 15.7559 40.957C16.3301 40.957 16.7559 40.7109 17.0332 40.2188V37.4297C16.7637 36.9492 16.3418 36.709 15.7676 36.709C15.2988 36.709 14.9336 36.8945 14.6719 37.2656C14.4141 37.6367 14.2852 38.1836 14.2852 38.9062Z" fill="#4967EE"/>
<path d="M23.7129 42C23.6504 41.8789 23.5957 41.6816 23.5488 41.4082C23.0957 41.8809 22.541 42.1172 21.8848 42.1172C21.248 42.1172 20.7285 41.9355 20.3262 41.5723C19.9238 41.209 19.7227 40.7598 19.7227 40.2246C19.7227 39.5488 19.9727 39.0312 20.4727 38.6719C20.9766 38.3086 21.6953 38.127 22.6289 38.127H23.502V37.7109C23.502 37.3828 23.4102 37.1211 23.2266 36.9258C23.043 36.7266 22.7637 36.627 22.3887 36.627C22.0645 36.627 21.7988 36.709 21.5918 36.873C21.3848 37.0332 21.2812 37.2383 21.2812 37.4883H19.8574C19.8574 37.1406 19.9727 36.8164 20.2031 36.5156C20.4336 36.2109 20.7461 35.9727 21.1406 35.8008C21.5391 35.6289 21.9824 35.543 22.4707 35.543C23.2129 35.543 23.8047 35.7305 24.2461 36.1055C24.6875 36.4766 24.9141 37 24.9258 37.6758V40.5352C24.9258 41.1055 25.0059 41.5605 25.166 41.9004V42H23.7129ZM22.1484 40.9746C22.4297 40.9746 22.6934 40.9062 22.9395 40.7695C23.1895 40.6328 23.377 40.4492 23.502 40.2188V39.0234H22.7344C22.207 39.0234 21.8105 39.1152 21.5449 39.2988C21.2793 39.4824 21.1465 39.7422 21.1465 40.0781C21.1465 40.3516 21.2363 40.5703 21.416 40.7344C21.5996 40.8945 21.8438 40.9746 22.1484 40.9746Z" fill="#4967EE"/>
<path d="M27.7383 35.6602L27.7793 36.3926C28.248 35.8262 28.8633 35.543 29.625 35.543C30.9453 35.543 31.6172 36.2988 31.6406 37.8105V42H30.2168V37.8926C30.2168 37.4902 30.1289 37.1934 29.9531 37.002C29.7812 36.8066 29.498 36.709 29.1035 36.709C28.5293 36.709 28.1016 36.9688 27.8203 37.4883V42H26.3965V35.6602H27.7383Z" fill="#4967EE"/>
<path d="M34.6113 42H33.1875V35.6602H34.6113V42ZM33.0996 34.0137C33.0996 33.7949 33.168 33.6133 33.3047 33.4688C33.4453 33.3242 33.6445 33.252 33.9023 33.252C34.1602 33.252 34.3594 33.3242 34.5 33.4688C34.6406 33.6133 34.7109 33.7949 34.7109 34.0137C34.7109 34.2285 34.6406 34.4082 34.5 34.5527C34.3594 34.6934 34.1602 34.7637 33.9023 34.7637C33.6445 34.7637 33.4453 34.6934 33.3047 34.5527C33.168 34.4082 33.0996 34.2285 33.0996 34.0137Z" fill="#4967EE"/>
<path d="M37.6875 40.8633H41.0625V42H35.918V41.0684L39.1348 36.8086H35.9766V35.6602H40.9395V36.5625L37.6875 40.8633Z" fill="#4967EE"/>
<path d="M44.9004 42.1172C43.998 42.1172 43.2656 41.834 42.7031 41.2676C42.1445 40.6973 41.8652 39.9395 41.8652 38.9941V38.8184C41.8652 38.1855 41.9863 37.6211 42.2285 37.125C42.4746 36.625 42.8184 36.2363 43.2598 35.959C43.7012 35.6816 44.1934 35.543 44.7363 35.543C45.5996 35.543 46.2656 35.8184 46.7344 36.3691C47.207 36.9199 47.4434 37.6992 47.4434 38.707V39.2812H43.3008C43.3438 39.8047 43.5176 40.2188 43.8223 40.5234C44.1309 40.8281 44.5176 40.9805 44.9824 40.9805C45.6348 40.9805 46.166 40.7168 46.5762 40.1895L47.3438 40.9219C47.0898 41.3008 46.75 41.5957 46.3242 41.8066C45.9023 42.0137 45.4277 42.1172 44.9004 42.1172ZM44.7305 36.6855C44.3398 36.6855 44.0234 36.8223 43.7812 37.0957C43.543 37.3691 43.3906 37.75 43.3242 38.2383H46.0371V38.1328C46.0059 37.6562 45.8789 37.2969 45.6562 37.0547C45.4336 36.8086 45.125 36.6855 44.7305 36.6855Z" fill="#4967EE"/>
<path d="M53.7598 39.9609L55.0488 35.6602H56.5664L54.0469 42.9609C53.6602 44.0273 53.0039 44.5605 52.0781 44.5605C51.8711 44.5605 51.6426 44.5254 51.3926 44.4551V43.3535L51.6621 43.3711C52.0215 43.3711 52.291 43.3047 52.4707 43.1719C52.6543 43.043 52.7988 42.8242 52.9043 42.5156L53.1094 41.9707L50.8828 35.6602H52.418L53.7598 39.9609Z" fill="#4967EE"/>
<path d="M57.0293 38.7715C57.0293 38.1504 57.1523 37.5918 57.3984 37.0957C57.6445 36.5957 57.9902 36.2129 58.4355 35.9473C58.8809 35.6777 59.3926 35.543 59.9707 35.543C60.8262 35.543 61.5195 35.8184 62.0508 36.3691C62.5859 36.9199 62.875 37.6504 62.918 38.5605L62.9238 38.8945C62.9238 39.5195 62.8027 40.0781 62.5605 40.5703C62.3223 41.0625 61.9785 41.4434 61.5293 41.7129C61.084 41.9824 60.5684 42.1172 59.9824 42.1172C59.0879 42.1172 58.3711 41.8203 57.832 41.2266C57.2969 40.6289 57.0293 39.834 57.0293 38.8418V38.7715ZM58.4531 38.8945C58.4531 39.5469 58.5879 40.0586 58.8574 40.4297C59.127 40.7969 59.502 40.9805 59.9824 40.9805C60.4629 40.9805 60.8359 40.793 61.1016 40.418C61.3711 40.043 61.5059 39.4941 61.5059 38.7715C61.5059 38.1309 61.3672 37.623 61.0898 37.248C60.8164 36.873 60.4434 36.6855 59.9707 36.6855C59.5059 36.6855 59.1367 36.8711 58.8633 37.2422C58.5898 37.6094 58.4531 38.1602 58.4531 38.8945Z" fill="#4967EE"/>
<path d="M67.9688 41.3789C67.5508 41.8711 66.957 42.1172 66.1875 42.1172C65.5 42.1172 64.9785 41.916 64.623 41.5137C64.2715 41.1113 64.0957 40.5293 64.0957 39.7676V35.6602H65.5195V39.75C65.5195 40.5547 65.8535 40.957 66.5215 40.957C67.2129 40.957 67.6797 40.709 67.9219 40.2129V35.6602H69.3457V42H68.0039L67.9688 41.3789Z" fill="#4967EE"/>
<path d="M74.1152 36.9609C73.9277 36.9297 73.7344 36.9141 73.5352 36.9141C72.8828 36.9141 72.4434 37.1641 72.2168 37.6641V42H70.793V35.6602H72.1523L72.1875 36.3691C72.5312 35.8184 73.0078 35.543 73.6172 35.543C73.8203 35.543 73.9883 35.5703 74.1211 35.625L74.1152 36.9609Z" fill="#4967EE"/>
<path d="M80.6074 40.9805C80.9629 40.9805 81.2578 40.877 81.4922 40.6699C81.7266 40.4629 81.8516 40.207 81.8672 39.9023H83.209C83.1934 40.2969 83.0703 40.666 82.8398 41.0098C82.6094 41.3496 82.2969 41.6191 81.9023 41.8184C81.5078 42.0176 81.082 42.1172 80.625 42.1172C79.7383 42.1172 79.0352 41.8301 78.5156 41.2559C77.9961 40.6816 77.7363 39.8887 77.7363 38.877V38.7305C77.7363 37.7656 77.9941 36.9941 78.5098 36.416C79.0254 35.834 79.7285 35.543 80.6191 35.543C81.373 35.543 81.9863 35.7637 82.459 36.2051C82.9355 36.6426 83.1855 37.2188 83.209 37.9336H81.8672C81.8516 37.5703 81.7266 37.2715 81.4922 37.0371C81.2617 36.8027 80.9668 36.6855 80.6074 36.6855C80.1465 36.6855 79.791 36.8535 79.541 37.1895C79.291 37.5215 79.1641 38.0273 79.1602 38.707V38.9355C79.1602 39.623 79.2832 40.1367 79.5293 40.4766C79.7793 40.8125 80.1387 40.9805 80.6074 40.9805Z" fill="#4967EE"/>
<path d="M84.0176 38.7715C84.0176 38.1504 84.1406 37.5918 84.3867 37.0957C84.6328 36.5957 84.9785 36.2129 85.4238 35.9473C85.8691 35.6777 86.3809 35.543 86.959 35.543C87.8145 35.543 88.5078 35.8184 89.0391 36.3691C89.5742 36.9199 89.8633 37.6504 89.9062 38.5605L89.9121 38.8945C89.9121 39.5195 89.791 40.0781 89.5488 40.5703C89.3105 41.0625 88.9668 41.4434 88.5176 41.7129C88.0723 41.9824 87.5566 42.1172 86.9707 42.1172C86.0762 42.1172 85.3594 41.8203 84.8203 41.2266C84.2852 40.6289 84.0176 39.834 84.0176 38.8418V38.7715ZM85.4414 38.8945C85.4414 39.5469 85.5762 40.0586 85.8457 40.4297C86.1152 40.7969 86.4902 40.9805 86.9707 40.9805C87.4512 40.9805 87.8242 40.793 88.0898 40.418C88.3594 40.043 88.4941 39.4941 88.4941 38.7715C88.4941 38.1309 88.3555 37.623 88.0781 37.248C87.8047 36.873 87.4316 36.6855 86.959 36.6855C86.4941 36.6855 86.125 36.8711 85.8516 37.2422C85.5781 37.6094 85.4414 38.1602 85.4414 38.8945Z" fill="#4967EE"/>
<path d="M92.4375 35.6602L92.4785 36.3926C92.9473 35.8262 93.5625 35.543 94.3242 35.543C95.6445 35.543 96.3164 36.2988 96.3398 37.8105V42H94.916V37.8926C94.916 37.4902 94.8281 37.1934 94.6523 37.002C94.4805 36.8066 94.1973 36.709 93.8027 36.709C93.2285 36.709 92.8008 36.9688 92.5195 37.4883V42H91.0957V35.6602H92.4375Z" fill="#4967EE"/>
<path d="M99.5801 34.1191V35.6602H100.699V36.7148H99.5801V40.2539C99.5801 40.4961 99.627 40.6719 99.7207 40.7812C99.8184 40.8867 99.9902 40.9395 100.236 40.9395C100.4 40.9395 100.566 40.9199 100.734 40.8809V41.9824C100.41 42.0723 100.098 42.1172 99.7969 42.1172C98.7031 42.1172 98.1562 41.5137 98.1562 40.3066V36.7148H97.1133V35.6602H98.1562V34.1191H99.5801Z" fill="#4967EE"/>
<path d="M104.584 42.1172C103.682 42.1172 102.949 41.834 102.387 41.2676C101.828 40.6973 101.549 39.9395 101.549 38.9941V38.8184C101.549 38.1855 101.67 37.6211 101.912 37.125C102.158 36.625 102.502 36.2363 102.943 35.959C103.385 35.6816 103.877 35.543 104.42 35.543C105.283 35.543 105.949 35.8184 106.418 36.3691C106.891 36.9199 107.127 37.6992 107.127 38.707V39.2812H102.984C103.027 39.8047 103.201 40.2188 103.506 40.5234C103.814 40.8281 104.201 40.9805 104.666 40.9805C105.318 40.9805 105.85 40.7168 106.26 40.1895L107.027 40.9219C106.773 41.3008 106.434 41.5957 106.008 41.8066C105.586 42.0137 105.111 42.1172 104.584 42.1172ZM104.414 36.6855C104.023 36.6855 103.707 36.8223 103.465 37.0957C103.227 37.3691 103.074 37.75 103.008 38.2383H105.721V38.1328C105.689 37.6562 105.562 37.2969 105.34 37.0547C105.117 36.8086 104.809 36.6855 104.414 36.6855Z" fill="#4967EE"/>
<path d="M109.559 35.6602L109.6 36.3926C110.068 35.8262 110.684 35.543 111.445 35.543C112.766 35.543 113.438 36.2988 113.461 37.8105V42H112.037V37.8926C112.037 37.4902 111.949 37.1934 111.773 37.002C111.602 36.8066 111.318 36.709 110.924 36.709C110.35 36.709 109.922 36.9688 109.641 37.4883V42H108.217V35.6602H109.559Z" fill="#4967EE"/>
<path d="M116.701 34.1191V35.6602H117.82V36.7148H116.701V40.2539C116.701 40.4961 116.748 40.6719 116.842 40.7812C116.939 40.8867 117.111 40.9395 117.357 40.9395C117.521 40.9395 117.688 40.9199 117.855 40.8809V41.9824C117.531 42.0723 117.219 42.1172 116.918 42.1172C115.824 42.1172 115.277 41.5137 115.277 40.3066V36.7148H114.234V35.6602H115.277V34.1191H116.701Z" fill="#4967EE"/>
<path d="M211.377 102.223C211.291 103.133 210.955 103.844 210.369 104.355C209.783 104.863 209.004 105.117 208.031 105.117C207.352 105.117 206.752 104.957 206.232 104.637C205.717 104.312 205.318 103.854 205.037 103.26C204.756 102.666 204.609 101.977 204.598 101.191V100.395C204.598 99.5898 204.74 98.8809 205.025 98.2676C205.311 97.6543 205.719 97.1816 206.25 96.8496C206.785 96.5176 207.402 96.3516 208.102 96.3516C209.043 96.3516 209.801 96.6074 210.375 97.1191C210.949 97.6309 211.283 98.3535 211.377 99.2871H209.9C209.83 98.6738 209.65 98.2324 209.361 97.9629C209.076 97.6895 208.656 97.5527 208.102 97.5527C207.457 97.5527 206.961 97.7891 206.613 98.2617C206.27 98.7305 206.094 99.4199 206.086 100.33V101.086C206.086 102.008 206.25 102.711 206.578 103.195C206.91 103.68 207.395 103.922 208.031 103.922C208.613 103.922 209.051 103.791 209.344 103.529C209.637 103.268 209.822 102.832 209.9 102.223H211.377Z" fill="#4967EE"/>
<path d="M216.41 104.379C215.992 104.871 215.398 105.117 214.629 105.117C213.941 105.117 213.42 104.916 213.064 104.514C212.713 104.111 212.537 103.529 212.537 102.768V98.6602H213.961V102.75C213.961 103.555 214.295 103.957 214.963 103.957C215.654 103.957 216.121 103.709 216.363 103.213V98.6602H217.787V105H216.445L216.41 104.379Z" fill="#4967EE"/>
<path d="M222.791 103.277C222.791 103.023 222.686 102.83 222.475 102.697C222.268 102.564 221.922 102.447 221.438 102.346C220.953 102.244 220.549 102.115 220.225 101.959C219.514 101.615 219.158 101.117 219.158 100.465C219.158 99.918 219.389 99.4609 219.85 99.0938C220.311 98.7266 220.896 98.543 221.607 98.543C222.365 98.543 222.977 98.7305 223.441 99.1055C223.91 99.4805 224.145 99.9668 224.145 100.564H222.721C222.721 100.291 222.619 100.064 222.416 99.8848C222.213 99.7012 221.943 99.6094 221.607 99.6094C221.295 99.6094 221.039 99.6816 220.84 99.8262C220.645 99.9707 220.547 100.164 220.547 100.406C220.547 100.625 220.639 100.795 220.822 100.916C221.006 101.037 221.377 101.16 221.936 101.285C222.494 101.406 222.932 101.553 223.248 101.725C223.568 101.893 223.805 102.096 223.957 102.334C224.113 102.572 224.191 102.861 224.191 103.201C224.191 103.771 223.955 104.234 223.482 104.59C223.01 104.941 222.391 105.117 221.625 105.117C221.105 105.117 220.643 105.023 220.236 104.836C219.83 104.648 219.514 104.391 219.287 104.062C219.061 103.734 218.947 103.381 218.947 103.002H220.33C220.35 103.338 220.477 103.598 220.711 103.781C220.945 103.961 221.256 104.051 221.643 104.051C222.018 104.051 222.303 103.98 222.498 103.84C222.693 103.695 222.791 103.508 222.791 103.277Z" fill="#4967EE"/>
<path d="M227.221 97.1191V98.6602H228.34V99.7148H227.221V103.254C227.221 103.496 227.268 103.672 227.361 103.781C227.459 103.887 227.631 103.939 227.877 103.939C228.041 103.939 228.207 103.92 228.375 103.881V104.982C228.051 105.072 227.738 105.117 227.438 105.117C226.344 105.117 225.797 104.514 225.797 103.307V99.7148H224.754V98.6602H225.797V97.1191H227.221Z" fill="#4967EE"/>
<path d="M228.99 101.771C228.99 101.15 229.113 100.592 229.359 100.096C229.605 99.5957 229.951 99.2129 230.396 98.9473C230.842 98.6777 231.354 98.543 231.932 98.543C232.787 98.543 233.48 98.8184 234.012 99.3691C234.547 99.9199 234.836 100.65 234.879 101.561L234.885 101.895C234.885 102.52 234.764 103.078 234.521 103.57C234.283 104.062 233.939 104.443 233.49 104.713C233.045 104.982 232.529 105.117 231.943 105.117C231.049 105.117 230.332 104.82 229.793 104.227C229.258 103.629 228.99 102.834 228.99 101.842V101.771ZM230.414 101.895C230.414 102.547 230.549 103.059 230.818 103.43C231.088 103.797 231.463 103.98 231.943 103.98C232.424 103.98 232.797 103.793 233.062 103.418C233.332 103.043 233.467 102.494 233.467 101.771C233.467 101.131 233.328 100.623 233.051 100.248C232.777 99.873 232.404 99.6855 231.932 99.6855C231.467 99.6855 231.098 99.8711 230.824 100.242C230.551 100.609 230.414 101.16 230.414 101.895Z" fill="#4967EE"/>
<path d="M237.428 98.6602L237.469 99.3223C237.914 98.8027 238.523 98.543 239.297 98.543C240.145 98.543 240.725 98.8672 241.037 99.5156C241.498 98.8672 242.146 98.543 242.982 98.543C243.682 98.543 244.201 98.7363 244.541 99.123C244.885 99.5098 245.061 100.08 245.068 100.834V105H243.645V100.875C243.645 100.473 243.557 100.178 243.381 99.9902C243.205 99.8027 242.914 99.709 242.508 99.709C242.184 99.709 241.918 99.7969 241.711 99.9727C241.508 100.145 241.365 100.371 241.283 100.652L241.289 105H239.865V100.828C239.846 100.082 239.465 99.709 238.723 99.709C238.152 99.709 237.748 99.9414 237.51 100.406V105H236.086V98.6602H237.428Z" fill="#4967EE"/>
<path d="M247.869 98.6602L247.91 99.3223C248.355 98.8027 248.965 98.543 249.738 98.543C250.586 98.543 251.166 98.8672 251.479 99.5156C251.939 98.8672 252.588 98.543 253.424 98.543C254.123 98.543 254.643 98.7363 254.982 99.123C255.326 99.5098 255.502 100.08 255.51 100.834V105H254.086V100.875C254.086 100.473 253.998 100.178 253.822 99.9902C253.646 99.8027 253.355 99.709 252.949 99.709C252.625 99.709 252.359 99.7969 252.152 99.9727C251.949 100.145 251.807 100.371 251.725 100.652L251.73 105H250.307V100.828C250.287 100.082 249.906 99.709 249.164 99.709C248.594 99.709 248.189 99.9414 247.951 100.406V105H246.527V98.6602H247.869Z" fill="#4967EE"/>
<path d="M258.486 105H257.062V98.6602H258.486V105ZM256.975 97.0137C256.975 96.7949 257.043 96.6133 257.18 96.4688C257.32 96.3242 257.52 96.252 257.777 96.252C258.035 96.252 258.234 96.3242 258.375 96.4688C258.516 96.6133 258.586 96.7949 258.586 97.0137C258.586 97.2285 258.516 97.4082 258.375 97.5527C258.234 97.6934 258.035 97.7637 257.777 97.7637C257.52 97.7637 257.32 97.6934 257.18 97.5527C257.043 97.4082 256.975 97.2285 256.975 97.0137Z" fill="#4967EE"/>
<path d="M261.562 103.863H264.938V105H259.793V104.068L263.01 99.8086H259.852V98.6602H264.814V99.5625L261.562 103.863Z" fill="#4967EE"/>
<path d="M268.775 105.117C267.873 105.117 267.141 104.834 266.578 104.268C266.02 103.697 265.74 102.939 265.74 101.994V101.818C265.74 101.186 265.861 100.621 266.104 100.125C266.35 99.625 266.693 99.2363 267.135 98.959C267.576 98.6816 268.068 98.543 268.611 98.543C269.475 98.543 270.141 98.8184 270.609 99.3691C271.082 99.9199 271.318 100.699 271.318 101.707V102.281H267.176C267.219 102.805 267.393 103.219 267.697 103.523C268.006 103.828 268.393 103.98 268.857 103.98C269.51 103.98 270.041 103.717 270.451 103.189L271.219 103.922C270.965 104.301 270.625 104.596 270.199 104.807C269.777 105.014 269.303 105.117 268.775 105.117ZM268.605 99.6855C268.215 99.6855 267.898 99.8223 267.656 100.096C267.418 100.369 267.266 100.75 267.199 101.238H269.912V101.133C269.881 100.656 269.754 100.297 269.531 100.055C269.309 99.8086 269 99.6855 268.605 99.6855Z" fill="#4967EE"/>
<path d="M277.635 102.961L278.924 98.6602H280.441L277.922 105.961C277.535 107.027 276.879 107.561 275.953 107.561C275.746 107.561 275.518 107.525 275.268 107.455V106.354L275.537 106.371C275.896 106.371 276.166 106.305 276.346 106.172C276.529 106.043 276.674 105.824 276.779 105.516L276.984 104.971L274.758 98.6602H276.293L277.635 102.961Z" fill="#4967EE"/>
<path d="M280.904 101.771C280.904 101.15 281.027 100.592 281.273 100.096C281.52 99.5957 281.865 99.2129 282.311 98.9473C282.756 98.6777 283.268 98.543 283.846 98.543C284.701 98.543 285.395 98.8184 285.926 99.3691C286.461 99.9199 286.75 100.65 286.793 101.561L286.799 101.895C286.799 102.52 286.678 103.078 286.436 103.57C286.197 104.062 285.854 104.443 285.404 104.713C284.959 104.982 284.443 105.117 283.857 105.117C282.963 105.117 282.246 104.82 281.707 104.227C281.172 103.629 280.904 102.834 280.904 101.842V101.771ZM282.328 101.895C282.328 102.547 282.463 103.059 282.732 103.43C283.002 103.797 283.377 103.98 283.857 103.98C284.338 103.98 284.711 103.793 284.977 103.418C285.246 103.043 285.381 102.494 285.381 101.771C285.381 101.131 285.242 100.623 284.965 100.248C284.691 99.873 284.318 99.6855 283.846 99.6855C283.381 99.6855 283.012 99.8711 282.738 100.242C282.465 100.609 282.328 101.16 282.328 101.895Z" fill="#4967EE"/>
<path d="M291.844 104.379C291.426 104.871 290.832 105.117 290.062 105.117C289.375 105.117 288.854 104.916 288.498 104.514C288.146 104.111 287.971 103.529 287.971 102.768V98.6602H289.395V102.75C289.395 103.555 289.729 103.957 290.396 103.957C291.088 103.957 291.555 103.709 291.797 103.213V98.6602H293.221V105H291.879L291.844 104.379Z" fill="#4967EE"/>
<path d="M297.99 99.9609C297.803 99.9297 297.609 99.9141 297.41 99.9141C296.758 99.9141 296.318 100.164 296.092 100.664V105H294.668V98.6602H296.027L296.062 99.3691C296.406 98.8184 296.883 98.543 297.492 98.543C297.695 98.543 297.863 98.5703 297.996 98.625L297.99 99.9609Z" fill="#4967EE"/>
<path d="M307.43 101.895C307.43 102.875 307.207 103.658 306.762 104.244C306.316 104.826 305.719 105.117 304.969 105.117C304.273 105.117 303.717 104.889 303.299 104.432V107.438H301.875V98.6602H303.188L303.246 99.3047C303.664 98.7969 304.232 98.543 304.951 98.543C305.725 98.543 306.33 98.832 306.768 99.4102C307.209 99.9844 307.43 100.783 307.43 101.807V101.895ZM306.012 101.771C306.012 101.139 305.885 100.637 305.631 100.266C305.381 99.8945 305.021 99.709 304.553 99.709C303.971 99.709 303.553 99.9492 303.299 100.43V103.242C303.557 103.734 303.979 103.98 304.564 103.98C305.018 103.98 305.371 103.799 305.625 103.436C305.883 103.068 306.012 102.514 306.012 101.771Z" fill="#4967EE"/>
<path d="M310.154 105H308.73V96H310.154V105Z" fill="#4967EE"/>
<path d="M315.498 105C315.436 104.879 315.381 104.682 315.334 104.408C314.881 104.881 314.326 105.117 313.67 105.117C313.033 105.117 312.514 104.936 312.111 104.572C311.709 104.209 311.508 103.76 311.508 103.225C311.508 102.549 311.758 102.031 312.258 101.672C312.762 101.309 313.48 101.127 314.414 101.127H315.287V100.711C315.287 100.383 315.195 100.121 315.012 99.9258C314.828 99.7266 314.549 99.627 314.174 99.627C313.85 99.627 313.584 99.709 313.377 99.873C313.17 100.033 313.066 100.238 313.066 100.488H311.643C311.643 100.141 311.758 99.8164 311.988 99.5156C312.219 99.2109 312.531 98.9727 312.926 98.8008C313.324 98.6289 313.768 98.543 314.256 98.543C314.998 98.543 315.59 98.7305 316.031 99.1055C316.473 99.4766 316.699 100 316.711 100.676V103.535C316.711 104.105 316.791 104.561 316.951 104.9V105H315.498ZM313.934 103.975C314.215 103.975 314.479 103.906 314.725 103.77C314.975 103.633 315.162 103.449 315.287 103.219V102.023H314.52C313.992 102.023 313.596 102.115 313.33 102.299C313.064 102.482 312.932 102.742 312.932 103.078C312.932 103.352 313.021 103.57 313.201 103.734C313.385 103.895 313.629 103.975 313.934 103.975Z" fill="#4967EE"/>
<path d="M320.326 102.961L321.615 98.6602H323.133L320.613 105.961C320.227 107.027 319.57 107.561 318.645 107.561C318.438 107.561 318.209 107.525 317.959 107.455V106.354L318.229 106.371C318.588 106.371 318.857 106.305 319.037 106.172C319.221 106.043 319.365 105.824 319.471 105.516L319.676 104.971L317.449 98.6602H318.984L320.326 102.961Z" fill="#4967EE"/>
<path d="M326.666 105.117C325.764 105.117 325.031 104.834 324.469 104.268C323.91 103.697 323.631 102.939 323.631 101.994V101.818C323.631 101.186 323.752 100.621 323.994 100.125C324.24 99.625 324.584 99.2363 325.025 98.959C325.467 98.6816 325.959 98.543 326.502 98.543C327.365 98.543 328.031 98.8184 328.5 99.3691C328.973 99.9199 329.209 100.699 329.209 101.707V102.281H325.066C325.109 102.805 325.283 103.219 325.588 103.523C325.896 103.828 326.283 103.98 326.748 103.98C327.4 103.98 327.932 103.717 328.342 103.189L329.109 103.922C328.855 104.301 328.516 104.596 328.09 104.807C327.668 105.014 327.193 105.117 326.666 105.117ZM326.496 99.6855C326.105 99.6855 325.789 99.8223 325.547 100.096C325.309 100.369 325.156 100.75 325.09 101.238H327.803V101.133C327.771 100.656 327.645 100.297 327.422 100.055C327.199 99.8086 326.891 99.6855 326.496 99.6855Z" fill="#4967EE"/>
<path d="M333.639 99.9609C333.451 99.9297 333.258 99.9141 333.059 99.9141C332.406 99.9141 331.967 100.164 331.74 100.664V105H330.316V98.6602H331.676L331.711 99.3691C332.055 98.8184 332.531 98.543 333.141 98.543C333.344 98.543 333.512 98.5703 333.645 98.625L333.639 99.9609Z" fill="#4967EE"/>
<defs>
<filter id="filter0_d" x="122.324" y="107.787" width="18.4248" height="18.4248" filterUnits="userSpaceOnUse" color-interpolation-filters="sRGB">
<feFlood flood-opacity="0" result="BackgroundImageFix"/>
<feColorMatrix in="SourceAlpha" type="matrix" values="0 0 0 0 0 0 0 0 0 0 0 0 0 0 0 0 0 0 127 0" result="hardAlpha"/>
<feOffset dy="0.418866"/>
<feGaussianBlur stdDeviation="0.418866"/>
<feColorMatrix type="matrix" values="0 0 0 0 0 0 0 0 0 0 0 0 0 0 0 0 0 0 0.25 0"/>
<feBlend mode="normal" in2="BackgroundImageFix" result="effect1_dropShadow"/>
<feBlend mode="normal" in="SourceGraphic" in2="effect1_dropShadow" result="shape"/>
</filter>
</defs>
</svg>
