<svg width="235" height="173" viewBox="0 0 235 173" fill="none" xmlns="http://www.w3.org/2000/svg">
<circle cx="108.5" cy="91.5" r="80.5" fill="#EDF0FE"/>
<path d="M152.764 18.121L152.845 3.54033" stroke="#C8D1E0" stroke-width="2.55763" stroke-linecap="round" stroke-linejoin="round"/>
<path d="M165.333 22.1433L175.695 11.885" stroke="#C8D1E0" stroke-width="2.55763" stroke-linecap="round" stroke-linejoin="round"/>
<path d="M182.428 35.7183L167.847 35.6368" stroke="#C8D1E0" stroke-width="2.55763" stroke-linecap="round" stroke-linejoin="round"/>
<path d="M11.4977 56.3774L13.062 58.0678L13.2197 58.2383L13.4305 58.1407L15.5213 57.1735L14.3973 59.1855L14.2839 59.3883L14.4417 59.5588L16.0059 61.2491L13.747 60.8022L13.5192 60.7571L13.4059 60.96L12.2818 62.9719L12.0098 60.6838L11.9823 60.453L11.7546 60.408L9.49561 59.961L11.5864 58.9938L11.7972 58.8963L11.7698 58.6656L11.4977 56.3774Z" stroke="#4967EE" stroke-width="0.639407" stroke-linecap="round"/>
<path d="M191.621 49.8348L191.81 52.1311L191.829 52.3626L192.055 52.4162L194.297 52.9471L192.172 53.8353L191.957 53.9249L191.976 54.1564L192.165 56.4527L190.663 54.7054L190.512 54.5292L190.297 54.6188L188.172 55.507L189.369 53.5389L189.49 53.3404L189.338 53.1642L187.836 51.4169L190.078 51.9479L190.304 52.0014L190.424 51.803L191.621 49.8348Z" stroke="#4967EE" stroke-width="0.639407" stroke-linecap="round"/>
<path d="M106.878 1.52223L107.358 3.77556L107.406 4.00276L107.637 4.02701L109.928 4.26752L107.934 5.41965L107.733 5.53582L107.781 5.76302L108.261 8.01636L106.548 6.47508L106.376 6.31967L106.175 6.43584L104.18 7.58797L105.116 5.48328L105.211 5.27106L105.038 5.11566L103.326 3.57438L105.617 3.81489L105.848 3.83914L105.942 3.62692L106.878 1.52223Z" stroke="#4967EE" stroke-width="0.639407" stroke-linecap="round"/>
<path d="M178.421 115.706L179.985 117.396L180.143 117.566L180.354 117.469L182.445 116.502L181.321 118.514L181.207 118.717L181.365 118.887L182.929 120.577L180.67 120.13L180.443 120.085L180.329 120.288L179.205 122.3L178.933 120.012L178.906 119.781L178.678 119.736L176.419 119.289L178.51 118.322L178.721 118.224L178.693 117.994L178.421 115.706Z" stroke="#AFBACC" stroke-width="0.639407" stroke-linecap="round"/>
<path d="M11.571 127.129L11.2473 129.411L11.2146 129.641L11.4232 129.743L13.4916 130.757L11.2231 131.153L10.9944 131.193L10.9618 131.423L10.6381 133.705L9.55981 131.668L9.45109 131.462L9.22236 131.502L6.95392 131.898L8.55594 130.243L8.71747 130.077L8.60875 129.871L7.53046 127.834L9.59885 128.849L9.80741 128.951L9.96894 128.784L11.571 127.129Z" stroke="#AFBACC" stroke-width="0.639407" stroke-linecap="round"/>
<circle cx="177.4" cy="61.863" r="1.69142" stroke="#707A8A" stroke-width="0.639407"/>
<circle cx="26.0629" cy="137.783" r="1.69142" stroke="#707A8A" stroke-width="0.639407"/>
<circle cx="201.031" cy="127.225" r="1.69142" stroke="#707A8A" stroke-width="0.639407"/>
<circle cx="26.0629" cy="67.3936" r="1.69142" stroke="#AFBACC" stroke-width="0.639407"/>
<circle cx="171.87" cy="144.319" r="1.69142" stroke="#AFBACC" stroke-width="0.639407"/>
<circle cx="123.1" cy="8.06534" r="1.69142" stroke="#AFBACC" stroke-width="0.639407"/>
<circle cx="19.0239" cy="85.4937" r="1.69142" stroke="#4967EE" stroke-width="0.639407"/>
<circle cx="2.43209" cy="147.336" r="1.69142" stroke="#4967EE" stroke-width="0.639407"/>
<path fill-rule="evenodd" clip-rule="evenodd" d="M1.02351 75.5317C0.898279 75.4068 0.695234 75.4068 0.569999 75.5317C0.444764 75.6565 0.444764 75.8588 0.569999 75.9836L2.01303 77.4217L0.514885 78.9147C0.389651 79.0395 0.389651 79.2419 0.514885 79.3667C0.64012 79.4915 0.843165 79.4915 0.9684 79.3667L2.46654 77.8737L3.89577 79.298C4.021 79.4228 4.22405 79.4228 4.34928 79.298C4.47452 79.1732 4.47452 78.9709 4.34928 78.8461L2.92005 77.4217L4.29417 76.0523C4.41941 75.9275 4.41941 75.7251 4.29417 75.6003C4.16894 75.4755 3.96589 75.4755 3.84066 75.6003L2.46654 76.9697L1.02351 75.5317Z" fill="#707A8A"/>
<path fill-rule="evenodd" clip-rule="evenodd" d="M29.6821 118.771C29.5569 118.646 29.3539 118.646 29.2286 118.771C29.1034 118.896 29.1034 119.098 29.2286 119.223L30.6717 120.661L29.1735 122.154C29.0483 122.279 29.0483 122.481 29.1735 122.606C29.2988 122.731 29.5018 122.731 29.627 122.606L31.1252 121.113L32.5544 122.537C32.6796 122.662 32.8827 122.662 33.0079 122.537C33.1331 122.412 33.1331 122.21 33.0079 122.085L31.5787 120.661L32.9528 119.292C33.078 119.167 33.078 118.964 32.9528 118.84C32.8276 118.715 32.6245 118.715 32.4993 118.84L31.1252 120.209L29.6821 118.771Z" fill="#AFBACC"/>
<path fill-rule="evenodd" clip-rule="evenodd" d="M21.6376 154.468C21.5124 154.344 21.3093 154.344 21.1841 154.468C21.0588 154.593 21.0588 154.796 21.1841 154.92L22.6271 156.358L21.129 157.851C21.0037 157.976 21.0037 158.179 21.129 158.303C21.2542 158.428 21.4572 158.428 21.5825 158.303L23.0806 156.81L24.5098 158.235C24.6351 158.36 24.8381 158.36 24.9634 158.235C25.0886 158.11 25.0886 157.908 24.9634 157.783L23.5341 156.358L24.9082 154.989C25.0335 154.864 25.0335 154.662 24.9082 154.537C24.783 154.412 24.58 154.412 24.4547 154.537L23.0806 155.906L21.6376 154.468Z" fill="#AFBACC"/>
<path fill-rule="evenodd" clip-rule="evenodd" d="M186.047 135.865C185.922 135.741 185.719 135.741 185.594 135.865C185.469 135.99 185.469 136.193 185.594 136.317L187.037 137.756L185.539 139.249C185.413 139.373 185.413 139.576 185.539 139.7C185.664 139.825 185.867 139.825 185.992 139.7L187.49 138.207L188.92 139.632C189.045 139.757 189.248 139.757 189.373 139.632C189.498 139.507 189.498 139.305 189.373 139.18L187.944 137.756L189.318 136.386C189.443 136.261 189.443 136.059 189.318 135.934C189.193 135.809 188.99 135.809 188.864 135.934L187.49 137.304L186.047 135.865Z" fill="#4967EE"/>
<path fill-rule="evenodd" clip-rule="evenodd" d="M132.752 12.684C132.627 12.5592 132.424 12.5592 132.299 12.684C132.174 12.8088 132.174 13.0112 132.299 13.136L133.742 14.5741L132.244 16.0671C132.118 16.1919 132.118 16.3942 132.244 16.519C132.369 16.6438 132.572 16.6438 132.697 16.519L134.195 15.026L135.625 16.4504C135.75 16.5752 135.953 16.5752 136.078 16.4504C136.203 16.3256 136.203 16.1232 136.078 15.9984L134.649 14.5741L136.023 13.2046C136.148 13.0798 136.148 12.8775 136.023 12.7527C135.898 12.6279 135.695 12.6279 135.569 12.7527L134.195 14.1221L132.752 12.684Z" fill="#4967EE"/>
<mask id="mask0" mask-type="alpha" maskUnits="userSpaceOnUse" x="67" y="62" width="82" height="46">
<rect x="67.8671" y="62.4956" width="80.445" height="45.2503" fill="#C4C4C4"/>
</mask>
<g mask="url(#mask0)">
<rect x="67.8671" y="62.4956" width="80.9478" height="45.2503" fill="#DBE1FC"/>
</g>
<rect opacity="0.5" x="67.8671" y="102.718" width="80.445" height="5.02781" fill="white"/>
<rect x="67.8671" y="102.718" width="80.445" height="1.00556" fill="#4967EE"/>
<mask id="mask1" mask-type="alpha" maskUnits="userSpaceOnUse" x="61" y="69" width="82" height="46">
<rect x="61.8337" y="69.0317" width="80.445" height="45.2503" fill="#C4C4C4"/>
</mask>
<g mask="url(#mask1)">
<rect x="61.8337" y="69.0317" width="80.9478" height="45.2503" fill="#B6C2F8"/>
</g>
<rect opacity="0.5" x="61.8337" y="109.254" width="80.445" height="5.02781" fill="#DBE1FC"/>
<rect x="61.8337" y="109.254" width="80.445" height="1.00556" fill="#4967EE"/>
<mask id="mask2" mask-type="alpha" maskUnits="userSpaceOnUse" x="55" y="75" width="81" height="46">
<rect x="55.2975" y="75.0652" width="80.445" height="45.2503" fill="#C4C4C4"/>
</mask>
<g mask="url(#mask2)">
<rect x="55.2975" y="75.0652" width="80.9478" height="45.2503" fill="#707A8A"/>
</g>
<rect opacity="0.5" x="55.2975" y="115.288" width="80.445" height="5.02781" fill="#DBE1FC"/>
<rect x="55.2975" y="115.288" width="80.445" height="1.00556" fill="#4967EE"/>
<circle opacity="0.75" cx="96.2741" cy="98.4445" r="11.3126" fill="#DBE1FC"/>
<g filter="url(#filter0_d)">
<path d="M93.1808 94.7414V102.148C93.1808 102.712 93.7872 103.055 94.2541 102.748L99.9271 99.045C100.359 98.7662 100.359 98.1228 99.9271 97.8368L94.2541 94.1409C93.7872 93.8335 93.1808 94.1766 93.1808 94.7414Z" fill="white"/>
</g>
<path d="M0.884766 31V22.4688H3.80859C4.77344 22.4688 5.50781 22.6621 6.01172 23.0488C6.51562 23.4355 6.76758 24.0117 6.76758 24.7773C6.76758 25.168 6.66211 25.5195 6.45117 25.832C6.24023 26.1445 5.93164 26.3867 5.52539 26.5586C5.98633 26.6836 6.3418 26.9199 6.5918 27.2676C6.8457 27.6113 6.97266 28.0254 6.97266 28.5098C6.97266 29.3105 6.71484 29.9258 6.19922 30.3555C5.6875 30.7852 4.95312 31 3.99609 31H0.884766ZM2.36719 27.1504V29.8164H4.01367C4.47852 29.8164 4.8418 29.7012 5.10352 29.4707C5.36523 29.2402 5.49609 28.9199 5.49609 28.5098C5.49609 27.623 5.04297 27.1699 4.13672 27.1504H2.36719ZM2.36719 26.0605H3.82031C4.28125 26.0605 4.64062 25.957 4.89844 25.75C5.16016 25.5391 5.29102 25.2422 5.29102 24.8594C5.29102 24.4375 5.16992 24.1328 4.92773 23.9453C4.68945 23.7578 4.31641 23.6641 3.80859 23.6641H2.36719V26.0605Z" fill="#4967EE"/>
<path d="M12.1582 30.3789C11.7402 30.8711 11.1465 31.1172 10.377 31.1172C9.68945 31.1172 9.16797 30.916 8.8125 30.5137C8.46094 30.1113 8.28516 29.5293 8.28516 28.7676V24.6602H9.70898V28.75C9.70898 29.5547 10.043 29.957 10.7109 29.957C11.4023 29.957 11.8691 29.709 12.1113 29.2129V24.6602H13.5352V31H12.1934L12.1582 30.3789Z" fill="#4967EE"/>
<path d="M16.3066 24.6602L16.3477 25.3926C16.8164 24.8262 17.4316 24.543 18.1934 24.543C19.5137 24.543 20.1855 25.2988 20.209 26.8105V31H18.7852V26.8926C18.7852 26.4902 18.6973 26.1934 18.5215 26.002C18.3496 25.8066 18.0664 25.709 17.6719 25.709C17.0977 25.709 16.6699 25.9688 16.3887 26.4883V31H14.9648V24.6602H16.3066Z" fill="#4967EE"/>
<path d="M21.3984 27.7832C21.3984 26.8066 21.625 26.0234 22.0781 25.4336C22.5312 24.8398 23.1387 24.543 23.9004 24.543C24.5723 24.543 25.1152 24.7773 25.5293 25.2461V22H26.9531V31H25.6641L25.5938 30.3438C25.168 30.8594 24.5996 31.1172 23.8887 31.1172C23.1465 31.1172 22.5449 30.8184 22.084 30.2207C21.627 29.623 21.3984 28.8105 21.3984 27.7832ZM22.8223 27.9062C22.8223 28.5508 22.9453 29.0547 23.1914 29.418C23.4414 29.7773 23.7949 29.957 24.252 29.957C24.834 29.957 25.2598 29.6973 25.5293 29.1777V26.4707C25.2676 25.9629 24.8457 25.709 24.2637 25.709C23.8027 25.709 23.4473 25.8926 23.1973 26.2598C22.9473 26.623 22.8223 27.1719 22.8223 27.9062Z" fill="#4967EE"/>
<path d="M29.9531 31H28.5293V22H29.9531V31Z" fill="#4967EE"/>
<path d="M34.3008 31.1172C33.3984 31.1172 32.666 30.834 32.1035 30.2676C31.5449 29.6973 31.2656 28.9395 31.2656 27.9941V27.8184C31.2656 27.1855 31.3867 26.6211 31.6289 26.125C31.875 25.625 32.2188 25.2363 32.6602 24.959C33.1016 24.6816 33.5938 24.543 34.1367 24.543C35 24.543 35.666 24.8184 36.1348 25.3691C36.6074 25.9199 36.8438 26.6992 36.8438 27.707V28.2812H32.7012C32.7441 28.8047 32.918 29.2188 33.2227 29.5234C33.5312 29.8281 33.918 29.9805 34.3828 29.9805C35.0352 29.9805 35.5664 29.7168 35.9766 29.1895L36.7441 29.9219C36.4902 30.3008 36.1504 30.5957 35.7246 30.8066C35.3027 31.0137 34.8281 31.1172 34.3008 31.1172ZM34.1309 25.6855C33.7402 25.6855 33.4238 25.8223 33.1816 26.0957C32.9434 26.3691 32.791 26.75 32.7246 27.2383H35.4375V27.1328C35.4062 26.6562 35.2793 26.2969 35.0566 26.0547C34.834 25.8086 34.5254 25.6855 34.1309 25.6855Z" fill="#4967EE"/>
<path d="M43.1602 28.9609L44.4492 24.6602H45.9668L43.4473 31.9609C43.0605 33.0273 42.4043 33.5605 41.4785 33.5605C41.2715 33.5605 41.043 33.5254 40.793 33.4551V32.3535L41.0625 32.3711C41.4219 32.3711 41.6914 32.3047 41.8711 32.1719C42.0547 32.043 42.1992 31.8242 42.3047 31.5156L42.5098 30.9707L40.2832 24.6602H41.8184L43.1602 28.9609Z" fill="#4967EE"/>
<path d="M46.4297 27.7715C46.4297 27.1504 46.5527 26.5918 46.7988 26.0957C47.0449 25.5957 47.3906 25.2129 47.8359 24.9473C48.2812 24.6777 48.793 24.543 49.3711 24.543C50.2266 24.543 50.9199 24.8184 51.4512 25.3691C51.9863 25.9199 52.2754 26.6504 52.3184 27.5605L52.3242 27.8945C52.3242 28.5195 52.2031 29.0781 51.9609 29.5703C51.7227 30.0625 51.3789 30.4434 50.9297 30.7129C50.4844 30.9824 49.9688 31.1172 49.3828 31.1172C48.4883 31.1172 47.7715 30.8203 47.2324 30.2266C46.6973 29.6289 46.4297 28.834 46.4297 27.8418V27.7715ZM47.8535 27.8945C47.8535 28.5469 47.9883 29.0586 48.2578 29.4297C48.5273 29.7969 48.9023 29.9805 49.3828 29.9805C49.8633 29.9805 50.2363 29.793 50.502 29.418C50.7715 29.043 50.9062 28.4941 50.9062 27.7715C50.9062 27.1309 50.7676 26.623 50.4902 26.248C50.2168 25.873 49.8438 25.6855 49.3711 25.6855C48.9062 25.6855 48.5371 25.8711 48.2637 26.2422C47.9902 26.6094 47.8535 27.1602 47.8535 27.8945Z" fill="#4967EE"/>
<path d="M57.3691 30.3789C56.9512 30.8711 56.3574 31.1172 55.5879 31.1172C54.9004 31.1172 54.3789 30.916 54.0234 30.5137C53.6719 30.1113 53.4961 29.5293 53.4961 28.7676V24.6602H54.9199V28.75C54.9199 29.5547 55.2539 29.957 55.9219 29.957C56.6133 29.957 57.0801 29.709 57.3223 29.2129V24.6602H58.7461V31H57.4043L57.3691 30.3789Z" fill="#4967EE"/>
<path d="M63.5156 25.9609C63.3281 25.9297 63.1348 25.9141 62.9355 25.9141C62.2832 25.9141 61.8438 26.1641 61.6172 26.6641V31H60.1934V24.6602H61.5527L61.5879 25.3691C61.9316 24.8184 62.4082 24.543 63.0176 24.543C63.2207 24.543 63.3887 24.5703 63.5215 24.625L63.5156 25.9609Z" fill="#4967EE"/>
<path d="M68.918 31H67.4941V22H68.918V31Z" fill="#4967EE"/>
<path d="M71.9883 31H70.5645V24.6602H71.9883V31ZM70.4766 23.0137C70.4766 22.7949 70.5449 22.6133 70.6816 22.4688C70.8223 22.3242 71.0215 22.252 71.2793 22.252C71.5371 22.252 71.7363 22.3242 71.877 22.4688C72.0176 22.6133 72.0879 22.7949 72.0879 23.0137C72.0879 23.2285 72.0176 23.4082 71.877 23.5527C71.7363 23.6934 71.5371 23.7637 71.2793 23.7637C71.0215 23.7637 70.8223 23.6934 70.6816 23.5527C70.5449 23.4082 70.4766 23.2285 70.4766 23.0137Z" fill="#4967EE"/>
<path d="M75.7793 29.1953L77.1211 24.6602H78.5918L76.3945 31H75.1582L72.9434 24.6602H74.4199L75.7793 29.1953Z" fill="#4967EE"/>
<path d="M82.1953 31.1172C81.293 31.1172 80.5605 30.834 79.998 30.2676C79.4395 29.6973 79.1602 28.9395 79.1602 27.9941V27.8184C79.1602 27.1855 79.2812 26.6211 79.5234 26.125C79.7695 25.625 80.1133 25.2363 80.5547 24.959C80.9961 24.6816 81.4883 24.543 82.0312 24.543C82.8945 24.543 83.5605 24.8184 84.0293 25.3691C84.502 25.9199 84.7383 26.6992 84.7383 27.707V28.2812H80.5957C80.6387 28.8047 80.8125 29.2188 81.1172 29.5234C81.4258 29.8281 81.8125 29.9805 82.2773 29.9805C82.9297 29.9805 83.4609 29.7168 83.8711 29.1895L84.6387 29.9219C84.3848 30.3008 84.0449 30.5957 83.6191 30.8066C83.1973 31.0137 82.7227 31.1172 82.1953 31.1172ZM82.0254 25.6855C81.6348 25.6855 81.3184 25.8223 81.0762 26.0957C80.8379 26.3691 80.6855 26.75 80.6191 27.2383H83.332V27.1328C83.3008 26.6562 83.1738 26.2969 82.9512 26.0547C82.7285 25.8086 82.4199 25.6855 82.0254 25.6855Z" fill="#4967EE"/>
<path d="M92.3906 29.2773C92.3906 29.0234 92.2852 28.8301 92.0742 28.6973C91.8672 28.5645 91.5215 28.4473 91.0371 28.3457C90.5527 28.2441 90.1484 28.1152 89.8242 27.959C89.1133 27.6152 88.7578 27.1172 88.7578 26.4648C88.7578 25.918 88.9883 25.4609 89.4492 25.0938C89.9102 24.7266 90.4961 24.543 91.207 24.543C91.9648 24.543 92.5762 24.7305 93.041 25.1055C93.5098 25.4805 93.7441 25.9668 93.7441 26.5645H92.3203C92.3203 26.291 92.2188 26.0645 92.0156 25.8848C91.8125 25.7012 91.543 25.6094 91.207 25.6094C90.8945 25.6094 90.6387 25.6816 90.4395 25.8262C90.2441 25.9707 90.1465 26.1641 90.1465 26.4062C90.1465 26.625 90.2383 26.7949 90.4219 26.916C90.6055 27.0371 90.9766 27.1602 91.5352 27.2852C92.0938 27.4062 92.5312 27.5527 92.8477 27.7246C93.168 27.8926 93.4043 28.0957 93.5566 28.334C93.7129 28.5723 93.791 28.8613 93.791 29.2012C93.791 29.7715 93.5547 30.2344 93.082 30.5898C92.6094 30.9414 91.9902 31.1172 91.2246 31.1172C90.7051 31.1172 90.2422 31.0234 89.8359 30.8359C89.4297 30.6484 89.1133 30.3906 88.8867 30.0625C88.6602 29.7344 88.5469 29.3809 88.5469 29.002H89.9297C89.9492 29.3379 90.0762 29.5977 90.3105 29.7812C90.5449 29.9609 90.8555 30.0508 91.2422 30.0508C91.6172 30.0508 91.9023 29.9805 92.0977 29.8398C92.293 29.6953 92.3906 29.5078 92.3906 29.2773Z" fill="#4967EE"/>
<path d="M96.8203 23.1191V24.6602H97.9395V25.7148H96.8203V29.2539C96.8203 29.4961 96.8672 29.6719 96.9609 29.7812C97.0586 29.8867 97.2305 29.9395 97.4766 29.9395C97.6406 29.9395 97.8066 29.9199 97.9746 29.8809V30.9824C97.6504 31.0723 97.3379 31.1172 97.0371 31.1172C95.9434 31.1172 95.3965 30.5137 95.3965 29.3066V25.7148H94.3535V24.6602H95.3965V23.1191H96.8203Z" fill="#4967EE"/>
<path d="M102.352 25.9609C102.164 25.9297 101.971 25.9141 101.771 25.9141C101.119 25.9141 100.68 26.1641 100.453 26.6641V31H99.0293V24.6602H100.389L100.424 25.3691C100.768 24.8184 101.244 24.543 101.854 24.543C102.057 24.543 102.225 24.5703 102.357 24.625L102.352 25.9609Z" fill="#4967EE"/>
<path d="M105.926 31.1172C105.023 31.1172 104.291 30.834 103.729 30.2676C103.17 29.6973 102.891 28.9395 102.891 27.9941V27.8184C102.891 27.1855 103.012 26.6211 103.254 26.125C103.5 25.625 103.844 25.2363 104.285 24.959C104.727 24.6816 105.219 24.543 105.762 24.543C106.625 24.543 107.291 24.8184 107.76 25.3691C108.232 25.9199 108.469 26.6992 108.469 27.707V28.2812H104.326C104.369 28.8047 104.543 29.2188 104.848 29.5234C105.156 29.8281 105.543 29.9805 106.008 29.9805C106.66 29.9805 107.191 29.7168 107.602 29.1895L108.369 29.9219C108.115 30.3008 107.775 30.5957 107.35 30.8066C106.928 31.0137 106.453 31.1172 105.926 31.1172ZM105.756 25.6855C105.365 25.6855 105.049 25.8223 104.807 26.0957C104.568 26.3691 104.416 26.75 104.35 27.2383H107.062V27.1328C107.031 26.6562 106.904 26.2969 106.682 26.0547C106.459 25.8086 106.15 25.6855 105.756 25.6855Z" fill="#4967EE"/>
<path d="M113.367 31C113.305 30.8789 113.25 30.6816 113.203 30.4082C112.75 30.8809 112.195 31.1172 111.539 31.1172C110.902 31.1172 110.383 30.9355 109.98 30.5723C109.578 30.209 109.377 29.7598 109.377 29.2246C109.377 28.5488 109.627 28.0312 110.127 27.6719C110.631 27.3086 111.35 27.127 112.283 27.127H113.156V26.7109C113.156 26.3828 113.064 26.1211 112.881 25.9258C112.697 25.7266 112.418 25.627 112.043 25.627C111.719 25.627 111.453 25.709 111.246 25.873C111.039 26.0332 110.936 26.2383 110.936 26.4883H109.512C109.512 26.1406 109.627 25.8164 109.857 25.5156C110.088 25.2109 110.4 24.9727 110.795 24.8008C111.193 24.6289 111.637 24.543 112.125 24.543C112.867 24.543 113.459 24.7305 113.9 25.1055C114.342 25.4766 114.568 26 114.58 26.6758V29.5352C114.58 30.1055 114.66 30.5605 114.82 30.9004V31H113.367ZM111.803 29.9746C112.084 29.9746 112.348 29.9062 112.594 29.7695C112.844 29.6328 113.031 29.4492 113.156 29.2188V28.0234H112.389C111.861 28.0234 111.465 28.1152 111.199 28.2988C110.934 28.4824 110.801 28.7422 110.801 29.0781C110.801 29.3516 110.891 29.5703 111.07 29.7344C111.254 29.8945 111.498 29.9746 111.803 29.9746Z" fill="#4967EE"/>
<path d="M117.41 24.6602L117.451 25.3223C117.896 24.8027 118.506 24.543 119.279 24.543C120.127 24.543 120.707 24.8672 121.02 25.5156C121.48 24.8672 122.129 24.543 122.965 24.543C123.664 24.543 124.184 24.7363 124.523 25.123C124.867 25.5098 125.043 26.0801 125.051 26.834V31H123.627V26.875C123.627 26.4727 123.539 26.1777 123.363 25.9902C123.188 25.8027 122.896 25.709 122.49 25.709C122.166 25.709 121.9 25.7969 121.693 25.9727C121.49 26.1445 121.348 26.3711 121.266 26.6523L121.271 31H119.848V26.8281C119.828 26.082 119.447 25.709 118.705 25.709C118.135 25.709 117.73 25.9414 117.492 26.4062V31H116.068V24.6602H117.41Z" fill="#4967EE"/>
<path d="M130.066 29.2773C130.066 29.0234 129.961 28.8301 129.75 28.6973C129.543 28.5645 129.197 28.4473 128.713 28.3457C128.229 28.2441 127.824 28.1152 127.5 27.959C126.789 27.6152 126.434 27.1172 126.434 26.4648C126.434 25.918 126.664 25.4609 127.125 25.0938C127.586 24.7266 128.172 24.543 128.883 24.543C129.641 24.543 130.252 24.7305 130.717 25.1055C131.186 25.4805 131.42 25.9668 131.42 26.5645H129.996C129.996 26.291 129.895 26.0645 129.691 25.8848C129.488 25.7012 129.219 25.6094 128.883 25.6094C128.57 25.6094 128.314 25.6816 128.115 25.8262C127.92 25.9707 127.822 26.1641 127.822 26.4062C127.822 26.625 127.914 26.7949 128.098 26.916C128.281 27.0371 128.652 27.1602 129.211 27.2852C129.77 27.4062 130.207 27.5527 130.523 27.7246C130.844 27.8926 131.08 28.0957 131.232 28.334C131.389 28.5723 131.467 28.8613 131.467 29.2012C131.467 29.7715 131.23 30.2344 130.758 30.5898C130.285 30.9414 129.666 31.1172 128.9 31.1172C128.381 31.1172 127.918 31.0234 127.512 30.8359C127.105 30.6484 126.789 30.3906 126.562 30.0625C126.336 29.7344 126.223 29.3809 126.223 29.002H127.605C127.625 29.3379 127.752 29.5977 127.986 29.7812C128.221 29.9609 128.531 30.0508 128.918 30.0508C129.293 30.0508 129.578 29.9805 129.773 29.8398C129.969 29.6953 130.066 29.5078 130.066 29.2773Z" fill="#4967EE"/>
<path d="M41.4199 47C41.3574 46.8789 41.3027 46.6816 41.2559 46.4082C40.8027 46.8809 40.248 47.1172 39.5918 47.1172C38.9551 47.1172 38.4355 46.9355 38.0332 46.5723C37.6309 46.209 37.4297 45.7598 37.4297 45.2246C37.4297 44.5488 37.6797 44.0312 38.1797 43.6719C38.6836 43.3086 39.4023 43.127 40.3359 43.127H41.209V42.7109C41.209 42.3828 41.1172 42.1211 40.9336 41.9258C40.75 41.7266 40.4707 41.627 40.0957 41.627C39.7715 41.627 39.5059 41.709 39.2988 41.873C39.0918 42.0332 38.9883 42.2383 38.9883 42.4883H37.5645C37.5645 42.1406 37.6797 41.8164 37.9102 41.5156C38.1406 41.2109 38.4531 40.9727 38.8477 40.8008C39.2461 40.6289 39.6895 40.543 40.1777 40.543C40.9199 40.543 41.5117 40.7305 41.9531 41.1055C42.3945 41.4766 42.6211 42 42.6328 42.6758V45.5352C42.6328 46.1055 42.7129 46.5605 42.873 46.9004V47H41.4199ZM39.8555 45.9746C40.1367 45.9746 40.4004 45.9062 40.6465 45.7695C40.8965 45.6328 41.084 45.4492 41.209 45.2188V44.0234H40.4414C39.9141 44.0234 39.5176 44.1152 39.252 44.2988C38.9863 44.4824 38.8535 44.7422 38.8535 45.0781C38.8535 45.3516 38.9434 45.5703 39.123 45.7344C39.3066 45.8945 39.5508 45.9746 39.8555 45.9746Z" fill="#4967EE"/>
<path d="M45.4453 40.6602L45.4863 41.3926C45.9551 40.8262 46.5703 40.543 47.332 40.543C48.6523 40.543 49.3242 41.2988 49.3477 42.8105V47H47.9238V42.8926C47.9238 42.4902 47.8359 42.1934 47.6602 42.002C47.4883 41.8066 47.2051 41.709 46.8105 41.709C46.2363 41.709 45.8086 41.9688 45.5273 42.4883V47H44.1035V40.6602H45.4453Z" fill="#4967EE"/>
<path d="M50.5371 43.7832C50.5371 42.8066 50.7637 42.0234 51.2168 41.4336C51.6699 40.8398 52.2773 40.543 53.0391 40.543C53.7109 40.543 54.2539 40.7773 54.668 41.2461V38H56.0918V47H54.8027L54.7324 46.3438C54.3066 46.8594 53.7383 47.1172 53.0273 47.1172C52.2852 47.1172 51.6836 46.8184 51.2227 46.2207C50.7656 45.623 50.5371 44.8105 50.5371 43.7832ZM51.9609 43.9062C51.9609 44.5508 52.084 45.0547 52.3301 45.418C52.5801 45.7773 52.9336 45.957 53.3906 45.957C53.9727 45.957 54.3984 45.6973 54.668 45.1777V42.4707C54.4062 41.9629 53.9844 41.709 53.4023 41.709C52.9414 41.709 52.5859 41.8926 52.3359 42.2598C52.0859 42.623 51.9609 43.1719 51.9609 43.9062Z" fill="#4967EE"/>
<path d="M62.8008 45.1953L64.1426 40.6602H65.6133L63.416 47H62.1797L59.9648 40.6602H61.4414L62.8008 45.1953Z" fill="#4967EE"/>
<path d="M68.0215 47H66.5977V40.6602H68.0215V47ZM66.5098 39.0137C66.5098 38.7949 66.5781 38.6133 66.7148 38.4688C66.8555 38.3242 67.0547 38.252 67.3125 38.252C67.5703 38.252 67.7695 38.3242 67.9102 38.4688C68.0508 38.6133 68.1211 38.7949 68.1211 39.0137C68.1211 39.2285 68.0508 39.4082 67.9102 39.5527C67.7695 39.6934 67.5703 39.7637 67.3125 39.7637C67.0547 39.7637 66.8555 39.6934 66.7148 39.5527C66.5781 39.4082 66.5098 39.2285 66.5098 39.0137Z" fill="#4967EE"/>
<path d="M69.3105 43.7832C69.3105 42.8066 69.5371 42.0234 69.9902 41.4336C70.4434 40.8398 71.0508 40.543 71.8125 40.543C72.4844 40.543 73.0273 40.7773 73.4414 41.2461V38H74.8652V47H73.5762L73.5059 46.3438C73.0801 46.8594 72.5117 47.1172 71.8008 47.1172C71.0586 47.1172 70.457 46.8184 69.9961 46.2207C69.5391 45.623 69.3105 44.8105 69.3105 43.7832ZM70.7344 43.9062C70.7344 44.5508 70.8574 45.0547 71.1035 45.418C71.3535 45.7773 71.707 45.957 72.1641 45.957C72.7461 45.957 73.1719 45.6973 73.4414 45.1777V42.4707C73.1797 41.9629 72.7578 41.709 72.1758 41.709C71.7148 41.709 71.3594 41.8926 71.1094 42.2598C70.8594 42.623 70.7344 43.1719 70.7344 43.9062Z" fill="#4967EE"/>
<path d="M79.1426 47.1172C78.2402 47.1172 77.5078 46.834 76.9453 46.2676C76.3867 45.6973 76.1074 44.9395 76.1074 43.9941V43.8184C76.1074 43.1855 76.2285 42.6211 76.4707 42.125C76.7168 41.625 77.0605 41.2363 77.502 40.959C77.9434 40.6816 78.4355 40.543 78.9785 40.543C79.8418 40.543 80.5078 40.8184 80.9766 41.3691C81.4492 41.9199 81.6855 42.6992 81.6855 43.707V44.2812H77.543C77.5859 44.8047 77.7598 45.2188 78.0645 45.5234C78.373 45.8281 78.7598 45.9805 79.2246 45.9805C79.877 45.9805 80.4082 45.7168 80.8184 45.1895L81.5859 45.9219C81.332 46.3008 80.9922 46.5957 80.5664 46.8066C80.1445 47.0137 79.6699 47.1172 79.1426 47.1172ZM78.9727 41.6855C78.582 41.6855 78.2656 41.8223 78.0234 42.0957C77.7852 42.3691 77.6328 42.75 77.5664 43.2383H80.2793V43.1328C80.248 42.6562 80.1211 42.2969 79.8984 42.0547C79.6758 41.8086 79.3672 41.6855 78.9727 41.6855Z" fill="#4967EE"/>
<path d="M82.5293 43.7715C82.5293 43.1504 82.6523 42.5918 82.8984 42.0957C83.1445 41.5957 83.4902 41.2129 83.9355 40.9473C84.3809 40.6777 84.8926 40.543 85.4707 40.543C86.3262 40.543 87.0195 40.8184 87.5508 41.3691C88.0859 41.9199 88.375 42.6504 88.418 43.5605L88.4238 43.8945C88.4238 44.5195 88.3027 45.0781 88.0605 45.5703C87.8223 46.0625 87.4785 46.4434 87.0293 46.7129C86.584 46.9824 86.0684 47.1172 85.4824 47.1172C84.5879 47.1172 83.8711 46.8203 83.332 46.2266C82.7969 45.6289 82.5293 44.834 82.5293 43.8418V43.7715ZM83.9531 43.8945C83.9531 44.5469 84.0879 45.0586 84.3574 45.4297C84.627 45.7969 85.002 45.9805 85.4824 45.9805C85.9629 45.9805 86.3359 45.793 86.6016 45.418C86.8711 45.043 87.0059 44.4941 87.0059 43.7715C87.0059 43.1309 86.8672 42.623 86.5898 42.248C86.3164 41.873 85.9434 41.6855 85.4707 41.6855C85.0059 41.6855 84.6367 41.8711 84.3633 42.2422C84.0898 42.6094 83.9531 43.1602 83.9531 43.8945Z" fill="#4967EE"/>
<path d="M93.1816 45.2773C93.1816 45.0234 93.0762 44.8301 92.8652 44.6973C92.6582 44.5645 92.3125 44.4473 91.8281 44.3457C91.3438 44.2441 90.9395 44.1152 90.6152 43.959C89.9043 43.6152 89.5488 43.1172 89.5488 42.4648C89.5488 41.918 89.7793 41.4609 90.2402 41.0938C90.7012 40.7266 91.2871 40.543 91.998 40.543C92.7559 40.543 93.3672 40.7305 93.832 41.1055C94.3008 41.4805 94.5352 41.9668 94.5352 42.5645H93.1113C93.1113 42.291 93.0098 42.0645 92.8066 41.8848C92.6035 41.7012 92.334 41.6094 91.998 41.6094C91.6855 41.6094 91.4297 41.6816 91.2305 41.8262C91.0352 41.9707 90.9375 42.1641 90.9375 42.4062C90.9375 42.625 91.0293 42.7949 91.2129 42.916C91.3965 43.0371 91.7676 43.1602 92.3262 43.2852C92.8848 43.4062 93.3223 43.5527 93.6387 43.7246C93.959 43.8926 94.1953 44.0957 94.3477 44.334C94.5039 44.5723 94.582 44.8613 94.582 45.2012C94.582 45.7715 94.3457 46.2344 93.873 46.5898C93.4004 46.9414 92.7812 47.1172 92.0156 47.1172C91.4961 47.1172 91.0332 47.0234 90.627 46.8359C90.2207 46.6484 89.9043 46.3906 89.6777 46.0625C89.4512 45.7344 89.3379 45.3809 89.3379 45.002H90.7207C90.7402 45.3379 90.8672 45.5977 91.1016 45.7812C91.3359 45.9609 91.6465 46.0508 92.0332 46.0508C92.4082 46.0508 92.6934 45.9805 92.8887 45.8398C93.084 45.6953 93.1816 45.5078 93.1816 45.2773Z" fill="#4967EE"/>
<path d="M168.039 80.957C168.039 81.793 167.895 82.5273 167.605 83.1602C167.316 83.7891 166.902 84.2734 166.363 84.6133C165.828 84.9492 165.211 85.1172 164.512 85.1172C163.82 85.1172 163.203 84.9492 162.66 84.6133C162.121 84.2734 161.703 83.791 161.406 83.166C161.113 82.541 160.965 81.8203 160.961 81.0039V80.5234C160.961 79.6914 161.107 78.957 161.4 78.3203C161.697 77.6836 162.113 77.1973 162.648 76.8613C163.188 76.5215 163.805 76.3516 164.5 76.3516C165.195 76.3516 165.811 76.5195 166.346 76.8555C166.885 77.1875 167.301 77.668 167.594 78.2969C167.887 78.9219 168.035 79.6504 168.039 80.4824V80.957ZM166.557 80.5117C166.557 79.5664 166.377 78.8418 166.018 78.3379C165.662 77.834 165.156 77.582 164.5 77.582C163.859 77.582 163.357 77.834 162.994 78.3379C162.635 78.8379 162.451 79.5469 162.443 80.4648V80.957C162.443 81.8945 162.625 82.6191 162.988 83.1309C163.355 83.6426 163.863 83.8984 164.512 83.8984C165.168 83.8984 165.672 83.6484 166.023 83.1484C166.379 82.6484 166.557 81.918 166.557 80.957V80.5117Z" fill="#4967EE"/>
<path d="M172.697 79.9609C172.51 79.9297 172.316 79.9141 172.117 79.9141C171.465 79.9141 171.025 80.1641 170.799 80.6641V85H169.375V78.6602H170.734L170.77 79.3691C171.113 78.8184 171.59 78.543 172.199 78.543C172.402 78.543 172.57 78.5703 172.703 78.625L172.697 79.9609Z" fill="#4967EE"/>
<path d="M173.23 81.7832C173.23 80.7988 173.461 80.0137 173.922 79.4277C174.387 78.8379 175.002 78.543 175.768 78.543C176.49 78.543 177.059 78.7949 177.473 79.2988L177.537 78.6602H178.82V84.8066C178.82 85.6387 178.561 86.2949 178.041 86.7754C177.525 87.2559 176.828 87.4961 175.949 87.4961C175.484 87.4961 175.029 87.3984 174.584 87.2031C174.143 87.0117 173.807 86.7598 173.576 86.4473L174.25 85.5918C174.688 86.1113 175.227 86.3711 175.867 86.3711C176.34 86.3711 176.713 86.2422 176.986 85.9844C177.26 85.7305 177.396 85.3555 177.396 84.8594V84.4316C176.986 84.8887 176.439 85.1172 175.756 85.1172C175.014 85.1172 174.406 84.8223 173.934 84.2324C173.465 83.6426 173.23 82.8262 173.23 81.7832ZM174.648 81.9062C174.648 82.543 174.777 83.0449 175.035 83.4121C175.297 83.7754 175.658 83.957 176.119 83.957C176.693 83.957 177.119 83.7109 177.396 83.2188V80.4297C177.127 79.9492 176.705 79.709 176.131 79.709C175.662 79.709 175.297 79.8945 175.035 80.2656C174.777 80.6367 174.648 81.1836 174.648 81.9062Z" fill="#4967EE"/>
<path d="M184.076 85C184.014 84.8789 183.959 84.6816 183.912 84.4082C183.459 84.8809 182.904 85.1172 182.248 85.1172C181.611 85.1172 181.092 84.9355 180.689 84.5723C180.287 84.209 180.086 83.7598 180.086 83.2246C180.086 82.5488 180.336 82.0312 180.836 81.6719C181.34 81.3086 182.059 81.127 182.992 81.127H183.865V80.7109C183.865 80.3828 183.773 80.1211 183.59 79.9258C183.406 79.7266 183.127 79.627 182.752 79.627C182.428 79.627 182.162 79.709 181.955 79.873C181.748 80.0332 181.645 80.2383 181.645 80.4883H180.221C180.221 80.1406 180.336 79.8164 180.566 79.5156C180.797 79.2109 181.109 78.9727 181.504 78.8008C181.902 78.6289 182.346 78.543 182.834 78.543C183.576 78.543 184.168 78.7305 184.609 79.1055C185.051 79.4766 185.277 80 185.289 80.6758V83.5352C185.289 84.1055 185.369 84.5605 185.529 84.9004V85H184.076ZM182.512 83.9746C182.793 83.9746 183.057 83.9062 183.303 83.7695C183.553 83.6328 183.74 83.4492 183.865 83.2188V82.0234H183.098C182.57 82.0234 182.174 82.1152 181.908 82.2988C181.643 82.4824 181.51 82.7422 181.51 83.0781C181.51 83.3516 181.6 83.5703 181.779 83.7344C181.963 83.8945 182.207 83.9746 182.512 83.9746Z" fill="#4967EE"/>
<path d="M188.102 78.6602L188.143 79.3926C188.611 78.8262 189.227 78.543 189.988 78.543C191.309 78.543 191.98 79.2988 192.004 80.8105V85H190.58V80.8926C190.58 80.4902 190.492 80.1934 190.316 80.002C190.145 79.8066 189.861 79.709 189.467 79.709C188.893 79.709 188.465 79.9688 188.184 80.4883V85H186.76V78.6602H188.102Z" fill="#4967EE"/>
<path d="M194.975 85H193.551V78.6602H194.975V85ZM193.463 77.0137C193.463 76.7949 193.531 76.6133 193.668 76.4688C193.809 76.3242 194.008 76.252 194.266 76.252C194.523 76.252 194.723 76.3242 194.863 76.4688C195.004 76.6133 195.074 76.7949 195.074 77.0137C195.074 77.2285 195.004 77.4082 194.863 77.5527C194.723 77.6934 194.523 77.7637 194.266 77.7637C194.008 77.7637 193.809 77.6934 193.668 77.5527C193.531 77.4082 193.463 77.2285 193.463 77.0137Z" fill="#4967EE"/>
<path d="M198.051 83.8633H201.426V85H196.281V84.0684L199.498 79.8086H196.34V78.6602H201.303V79.5625L198.051 83.8633Z" fill="#4967EE"/>
<path d="M205.264 85.1172C204.361 85.1172 203.629 84.834 203.066 84.2676C202.508 83.6973 202.229 82.9395 202.229 81.9941V81.8184C202.229 81.1855 202.35 80.6211 202.592 80.125C202.838 79.625 203.182 79.2363 203.623 78.959C204.064 78.6816 204.557 78.543 205.1 78.543C205.963 78.543 206.629 78.8184 207.098 79.3691C207.57 79.9199 207.807 80.6992 207.807 81.707V82.2812H203.664C203.707 82.8047 203.881 83.2188 204.186 83.5234C204.494 83.8281 204.881 83.9805 205.346 83.9805C205.998 83.9805 206.529 83.7168 206.939 83.1895L207.707 83.9219C207.453 84.3008 207.113 84.5957 206.688 84.8066C206.266 85.0137 205.791 85.1172 205.264 85.1172ZM205.094 79.6855C204.703 79.6855 204.387 79.8223 204.145 80.0957C203.906 80.3691 203.754 80.75 203.688 81.2383H206.4V81.1328C206.369 80.6562 206.242 80.2969 206.02 80.0547C205.797 79.8086 205.488 79.6855 205.094 79.6855Z" fill="#4967EE"/>
<path d="M214.123 82.9609L215.412 78.6602H216.93L214.41 85.9609C214.023 87.0273 213.367 87.5605 212.441 87.5605C212.234 87.5605 212.006 87.5254 211.756 87.4551V86.3535L212.025 86.3711C212.385 86.3711 212.654 86.3047 212.834 86.1719C213.018 86.043 213.162 85.8242 213.268 85.5156L213.473 84.9707L211.246 78.6602H212.781L214.123 82.9609Z" fill="#4967EE"/>
<path d="M217.393 81.7715C217.393 81.1504 217.516 80.5918 217.762 80.0957C218.008 79.5957 218.354 79.2129 218.799 78.9473C219.244 78.6777 219.756 78.543 220.334 78.543C221.189 78.543 221.883 78.8184 222.414 79.3691C222.949 79.9199 223.238 80.6504 223.281 81.5605L223.287 81.8945C223.287 82.5195 223.166 83.0781 222.924 83.5703C222.686 84.0625 222.342 84.4434 221.893 84.7129C221.447 84.9824 220.932 85.1172 220.346 85.1172C219.451 85.1172 218.734 84.8203 218.195 84.2266C217.66 83.6289 217.393 82.834 217.393 81.8418V81.7715ZM218.816 81.8945C218.816 82.5469 218.951 83.0586 219.221 83.4297C219.49 83.7969 219.865 83.9805 220.346 83.9805C220.826 83.9805 221.199 83.793 221.465 83.418C221.734 83.043 221.869 82.4941 221.869 81.7715C221.869 81.1309 221.73 80.623 221.453 80.248C221.18 79.873 220.807 79.6855 220.334 79.6855C219.869 79.6855 219.5 79.8711 219.227 80.2422C218.953 80.6094 218.816 81.1602 218.816 81.8945Z" fill="#4967EE"/>
<path d="M228.332 84.3789C227.914 84.8711 227.32 85.1172 226.551 85.1172C225.863 85.1172 225.342 84.916 224.986 84.5137C224.635 84.1113 224.459 83.5293 224.459 82.7676V78.6602H225.883V82.75C225.883 83.5547 226.217 83.957 226.885 83.957C227.576 83.957 228.043 83.709 228.285 83.2129V78.6602H229.709V85H228.367L228.332 84.3789Z" fill="#4967EE"/>
<path d="M234.479 79.9609C234.291 79.9297 234.098 79.9141 233.898 79.9141C233.246 79.9141 232.807 80.1641 232.58 80.6641V85H231.156V78.6602H232.516L232.551 79.3691C232.895 78.8184 233.371 78.543 233.98 78.543C234.184 78.543 234.352 78.5703 234.484 78.625L234.479 79.9609Z" fill="#4967EE"/>
<path d="M181.879 99.9805C182.234 99.9805 182.529 99.877 182.764 99.6699C182.998 99.4629 183.123 99.207 183.139 98.9023H184.48C184.465 99.2969 184.342 99.666 184.111 100.01C183.881 100.35 183.568 100.619 183.174 100.818C182.779 101.018 182.354 101.117 181.896 101.117C181.01 101.117 180.307 100.83 179.787 100.256C179.268 99.6816 179.008 98.8887 179.008 97.877V97.7305C179.008 96.7656 179.266 95.9941 179.781 95.416C180.297 94.834 181 94.543 181.891 94.543C182.645 94.543 183.258 94.7637 183.73 95.2051C184.207 95.6426 184.457 96.2188 184.48 96.9336H183.139C183.123 96.5703 182.998 96.2715 182.764 96.0371C182.533 95.8027 182.238 95.6855 181.879 95.6855C181.418 95.6855 181.062 95.8535 180.812 96.1895C180.562 96.5215 180.436 97.0273 180.432 97.707V97.9355C180.432 98.623 180.555 99.1367 180.801 99.4766C181.051 99.8125 181.41 99.9805 181.879 99.9805Z" fill="#4967EE"/>
<path d="M185.289 97.7715C185.289 97.1504 185.412 96.5918 185.658 96.0957C185.904 95.5957 186.25 95.2129 186.695 94.9473C187.141 94.6777 187.652 94.543 188.23 94.543C189.086 94.543 189.779 94.8184 190.311 95.3691C190.846 95.9199 191.135 96.6504 191.178 97.5605L191.184 97.8945C191.184 98.5195 191.062 99.0781 190.82 99.5703C190.582 100.062 190.238 100.443 189.789 100.713C189.344 100.982 188.828 101.117 188.242 101.117C187.348 101.117 186.631 100.82 186.092 100.227C185.557 99.6289 185.289 98.834 185.289 97.8418V97.7715ZM186.713 97.8945C186.713 98.5469 186.848 99.0586 187.117 99.4297C187.387 99.7969 187.762 99.9805 188.242 99.9805C188.723 99.9805 189.096 99.793 189.361 99.418C189.631 99.043 189.766 98.4941 189.766 97.7715C189.766 97.1309 189.627 96.623 189.35 96.248C189.076 95.873 188.703 95.6855 188.23 95.6855C187.766 95.6855 187.396 95.8711 187.123 96.2422C186.85 96.6094 186.713 97.1602 186.713 97.8945Z" fill="#4967EE"/>
<path d="M193.709 94.6602L193.75 95.3926C194.219 94.8262 194.834 94.543 195.596 94.543C196.916 94.543 197.588 95.2988 197.611 96.8105V101H196.188V96.8926C196.188 96.4902 196.1 96.1934 195.924 96.002C195.752 95.8066 195.469 95.709 195.074 95.709C194.5 95.709 194.072 95.9688 193.791 96.4883V101H192.367V94.6602H193.709Z" fill="#4967EE"/>
<path d="M200.852 93.1191V94.6602H201.971V95.7148H200.852V99.2539C200.852 99.4961 200.898 99.6719 200.992 99.7812C201.09 99.8867 201.262 99.9395 201.508 99.9395C201.672 99.9395 201.838 99.9199 202.006 99.8809V100.982C201.682 101.072 201.369 101.117 201.068 101.117C199.975 101.117 199.428 100.514 199.428 99.3066V95.7148H198.385V94.6602H199.428V93.1191H200.852Z" fill="#4967EE"/>
<path d="M205.855 101.117C204.953 101.117 204.221 100.834 203.658 100.268C203.1 99.6973 202.82 98.9395 202.82 97.9941V97.8184C202.82 97.1855 202.941 96.6211 203.184 96.125C203.43 95.625 203.773 95.2363 204.215 94.959C204.656 94.6816 205.148 94.543 205.691 94.543C206.555 94.543 207.221 94.8184 207.689 95.3691C208.162 95.9199 208.398 96.6992 208.398 97.707V98.2812H204.256C204.299 98.8047 204.473 99.2188 204.777 99.5234C205.086 99.8281 205.473 99.9805 205.938 99.9805C206.59 99.9805 207.121 99.7168 207.531 99.1895L208.299 99.9219C208.045 100.301 207.705 100.596 207.279 100.807C206.857 101.014 206.383 101.117 205.855 101.117ZM205.686 95.6855C205.295 95.6855 204.979 95.8223 204.736 96.0957C204.498 96.3691 204.346 96.75 204.279 97.2383H206.992V97.1328C206.961 96.6562 206.834 96.2969 206.611 96.0547C206.389 95.8086 206.08 95.6855 205.686 95.6855Z" fill="#4967EE"/>
<path d="M210.83 94.6602L210.871 95.3926C211.34 94.8262 211.955 94.543 212.717 94.543C214.037 94.543 214.709 95.2988 214.732 96.8105V101H213.309V96.8926C213.309 96.4902 213.221 96.1934 213.045 96.002C212.873 95.8066 212.59 95.709 212.195 95.709C211.621 95.709 211.193 95.9688 210.912 96.4883V101H209.488V94.6602H210.83Z" fill="#4967EE"/>
<path d="M217.973 93.1191V94.6602H219.092V95.7148H217.973V99.2539C217.973 99.4961 218.02 99.6719 218.113 99.7812C218.211 99.8867 218.383 99.9395 218.629 99.9395C218.793 99.9395 218.959 99.9199 219.127 99.8809V100.982C218.803 101.072 218.49 101.117 218.189 101.117C217.096 101.117 216.549 100.514 216.549 99.3066V95.7148H215.506V94.6602H216.549V93.1191H217.973Z" fill="#4967EE"/>
<path d="M62.5234 149.223C62.4375 150.133 62.1016 150.844 61.5156 151.355C60.9297 151.863 60.1504 152.117 59.1777 152.117C58.498 152.117 57.8984 151.957 57.3789 151.637C56.8633 151.312 56.4648 150.854 56.1836 150.26C55.9023 149.666 55.7559 148.977 55.7441 148.191V147.395C55.7441 146.59 55.8867 145.881 56.1719 145.268C56.457 144.654 56.8652 144.182 57.3965 143.85C57.9316 143.518 58.5488 143.352 59.248 143.352C60.1895 143.352 60.9473 143.607 61.5215 144.119C62.0957 144.631 62.4297 145.354 62.5234 146.287H61.0469C60.9766 145.674 60.7969 145.232 60.5078 144.963C60.2227 144.689 59.8027 144.553 59.248 144.553C58.6035 144.553 58.1074 144.789 57.7598 145.262C57.416 145.73 57.2402 146.42 57.2324 147.33V148.086C57.2324 149.008 57.3965 149.711 57.7246 150.195C58.0566 150.68 58.541 150.922 59.1777 150.922C59.7598 150.922 60.1973 150.791 60.4902 150.529C60.7832 150.268 60.9688 149.832 61.0469 149.223H62.5234Z" fill="#4967EE"/>
<path d="M67.5566 151.379C67.1387 151.871 66.5449 152.117 65.7754 152.117C65.0879 152.117 64.5664 151.916 64.2109 151.514C63.8594 151.111 63.6836 150.529 63.6836 149.768V145.66H65.1074V149.75C65.1074 150.555 65.4414 150.957 66.1094 150.957C66.8008 150.957 67.2676 150.709 67.5098 150.213V145.66H68.9336V152H67.5918L67.5566 151.379Z" fill="#4967EE"/>
<path d="M73.9375 150.277C73.9375 150.023 73.832 149.83 73.6211 149.697C73.4141 149.564 73.0684 149.447 72.584 149.346C72.0996 149.244 71.6953 149.115 71.3711 148.959C70.6602 148.615 70.3047 148.117 70.3047 147.465C70.3047 146.918 70.5352 146.461 70.9961 146.094C71.457 145.727 72.043 145.543 72.7539 145.543C73.5117 145.543 74.123 145.73 74.5879 146.105C75.0566 146.48 75.291 146.967 75.291 147.564H73.8672C73.8672 147.291 73.7656 147.064 73.5625 146.885C73.3594 146.701 73.0898 146.609 72.7539 146.609C72.4414 146.609 72.1855 146.682 71.9863 146.826C71.791 146.971 71.6934 147.164 71.6934 147.406C71.6934 147.625 71.7852 147.795 71.9688 147.916C72.1523 148.037 72.5234 148.16 73.082 148.285C73.6406 148.406 74.0781 148.553 74.3945 148.725C74.7148 148.893 74.9512 149.096 75.1035 149.334C75.2598 149.572 75.3379 149.861 75.3379 150.201C75.3379 150.771 75.1016 151.234 74.6289 151.59C74.1562 151.941 73.5371 152.117 72.7715 152.117C72.252 152.117 71.7891 152.023 71.3828 151.836C70.9766 151.648 70.6602 151.391 70.4336 151.062C70.207 150.734 70.0938 150.381 70.0938 150.002H71.4766C71.4961 150.338 71.623 150.598 71.8574 150.781C72.0918 150.961 72.4023 151.051 72.7891 151.051C73.1641 151.051 73.4492 150.98 73.6445 150.84C73.8398 150.695 73.9375 150.508 73.9375 150.277Z" fill="#4967EE"/>
<path d="M78.3672 144.119V145.66H79.4863V146.715H78.3672V150.254C78.3672 150.496 78.4141 150.672 78.5078 150.781C78.6055 150.887 78.7773 150.939 79.0234 150.939C79.1875 150.939 79.3535 150.92 79.5215 150.881V151.982C79.1973 152.072 78.8848 152.117 78.584 152.117C77.4902 152.117 76.9434 151.514 76.9434 150.307V146.715H75.9004V145.66H76.9434V144.119H78.3672Z" fill="#4967EE"/>
<path d="M80.1367 148.771C80.1367 148.15 80.2598 147.592 80.5059 147.096C80.752 146.596 81.0977 146.213 81.543 145.947C81.9883 145.678 82.5 145.543 83.0781 145.543C83.9336 145.543 84.627 145.818 85.1582 146.369C85.6934 146.92 85.9824 147.65 86.0254 148.561L86.0312 148.895C86.0312 149.52 85.9102 150.078 85.668 150.57C85.4297 151.062 85.0859 151.443 84.6367 151.713C84.1914 151.982 83.6758 152.117 83.0898 152.117C82.1953 152.117 81.4785 151.82 80.9395 151.227C80.4043 150.629 80.1367 149.834 80.1367 148.842V148.771ZM81.5605 148.895C81.5605 149.547 81.6953 150.059 81.9648 150.43C82.2344 150.797 82.6094 150.98 83.0898 150.98C83.5703 150.98 83.9434 150.793 84.209 150.418C84.4785 150.043 84.6133 149.494 84.6133 148.771C84.6133 148.131 84.4746 147.623 84.1973 147.248C83.9238 146.873 83.5508 146.686 83.0781 146.686C82.6133 146.686 82.2441 146.871 81.9707 147.242C81.6973 147.609 81.5605 148.16 81.5605 148.895Z" fill="#4967EE"/>
<path d="M88.5742 145.66L88.6152 146.322C89.0605 145.803 89.6699 145.543 90.4434 145.543C91.291 145.543 91.8711 145.867 92.1836 146.516C92.6445 145.867 93.293 145.543 94.1289 145.543C94.8281 145.543 95.3477 145.736 95.6875 146.123C96.0312 146.51 96.207 147.08 96.2148 147.834V152H94.791V147.875C94.791 147.473 94.7031 147.178 94.5273 146.99C94.3516 146.803 94.0605 146.709 93.6543 146.709C93.3301 146.709 93.0645 146.797 92.8574 146.973C92.6543 147.145 92.5117 147.371 92.4297 147.652L92.4355 152H91.0117V147.828C90.9922 147.082 90.6113 146.709 89.8691 146.709C89.2988 146.709 88.8945 146.941 88.6562 147.406V152H87.2324V145.66H88.5742Z" fill="#4967EE"/>
<path d="M99.1914 152H97.7676V145.66H99.1914V152ZM97.6797 144.014C97.6797 143.795 97.748 143.613 97.8848 143.469C98.0254 143.324 98.2246 143.252 98.4824 143.252C98.7402 143.252 98.9395 143.324 99.0801 143.469C99.2207 143.613 99.291 143.795 99.291 144.014C99.291 144.229 99.2207 144.408 99.0801 144.553C98.9395 144.693 98.7402 144.764 98.4824 144.764C98.2246 144.764 98.0254 144.693 97.8848 144.553C97.748 144.408 97.6797 144.229 97.6797 144.014Z" fill="#4967EE"/>
<path d="M102.268 150.863H105.643V152H100.498V151.068L103.715 146.809H100.557V145.66H105.52V146.562L102.268 150.863Z" fill="#4967EE"/>
<path d="M109.48 152.117C108.578 152.117 107.846 151.834 107.283 151.268C106.725 150.697 106.445 149.939 106.445 148.994V148.818C106.445 148.186 106.566 147.621 106.809 147.125C107.055 146.625 107.398 146.236 107.84 145.959C108.281 145.682 108.773 145.543 109.316 145.543C110.18 145.543 110.846 145.818 111.314 146.369C111.787 146.92 112.023 147.699 112.023 148.707V149.281H107.881C107.924 149.805 108.098 150.219 108.402 150.523C108.711 150.828 109.098 150.98 109.562 150.98C110.215 150.98 110.746 150.717 111.156 150.189L111.924 150.922C111.67 151.301 111.33 151.596 110.904 151.807C110.482 152.014 110.008 152.117 109.48 152.117ZM109.311 146.686C108.92 146.686 108.604 146.822 108.361 147.096C108.123 147.369 107.971 147.75 107.904 148.238H110.617V148.133C110.586 147.656 110.459 147.297 110.236 147.055C110.014 146.809 109.705 146.686 109.311 146.686Z" fill="#4967EE"/>
<path d="M118.34 149.961L119.629 145.66H121.146L118.627 152.961C118.24 154.027 117.584 154.561 116.658 154.561C116.451 154.561 116.223 154.525 115.973 154.455V153.354L116.242 153.371C116.602 153.371 116.871 153.305 117.051 153.172C117.234 153.043 117.379 152.824 117.484 152.516L117.689 151.971L115.463 145.66H116.998L118.34 149.961Z" fill="#4967EE"/>
<path d="M121.609 148.771C121.609 148.15 121.732 147.592 121.979 147.096C122.225 146.596 122.57 146.213 123.016 145.947C123.461 145.678 123.973 145.543 124.551 145.543C125.406 145.543 126.1 145.818 126.631 146.369C127.166 146.92 127.455 147.65 127.498 148.561L127.504 148.895C127.504 149.52 127.383 150.078 127.141 150.57C126.902 151.062 126.559 151.443 126.109 151.713C125.664 151.982 125.148 152.117 124.562 152.117C123.668 152.117 122.951 151.82 122.412 151.227C121.877 150.629 121.609 149.834 121.609 148.842V148.771ZM123.033 148.895C123.033 149.547 123.168 150.059 123.438 150.43C123.707 150.797 124.082 150.98 124.562 150.98C125.043 150.98 125.416 150.793 125.682 150.418C125.951 150.043 126.086 149.494 126.086 148.771C126.086 148.131 125.947 147.623 125.67 147.248C125.396 146.873 125.023 146.686 124.551 146.686C124.086 146.686 123.717 146.871 123.443 147.242C123.17 147.609 123.033 148.16 123.033 148.895Z" fill="#4967EE"/>
<path d="M132.549 151.379C132.131 151.871 131.537 152.117 130.768 152.117C130.08 152.117 129.559 151.916 129.203 151.514C128.852 151.111 128.676 150.529 128.676 149.768V145.66H130.1V149.75C130.1 150.555 130.434 150.957 131.102 150.957C131.793 150.957 132.26 150.709 132.502 150.213V145.66H133.926V152H132.584L132.549 151.379Z" fill="#4967EE"/>
<path d="M138.695 146.961C138.508 146.93 138.314 146.914 138.115 146.914C137.463 146.914 137.023 147.164 136.797 147.664V152H135.373V145.66H136.732L136.768 146.369C137.111 145.818 137.588 145.543 138.197 145.543C138.4 145.543 138.568 145.57 138.701 145.625L138.695 146.961Z" fill="#4967EE"/>
<path d="M88.4512 164.895C88.4512 165.875 88.2285 166.658 87.7832 167.244C87.3379 167.826 86.7402 168.117 85.9902 168.117C85.2949 168.117 84.7383 167.889 84.3203 167.432V170.438H82.8965V161.66H84.209L84.2676 162.305C84.6855 161.797 85.2539 161.543 85.9727 161.543C86.7461 161.543 87.3516 161.832 87.7891 162.41C88.2305 162.984 88.4512 163.783 88.4512 164.807V164.895ZM87.0332 164.771C87.0332 164.139 86.9062 163.637 86.6523 163.266C86.4023 162.895 86.043 162.709 85.5742 162.709C84.9922 162.709 84.5742 162.949 84.3203 163.43V166.242C84.5781 166.734 85 166.98 85.5859 166.98C86.0391 166.98 86.3926 166.799 86.6465 166.436C86.9043 166.068 87.0332 165.514 87.0332 164.771Z" fill="#4967EE"/>
<path d="M91.1758 168H89.752V159H91.1758V168Z" fill="#4967EE"/>
<path d="M96.5195 168C96.457 167.879 96.4023 167.682 96.3555 167.408C95.9023 167.881 95.3477 168.117 94.6914 168.117C94.0547 168.117 93.5352 167.936 93.1328 167.572C92.7305 167.209 92.5293 166.76 92.5293 166.225C92.5293 165.549 92.7793 165.031 93.2793 164.672C93.7832 164.309 94.502 164.127 95.4355 164.127H96.3086V163.711C96.3086 163.383 96.2168 163.121 96.0332 162.926C95.8496 162.727 95.5703 162.627 95.1953 162.627C94.8711 162.627 94.6055 162.709 94.3984 162.873C94.1914 163.033 94.0879 163.238 94.0879 163.488H92.6641C92.6641 163.141 92.7793 162.816 93.0098 162.516C93.2402 162.211 93.5527 161.973 93.9473 161.801C94.3457 161.629 94.7891 161.543 95.2773 161.543C96.0195 161.543 96.6113 161.73 97.0527 162.105C97.4941 162.477 97.7207 163 97.7324 163.676V166.535C97.7324 167.105 97.8125 167.561 97.9727 167.9V168H96.5195ZM94.9551 166.975C95.2363 166.975 95.5 166.906 95.7461 166.77C95.9961 166.633 96.1836 166.449 96.3086 166.219V165.023H95.541C95.0137 165.023 94.6172 165.115 94.3516 165.299C94.0859 165.482 93.9531 165.742 93.9531 166.078C93.9531 166.352 94.043 166.57 94.2227 166.734C94.4062 166.895 94.6504 166.975 94.9551 166.975Z" fill="#4967EE"/>
<path d="M101.348 165.961L102.637 161.66H104.154L101.635 168.961C101.248 170.027 100.592 170.561 99.666 170.561C99.459 170.561 99.2305 170.525 98.9805 170.455V169.354L99.25 169.371C99.6094 169.371 99.8789 169.305 100.059 169.172C100.242 169.043 100.387 168.824 100.492 168.516L100.697 167.971L98.4707 161.66H100.006L101.348 165.961Z" fill="#4967EE"/>
<path d="M107.688 168.117C106.785 168.117 106.053 167.834 105.49 167.268C104.932 166.697 104.652 165.939 104.652 164.994V164.818C104.652 164.186 104.773 163.621 105.016 163.125C105.262 162.625 105.605 162.236 106.047 161.959C106.488 161.682 106.98 161.543 107.523 161.543C108.387 161.543 109.053 161.818 109.521 162.369C109.994 162.92 110.23 163.699 110.23 164.707V165.281H106.088C106.131 165.805 106.305 166.219 106.609 166.523C106.918 166.828 107.305 166.98 107.77 166.98C108.422 166.98 108.953 166.717 109.363 166.189L110.131 166.922C109.877 167.301 109.537 167.596 109.111 167.807C108.689 168.014 108.215 168.117 107.688 168.117ZM107.518 162.686C107.127 162.686 106.811 162.822 106.568 163.096C106.33 163.369 106.178 163.75 106.111 164.238H108.824V164.133C108.793 163.656 108.666 163.297 108.443 163.055C108.221 162.809 107.912 162.686 107.518 162.686Z" fill="#4967EE"/>
<path d="M114.66 162.961C114.473 162.93 114.279 162.914 114.08 162.914C113.428 162.914 112.988 163.164 112.762 163.664V168H111.338V161.66H112.697L112.732 162.369C113.076 161.818 113.553 161.543 114.162 161.543C114.365 161.543 114.533 161.57 114.666 161.625L114.66 162.961Z" fill="#4967EE"/>
<defs>
<filter id="filter0_d" x="88.4965" y="91.0205" width="15.5552" height="15.5552" filterUnits="userSpaceOnUse" color-interpolation-filters="sRGB">
<feFlood flood-opacity="0" result="BackgroundImageFix"/>
<feColorMatrix in="SourceAlpha" type="matrix" values="0 0 0 0 0 0 0 0 0 0 0 0 0 0 0 0 0 0 127 0" result="hardAlpha"/>
<feOffset dy="0.353629"/>
<feGaussianBlur stdDeviation="0.353629"/>
<feColorMatrix type="matrix" values="0 0 0 0 0 0 0 0 0 0 0 0 0 0 0 0 0 0 0.25 0"/>
<feBlend mode="normal" in2="BackgroundImageFix" result="effect1_dropShadow"/>
<feBlend mode="normal" in="SourceGraphic" in2="effect1_dropShadow" result="shape"/>
</filter>
</defs>
</svg>
