<svg width="242" height="205" viewBox="0 0 242 205" fill="none" xmlns="http://www.w3.org/2000/svg">
<circle cx="123.349" cy="108.349" r="95.3488" fill="#EDF0FE"/>
<path d="M182.567 21.4535L182.663 4.17152" stroke="#C8D1E0" stroke-width="3.03147" stroke-linecap="round" stroke-linejoin="round"/>
<path d="M197.465 26.2209L209.747 14.0622" stroke="#C8D1E0" stroke-width="3.03147" stroke-linecap="round" stroke-linejoin="round"/>
<path d="M217.727 42.311L200.445 42.2144" stroke="#C8D1E0" stroke-width="3.03147" stroke-linecap="round" stroke-linejoin="round"/>
<path d="M15.1288 66.7976L16.9828 68.8011L17.1698 69.0031L17.4197 68.8876L19.8978 67.7412L18.5655 70.1258L18.4312 70.3663L18.6181 70.5683L20.4722 72.5718L17.7947 72.0421L17.5248 71.9887L17.3904 72.2291L16.0582 74.6138L15.7357 71.9017L15.7032 71.6283L15.4332 71.5748L12.7557 71.0451L15.2339 69.8987L15.4838 69.7831L15.4513 69.5096L15.1288 66.7976Z" stroke="#4967EE" stroke-width="0.757868" stroke-linecap="round"/>
<path d="M228.623 59.0429L228.847 61.7646L228.869 62.039L229.137 62.1024L231.794 62.7318L229.276 63.7845L229.022 63.8907L229.044 64.1651L229.268 66.8868L227.488 64.8158L227.308 64.607L227.054 64.7131L224.535 65.7659L225.954 63.4331L226.097 63.1979L225.917 62.9891L224.137 60.9181L226.794 61.5474L227.062 61.6108L227.205 61.3756L228.623 59.0429Z" stroke="#4967EE" stroke-width="0.757868" stroke-linecap="round"/>
<path d="M128.18 1.77953L128.749 4.45033L128.806 4.71962L129.08 4.74837L131.796 5.03343L129.431 6.39901L129.193 6.5367L129.25 6.806L129.819 9.4768L127.789 7.64997L127.585 7.46578L127.346 7.60347L124.982 8.96905L126.092 6.47443L126.204 6.2229L125.999 6.0387L123.969 4.21187L126.685 4.49694L126.959 4.52568L127.071 4.27415L128.18 1.77953Z" stroke="#4967EE" stroke-width="0.757868" stroke-linecap="round"/>
<path d="M212.978 137.117L214.832 139.121L215.019 139.323L215.268 139.207L217.747 138.061L216.414 140.446L216.28 140.686L216.467 140.888L218.321 142.892L215.644 142.362L215.374 142.308L215.239 142.549L213.907 144.934L213.584 142.221L213.552 141.948L213.282 141.895L210.605 141.365L213.083 140.218L213.333 140.103L213.3 139.829L212.978 137.117Z" stroke="#AFBACC" stroke-width="0.757868" stroke-linecap="round"/>
<path d="M15.2156 150.658L14.832 153.362L14.7933 153.634L15.0405 153.756L17.4921 154.958L14.8034 155.427L14.5323 155.474L14.4936 155.747L14.1099 158.451L12.8319 156.037L12.703 155.793L12.4319 155.841L9.74321 156.31L11.642 154.348L11.8335 154.151L11.7046 153.907L10.4266 151.493L12.8782 152.695L13.1254 152.816L13.3168 152.619L15.2156 150.658Z" stroke="#AFBACC" stroke-width="0.757868" stroke-linecap="round"/>
<circle cx="211.768" cy="73.2994" r="2.00479" stroke="#707A8A" stroke-width="0.757868"/>
<circle cx="38.3517" cy="39.9273" r="2.00479" stroke="#707A8A" stroke-width="0.757868"/>
<circle cx="32.3924" cy="163.285" r="2.00479" stroke="#707A8A" stroke-width="0.757868"/>
<circle cx="239.776" cy="150.77" r="2.00479" stroke="#707A8A" stroke-width="0.757868"/>
<circle cx="130.125" cy="22.6454" r="2.00479" stroke="#707A8A" stroke-width="0.757868"/>
<circle cx="32.3924" cy="79.8547" r="2.00479" stroke="#AFBACC" stroke-width="0.757868"/>
<circle cx="205.212" cy="171.032" r="2.00479" stroke="#AFBACC" stroke-width="0.757868"/>
<circle cx="147.407" cy="9.53484" r="2.00479" stroke="#AFBACC" stroke-width="0.757868"/>
<circle cx="24.0494" cy="101.308" r="2.00479" stroke="#4967EE" stroke-width="0.757868"/>
<circle cx="4.38378" cy="174.608" r="2.00479" stroke="#4967EE" stroke-width="0.757868"/>
<circle cx="224.282" cy="123.953" r="2.00479" stroke="#4967EE" stroke-width="0.757868"/>
<path fill-rule="evenodd" clip-rule="evenodd" d="M2.71425 89.5005C2.56581 89.3525 2.32515 89.3525 2.17671 89.5005C2.02828 89.6484 2.02828 89.8882 2.17671 90.0362L3.88709 91.7407L2.11139 93.5103C1.96295 93.6583 1.96295 93.8981 2.11139 94.046C2.25982 94.1939 2.50049 94.1939 2.64892 94.046L4.42462 92.2764L6.11864 93.9646C6.26708 94.1126 6.50774 94.1126 6.65618 93.9646C6.80461 93.8167 6.80461 93.5769 6.65618 93.4289L4.96216 91.7407L6.59085 90.1176C6.73929 89.9696 6.73929 89.7298 6.59085 89.5819C6.44241 89.4339 6.20175 89.4339 6.05332 89.5819L4.42462 91.205L2.71425 89.5005Z" fill="#707A8A"/>
<path fill-rule="evenodd" clip-rule="evenodd" d="M36.6822 140.75C36.5338 140.603 36.2931 140.603 36.1447 140.75C35.9962 140.898 35.9962 141.138 36.1447 141.286L37.855 142.991L36.0793 144.76C35.9309 144.908 35.9309 145.148 36.0793 145.296C36.2278 145.444 36.4684 145.444 36.6169 145.296L38.3926 143.526L40.0866 145.215C40.235 145.363 40.4757 145.363 40.6241 145.215C40.7726 145.067 40.7726 144.827 40.6241 144.679L38.9301 142.991L40.5588 141.368C40.7072 141.22 40.7072 140.98 40.5588 140.832C40.4104 140.684 40.1697 140.684 40.0213 140.832L38.3926 142.455L36.6822 140.75Z" fill="#AFBACC"/>
<path fill-rule="evenodd" clip-rule="evenodd" d="M27.1474 183.062C26.9989 182.914 26.7583 182.914 26.6098 183.062C26.4614 183.209 26.4614 183.449 26.6098 183.597L28.3202 185.302L26.5445 187.071C26.3961 187.219 26.3961 187.459 26.5445 187.607C26.6929 187.755 26.9336 187.755 27.082 187.607L28.8577 185.837L30.5517 187.526C30.7002 187.674 30.9408 187.674 31.0893 187.526C31.2377 187.378 31.2377 187.138 31.0893 186.99L29.3953 185.302L31.024 183.679C31.1724 183.531 31.1724 183.291 31.024 183.143C30.8755 182.995 30.6349 182.995 30.4864 183.143L28.8577 184.766L27.1474 183.062Z" fill="#AFBACC"/>
<path fill-rule="evenodd" clip-rule="evenodd" d="M222.017 81.7534C221.868 81.6055 221.627 81.6055 221.479 81.7534C221.331 81.9013 221.331 82.1412 221.479 82.2891L223.189 83.9936L221.414 85.7633C221.265 85.9112 221.265 86.151 221.414 86.299C221.562 86.4469 221.803 86.4469 221.951 86.299L223.727 84.5293L225.421 86.2176C225.569 86.3655 225.81 86.3655 225.958 86.2176C226.107 86.0696 226.107 85.8298 225.958 85.6819L224.264 83.9936L225.893 82.3705C226.042 82.2226 226.042 81.9827 225.893 81.8348C225.745 81.6869 225.504 81.6869 225.356 81.8348L223.727 83.4579L222.017 81.7534Z" fill="#AFBACC"/>
<path fill-rule="evenodd" clip-rule="evenodd" d="M222.017 161.012C221.868 160.864 221.627 160.864 221.479 161.012C221.331 161.16 221.331 161.4 221.479 161.548L223.189 163.252L221.414 165.022C221.265 165.17 221.265 165.41 221.414 165.558C221.562 165.706 221.803 165.706 221.951 165.558L223.727 163.788L225.421 165.476C225.569 165.624 225.81 165.624 225.958 165.476C226.107 165.328 226.107 165.088 225.958 164.941L224.264 163.252L225.893 161.629C226.042 161.481 226.042 161.241 225.893 161.093C225.745 160.946 225.504 160.946 225.356 161.093L223.727 162.717L222.017 161.012Z" fill="#4967EE"/>
<path fill-rule="evenodd" clip-rule="evenodd" d="M158.848 15.0092C158.7 14.8613 158.459 14.8613 158.31 15.0092C158.162 15.1571 158.162 15.397 158.31 15.5449L160.021 17.2494L158.245 19.0191C158.097 19.167 158.097 19.4068 158.245 19.5547C158.394 19.7027 158.634 19.7027 158.783 19.5547L160.558 17.7851L162.252 19.4734C162.401 19.6213 162.641 19.6213 162.79 19.4734C162.938 19.3254 162.938 19.0856 162.79 18.9377L161.096 17.2494L162.725 15.6263C162.873 15.4784 162.873 15.2385 162.725 15.0906C162.576 14.9427 162.335 14.9427 162.187 15.0906L160.558 16.7137L158.848 15.0092Z" fill="#4967EE"/>
<rect x="68" y="77" width="110.247" height="61.9767" fill="#C4C4C4"/>
<rect x="67.4041" y="77" width="111.439" height="62.5727" fill="#707A8A"/>
<rect opacity="0.5" x="68" y="134.209" width="110.247" height="0.59593" fill="white"/>
<rect x="68" y="134.209" width="110.247" height="1.19186" fill="#4967EE"/>
<rect opacity="0.5" x="67.4041" y="133.613" width="111.439" height="5.9593" fill="#DBE1FC"/>
<rect x="68" y="133.613" width="110.843" height="1.78779" fill="#B6C2F8"/>
<rect x="67.4041" y="133.613" width="72.7035" height="1.78779" fill="#4967EE"/>
<circle opacity="0.5" cx="123.421" cy="107.988" r="15.4942" fill="#DBE1FC"/>
<g filter="url(#filter0_d)">
<path d="M119.185 102.916V113.06C119.185 113.834 120.015 114.304 120.655 113.883L128.425 108.811C129.017 108.429 129.017 107.548 128.425 107.156L120.655 102.094C120.015 101.673 119.185 102.143 119.185 102.916Z" fill="white"/>
</g>
<text fill="#4967EE" xml:space="preserve" style="white-space: pre" font-family="Roboto" font-size="12" font-weight="500" letter-spacing="0em"><tspan x="0" y="26.2861">Share your content</tspan></text>
<text fill="#4967EE" xml:space="preserve" style="white-space: pre" font-family="Roboto" font-size="12" font-weight="500" letter-spacing="0em"><tspan x="118" y="199.286">Customize your player</tspan></text>
<defs>
<filter id="filter0_d" x="112.769" y="97.82" width="21.3057" height="21.3057" filterUnits="userSpaceOnUse" color-interpolation-filters="sRGB">
<feFlood flood-opacity="0" result="BackgroundImageFix"/>
<feColorMatrix in="SourceAlpha" type="matrix" values="0 0 0 0 0 0 0 0 0 0 0 0 0 0 0 0 0 0 127 0" result="hardAlpha"/>
<feOffset dy="0.484484"/>
<feGaussianBlur stdDeviation="0.484484"/>
<feColorMatrix type="matrix" values="0 0 0 0 0 0 0 0 0 0 0 0 0 0 0 0 0 0 0.25 0"/>
<feBlend mode="normal" in2="BackgroundImageFix" result="effect1_dropShadow"/>
<feBlend mode="normal" in="SourceGraphic" in2="effect1_dropShadow" result="shape"/>
</filter>
</defs>
</svg>
