<svg width="242" height="205" viewBox="0 0 242 205" fill="none" xmlns="http://www.w3.org/2000/svg">
<circle cx="122.349" cy="108.349" r="95.3488" fill="#EDF0FE"/>
<path d="M182.567 21.4535L182.663 4.17152" stroke="#C8D1E0" stroke-width="3.03147" stroke-linecap="round" stroke-linejoin="round"/>
<path d="M197.465 26.2209L209.747 14.0622" stroke="#C8D1E0" stroke-width="3.03147" stroke-linecap="round" stroke-linejoin="round"/>
<path d="M217.727 42.311L200.445 42.2144" stroke="#C8D1E0" stroke-width="3.03147" stroke-linecap="round" stroke-linejoin="round"/>
<path d="M15.1288 66.7976L16.9828 68.8011L17.1698 69.0031L17.4197 68.8876L19.8978 67.7412L18.5655 70.1258L18.4312 70.3663L18.6181 70.5683L20.4722 72.5718L17.7947 72.0421L17.5248 71.9887L17.3904 72.2291L16.0582 74.6138L15.7357 71.9017L15.7032 71.6283L15.4332 71.5748L12.7557 71.0451L15.2339 69.8987L15.4838 69.7831L15.4513 69.5096L15.1288 66.7976Z" stroke="#4967EE" stroke-width="0.757868" stroke-linecap="round"/>
<path d="M228.623 59.0429L228.847 61.7646L228.869 62.039L229.137 62.1024L231.794 62.7318L229.276 63.7845L229.022 63.8907L229.044 64.1651L229.268 66.8868L227.488 64.8158L227.308 64.607L227.054 64.7131L224.536 65.7659L225.954 63.4331L226.097 63.1979L225.917 62.9891L224.137 60.9181L226.794 61.5474L227.062 61.6108L227.205 61.3756L228.623 59.0429Z" stroke="#4967EE" stroke-width="0.757868" stroke-linecap="round"/>
<path d="M128.18 1.77953L128.749 4.45033L128.806 4.71962L129.08 4.74837L131.796 5.03343L129.431 6.39901L129.193 6.5367L129.25 6.806L129.819 9.4768L127.789 7.64997L127.585 7.46578L127.346 7.60347L124.982 8.96905L126.092 6.47443L126.204 6.2229L125.999 6.0387L123.969 4.21187L126.685 4.49694L126.959 4.52568L127.071 4.27415L128.18 1.77953Z" stroke="#4967EE" stroke-width="0.757868" stroke-linecap="round"/>
<path d="M212.978 137.117L214.832 139.121L215.019 139.323L215.268 139.207L217.747 138.061L216.414 140.446L216.28 140.686L216.467 140.888L218.321 142.892L215.644 142.362L215.374 142.308L215.239 142.549L213.907 144.934L213.585 142.221L213.552 141.948L213.282 141.895L210.605 141.365L213.083 140.218L213.333 140.103L213.3 139.829L212.978 137.117Z" stroke="#AFBACC" stroke-width="0.757868" stroke-linecap="round"/>
<path d="M15.2157 150.658L14.832 153.362L14.7933 153.634L15.0405 153.756L17.4921 154.958L14.8034 155.427L14.5323 155.474L14.4936 155.747L14.11 158.451L12.8319 156.037L12.703 155.793L12.4319 155.841L9.74324 156.31L11.6421 154.348L11.8335 154.151L11.7047 153.907L10.4266 151.493L12.8782 152.695L13.1254 152.816L13.3168 152.619L15.2157 150.658Z" stroke="#AFBACC" stroke-width="0.757868" stroke-linecap="round"/>
<circle cx="211.767" cy="73.2994" r="2.00479" stroke="#707A8A" stroke-width="0.757868"/>
<circle cx="38.3518" cy="39.9273" r="2.00479" stroke="#707A8A" stroke-width="0.757868"/>
<circle cx="32.3925" cy="163.285" r="2.00479" stroke="#707A8A" stroke-width="0.757868"/>
<circle cx="239.776" cy="150.77" r="2.00479" stroke="#707A8A" stroke-width="0.757868"/>
<circle cx="130.125" cy="22.6454" r="2.00479" stroke="#707A8A" stroke-width="0.757868"/>
<circle cx="32.3925" cy="79.8547" r="2.00479" stroke="#AFBACC" stroke-width="0.757868"/>
<circle cx="205.212" cy="171.032" r="2.00479" stroke="#AFBACC" stroke-width="0.757868"/>
<circle cx="147.407" cy="9.53484" r="2.00479" stroke="#AFBACC" stroke-width="0.757868"/>
<circle cx="24.0495" cy="101.308" r="2.00479" stroke="#4967EE" stroke-width="0.757868"/>
<circle cx="4.38375" cy="174.608" r="2.00479" stroke="#4967EE" stroke-width="0.757868"/>
<circle cx="224.282" cy="123.953" r="2.00479" stroke="#4967EE" stroke-width="0.757868"/>
<path fill-rule="evenodd" clip-rule="evenodd" d="M2.71422 89.5005C2.56578 89.3525 2.32512 89.3525 2.17668 89.5005C2.02825 89.6484 2.02825 89.8882 2.17668 90.0362L3.88705 91.7407L2.11136 93.5103C1.96292 93.6583 1.96292 93.8981 2.11136 94.046C2.25979 94.194 2.50046 94.194 2.64889 94.046L4.42459 92.2764L6.11861 93.9646C6.26705 94.1126 6.50771 94.1126 6.65615 93.9646C6.80458 93.8167 6.80458 93.5769 6.65615 93.4289L4.96213 91.7407L6.59082 90.1176C6.73926 89.9696 6.73926 89.7298 6.59082 89.5819C6.44238 89.4339 6.20172 89.4339 6.05329 89.5819L4.42459 91.205L2.71422 89.5005Z" fill="#707A8A"/>
<path fill-rule="evenodd" clip-rule="evenodd" d="M36.6822 140.75C36.5338 140.603 36.2931 140.603 36.1447 140.75C35.9963 140.898 35.9963 141.138 36.1447 141.286L37.8551 142.991L36.0794 144.76C35.9309 144.908 35.9309 145.148 36.0794 145.296C36.2278 145.444 36.4685 145.444 36.6169 145.296L38.3926 143.526L40.0866 145.215C40.2351 145.363 40.4757 145.363 40.6242 145.215C40.7726 145.067 40.7726 144.827 40.6242 144.679L38.9301 142.991L40.5588 141.368C40.7073 141.22 40.7073 140.98 40.5588 140.832C40.4104 140.684 40.1697 140.684 40.0213 140.832L38.3926 142.455L36.6822 140.75Z" fill="#AFBACC"/>
<path fill-rule="evenodd" clip-rule="evenodd" d="M27.1474 183.062C26.9989 182.914 26.7583 182.914 26.6098 183.062C26.4614 183.209 26.4614 183.449 26.6098 183.597L28.3202 185.302L26.5445 187.071C26.3961 187.219 26.3961 187.459 26.5445 187.607C26.6929 187.755 26.9336 187.755 27.082 187.607L28.8577 185.837L30.5517 187.526C30.7002 187.674 30.9408 187.674 31.0893 187.526C31.2377 187.378 31.2377 187.138 31.0893 186.99L29.3953 185.302L31.024 183.679C31.1724 183.531 31.1724 183.291 31.024 183.143C30.8755 182.995 30.6349 182.995 30.4864 183.143L28.8577 184.766L27.1474 183.062Z" fill="#AFBACC"/>
<path fill-rule="evenodd" clip-rule="evenodd" d="M222.017 81.7534C221.868 81.6055 221.627 81.6055 221.479 81.7534C221.331 81.9013 221.331 82.1412 221.479 82.2891L223.189 83.9936L221.414 85.7633C221.265 85.9112 221.265 86.151 221.414 86.299C221.562 86.4469 221.803 86.4469 221.951 86.299L223.727 84.5293L225.421 86.2176C225.569 86.3655 225.81 86.3655 225.958 86.2176C226.107 86.0696 226.107 85.8298 225.958 85.6819L224.264 83.9936L225.893 82.3705C226.042 82.2226 226.042 81.9827 225.893 81.8348C225.745 81.6869 225.504 81.6869 225.356 81.8348L223.727 83.4579L222.017 81.7534Z" fill="#AFBACC"/>
<path fill-rule="evenodd" clip-rule="evenodd" d="M222.017 161.012C221.868 160.864 221.627 160.864 221.479 161.012C221.331 161.16 221.331 161.4 221.479 161.548L223.189 163.252L221.414 165.022C221.265 165.17 221.265 165.41 221.414 165.558C221.562 165.706 221.803 165.706 221.951 165.558L223.727 163.788L225.421 165.476C225.569 165.624 225.81 165.624 225.958 165.476C226.107 165.328 226.107 165.088 225.958 164.941L224.264 163.252L225.893 161.629C226.042 161.481 226.042 161.241 225.893 161.093C225.745 160.946 225.504 160.946 225.356 161.093L223.727 162.717L222.017 161.012Z" fill="#4967EE"/>
<path fill-rule="evenodd" clip-rule="evenodd" d="M158.848 15.0092C158.7 14.8613 158.459 14.8613 158.31 15.0092C158.162 15.1571 158.162 15.397 158.31 15.5449L160.021 17.2494L158.245 19.0191C158.097 19.167 158.097 19.4068 158.245 19.5547C158.394 19.7027 158.634 19.7027 158.783 19.5547L160.558 17.7851L162.252 19.4734C162.401 19.6213 162.641 19.6213 162.79 19.4734C162.938 19.3254 162.938 19.0856 162.79 18.9377L161.096 17.2494L162.725 15.6263C162.873 15.4784 162.873 15.2385 162.725 15.0906C162.576 14.9427 162.335 14.9427 162.187 15.0906L160.558 16.7137L158.848 15.0092Z" fill="#4967EE"/>
<rect x="68" y="77" width="110.247" height="61.9767" fill="#C4C4C4"/>
<rect x="67.4041" y="77" width="111.439" height="62.5727" fill="#707A8A"/>
<rect opacity="0.5" x="68" y="134.209" width="110.247" height="0.59593" fill="white"/>
<rect x="68" y="134.209" width="110.247" height="1.19186" fill="#4967EE"/>
<rect opacity="0.5" x="67.4041" y="133.613" width="111.439" height="5.9593" fill="#DBE1FC"/>
<rect x="68" y="133.613" width="110.843" height="1.78779" fill="#B6C2F8"/>
<rect x="67.4041" y="133.613" width="72.7035" height="1.78779" fill="#4967EE"/>
<circle opacity="0.5" cx="123.422" cy="107.988" r="15.4942" fill="#DBE1FC"/>
<g filter="url(#filter0_d)">
<path d="M119.185 102.916V113.06C119.185 113.834 120.015 114.304 120.655 113.883L128.425 108.811C129.017 108.429 129.017 107.548 128.425 107.156L120.655 102.094C120.015 101.673 119.185 102.143 119.185 102.916Z" fill="white"/>
</g>
<path d="M5.32617 23.8027C5.32617 23.4277 5.19336 23.1387 4.92773 22.9355C4.66602 22.7324 4.19141 22.5273 3.50391 22.3203C2.81641 22.1133 2.26953 21.8828 1.86328 21.6289C1.08594 21.1406 0.697266 20.5039 0.697266 19.7188C0.697266 19.0312 0.976562 18.4648 1.53516 18.0195C2.09766 17.5742 2.82617 17.3516 3.7207 17.3516C4.31445 17.3516 4.84375 17.4609 5.30859 17.6797C5.77344 17.8984 6.13867 18.2109 6.4043 18.6172C6.66992 19.0195 6.80273 19.4668 6.80273 19.959H5.32617C5.32617 19.5137 5.18555 19.166 4.9043 18.916C4.62695 18.6621 4.22852 18.5352 3.70898 18.5352C3.22461 18.5352 2.84766 18.6387 2.57812 18.8457C2.3125 19.0527 2.17969 19.3418 2.17969 19.7129C2.17969 20.0254 2.32422 20.2871 2.61328 20.498C2.90234 20.7051 3.37891 20.9082 4.04297 21.1074C4.70703 21.3027 5.24023 21.5273 5.64258 21.7812C6.04492 22.0312 6.33984 22.3203 6.52734 22.6484C6.71484 22.9727 6.80859 23.3535 6.80859 23.791C6.80859 24.502 6.53516 25.0684 5.98828 25.4902C5.44531 25.9082 4.70703 26.1172 3.77344 26.1172C3.15625 26.1172 2.58789 26.0039 2.06836 25.7773C1.55273 25.5469 1.15039 25.2305 0.861328 24.8281C0.576172 24.4258 0.433594 23.957 0.433594 23.4219H1.91602C1.91602 23.9062 2.07617 24.2812 2.39648 24.5469C2.7168 24.8125 3.17578 24.9453 3.77344 24.9453C4.28906 24.9453 4.67578 24.8418 4.93359 24.6348C5.19531 24.4238 5.32617 24.1465 5.32617 23.8027Z" fill="#4967EE"/>
<path d="M9.375 20.3516C9.83984 19.8125 10.4277 19.543 11.1387 19.543C12.4902 19.543 13.1758 20.3145 13.1953 21.8574V26H11.7715V21.9102C11.7715 21.4727 11.6758 21.1641 11.4844 20.9844C11.2969 20.8008 11.0195 20.709 10.6523 20.709C10.082 20.709 9.65625 20.9629 9.375 21.4707V26H7.95117V17H9.375V20.3516Z" fill="#4967EE"/>
<path d="M18.4277 26C18.3652 25.8789 18.3105 25.6816 18.2637 25.4082C17.8105 25.8809 17.2559 26.1172 16.5996 26.1172C15.9629 26.1172 15.4434 25.9355 15.041 25.5723C14.6387 25.209 14.4375 24.7598 14.4375 24.2246C14.4375 23.5488 14.6875 23.0312 15.1875 22.6719C15.6914 22.3086 16.4102 22.127 17.3438 22.127H18.2168V21.7109C18.2168 21.3828 18.125 21.1211 17.9414 20.9258C17.7578 20.7266 17.4785 20.627 17.1035 20.627C16.7793 20.627 16.5137 20.709 16.3066 20.873C16.0996 21.0332 15.9961 21.2383 15.9961 21.4883H14.5723C14.5723 21.1406 14.6875 20.8164 14.918 20.5156C15.1484 20.2109 15.4609 19.9727 15.8555 19.8008C16.2539 19.6289 16.6973 19.543 17.1855 19.543C17.9277 19.543 18.5195 19.7305 18.9609 20.1055C19.4023 20.4766 19.6289 21 19.6406 21.6758V24.5352C19.6406 25.1055 19.7207 25.5605 19.8809 25.9004V26H18.4277ZM16.8633 24.9746C17.1445 24.9746 17.4082 24.9062 17.6543 24.7695C17.9043 24.6328 18.0918 24.4492 18.2168 24.2188V23.0234H17.4492C16.9219 23.0234 16.5254 23.1152 16.2598 23.2988C15.9941 23.4824 15.8613 23.7422 15.8613 24.0781C15.8613 24.3516 15.9512 24.5703 16.1309 24.7344C16.3145 24.8945 16.5586 24.9746 16.8633 24.9746Z" fill="#4967EE"/>
<path d="M24.4512 20.9609C24.2637 20.9297 24.0703 20.9141 23.8711 20.9141C23.2188 20.9141 22.7793 21.1641 22.5527 21.6641V26H21.1289V19.6602H22.4883L22.5234 20.3691C22.8672 19.8184 23.3438 19.543 23.9531 19.543C24.1562 19.543 24.3242 19.5703 24.457 19.625L24.4512 20.9609Z" fill="#4967EE"/>
<path d="M28.0254 26.1172C27.123 26.1172 26.3906 25.834 25.8281 25.2676C25.2695 24.6973 24.9902 23.9395 24.9902 22.9941V22.8184C24.9902 22.1855 25.1113 21.6211 25.3535 21.125C25.5996 20.625 25.9434 20.2363 26.3848 19.959C26.8262 19.6816 27.3184 19.543 27.8613 19.543C28.7246 19.543 29.3906 19.8184 29.8594 20.3691C30.332 20.9199 30.5684 21.6992 30.5684 22.707V23.2812H26.4258C26.4688 23.8047 26.6426 24.2188 26.9473 24.5234C27.2559 24.8281 27.6426 24.9805 28.1074 24.9805C28.7598 24.9805 29.291 24.7168 29.7012 24.1895L30.4688 24.9219C30.2148 25.3008 29.875 25.5957 29.4492 25.8066C29.0273 26.0137 28.5527 26.1172 28.0254 26.1172ZM27.8555 20.6855C27.4648 20.6855 27.1484 20.8223 26.9062 21.0957C26.668 21.3691 26.5156 21.75 26.4492 22.2383H29.1621V22.1328C29.1309 21.6562 29.0039 21.2969 28.7812 21.0547C28.5586 20.8086 28.25 20.6855 27.8555 20.6855Z" fill="#4967EE"/>
<path d="M36.8848 23.9609L38.1738 19.6602H39.6914L37.1719 26.9609C36.7852 28.0273 36.1289 28.5605 35.2031 28.5605C34.9961 28.5605 34.7676 28.5254 34.5176 28.4551V27.3535L34.7871 27.3711C35.1465 27.3711 35.416 27.3047 35.5957 27.1719C35.7793 27.043 35.9238 26.8242 36.0293 26.5156L36.2344 25.9707L34.0078 19.6602H35.543L36.8848 23.9609Z" fill="#4967EE"/>
<path d="M40.1543 22.7715C40.1543 22.1504 40.2773 21.5918 40.5234 21.0957C40.7695 20.5957 41.1152 20.2129 41.5605 19.9473C42.0059 19.6777 42.5176 19.543 43.0957 19.543C43.9512 19.543 44.6445 19.8184 45.1758 20.3691C45.7109 20.9199 46 21.6504 46.043 22.5605L46.0488 22.8945C46.0488 23.5195 45.9277 24.0781 45.6855 24.5703C45.4473 25.0625 45.1035 25.4434 44.6543 25.7129C44.209 25.9824 43.6934 26.1172 43.1074 26.1172C42.2129 26.1172 41.4961 25.8203 40.957 25.2266C40.4219 24.6289 40.1543 23.834 40.1543 22.8418V22.7715ZM41.5781 22.8945C41.5781 23.5469 41.7129 24.0586 41.9824 24.4297C42.252 24.7969 42.627 24.9805 43.1074 24.9805C43.5879 24.9805 43.9609 24.793 44.2266 24.418C44.4961 24.043 44.6309 23.4941 44.6309 22.7715C44.6309 22.1309 44.4922 21.623 44.2148 21.248C43.9414 20.873 43.5684 20.6855 43.0957 20.6855C42.6309 20.6855 42.2617 20.8711 41.9883 21.2422C41.7148 21.6094 41.5781 22.1602 41.5781 22.8945Z" fill="#4967EE"/>
<path d="M51.0938 25.3789C50.6758 25.8711 50.082 26.1172 49.3125 26.1172C48.625 26.1172 48.1035 25.916 47.748 25.5137C47.3965 25.1113 47.2207 24.5293 47.2207 23.7676V19.6602H48.6445V23.75C48.6445 24.5547 48.9785 24.957 49.6465 24.957C50.3379 24.957 50.8047 24.709 51.0469 24.2129V19.6602H52.4707V26H51.1289L51.0938 25.3789Z" fill="#4967EE"/>
<path d="M57.2402 20.9609C57.0527 20.9297 56.8594 20.9141 56.6602 20.9141C56.0078 20.9141 55.5684 21.1641 55.3418 21.6641V26H53.918V19.6602H55.2773L55.3125 20.3691C55.6562 19.8184 56.1328 19.543 56.7422 19.543C56.9453 19.543 57.1133 19.5703 57.2461 19.625L57.2402 20.9609Z" fill="#4967EE"/>
<path d="M63.7324 24.9805C64.0879 24.9805 64.3828 24.877 64.6172 24.6699C64.8516 24.4629 64.9766 24.207 64.9922 23.9023H66.334C66.3184 24.2969 66.1953 24.666 65.9648 25.0098C65.7344 25.3496 65.4219 25.6191 65.0273 25.8184C64.6328 26.0176 64.207 26.1172 63.75 26.1172C62.8633 26.1172 62.1602 25.8301 61.6406 25.2559C61.1211 24.6816 60.8613 23.8887 60.8613 22.877V22.7305C60.8613 21.7656 61.1191 20.9941 61.6348 20.416C62.1504 19.834 62.8535 19.543 63.7441 19.543C64.498 19.543 65.1113 19.7637 65.584 20.2051C66.0605 20.6426 66.3105 21.2188 66.334 21.9336H64.9922C64.9766 21.5703 64.8516 21.2715 64.6172 21.0371C64.3867 20.8027 64.0918 20.6855 63.7324 20.6855C63.2715 20.6855 62.916 20.8535 62.666 21.1895C62.416 21.5215 62.2891 22.0273 62.2852 22.707V22.9355C62.2852 23.623 62.4082 24.1367 62.6543 24.4766C62.9043 24.8125 63.2637 24.9805 63.7324 24.9805Z" fill="#4967EE"/>
<path d="M67.1426 22.7715C67.1426 22.1504 67.2656 21.5918 67.5117 21.0957C67.7578 20.5957 68.1035 20.2129 68.5488 19.9473C68.9941 19.6777 69.5059 19.543 70.084 19.543C70.9395 19.543 71.6328 19.8184 72.1641 20.3691C72.6992 20.9199 72.9883 21.6504 73.0312 22.5605L73.0371 22.8945C73.0371 23.5195 72.916 24.0781 72.6738 24.5703C72.4355 25.0625 72.0918 25.4434 71.6426 25.7129C71.1973 25.9824 70.6816 26.1172 70.0957 26.1172C69.2012 26.1172 68.4844 25.8203 67.9453 25.2266C67.4102 24.6289 67.1426 23.834 67.1426 22.8418V22.7715ZM68.5664 22.8945C68.5664 23.5469 68.7012 24.0586 68.9707 24.4297C69.2402 24.7969 69.6152 24.9805 70.0957 24.9805C70.5762 24.9805 70.9492 24.793 71.2148 24.418C71.4844 24.043 71.6191 23.4941 71.6191 22.7715C71.6191 22.1309 71.4805 21.623 71.2031 21.248C70.9297 20.873 70.5566 20.6855 70.084 20.6855C69.6191 20.6855 69.25 20.8711 68.9766 21.2422C68.7031 21.6094 68.5664 22.1602 68.5664 22.8945Z" fill="#4967EE"/>
<path d="M75.5625 19.6602L75.6035 20.3926C76.0723 19.8262 76.6875 19.543 77.4492 19.543C78.7695 19.543 79.4414 20.2988 79.4648 21.8105V26H78.041V21.8926C78.041 21.4902 77.9531 21.1934 77.7773 21.002C77.6055 20.8066 77.3223 20.709 76.9277 20.709C76.3535 20.709 75.9258 20.9688 75.6445 21.4883V26H74.2207V19.6602H75.5625Z" fill="#4967EE"/>
<path d="M82.7051 18.1191V19.6602H83.8242V20.7148H82.7051V24.2539C82.7051 24.4961 82.752 24.6719 82.8457 24.7812C82.9434 24.8867 83.1152 24.9395 83.3613 24.9395C83.5254 24.9395 83.6914 24.9199 83.8594 24.8809V25.9824C83.5352 26.0723 83.2227 26.1172 82.9219 26.1172C81.8281 26.1172 81.2812 25.5137 81.2812 24.3066V20.7148H80.2383V19.6602H81.2812V18.1191H82.7051Z" fill="#4967EE"/>
<path d="M87.709 26.1172C86.8066 26.1172 86.0742 25.834 85.5117 25.2676C84.9531 24.6973 84.6738 23.9395 84.6738 22.9941V22.8184C84.6738 22.1855 84.7949 21.6211 85.0371 21.125C85.2832 20.625 85.627 20.2363 86.0684 19.959C86.5098 19.6816 87.002 19.543 87.5449 19.543C88.4082 19.543 89.0742 19.8184 89.543 20.3691C90.0156 20.9199 90.252 21.6992 90.252 22.707V23.2812H86.1094C86.1523 23.8047 86.3262 24.2188 86.6309 24.5234C86.9395 24.8281 87.3262 24.9805 87.791 24.9805C88.4434 24.9805 88.9746 24.7168 89.3848 24.1895L90.1523 24.9219C89.8984 25.3008 89.5586 25.5957 89.1328 25.8066C88.7109 26.0137 88.2363 26.1172 87.709 26.1172ZM87.5391 20.6855C87.1484 20.6855 86.832 20.8223 86.5898 21.0957C86.3516 21.3691 86.1992 21.75 86.1328 22.2383H88.8457V22.1328C88.8145 21.6562 88.6875 21.2969 88.4648 21.0547C88.2422 20.8086 87.9336 20.6855 87.5391 20.6855Z" fill="#4967EE"/>
<path d="M92.6836 19.6602L92.7246 20.3926C93.1934 19.8262 93.8086 19.543 94.5703 19.543C95.8906 19.543 96.5625 20.2988 96.5859 21.8105V26H95.1621V21.8926C95.1621 21.4902 95.0742 21.1934 94.8984 21.002C94.7266 20.8066 94.4434 20.709 94.0488 20.709C93.4746 20.709 93.0469 20.9688 92.7656 21.4883V26H91.3418V19.6602H92.6836Z" fill="#4967EE"/>
<path d="M99.8262 18.1191V19.6602H100.945V20.7148H99.8262V24.2539C99.8262 24.4961 99.873 24.6719 99.9668 24.7812C100.064 24.8867 100.236 24.9395 100.482 24.9395C100.646 24.9395 100.812 24.9199 100.98 24.8809V25.9824C100.656 26.0723 100.344 26.1172 100.043 26.1172C98.9492 26.1172 98.4023 25.5137 98.4023 24.3066V20.7148H97.3594V19.6602H98.4023V18.1191H99.8262Z" fill="#4967EE"/>
<path d="M125.377 196.223C125.291 197.133 124.955 197.844 124.369 198.355C123.783 198.863 123.004 199.117 122.031 199.117C121.352 199.117 120.752 198.957 120.232 198.637C119.717 198.312 119.318 197.854 119.037 197.26C118.756 196.666 118.609 195.977 118.598 195.191V194.395C118.598 193.59 118.74 192.881 119.025 192.268C119.311 191.654 119.719 191.182 120.25 190.85C120.785 190.518 121.402 190.352 122.102 190.352C123.043 190.352 123.801 190.607 124.375 191.119C124.949 191.631 125.283 192.354 125.377 193.287H123.9C123.83 192.674 123.65 192.232 123.361 191.963C123.076 191.689 122.656 191.553 122.102 191.553C121.457 191.553 120.961 191.789 120.613 192.262C120.27 192.73 120.094 193.42 120.086 194.33V195.086C120.086 196.008 120.25 196.711 120.578 197.195C120.91 197.68 121.395 197.922 122.031 197.922C122.613 197.922 123.051 197.791 123.344 197.529C123.637 197.268 123.822 196.832 123.9 196.223H125.377Z" fill="#4967EE"/>
<path d="M130.41 198.379C129.992 198.871 129.398 199.117 128.629 199.117C127.941 199.117 127.42 198.916 127.064 198.514C126.713 198.111 126.537 197.529 126.537 196.768V192.66H127.961V196.75C127.961 197.555 128.295 197.957 128.963 197.957C129.654 197.957 130.121 197.709 130.363 197.213V192.66H131.787V199H130.445L130.41 198.379Z" fill="#4967EE"/>
<path d="M136.791 197.277C136.791 197.023 136.686 196.83 136.475 196.697C136.268 196.564 135.922 196.447 135.438 196.346C134.953 196.244 134.549 196.115 134.225 195.959C133.514 195.615 133.158 195.117 133.158 194.465C133.158 193.918 133.389 193.461 133.85 193.094C134.311 192.727 134.896 192.543 135.607 192.543C136.365 192.543 136.977 192.73 137.441 193.105C137.91 193.48 138.145 193.967 138.145 194.564H136.721C136.721 194.291 136.619 194.064 136.416 193.885C136.213 193.701 135.943 193.609 135.607 193.609C135.295 193.609 135.039 193.682 134.84 193.826C134.645 193.971 134.547 194.164 134.547 194.406C134.547 194.625 134.639 194.795 134.822 194.916C135.006 195.037 135.377 195.16 135.936 195.285C136.494 195.406 136.932 195.553 137.248 195.725C137.568 195.893 137.805 196.096 137.957 196.334C138.113 196.572 138.191 196.861 138.191 197.201C138.191 197.771 137.955 198.234 137.482 198.59C137.01 198.941 136.391 199.117 135.625 199.117C135.105 199.117 134.643 199.023 134.236 198.836C133.83 198.648 133.514 198.391 133.287 198.062C133.061 197.734 132.947 197.381 132.947 197.002H134.33C134.35 197.338 134.477 197.598 134.711 197.781C134.945 197.961 135.256 198.051 135.643 198.051C136.018 198.051 136.303 197.98 136.498 197.84C136.693 197.695 136.791 197.508 136.791 197.277Z" fill="#4967EE"/>
<path d="M141.221 191.119V192.66H142.34V193.715H141.221V197.254C141.221 197.496 141.268 197.672 141.361 197.781C141.459 197.887 141.631 197.939 141.877 197.939C142.041 197.939 142.207 197.92 142.375 197.881V198.982C142.051 199.072 141.738 199.117 141.438 199.117C140.344 199.117 139.797 198.514 139.797 197.307V193.715H138.754V192.66H139.797V191.119H141.221Z" fill="#4967EE"/>
<path d="M142.99 195.771C142.99 195.15 143.113 194.592 143.359 194.096C143.605 193.596 143.951 193.213 144.396 192.947C144.842 192.678 145.354 192.543 145.932 192.543C146.787 192.543 147.48 192.818 148.012 193.369C148.547 193.92 148.836 194.65 148.879 195.561L148.885 195.895C148.885 196.52 148.764 197.078 148.521 197.57C148.283 198.062 147.939 198.443 147.49 198.713C147.045 198.982 146.529 199.117 145.943 199.117C145.049 199.117 144.332 198.82 143.793 198.227C143.258 197.629 142.99 196.834 142.99 195.842V195.771ZM144.414 195.895C144.414 196.547 144.549 197.059 144.818 197.43C145.088 197.797 145.463 197.98 145.943 197.98C146.424 197.98 146.797 197.793 147.062 197.418C147.332 197.043 147.467 196.494 147.467 195.771C147.467 195.131 147.328 194.623 147.051 194.248C146.777 193.873 146.404 193.686 145.932 193.686C145.467 193.686 145.098 193.871 144.824 194.242C144.551 194.609 144.414 195.16 144.414 195.895Z" fill="#4967EE"/>
<path d="M151.428 192.66L151.469 193.322C151.914 192.803 152.523 192.543 153.297 192.543C154.145 192.543 154.725 192.867 155.037 193.516C155.498 192.867 156.146 192.543 156.982 192.543C157.682 192.543 158.201 192.736 158.541 193.123C158.885 193.51 159.061 194.08 159.068 194.834V199H157.645V194.875C157.645 194.473 157.557 194.178 157.381 193.99C157.205 193.803 156.914 193.709 156.508 193.709C156.184 193.709 155.918 193.797 155.711 193.973C155.508 194.145 155.365 194.371 155.283 194.652L155.289 199H153.865V194.828C153.846 194.082 153.465 193.709 152.723 193.709C152.152 193.709 151.748 193.941 151.51 194.406V199H150.086V192.66H151.428Z" fill="#4967EE"/>
<path d="M162.045 199H160.621V192.66H162.045V199ZM160.533 191.014C160.533 190.795 160.602 190.613 160.738 190.469C160.879 190.324 161.078 190.252 161.336 190.252C161.594 190.252 161.793 190.324 161.934 190.469C162.074 190.613 162.145 190.795 162.145 191.014C162.145 191.229 162.074 191.408 161.934 191.553C161.793 191.693 161.594 191.764 161.336 191.764C161.078 191.764 160.879 191.693 160.738 191.553C160.602 191.408 160.533 191.229 160.533 191.014Z" fill="#4967EE"/>
<path d="M165.121 197.863H168.496V199H163.352V198.068L166.568 193.809H163.41V192.66H168.373V193.562L165.121 197.863Z" fill="#4967EE"/>
<path d="M172.334 199.117C171.432 199.117 170.699 198.834 170.137 198.268C169.578 197.697 169.299 196.939 169.299 195.994V195.818C169.299 195.186 169.42 194.621 169.662 194.125C169.908 193.625 170.252 193.236 170.693 192.959C171.135 192.682 171.627 192.543 172.17 192.543C173.033 192.543 173.699 192.818 174.168 193.369C174.641 193.92 174.877 194.699 174.877 195.707V196.281H170.734C170.777 196.805 170.951 197.219 171.256 197.523C171.564 197.828 171.951 197.98 172.416 197.98C173.068 197.98 173.6 197.717 174.01 197.189L174.777 197.922C174.523 198.301 174.184 198.596 173.758 198.807C173.336 199.014 172.861 199.117 172.334 199.117ZM172.164 193.686C171.773 193.686 171.457 193.822 171.215 194.096C170.977 194.369 170.824 194.75 170.758 195.238H173.471V195.133C173.439 194.656 173.312 194.297 173.09 194.055C172.867 193.809 172.559 193.686 172.164 193.686Z" fill="#4967EE"/>
<path d="M181.193 196.961L182.482 192.66H184L181.48 199.961C181.094 201.027 180.438 201.561 179.512 201.561C179.305 201.561 179.076 201.525 178.826 201.455V200.354L179.096 200.371C179.455 200.371 179.725 200.305 179.904 200.172C180.088 200.043 180.232 199.824 180.338 199.516L180.543 198.971L178.316 192.66H179.852L181.193 196.961Z" fill="#4967EE"/>
<path d="M184.463 195.771C184.463 195.15 184.586 194.592 184.832 194.096C185.078 193.596 185.424 193.213 185.869 192.947C186.314 192.678 186.826 192.543 187.404 192.543C188.26 192.543 188.953 192.818 189.484 193.369C190.02 193.92 190.309 194.65 190.352 195.561L190.357 195.895C190.357 196.52 190.236 197.078 189.994 197.57C189.756 198.062 189.412 198.443 188.963 198.713C188.518 198.982 188.002 199.117 187.416 199.117C186.521 199.117 185.805 198.82 185.266 198.227C184.73 197.629 184.463 196.834 184.463 195.842V195.771ZM185.887 195.895C185.887 196.547 186.021 197.059 186.291 197.43C186.561 197.797 186.936 197.98 187.416 197.98C187.896 197.98 188.27 197.793 188.535 197.418C188.805 197.043 188.939 196.494 188.939 195.771C188.939 195.131 188.801 194.623 188.523 194.248C188.25 193.873 187.877 193.686 187.404 193.686C186.939 193.686 186.57 193.871 186.297 194.242C186.023 194.609 185.887 195.16 185.887 195.895Z" fill="#4967EE"/>
<path d="M195.402 198.379C194.984 198.871 194.391 199.117 193.621 199.117C192.934 199.117 192.412 198.916 192.057 198.514C191.705 198.111 191.529 197.529 191.529 196.768V192.66H192.953V196.75C192.953 197.555 193.287 197.957 193.955 197.957C194.646 197.957 195.113 197.709 195.355 197.213V192.66H196.779V199H195.438L195.402 198.379Z" fill="#4967EE"/>
<path d="M201.549 193.961C201.361 193.93 201.168 193.914 200.969 193.914C200.316 193.914 199.877 194.164 199.65 194.664V199H198.227V192.66H199.586L199.621 193.369C199.965 192.818 200.441 192.543 201.051 192.543C201.254 192.543 201.422 192.57 201.555 192.625L201.549 193.961Z" fill="#4967EE"/>
<path d="M210.988 195.895C210.988 196.875 210.766 197.658 210.32 198.244C209.875 198.826 209.277 199.117 208.527 199.117C207.832 199.117 207.275 198.889 206.857 198.432V201.438H205.434V192.66H206.746L206.805 193.305C207.223 192.797 207.791 192.543 208.51 192.543C209.283 192.543 209.889 192.832 210.326 193.41C210.768 193.984 210.988 194.783 210.988 195.807V195.895ZM209.57 195.771C209.57 195.139 209.443 194.637 209.189 194.266C208.939 193.895 208.58 193.709 208.111 193.709C207.529 193.709 207.111 193.949 206.857 194.43V197.242C207.115 197.734 207.537 197.98 208.123 197.98C208.576 197.98 208.93 197.799 209.184 197.436C209.441 197.068 209.57 196.514 209.57 195.771Z" fill="#4967EE"/>
<path d="M213.713 199H212.289V190H213.713V199Z" fill="#4967EE"/>
<path d="M219.057 199C218.994 198.879 218.939 198.682 218.893 198.408C218.439 198.881 217.885 199.117 217.229 199.117C216.592 199.117 216.072 198.936 215.67 198.572C215.268 198.209 215.066 197.76 215.066 197.225C215.066 196.549 215.316 196.031 215.816 195.672C216.32 195.309 217.039 195.127 217.973 195.127H218.846V194.711C218.846 194.383 218.754 194.121 218.57 193.926C218.387 193.727 218.107 193.627 217.732 193.627C217.408 193.627 217.143 193.709 216.936 193.873C216.729 194.033 216.625 194.238 216.625 194.488H215.201C215.201 194.141 215.316 193.816 215.547 193.516C215.777 193.211 216.09 192.973 216.484 192.801C216.883 192.629 217.326 192.543 217.814 192.543C218.557 192.543 219.148 192.73 219.59 193.105C220.031 193.477 220.258 194 220.27 194.676V197.535C220.27 198.105 220.35 198.561 220.51 198.9V199H219.057ZM217.492 197.975C217.773 197.975 218.037 197.906 218.283 197.77C218.533 197.633 218.721 197.449 218.846 197.219V196.023H218.078C217.551 196.023 217.154 196.115 216.889 196.299C216.623 196.482 216.49 196.742 216.49 197.078C216.49 197.352 216.58 197.57 216.76 197.734C216.943 197.895 217.188 197.975 217.492 197.975Z" fill="#4967EE"/>
<path d="M223.885 196.961L225.174 192.66H226.691L224.172 199.961C223.785 201.027 223.129 201.561 222.203 201.561C221.996 201.561 221.768 201.525 221.518 201.455V200.354L221.787 200.371C222.146 200.371 222.416 200.305 222.596 200.172C222.779 200.043 222.924 199.824 223.029 199.516L223.234 198.971L221.008 192.66H222.543L223.885 196.961Z" fill="#4967EE"/>
<path d="M230.225 199.117C229.322 199.117 228.59 198.834 228.027 198.268C227.469 197.697 227.189 196.939 227.189 195.994V195.818C227.189 195.186 227.311 194.621 227.553 194.125C227.799 193.625 228.143 193.236 228.584 192.959C229.025 192.682 229.518 192.543 230.061 192.543C230.924 192.543 231.59 192.818 232.059 193.369C232.531 193.92 232.768 194.699 232.768 195.707V196.281H228.625C228.668 196.805 228.842 197.219 229.146 197.523C229.455 197.828 229.842 197.98 230.307 197.98C230.959 197.98 231.49 197.717 231.9 197.189L232.668 197.922C232.414 198.301 232.074 198.596 231.648 198.807C231.227 199.014 230.752 199.117 230.225 199.117ZM230.055 193.686C229.664 193.686 229.348 193.822 229.105 194.096C228.867 194.369 228.715 194.75 228.648 195.238H231.361V195.133C231.33 194.656 231.203 194.297 230.98 194.055C230.758 193.809 230.449 193.686 230.055 193.686Z" fill="#4967EE"/>
<path d="M237.197 193.961C237.01 193.93 236.816 193.914 236.617 193.914C235.965 193.914 235.525 194.164 235.299 194.664V199H233.875V192.66H235.234L235.27 193.369C235.613 192.818 236.09 192.543 236.699 192.543C236.902 192.543 237.07 192.57 237.203 192.625L237.197 193.961Z" fill="#4967EE"/>
<defs>
<filter id="filter0_d" x="112.769" y="97.82" width="21.3057" height="21.3057" filterUnits="userSpaceOnUse" color-interpolation-filters="sRGB">
<feFlood flood-opacity="0" result="BackgroundImageFix"/>
<feColorMatrix in="SourceAlpha" type="matrix" values="0 0 0 0 0 0 0 0 0 0 0 0 0 0 0 0 0 0 127 0" result="hardAlpha"/>
<feOffset dy="0.484484"/>
<feGaussianBlur stdDeviation="0.484484"/>
<feColorMatrix type="matrix" values="0 0 0 0 0 0 0 0 0 0 0 0 0 0 0 0 0 0 0.25 0"/>
<feBlend mode="normal" in2="BackgroundImageFix" result="effect1_dropShadow"/>
<feBlend mode="normal" in="SourceGraphic" in2="effect1_dropShadow" result="shape"/>
</filter>
</defs>
</svg>
