<svg width="204" height="172" viewBox="0 0 204 172" fill="none" xmlns="http://www.w3.org/2000/svg">
<circle cx="103.493" cy="90.9073" r="80" fill="#EDF0FE"/>
<path d="M153.178 18.0001L153.259 3.50006" stroke="#C8D1E0" stroke-width="2.54348" stroke-linecap="round" stroke-linejoin="round"/>
<path d="M165.678 22.0001L175.983 11.7986" stroke="#C8D1E0" stroke-width="2.54348" stroke-linecap="round" stroke-linejoin="round"/>
<path d="M182.678 35.5001L168.178 35.419" stroke="#C8D1E0" stroke-width="2.54348" stroke-linecap="round" stroke-linejoin="round"/>
<path d="M12.6935 56.0449L14.2491 57.726L14.4059 57.8955L14.6156 57.7985L16.6948 56.8366L15.577 58.8374L15.4643 59.0391L15.6211 59.2086L17.1768 60.8897L14.9303 60.4452L14.7038 60.4004L14.5911 60.6021L13.4733 62.6029L13.2027 60.3274L13.1754 60.098L12.9489 60.0532L10.7025 59.6087L12.7817 58.6468L12.9913 58.5499L12.9641 58.3204L12.6935 56.0449Z" stroke="#4967EE" stroke-width="0.63587" stroke-linecap="round"/>
<path d="M191.82 49.5384L192.008 51.822L192.027 52.0522L192.252 52.1055L194.481 52.6335L192.368 53.5168L192.155 53.6059L192.174 53.8361L192.361 56.1197L190.868 54.382L190.717 54.2068L190.504 54.2959L188.391 55.1792L189.581 53.222L189.701 53.0246L189.55 52.8494L188.056 51.1118L190.285 51.6398L190.51 51.693L190.63 51.4957L191.82 49.5384Z" stroke="#4967EE" stroke-width="0.63587" stroke-linecap="round"/>
<path d="M107.546 1.49306L108.023 3.73393L108.072 3.95988L108.301 3.98399L110.58 4.22317L108.596 5.36893L108.396 5.48445L108.444 5.7104L108.921 7.95126L107.218 6.41851L107.047 6.26397L106.847 6.37949L104.863 7.52525L105.794 5.4322L105.888 5.22116L105.716 5.06661L104.013 3.53386L106.292 3.77304L106.521 3.79715L106.615 3.58611L107.546 1.49306Z" stroke="#4967EE" stroke-width="0.63587" stroke-linecap="round"/>
<path d="M178.693 115.045L180.249 116.726L180.406 116.895L180.616 116.798L182.695 115.836L181.577 117.837L181.464 118.039L181.621 118.209L183.177 119.89L180.93 119.445L180.704 119.4L180.591 119.602L179.473 121.603L179.203 119.327L179.175 119.098L178.949 119.053L176.702 118.609L178.782 117.647L178.991 117.55L178.964 117.32L178.693 115.045Z" stroke="#AFBACC" stroke-width="0.63587" stroke-linecap="round"/>
<path d="M12.7663 126.405L12.4444 128.674L12.4119 128.903L12.6193 129.005L14.6763 130.013L12.4204 130.407L12.1929 130.447L12.1605 130.675L11.8386 132.944L10.7662 130.919L10.6581 130.714L10.4307 130.754L8.17477 131.148L9.76793 129.502L9.92857 129.336L9.82045 129.132L8.74812 127.106L10.8051 128.115L11.0125 128.217L11.1731 128.051L12.7663 126.405Z" stroke="#AFBACC" stroke-width="0.63587" stroke-linecap="round"/>
<circle cx="177.678" cy="61.5" r="1.68207" stroke="#707A8A" stroke-width="0.63587"/>
<circle cx="27.1781" cy="137" r="1.68207" stroke="#707A8A" stroke-width="0.63587"/>
<circle cx="201.178" cy="126.5" r="1.68207" stroke="#707A8A" stroke-width="0.63587"/>
<circle cx="109.178" cy="19" r="1.68207" stroke="#707A8A" stroke-width="0.63587"/>
<circle cx="27.1781" cy="67" r="1.68207" stroke="#AFBACC" stroke-width="0.63587"/>
<circle cx="172.178" cy="143.5" r="1.68207" stroke="#AFBACC" stroke-width="0.63587"/>
<circle cx="123.678" cy="8.00006" r="1.68207" stroke="#AFBACC" stroke-width="0.63587"/>
<circle cx="20.178" cy="85.0001" r="1.68207" stroke="#4967EE" stroke-width="0.63587"/>
<circle cx="3.6781" cy="146.5" r="1.68207" stroke="#4967EE" stroke-width="0.63587"/>
<circle cx="188.178" cy="104" r="1.68207" stroke="#4967EE" stroke-width="0.63587"/>
<path fill-rule="evenodd" clip-rule="evenodd" d="M2.27732 75.0931C2.15278 74.969 1.95086 74.969 1.82632 75.0931C1.70177 75.2173 1.70177 75.4185 1.82632 75.5426L3.26136 76.9728L1.77151 78.4575C1.64697 78.5816 1.64697 78.7829 1.77151 78.907C1.89605 79.0311 2.09797 79.0311 2.22251 78.907L3.71237 77.4222L5.13369 78.8387C5.25823 78.9628 5.46015 78.9628 5.58469 78.8387C5.70924 78.7146 5.70924 78.5133 5.58469 78.3892L4.16337 76.9728L5.52988 75.6109C5.65443 75.4868 5.65443 75.2856 5.52988 75.1614C5.40534 75.0373 5.20342 75.0373 5.07888 75.1614L3.71237 76.5233L2.27732 75.0931Z" fill="#707A8A"/>
<path fill-rule="evenodd" clip-rule="evenodd" d="M30.7773 118.093C30.6527 117.969 30.4508 117.969 30.3263 118.093C30.2017 118.217 30.2017 118.418 30.3263 118.543L31.7613 119.973L30.2714 121.457C30.1469 121.582 30.1469 121.783 30.2714 121.907C30.396 122.031 30.5979 122.031 30.7225 121.907L32.2123 120.422L33.6336 121.839C33.7582 121.963 33.9601 121.963 34.0846 121.839C34.2092 121.715 34.2092 121.513 34.0846 121.389L32.6633 119.973L34.0298 118.611C34.1544 118.487 34.1544 118.285 34.0298 118.161C33.9053 118.037 33.7034 118.037 33.5788 118.161L32.2123 119.523L30.7773 118.093Z" fill="#AFBACC"/>
<path fill-rule="evenodd" clip-rule="evenodd" d="M22.7773 153.593C22.6527 153.469 22.4508 153.469 22.3263 153.593C22.2017 153.717 22.2017 153.918 22.3263 154.043L23.7613 155.473L22.2714 156.958C22.1469 157.082 22.1469 157.283 22.2714 157.407C22.396 157.531 22.5979 157.531 22.7225 157.407L24.2123 155.922L25.6336 157.339C25.7582 157.463 25.9601 157.463 26.0846 157.339C26.2092 157.215 26.2092 157.013 26.0846 156.889L24.6633 155.473L26.0298 154.111C26.1544 153.987 26.1544 153.786 26.0298 153.661C25.9053 153.537 25.7034 153.537 25.5788 153.661L24.2123 155.023L22.7773 153.593Z" fill="#AFBACC"/>
<path fill-rule="evenodd" clip-rule="evenodd" d="M186.277 68.5931C186.153 68.469 185.951 68.469 185.826 68.5931C185.702 68.7173 185.702 68.9185 185.826 69.0426L187.261 70.4728L185.772 71.9575C185.647 72.0816 185.647 72.2829 185.772 72.407C185.896 72.5311 186.098 72.5311 186.223 72.407L187.712 70.9222L189.134 72.3387C189.258 72.4628 189.46 72.4628 189.585 72.3387C189.709 72.2146 189.709 72.0133 189.585 71.8892L188.163 70.4728L189.53 69.1109C189.654 68.9868 189.654 68.7856 189.53 68.6614C189.405 68.5373 189.203 68.5373 189.079 68.6614L187.712 70.0233L186.277 68.5931Z" fill="#AFBACC"/>
<path fill-rule="evenodd" clip-rule="evenodd" d="M186.277 135.093C186.153 134.969 185.951 134.969 185.826 135.093C185.702 135.217 185.702 135.418 185.826 135.543L187.261 136.973L185.772 138.457C185.647 138.582 185.647 138.783 185.772 138.907C185.896 139.031 186.098 139.031 186.223 138.907L187.712 137.422L189.134 138.839C189.258 138.963 189.46 138.963 189.585 138.839C189.709 138.715 189.709 138.513 189.585 138.389L188.163 136.973L189.53 135.611C189.654 135.487 189.654 135.285 189.53 135.161C189.405 135.037 189.203 135.037 189.079 135.161L187.712 136.523L186.277 135.093Z" fill="#4967EE"/>
<path fill-rule="evenodd" clip-rule="evenodd" d="M133.277 12.5932C133.153 12.4691 132.951 12.4691 132.826 12.5932C132.702 12.7173 132.702 12.9186 132.826 13.0427L134.261 14.4728L132.772 15.9576C132.647 16.0817 132.647 16.2829 132.772 16.407C132.896 16.5312 133.098 16.5312 133.223 16.407L134.712 14.9223L136.134 16.3387C136.258 16.4629 136.46 16.4629 136.585 16.3387C136.709 16.2146 136.709 16.0134 136.585 15.8893L135.163 14.4728L136.53 13.111C136.654 12.9869 136.654 12.7856 136.53 12.6615C136.405 12.5374 136.203 12.5374 136.079 12.6615L134.712 14.0233L133.277 12.5932Z" fill="#4967EE"/>
<rect x="57.0537" y="64.6049" width="92.5" height="52" fill="#C4C4C4"/>
<rect x="56.5536" y="64.6049" width="93.5" height="52.5" fill="#707A8A"/>
<rect opacity="0.5" x="57.0537" y="112.605" width="92.5" height="0.5" fill="white"/>
<rect x="57.0537" y="112.605" width="92.5" height="1" fill="#4967EE"/>
<rect opacity="0.5" x="56.5536" y="112.105" width="93.5" height="5" fill="#DBE1FC"/>
<rect x="57.0537" y="112.105" width="93" height="1.5" fill="#B6C2F8"/>
<rect x="56.5536" y="112.105" width="61" height="1.5" fill="#4967EE"/>
<circle opacity="0.5" cx="103.554" cy="90.6049" r="13" fill="#DBE1FC"/>
<g filter="url(#filter0_d)">
<path d="M99.9989 86.3495V94.8604C99.9989 95.5094 100.696 95.9037 101.232 95.5504L107.751 91.295C108.248 90.9746 108.248 90.2352 107.751 89.9066L101.232 85.6594C100.696 85.3061 99.9989 85.7005 99.9989 86.3495Z" fill="white"/>
</g>
<path d="M5.67188 33.8027C5.67188 33.4277 5.53906 33.1387 5.27344 32.9355C5.01172 32.7324 4.53711 32.5273 3.84961 32.3203C3.16211 32.1133 2.61523 31.8828 2.20898 31.6289C1.43164 31.1406 1.04297 30.5039 1.04297 29.7188C1.04297 29.0312 1.32227 28.4648 1.88086 28.0195C2.44336 27.5742 3.17188 27.3516 4.06641 27.3516C4.66016 27.3516 5.18945 27.4609 5.6543 27.6797C6.11914 27.8984 6.48438 28.2109 6.75 28.6172C7.01562 29.0195 7.14844 29.4668 7.14844 29.959H5.67188C5.67188 29.5137 5.53125 29.166 5.25 28.916C4.97266 28.6621 4.57422 28.5352 4.05469 28.5352C3.57031 28.5352 3.19336 28.6387 2.92383 28.8457C2.6582 29.0527 2.52539 29.3418 2.52539 29.7129C2.52539 30.0254 2.66992 30.2871 2.95898 30.498C3.24805 30.7051 3.72461 30.9082 4.38867 31.1074C5.05273 31.3027 5.58594 31.5273 5.98828 31.7812C6.39062 32.0312 6.68555 32.3203 6.87305 32.6484C7.06055 32.9727 7.1543 33.3535 7.1543 33.791C7.1543 34.502 6.88086 35.0684 6.33398 35.4902C5.79102 35.9082 5.05273 36.1172 4.11914 36.1172C3.50195 36.1172 2.93359 36.0039 2.41406 35.7773C1.89844 35.5469 1.49609 35.2305 1.20703 34.8281C0.921875 34.4258 0.779297 33.957 0.779297 33.4219H2.26172C2.26172 33.9062 2.42188 34.2812 2.74219 34.5469C3.0625 34.8125 3.52148 34.9453 4.11914 34.9453C4.63477 34.9453 5.02148 34.8418 5.2793 34.6348C5.54102 34.4238 5.67188 34.1465 5.67188 33.8027Z" fill="#4967EE"/>
<path d="M9.7207 30.3516C10.1855 29.8125 10.7734 29.543 11.4844 29.543C12.8359 29.543 13.5215 30.3145 13.541 31.8574V36H12.1172V31.9102C12.1172 31.4727 12.0215 31.1641 11.8301 30.9844C11.6426 30.8008 11.3652 30.709 10.998 30.709C10.4277 30.709 10.002 30.9629 9.7207 31.4707V36H8.29688V27H9.7207V30.3516Z" fill="#4967EE"/>
<path d="M18.7734 36C18.7109 35.8789 18.6562 35.6816 18.6094 35.4082C18.1562 35.8809 17.6016 36.1172 16.9453 36.1172C16.3086 36.1172 15.7891 35.9355 15.3867 35.5723C14.9844 35.209 14.7832 34.7598 14.7832 34.2246C14.7832 33.5488 15.0332 33.0312 15.5332 32.6719C16.0371 32.3086 16.7559 32.127 17.6895 32.127H18.5625V31.7109C18.5625 31.3828 18.4707 31.1211 18.2871 30.9258C18.1035 30.7266 17.8242 30.627 17.4492 30.627C17.125 30.627 16.8594 30.709 16.6523 30.873C16.4453 31.0332 16.3418 31.2383 16.3418 31.4883H14.918C14.918 31.1406 15.0332 30.8164 15.2637 30.5156C15.4941 30.2109 15.8066 29.9727 16.2012 29.8008C16.5996 29.6289 17.043 29.543 17.5312 29.543C18.2734 29.543 18.8652 29.7305 19.3066 30.1055C19.748 30.4766 19.9746 31 19.9863 31.6758V34.5352C19.9863 35.1055 20.0664 35.5605 20.2266 35.9004V36H18.7734ZM17.209 34.9746C17.4902 34.9746 17.7539 34.9062 18 34.7695C18.25 34.6328 18.4375 34.4492 18.5625 34.2188V33.0234H17.7949C17.2676 33.0234 16.8711 33.1152 16.6055 33.2988C16.3398 33.4824 16.207 33.7422 16.207 34.0781C16.207 34.3516 16.2969 34.5703 16.4766 34.7344C16.6602 34.8945 16.9043 34.9746 17.209 34.9746Z" fill="#4967EE"/>
<path d="M24.7969 30.9609C24.6094 30.9297 24.416 30.9141 24.2168 30.9141C23.5645 30.9141 23.125 31.1641 22.8984 31.6641V36H21.4746V29.6602H22.834L22.8691 30.3691C23.2129 29.8184 23.6895 29.543 24.2988 29.543C24.502 29.543 24.6699 29.5703 24.8027 29.625L24.7969 30.9609Z" fill="#4967EE"/>
<path d="M28.3711 36.1172C27.4688 36.1172 26.7363 35.834 26.1738 35.2676C25.6152 34.6973 25.3359 33.9395 25.3359 32.9941V32.8184C25.3359 32.1855 25.457 31.6211 25.6992 31.125C25.9453 30.625 26.2891 30.2363 26.7305 29.959C27.1719 29.6816 27.6641 29.543 28.207 29.543C29.0703 29.543 29.7363 29.8184 30.2051 30.3691C30.6777 30.9199 30.9141 31.6992 30.9141 32.707V33.2812H26.7715C26.8145 33.8047 26.9883 34.2188 27.293 34.5234C27.6016 34.8281 27.9883 34.9805 28.4531 34.9805C29.1055 34.9805 29.6367 34.7168 30.0469 34.1895L30.8145 34.9219C30.5605 35.3008 30.2207 35.5957 29.7949 35.8066C29.373 36.0137 28.8984 36.1172 28.3711 36.1172ZM28.2012 30.6855C27.8105 30.6855 27.4941 30.8223 27.252 31.0957C27.0137 31.3691 26.8613 31.75 26.7949 32.2383H29.5078V32.1328C29.4766 31.6562 29.3496 31.2969 29.127 31.0547C28.9043 30.8086 28.5957 30.6855 28.2012 30.6855Z" fill="#4967EE"/>
<path d="M37.2305 33.9609L38.5195 29.6602H40.0371L37.5176 36.9609C37.1309 38.0273 36.4746 38.5605 35.5488 38.5605C35.3418 38.5605 35.1133 38.5254 34.8633 38.4551V37.3535L35.1328 37.3711C35.4922 37.3711 35.7617 37.3047 35.9414 37.1719C36.125 37.043 36.2695 36.8242 36.375 36.5156L36.5801 35.9707L34.3535 29.6602H35.8887L37.2305 33.9609Z" fill="#4967EE"/>
<path d="M40.5 32.7715C40.5 32.1504 40.623 31.5918 40.8691 31.0957C41.1152 30.5957 41.4609 30.2129 41.9062 29.9473C42.3516 29.6777 42.8633 29.543 43.4414 29.543C44.2969 29.543 44.9902 29.8184 45.5215 30.3691C46.0566 30.9199 46.3457 31.6504 46.3887 32.5605L46.3945 32.8945C46.3945 33.5195 46.2734 34.0781 46.0312 34.5703C45.793 35.0625 45.4492 35.4434 45 35.7129C44.5547 35.9824 44.0391 36.1172 43.4531 36.1172C42.5586 36.1172 41.8418 35.8203 41.3027 35.2266C40.7676 34.6289 40.5 33.834 40.5 32.8418V32.7715ZM41.9238 32.8945C41.9238 33.5469 42.0586 34.0586 42.3281 34.4297C42.5977 34.7969 42.9727 34.9805 43.4531 34.9805C43.9336 34.9805 44.3066 34.793 44.5723 34.418C44.8418 34.043 44.9766 33.4941 44.9766 32.7715C44.9766 32.1309 44.8379 31.623 44.5605 31.248C44.2871 30.873 43.9141 30.6855 43.4414 30.6855C42.9766 30.6855 42.6074 30.8711 42.334 31.2422C42.0605 31.6094 41.9238 32.1602 41.9238 32.8945Z" fill="#4967EE"/>
<path d="M51.4395 35.3789C51.0215 35.8711 50.4277 36.1172 49.6582 36.1172C48.9707 36.1172 48.4492 35.916 48.0938 35.5137C47.7422 35.1113 47.5664 34.5293 47.5664 33.7676V29.6602H48.9902V33.75C48.9902 34.5547 49.3242 34.957 49.9922 34.957C50.6836 34.957 51.1504 34.709 51.3926 34.2129V29.6602H52.8164V36H51.4746L51.4395 35.3789Z" fill="#4967EE"/>
<path d="M57.5859 30.9609C57.3984 30.9297 57.2051 30.9141 57.0059 30.9141C56.3535 30.9141 55.9141 31.1641 55.6875 31.6641V36H54.2637V29.6602H55.623L55.6582 30.3691C56.002 29.8184 56.4785 29.543 57.0879 29.543C57.291 29.543 57.459 29.5703 57.5918 29.625L57.5859 30.9609Z" fill="#4967EE"/>
<path d="M64.0781 34.9805C64.4336 34.9805 64.7285 34.877 64.9629 34.6699C65.1973 34.4629 65.3223 34.207 65.3379 33.9023H66.6797C66.6641 34.2969 66.541 34.666 66.3105 35.0098C66.0801 35.3496 65.7676 35.6191 65.373 35.8184C64.9785 36.0176 64.5527 36.1172 64.0957 36.1172C63.209 36.1172 62.5059 35.8301 61.9863 35.2559C61.4668 34.6816 61.207 33.8887 61.207 32.877V32.7305C61.207 31.7656 61.4648 30.9941 61.9805 30.416C62.4961 29.834 63.1992 29.543 64.0898 29.543C64.8438 29.543 65.457 29.7637 65.9297 30.2051C66.4062 30.6426 66.6562 31.2188 66.6797 31.9336H65.3379C65.3223 31.5703 65.1973 31.2715 64.9629 31.0371C64.7324 30.8027 64.4375 30.6855 64.0781 30.6855C63.6172 30.6855 63.2617 30.8535 63.0117 31.1895C62.7617 31.5215 62.6348 32.0273 62.6309 32.707V32.9355C62.6309 33.623 62.7539 34.1367 63 34.4766C63.25 34.8125 63.6094 34.9805 64.0781 34.9805Z" fill="#4967EE"/>
<path d="M67.4883 32.7715C67.4883 32.1504 67.6113 31.5918 67.8574 31.0957C68.1035 30.5957 68.4492 30.2129 68.8945 29.9473C69.3398 29.6777 69.8516 29.543 70.4297 29.543C71.2852 29.543 71.9785 29.8184 72.5098 30.3691C73.0449 30.9199 73.334 31.6504 73.377 32.5605L73.3828 32.8945C73.3828 33.5195 73.2617 34.0781 73.0195 34.5703C72.7812 35.0625 72.4375 35.4434 71.9883 35.7129C71.543 35.9824 71.0273 36.1172 70.4414 36.1172C69.5469 36.1172 68.8301 35.8203 68.291 35.2266C67.7559 34.6289 67.4883 33.834 67.4883 32.8418V32.7715ZM68.9121 32.8945C68.9121 33.5469 69.0469 34.0586 69.3164 34.4297C69.5859 34.7969 69.9609 34.9805 70.4414 34.9805C70.9219 34.9805 71.2949 34.793 71.5605 34.418C71.8301 34.043 71.9648 33.4941 71.9648 32.7715C71.9648 32.1309 71.8262 31.623 71.5488 31.248C71.2754 30.873 70.9023 30.6855 70.4297 30.6855C69.9648 30.6855 69.5957 30.8711 69.3223 31.2422C69.0488 31.6094 68.9121 32.1602 68.9121 32.8945Z" fill="#4967EE"/>
<path d="M75.9082 29.6602L75.9492 30.3926C76.418 29.8262 77.0332 29.543 77.7949 29.543C79.1152 29.543 79.7871 30.2988 79.8105 31.8105V36H78.3867V31.8926C78.3867 31.4902 78.2988 31.1934 78.123 31.002C77.9512 30.8066 77.668 30.709 77.2734 30.709C76.6992 30.709 76.2715 30.9688 75.9902 31.4883V36H74.5664V29.6602H75.9082Z" fill="#4967EE"/>
<path d="M83.0508 28.1191V29.6602H84.1699V30.7148H83.0508V34.2539C83.0508 34.4961 83.0977 34.6719 83.1914 34.7812C83.2891 34.8867 83.4609 34.9395 83.707 34.9395C83.8711 34.9395 84.0371 34.9199 84.2051 34.8809V35.9824C83.8809 36.0723 83.5684 36.1172 83.2676 36.1172C82.1738 36.1172 81.627 35.5137 81.627 34.3066V30.7148H80.584V29.6602H81.627V28.1191H83.0508Z" fill="#4967EE"/>
<path d="M88.0547 36.1172C87.1523 36.1172 86.4199 35.834 85.8574 35.2676C85.2988 34.6973 85.0195 33.9395 85.0195 32.9941V32.8184C85.0195 32.1855 85.1406 31.6211 85.3828 31.125C85.6289 30.625 85.9727 30.2363 86.4141 29.959C86.8555 29.6816 87.3477 29.543 87.8906 29.543C88.7539 29.543 89.4199 29.8184 89.8887 30.3691C90.3613 30.9199 90.5977 31.6992 90.5977 32.707V33.2812H86.4551C86.498 33.8047 86.6719 34.2188 86.9766 34.5234C87.2852 34.8281 87.6719 34.9805 88.1367 34.9805C88.7891 34.9805 89.3203 34.7168 89.7305 34.1895L90.498 34.9219C90.2441 35.3008 89.9043 35.5957 89.4785 35.8066C89.0566 36.0137 88.582 36.1172 88.0547 36.1172ZM87.8848 30.6855C87.4941 30.6855 87.1777 30.8223 86.9355 31.0957C86.6973 31.3691 86.5449 31.75 86.4785 32.2383H89.1914V32.1328C89.1602 31.6562 89.0332 31.2969 88.8105 31.0547C88.5879 30.8086 88.2793 30.6855 87.8848 30.6855Z" fill="#4967EE"/>
<path d="M93.0293 29.6602L93.0703 30.3926C93.5391 29.8262 94.1543 29.543 94.916 29.543C96.2363 29.543 96.9082 30.2988 96.9316 31.8105V36H95.5078V31.8926C95.5078 31.4902 95.4199 31.1934 95.2441 31.002C95.0723 30.8066 94.7891 30.709 94.3945 30.709C93.8203 30.709 93.3926 30.9688 93.1113 31.4883V36H91.6875V29.6602H93.0293Z" fill="#4967EE"/>
<path d="M100.172 28.1191V29.6602H101.291V30.7148H100.172V34.2539C100.172 34.4961 100.219 34.6719 100.312 34.7812C100.41 34.8867 100.582 34.9395 100.828 34.9395C100.992 34.9395 101.158 34.9199 101.326 34.8809V35.9824C101.002 36.0723 100.689 36.1172 100.389 36.1172C99.2949 36.1172 98.748 35.5137 98.748 34.3066V30.7148H97.7051V29.6602H98.748V28.1191H100.172Z" fill="#4967EE"/>
<path d="M86.6934 159.223C86.6074 160.133 86.2715 160.844 85.6855 161.355C85.0996 161.863 84.3203 162.117 83.3477 162.117C82.668 162.117 82.0684 161.957 81.5488 161.637C81.0332 161.312 80.6348 160.854 80.3535 160.26C80.0723 159.666 79.9258 158.977 79.9141 158.191V157.395C79.9141 156.59 80.0566 155.881 80.3418 155.268C80.627 154.654 81.0352 154.182 81.5664 153.85C82.1016 153.518 82.7188 153.352 83.418 153.352C84.3594 153.352 85.1172 153.607 85.6914 154.119C86.2656 154.631 86.5996 155.354 86.6934 156.287H85.2168C85.1465 155.674 84.9668 155.232 84.6777 154.963C84.3926 154.689 83.9727 154.553 83.418 154.553C82.7734 154.553 82.2773 154.789 81.9297 155.262C81.5859 155.73 81.4102 156.42 81.4023 157.33V158.086C81.4023 159.008 81.5664 159.711 81.8945 160.195C82.2266 160.68 82.7109 160.922 83.3477 160.922C83.9297 160.922 84.3672 160.791 84.6602 160.529C84.9531 160.268 85.1387 159.832 85.2168 159.223H86.6934Z" fill="#4967EE"/>
<path d="M91.7266 161.379C91.3086 161.871 90.7148 162.117 89.9453 162.117C89.2578 162.117 88.7363 161.916 88.3809 161.514C88.0293 161.111 87.8535 160.529 87.8535 159.768V155.66H89.2773V159.75C89.2773 160.555 89.6113 160.957 90.2793 160.957C90.9707 160.957 91.4375 160.709 91.6797 160.213V155.66H93.1035V162H91.7617L91.7266 161.379Z" fill="#4967EE"/>
<path d="M98.1074 160.277C98.1074 160.023 98.002 159.83 97.791 159.697C97.584 159.564 97.2383 159.447 96.7539 159.346C96.2695 159.244 95.8652 159.115 95.541 158.959C94.8301 158.615 94.4746 158.117 94.4746 157.465C94.4746 156.918 94.7051 156.461 95.166 156.094C95.627 155.727 96.2129 155.543 96.9238 155.543C97.6816 155.543 98.293 155.73 98.7578 156.105C99.2266 156.48 99.4609 156.967 99.4609 157.564H98.0371C98.0371 157.291 97.9355 157.064 97.7324 156.885C97.5293 156.701 97.2598 156.609 96.9238 156.609C96.6113 156.609 96.3555 156.682 96.1562 156.826C95.9609 156.971 95.8633 157.164 95.8633 157.406C95.8633 157.625 95.9551 157.795 96.1387 157.916C96.3223 158.037 96.6934 158.16 97.252 158.285C97.8105 158.406 98.248 158.553 98.5645 158.725C98.8848 158.893 99.1211 159.096 99.2734 159.334C99.4297 159.572 99.5078 159.861 99.5078 160.201C99.5078 160.771 99.2715 161.234 98.7988 161.59C98.3262 161.941 97.707 162.117 96.9414 162.117C96.4219 162.117 95.959 162.023 95.5527 161.836C95.1465 161.648 94.8301 161.391 94.6035 161.062C94.377 160.734 94.2637 160.381 94.2637 160.002H95.6465C95.666 160.338 95.793 160.598 96.0273 160.781C96.2617 160.961 96.5723 161.051 96.959 161.051C97.334 161.051 97.6191 160.98 97.8145 160.84C98.0098 160.695 98.1074 160.508 98.1074 160.277Z" fill="#4967EE"/>
<path d="M102.537 154.119V155.66H103.656V156.715H102.537V160.254C102.537 160.496 102.584 160.672 102.678 160.781C102.775 160.887 102.947 160.939 103.193 160.939C103.357 160.939 103.523 160.92 103.691 160.881V161.982C103.367 162.072 103.055 162.117 102.754 162.117C101.66 162.117 101.113 161.514 101.113 160.307V156.715H100.07V155.66H101.113V154.119H102.537Z" fill="#4967EE"/>
<path d="M104.307 158.771C104.307 158.15 104.43 157.592 104.676 157.096C104.922 156.596 105.268 156.213 105.713 155.947C106.158 155.678 106.67 155.543 107.248 155.543C108.104 155.543 108.797 155.818 109.328 156.369C109.863 156.92 110.152 157.65 110.195 158.561L110.201 158.895C110.201 159.52 110.08 160.078 109.838 160.57C109.6 161.062 109.256 161.443 108.807 161.713C108.361 161.982 107.846 162.117 107.26 162.117C106.365 162.117 105.648 161.82 105.109 161.227C104.574 160.629 104.307 159.834 104.307 158.842V158.771ZM105.73 158.895C105.73 159.547 105.865 160.059 106.135 160.43C106.404 160.797 106.779 160.98 107.26 160.98C107.74 160.98 108.113 160.793 108.379 160.418C108.648 160.043 108.783 159.494 108.783 158.771C108.783 158.131 108.645 157.623 108.367 157.248C108.094 156.873 107.721 156.686 107.248 156.686C106.783 156.686 106.414 156.871 106.141 157.242C105.867 157.609 105.73 158.16 105.73 158.895Z" fill="#4967EE"/>
<path d="M112.744 155.66L112.785 156.322C113.23 155.803 113.84 155.543 114.613 155.543C115.461 155.543 116.041 155.867 116.354 156.516C116.814 155.867 117.463 155.543 118.299 155.543C118.998 155.543 119.518 155.736 119.857 156.123C120.201 156.51 120.377 157.08 120.385 157.834V162H118.961V157.875C118.961 157.473 118.873 157.178 118.697 156.99C118.521 156.803 118.23 156.709 117.824 156.709C117.5 156.709 117.234 156.797 117.027 156.973C116.824 157.145 116.682 157.371 116.6 157.652L116.605 162H115.182V157.828C115.162 157.082 114.781 156.709 114.039 156.709C113.469 156.709 113.064 156.941 112.826 157.406V162H111.402V155.66H112.744Z" fill="#4967EE"/>
<path d="M123.361 162H121.938V155.66H123.361V162ZM121.85 154.014C121.85 153.795 121.918 153.613 122.055 153.469C122.195 153.324 122.395 153.252 122.652 153.252C122.91 153.252 123.109 153.324 123.25 153.469C123.391 153.613 123.461 153.795 123.461 154.014C123.461 154.229 123.391 154.408 123.25 154.553C123.109 154.693 122.91 154.764 122.652 154.764C122.395 154.764 122.195 154.693 122.055 154.553C121.918 154.408 121.85 154.229 121.85 154.014Z" fill="#4967EE"/>
<path d="M126.438 160.863H129.812V162H124.668V161.068L127.885 156.809H124.727V155.66H129.689V156.562L126.438 160.863Z" fill="#4967EE"/>
<path d="M133.65 162.117C132.748 162.117 132.016 161.834 131.453 161.268C130.895 160.697 130.615 159.939 130.615 158.994V158.818C130.615 158.186 130.736 157.621 130.979 157.125C131.225 156.625 131.568 156.236 132.01 155.959C132.451 155.682 132.943 155.543 133.486 155.543C134.35 155.543 135.016 155.818 135.484 156.369C135.957 156.92 136.193 157.699 136.193 158.707V159.281H132.051C132.094 159.805 132.268 160.219 132.572 160.523C132.881 160.828 133.268 160.98 133.732 160.98C134.385 160.98 134.916 160.717 135.326 160.189L136.094 160.922C135.84 161.301 135.5 161.596 135.074 161.807C134.652 162.014 134.178 162.117 133.65 162.117ZM133.48 156.686C133.09 156.686 132.773 156.822 132.531 157.096C132.293 157.369 132.141 157.75 132.074 158.238H134.787V158.133C134.756 157.656 134.629 157.297 134.406 157.055C134.184 156.809 133.875 156.686 133.48 156.686Z" fill="#4967EE"/>
<path d="M142.51 159.961L143.799 155.66H145.316L142.797 162.961C142.41 164.027 141.754 164.561 140.828 164.561C140.621 164.561 140.393 164.525 140.143 164.455V163.354L140.412 163.371C140.771 163.371 141.041 163.305 141.221 163.172C141.404 163.043 141.549 162.824 141.654 162.516L141.859 161.971L139.633 155.66H141.168L142.51 159.961Z" fill="#4967EE"/>
<path d="M145.779 158.771C145.779 158.15 145.902 157.592 146.148 157.096C146.395 156.596 146.74 156.213 147.186 155.947C147.631 155.678 148.143 155.543 148.721 155.543C149.576 155.543 150.27 155.818 150.801 156.369C151.336 156.92 151.625 157.65 151.668 158.561L151.674 158.895C151.674 159.52 151.553 160.078 151.311 160.57C151.072 161.062 150.729 161.443 150.279 161.713C149.834 161.982 149.318 162.117 148.732 162.117C147.838 162.117 147.121 161.82 146.582 161.227C146.047 160.629 145.779 159.834 145.779 158.842V158.771ZM147.203 158.895C147.203 159.547 147.338 160.059 147.607 160.43C147.877 160.797 148.252 160.98 148.732 160.98C149.213 160.98 149.586 160.793 149.852 160.418C150.121 160.043 150.256 159.494 150.256 158.771C150.256 158.131 150.117 157.623 149.84 157.248C149.566 156.873 149.193 156.686 148.721 156.686C148.256 156.686 147.887 156.871 147.613 157.242C147.34 157.609 147.203 158.16 147.203 158.895Z" fill="#4967EE"/>
<path d="M156.719 161.379C156.301 161.871 155.707 162.117 154.938 162.117C154.25 162.117 153.729 161.916 153.373 161.514C153.021 161.111 152.846 160.529 152.846 159.768V155.66H154.27V159.75C154.27 160.555 154.604 160.957 155.271 160.957C155.963 160.957 156.43 160.709 156.672 160.213V155.66H158.096V162H156.754L156.719 161.379Z" fill="#4967EE"/>
<path d="M162.865 156.961C162.678 156.93 162.484 156.914 162.285 156.914C161.633 156.914 161.193 157.164 160.967 157.664V162H159.543V155.66H160.902L160.938 156.369C161.281 155.818 161.758 155.543 162.367 155.543C162.57 155.543 162.738 155.57 162.871 155.625L162.865 156.961Z" fill="#4967EE"/>
<path d="M172.305 158.895C172.305 159.875 172.082 160.658 171.637 161.244C171.191 161.826 170.594 162.117 169.844 162.117C169.148 162.117 168.592 161.889 168.174 161.432V164.438H166.75V155.66H168.062L168.121 156.305C168.539 155.797 169.107 155.543 169.826 155.543C170.6 155.543 171.205 155.832 171.643 156.41C172.084 156.984 172.305 157.783 172.305 158.807V158.895ZM170.887 158.771C170.887 158.139 170.76 157.637 170.506 157.266C170.256 156.895 169.896 156.709 169.428 156.709C168.846 156.709 168.428 156.949 168.174 157.43V160.242C168.432 160.734 168.854 160.98 169.439 160.98C169.893 160.98 170.246 160.799 170.5 160.436C170.758 160.068 170.887 159.514 170.887 158.771Z" fill="#4967EE"/>
<path d="M175.029 162H173.605V153H175.029V162Z" fill="#4967EE"/>
<path d="M180.373 162C180.311 161.879 180.256 161.682 180.209 161.408C179.756 161.881 179.201 162.117 178.545 162.117C177.908 162.117 177.389 161.936 176.986 161.572C176.584 161.209 176.383 160.76 176.383 160.225C176.383 159.549 176.633 159.031 177.133 158.672C177.637 158.309 178.355 158.127 179.289 158.127H180.162V157.711C180.162 157.383 180.07 157.121 179.887 156.926C179.703 156.727 179.424 156.627 179.049 156.627C178.725 156.627 178.459 156.709 178.252 156.873C178.045 157.033 177.941 157.238 177.941 157.488H176.518C176.518 157.141 176.633 156.816 176.863 156.516C177.094 156.211 177.406 155.973 177.801 155.801C178.199 155.629 178.643 155.543 179.131 155.543C179.873 155.543 180.465 155.73 180.906 156.105C181.348 156.477 181.574 157 181.586 157.676V160.535C181.586 161.105 181.666 161.561 181.826 161.9V162H180.373ZM178.809 160.975C179.09 160.975 179.354 160.906 179.6 160.77C179.85 160.633 180.037 160.449 180.162 160.219V159.023H179.395C178.867 159.023 178.471 159.115 178.205 159.299C177.939 159.482 177.807 159.742 177.807 160.078C177.807 160.352 177.896 160.57 178.076 160.734C178.26 160.895 178.504 160.975 178.809 160.975Z" fill="#4967EE"/>
<path d="M185.201 159.961L186.49 155.66H188.008L185.488 162.961C185.102 164.027 184.445 164.561 183.52 164.561C183.312 164.561 183.084 164.525 182.834 164.455V163.354L183.104 163.371C183.463 163.371 183.732 163.305 183.912 163.172C184.096 163.043 184.24 162.824 184.346 162.516L184.551 161.971L182.324 155.66H183.859L185.201 159.961Z" fill="#4967EE"/>
<path d="M191.541 162.117C190.639 162.117 189.906 161.834 189.344 161.268C188.785 160.697 188.506 159.939 188.506 158.994V158.818C188.506 158.186 188.627 157.621 188.869 157.125C189.115 156.625 189.459 156.236 189.9 155.959C190.342 155.682 190.834 155.543 191.377 155.543C192.24 155.543 192.906 155.818 193.375 156.369C193.848 156.92 194.084 157.699 194.084 158.707V159.281H189.941C189.984 159.805 190.158 160.219 190.463 160.523C190.771 160.828 191.158 160.98 191.623 160.98C192.275 160.98 192.807 160.717 193.217 160.189L193.984 160.922C193.73 161.301 193.391 161.596 192.965 161.807C192.543 162.014 192.068 162.117 191.541 162.117ZM191.371 156.686C190.98 156.686 190.664 156.822 190.422 157.096C190.184 157.369 190.031 157.75 189.965 158.238H192.678V158.133C192.646 157.656 192.52 157.297 192.297 157.055C192.074 156.809 191.766 156.686 191.371 156.686Z" fill="#4967EE"/>
<path d="M198.514 156.961C198.326 156.93 198.133 156.914 197.934 156.914C197.281 156.914 196.842 157.164 196.615 157.664V162H195.191V155.66H196.551L196.586 156.369C196.93 155.818 197.406 155.543 198.016 155.543C198.219 155.543 198.387 155.57 198.52 155.625L198.514 156.961Z" fill="#4967EE"/>
<defs>
<filter id="filter0_d" x="94.6156" y="82.0734" width="17.876" height="17.876" filterUnits="userSpaceOnUse" color-interpolation-filters="sRGB">
<feFlood flood-opacity="0" result="BackgroundImageFix"/>
<feColorMatrix in="SourceAlpha" type="matrix" values="0 0 0 0 0 0 0 0 0 0 0 0 0 0 0 0 0 0 127 0" result="hardAlpha"/>
<feOffset dy="0.406494"/>
<feGaussianBlur stdDeviation="0.406494"/>
<feColorMatrix type="matrix" values="0 0 0 0 0 0 0 0 0 0 0 0 0 0 0 0 0 0 0.25 0"/>
<feBlend mode="normal" in2="BackgroundImageFix" result="effect1_dropShadow"/>
<feBlend mode="normal" in="SourceGraphic" in2="effect1_dropShadow" result="shape"/>
</filter>
</defs>
</svg>
