<svg width="283" height="240" viewBox="0 0 283 240" fill="none" xmlns="http://www.w3.org/2000/svg">
<circle cx="141.5" cy="126.5" r="111.5" fill="#EDF0FE"/>
<path d="M213 25L213.113 5" stroke="#C8D1E0" stroke-width="3.54283" stroke-linecap="round" stroke-linejoin="round"/>
<path d="M231 31L245.235 16.9502" stroke="#C8D1E0" stroke-width="3.54283" stroke-linecap="round" stroke-linejoin="round"/>
<path d="M254 50L234 49.8873" stroke="#C8D1E0" stroke-width="3.54283" stroke-linecap="round" stroke-linejoin="round"/>
<path d="M17.5044 78.578L19.7893 81.0427L20.0082 81.2788L20.3003 81.144L23.351 79.7369L21.7125 82.6673L21.5556 82.9479L21.7744 83.184L24.0593 85.6487L20.7618 84.9951L20.4459 84.9325L20.289 85.2131L18.6505 88.1436L18.251 84.8092L18.2127 84.4898L17.8969 84.4272L14.5993 83.7736L17.65 82.3665L17.9422 82.2317L17.9039 81.9124L17.5044 78.578Z" stroke="#4967EE" stroke-width="0.885708" stroke-linecap="round"/>
<path d="M266.995 68.8884L267.269 72.2361L267.295 72.5567L267.608 72.6306L270.878 73.4028L267.777 74.6996L267.48 74.8238L267.507 75.1444L267.78 78.492L265.59 75.9458L265.381 75.702L265.084 75.8262L261.983 77.1229L263.73 74.2525L263.898 73.9776L263.688 73.7338L261.498 71.1876L264.768 71.9598L265.081 72.0337L265.248 71.7588L266.995 68.8884Z" stroke="#4967EE" stroke-width="0.885708" stroke-linecap="round"/>
<path d="M149.315 2.10191L150.014 5.38764L150.081 5.70232L150.401 5.73581L153.742 6.08554L150.832 7.7665L150.554 7.92749L150.621 8.24217L151.319 11.5279L148.823 9.28106L148.583 9.06587L148.305 9.22686L145.395 10.9078L146.762 7.83824L146.892 7.54426L146.653 7.32908L144.156 5.08225L147.498 5.43198L147.818 5.46547L147.949 5.17149L149.315 2.10191Z" stroke="#4967EE" stroke-width="0.885708" stroke-linecap="round"/>
<path d="M248.504 159.578L250.789 162.043L251.008 162.279L251.3 162.144L254.351 160.737L252.713 163.667L252.556 163.948L252.774 164.184L255.059 166.649L251.762 165.995L251.446 165.932L251.289 166.213L249.651 169.144L249.251 165.809L249.213 165.49L248.897 165.427L245.599 164.774L248.65 163.366L248.942 163.232L248.904 162.912L248.504 159.578Z" stroke="#AFBACC" stroke-width="0.885708" stroke-linecap="round"/>
<path d="M17.2081 176.142L16.7333 179.466L16.6878 179.784L16.9769 179.926L19.995 181.401L16.6834 181.98L16.3662 182.036L16.3208 182.354L15.8459 185.679L14.2741 182.712L14.1236 182.428L13.8064 182.483L10.4948 183.062L12.8349 180.65L13.0591 180.419L12.9085 180.135L11.3367 177.168L14.3548 178.644L14.6439 178.785L14.868 178.554L17.2081 176.142Z" stroke="#AFBACC" stroke-width="0.885708" stroke-linecap="round"/>
<circle cx="248" cy="86" r="2.55715" stroke="#707A8A" stroke-width="0.885708"/>
<circle cx="45" cy="47" r="2.55715" stroke="#707A8A" stroke-width="0.885708"/>
<circle cx="38" cy="191" r="2.55715" stroke="#707A8A" stroke-width="0.885708"/>
<circle cx="280" cy="176" r="2.55715" stroke="#707A8A" stroke-width="0.885708"/>
<circle cx="152" cy="27" r="2.55715" stroke="#707A8A" stroke-width="0.885708"/>
<circle cx="38" cy="94" r="2.55715" stroke="#AFBACC" stroke-width="0.885708"/>
<circle cx="240" cy="200" r="2.55715" stroke="#AFBACC" stroke-width="0.885708"/>
<circle cx="172" cy="11" r="2.55715" stroke="#AFBACC" stroke-width="0.885708"/>
<circle cx="28" cy="118" r="2.55715" stroke="#4967EE" stroke-width="0.885708"/>
<circle cx="5" cy="204" r="2.55715" stroke="#4967EE" stroke-width="0.885708"/>
<circle cx="262" cy="144" r="2.55715" stroke="#4967EE" stroke-width="0.885708"/>
<path fill-rule="evenodd" clip-rule="evenodd" d="M2.89883 105.14C2.71202 104.953 2.40914 104.953 2.22232 105.14C2.03551 105.326 2.03551 105.628 2.22232 105.814L4.37489 107.959L2.14011 110.186C1.9533 110.372 1.9533 110.674 2.14011 110.86C2.32692 111.047 2.62981 111.047 2.81662 110.86L5.0514 108.633L7.18338 110.758C7.37019 110.944 7.67308 110.944 7.85989 110.758C8.0467 110.572 8.0467 110.27 7.85989 110.084L5.72791 107.959L7.77768 105.916C7.96449 105.73 7.96449 105.428 7.77768 105.242C7.59087 105.056 7.28798 105.056 7.10117 105.242L5.0514 107.285L2.89883 105.14Z" fill="#707A8A"/>
<path fill-rule="evenodd" clip-rule="evenodd" d="M42.8988 164.14C42.712 163.953 42.4091 163.953 42.2223 164.14C42.0355 164.326 42.0355 164.628 42.2223 164.814L44.3749 166.959L42.1401 169.186C41.9533 169.372 41.9533 169.674 42.1401 169.86C42.3269 170.047 42.6298 170.047 42.8166 169.86L45.0514 167.633L47.1834 169.758C47.3702 169.944 47.6731 169.944 47.8599 169.758C48.0467 169.572 48.0467 169.27 47.8599 169.084L45.7279 166.959L47.7777 164.916C47.9645 164.73 47.9645 164.428 47.7777 164.242C47.5909 164.056 47.288 164.056 47.1012 164.242L45.0514 166.285L42.8988 164.14Z" fill="#AFBACC"/>
<path fill-rule="evenodd" clip-rule="evenodd" d="M31.8988 213.14C31.712 212.953 31.4091 212.953 31.2223 213.14C31.0355 213.326 31.0355 213.628 31.2223 213.814L33.3749 215.959L31.1401 218.186C30.9533 218.372 30.9533 218.674 31.1401 218.86C31.3269 219.047 31.6298 219.047 31.8166 218.86L34.0514 216.633L36.1834 218.758C36.3702 218.944 36.6731 218.944 36.8599 218.758C37.0467 218.572 37.0467 218.27 36.8599 218.084L34.7279 215.959L36.7777 213.916C36.9645 213.73 36.9645 213.428 36.7777 213.242C36.5909 213.056 36.288 213.056 36.1012 213.242L34.0514 215.285L31.8988 213.14Z" fill="#AFBACC"/>
<path fill-rule="evenodd" clip-rule="evenodd" d="M259.899 96.1396C259.712 95.9535 259.409 95.9535 259.222 96.1396C259.036 96.3258 259.036 96.6277 259.222 96.8138L261.375 98.959L259.14 101.186C258.953 101.372 258.953 101.674 259.14 101.86C259.327 102.047 259.63 102.047 259.817 101.86L262.051 99.6332L264.183 101.758C264.37 101.944 264.673 101.944 264.86 101.758C265.047 101.572 265.047 101.27 264.86 101.084L262.728 98.959L264.778 96.9163C264.964 96.7301 264.964 96.4282 264.778 96.2421C264.591 96.0559 264.288 96.0559 264.101 96.2421L262.051 98.2848L259.899 96.1396Z" fill="#AFBACC"/>
<path fill-rule="evenodd" clip-rule="evenodd" d="M259.899 188.14C259.712 187.953 259.409 187.953 259.222 188.14C259.036 188.326 259.036 188.628 259.222 188.814L261.375 190.959L259.14 193.186C258.953 193.372 258.953 193.674 259.14 193.86C259.327 194.047 259.63 194.047 259.817 193.86L262.051 191.633L264.183 193.758C264.37 193.944 264.673 193.944 264.86 193.758C265.047 193.572 265.047 193.27 264.86 193.084L262.728 190.959L264.778 188.916C264.964 188.73 264.964 188.428 264.778 188.242C264.591 188.056 264.288 188.056 264.101 188.242L262.051 190.285L259.899 188.14Z" fill="#4967EE"/>
<path fill-rule="evenodd" clip-rule="evenodd" d="M184.899 17.1396C184.712 16.9535 184.409 16.9535 184.222 17.1396C184.036 17.3258 184.036 17.6277 184.222 17.8138L186.375 19.959L184.14 22.1862C183.953 22.3723 183.953 22.6742 184.14 22.8604C184.327 23.0465 184.63 23.0465 184.817 22.8604L187.051 20.6332L189.183 22.7579C189.37 22.9441 189.673 22.9441 189.86 22.7579C190.047 22.5718 190.047 22.2699 189.86 22.0837L187.728 19.959L189.778 17.9163C189.964 17.7301 189.964 17.4282 189.778 17.2421C189.591 17.0559 189.288 17.0559 189.101 17.2421L187.051 19.2848L184.899 17.1396Z" fill="#4967EE"/>
<rect x="78" y="90" width="128" height="73" fill="#C4C4C4"/>
<rect x="77" y="90" width="130" height="73" fill="#707A8A"/>
<rect opacity="0.5" x="78" y="158" width="128" height="1" fill="white"/>
<rect x="78" y="158" width="128" height="1" fill="#4967EE"/>
<rect opacity="0.5" x="77" y="157" width="130" height="7" fill="#DBE1FC"/>
<rect x="78" y="157" width="129" height="2" fill="#B6C2F8"/>
<rect x="77" y="157" width="84" height="2" fill="#4967EE"/>
<circle opacity="0.5" cx="143" cy="126" r="18" fill="#DBE1FC"/>
<g filter="url(#filter0_d)">
<path d="M138.469 120.239V131.761C138.469 132.64 139.455 133.174 140.214 132.695L149.442 126.934C150.144 126.5 150.144 125.5 149.442 125.055L140.214 119.305C139.455 118.826 138.469 119.36 138.469 120.239Z" fill="white"/>
</g>
<path d="M6.74184 28.2382C6.74184 27.7841 6.58598 27.434 6.27424 27.188C5.96709 26.9421 5.4101 26.6937 4.60326 26.443C3.79643 26.1923 3.15462 25.9132 2.67786 25.6057C1.76558 25.0144 1.30944 24.2433 1.30944 23.2924C1.30944 22.4599 1.63722 21.7739 2.29277 21.2347C2.95291 20.6954 3.80789 20.4257 4.85769 20.4257C5.55451 20.4257 6.17568 20.5582 6.72121 20.8231C7.26674 21.088 7.69538 21.4665 8.00711 21.9584C8.31884 22.4457 8.47471 22.9873 8.47471 23.5834H6.74184C6.74184 23.0441 6.57681 22.6231 6.24674 22.3203C5.92125 22.0128 5.45365 21.8591 4.84394 21.8591C4.27549 21.8591 3.8331 21.9845 3.51678 22.2352C3.20505 22.4859 3.04918 22.836 3.04918 23.2854C3.04918 23.6638 3.2188 23.9807 3.55804 24.2362C3.89728 24.4869 4.45657 24.7329 5.2359 24.9742C6.01523 25.2107 6.64099 25.4827 7.11317 25.7902C7.58535 26.0929 7.93147 26.443 8.15152 26.8403C8.37156 27.233 8.48159 27.6942 8.48159 28.224C8.48159 29.085 8.16068 29.7709 7.51888 30.2818C6.88166 30.788 6.01523 31.0411 4.91958 31.0411C4.19526 31.0411 3.52824 30.9039 2.91853 30.6295C2.3134 30.3504 1.84122 29.9672 1.50198 29.48C1.16733 28.9927 1 28.4251 1 27.777H2.73974C2.73974 28.3636 2.9277 28.8177 3.30361 29.1394C3.67953 29.4611 4.21818 29.6219 4.91958 29.6219C5.52471 29.6219 5.97855 29.4965 6.28112 29.2458C6.58827 28.9904 6.74184 28.6545 6.74184 28.2382Z" fill="#4967EE"/>
<path d="M11.4935 24.0588C12.039 23.406 12.7289 23.0796 13.5633 23.0796C15.1495 23.0796 15.954 24.0139 15.9769 25.8824V30.8991H14.3059V25.9463C14.3059 25.4165 14.1936 25.0427 13.969 24.8251C13.749 24.6028 13.4235 24.4916 12.9925 24.4916C12.3232 24.4916 11.8235 24.7991 11.4935 25.4141V30.8991H9.82249V20H11.4935V24.0588Z" fill="#4967EE"/>
<path d="M22.1176 30.8991C22.0443 30.7525 21.9801 30.5136 21.9251 30.1825C21.3933 30.7549 20.7423 31.0411 19.9721 31.0411C19.2249 31.0411 18.6152 30.8211 18.143 30.3811C17.6708 29.9412 17.4347 29.3972 17.4347 28.7491C17.4347 27.9307 17.7281 27.3039 18.3149 26.8687C18.9063 26.4288 19.7498 26.2088 20.8455 26.2088H21.87V25.705C21.87 25.3077 21.7623 24.9907 21.5469 24.7542C21.3314 24.5129 21.0036 24.3923 20.5635 24.3923C20.183 24.3923 19.8713 24.4916 19.6283 24.6903C19.3854 24.8843 19.2639 25.1326 19.2639 25.4354H17.5929C17.5929 25.0144 17.7281 24.6217 17.9986 24.2575C18.2691 23.8885 18.6358 23.5999 19.0988 23.3918C19.5664 23.1836 20.0868 23.0796 20.6598 23.0796C21.5308 23.0796 22.2253 23.3066 22.7434 23.7608C23.2614 24.2102 23.5273 24.8441 23.541 25.6624V29.1252C23.541 29.8158 23.635 30.367 23.823 30.7785V30.8991H22.1176ZM20.2816 29.6574C20.6117 29.6574 20.9211 29.5746 21.2099 29.409C21.5033 29.2435 21.7233 29.0211 21.87 28.742V27.2945H20.9692C20.3503 27.2945 19.885 27.4056 19.5733 27.628C19.2616 27.8503 19.1057 28.1649 19.1057 28.5717C19.1057 28.9029 19.2111 29.1678 19.422 29.3664C19.6375 29.5604 19.924 29.6574 20.2816 29.6574Z" fill="#4967EE"/>
<path d="M29.1866 24.7968C28.9665 24.7589 28.7396 24.74 28.5058 24.74C27.7402 24.74 27.2245 25.0427 26.9586 25.6483V30.8991H25.2876V23.2215H26.883L26.9242 24.0801C27.3277 23.4131 27.8869 23.0796 28.6021 23.0796C28.8405 23.0796 29.0376 23.1127 29.1935 23.1789L29.1866 24.7968Z" fill="#4967EE"/>
<path d="M33.3812 31.0411C32.3223 31.0411 31.4627 30.6981 30.8026 30.0122C30.147 29.3215 29.8192 28.4038 29.8192 27.259V27.0461C29.8192 26.2798 29.9613 25.5962 30.2456 24.9954C30.5344 24.3899 30.9378 23.9192 31.4558 23.5834C31.9739 23.2475 32.5515 23.0796 33.1887 23.0796C34.2018 23.0796 34.9834 23.4131 35.5336 24.0801C36.0883 24.7471 36.3656 25.6908 36.3656 26.9113V27.6067H31.504C31.5544 28.2406 31.7584 28.742 32.116 29.111C32.4781 29.48 32.932 29.6645 33.4775 29.6645C34.2431 29.6645 34.8665 29.3452 35.3479 28.7065L36.2487 29.5935C35.9507 30.0524 35.5519 30.4095 35.0522 30.665C34.5571 30.9157 34.0001 31.0411 33.3812 31.0411ZM33.1818 24.4633C32.7234 24.4633 32.3521 24.6288 32.0678 24.96C31.7882 25.2911 31.6094 25.7523 31.5315 26.3436H34.7153V26.2159C34.6786 25.6388 34.5296 25.2036 34.2683 24.9103C34.007 24.6123 33.6448 24.4633 33.1818 24.4633Z" fill="#4967EE"/>
<path d="M43.7784 28.4298L45.2913 23.2215H47.0723L44.1154 32.0628C43.6615 33.3543 42.8914 34 41.8049 34C41.5619 34 41.2937 33.9574 41.0004 33.8723V32.5383L41.3167 32.5596C41.7384 32.5596 42.0547 32.4791 42.2656 32.3183C42.4811 32.1622 42.6507 31.8973 42.7745 31.5236L43.0152 30.8637L40.4021 23.2215H42.2037L43.7784 28.4298Z" fill="#4967EE"/>
<path d="M47.6155 26.9894C47.6155 26.2372 47.7599 25.5607 48.0487 24.96C48.3375 24.3545 48.7432 23.8909 49.2659 23.5692C49.7885 23.2428 50.389 23.0796 51.0675 23.0796C52.0714 23.0796 52.8852 23.4131 53.5086 24.0801C54.1367 24.7471 54.4759 25.6317 54.5263 26.7339L54.5332 27.1384C54.5332 27.8953 54.3911 28.5717 54.1069 29.1678C53.8272 29.7638 53.4238 30.225 52.8966 30.5514C52.374 30.8779 51.7689 31.0411 51.0812 31.0411C50.0314 31.0411 49.1902 30.6815 48.5576 29.9625C47.9295 29.2387 47.6155 28.2761 47.6155 27.0745V26.9894ZM49.2865 27.1384C49.2865 27.9284 49.4446 28.5481 49.761 28.9975C50.0773 29.4421 50.5174 29.6645 51.0812 29.6645C51.6451 29.6645 52.0829 29.4374 52.3946 28.9833C52.711 28.5291 52.8691 27.8645 52.8691 26.9894C52.8691 26.2135 52.7064 25.5986 52.3809 25.1444C52.06 24.6903 51.6222 24.4633 51.0675 24.4633C50.5219 24.4633 50.0887 24.688 49.7678 25.1374C49.4469 25.582 49.2865 26.249 49.2865 27.1384Z" fill="#4967EE"/>
<path d="M60.4538 30.147C59.9633 30.743 59.2665 31.0411 58.3634 31.0411C57.5566 31.0411 56.9446 30.7974 56.5274 30.3102C56.1148 29.8229 55.9085 29.1181 55.9085 28.1956V23.2215H57.5795V28.1744C57.5795 29.1488 57.9714 29.6361 58.7554 29.6361C59.5668 29.6361 60.1146 29.3357 60.3988 28.7349V23.2215H62.0698V30.8991H60.4951L60.4538 30.147Z" fill="#4967EE"/>
<path d="M67.6673 24.7968C67.4472 24.7589 67.2203 24.74 66.9865 24.74C66.2209 24.74 65.7052 25.0427 65.4393 25.6483V30.8991H63.7683V23.2215H65.3636L65.4049 24.0801C65.8083 23.4131 66.3676 23.0796 67.0827 23.0796C67.3211 23.0796 67.5183 23.1127 67.6741 23.1789L67.6673 24.7968Z" fill="#4967EE"/>
<path d="M75.2864 29.6645C75.7035 29.6645 76.0496 29.5391 76.3247 29.2884C76.5998 29.0377 76.7465 28.7278 76.7648 28.3588H78.3395C78.3212 28.8366 78.1768 29.2837 77.9063 29.6999C77.6358 30.1115 77.2691 30.4379 76.8061 30.6792C76.343 30.9204 75.8434 31.0411 75.307 31.0411C74.2664 31.0411 73.4412 30.6934 72.8315 29.998C72.2218 29.3026 71.9169 28.3423 71.9169 27.1171V26.9397C71.9169 25.7712 72.2195 24.837 72.8246 24.1368C73.4297 23.432 74.2549 23.0796 75.3001 23.0796C76.1849 23.0796 76.9046 23.3468 77.4593 23.8814C78.0186 24.4112 78.312 25.109 78.3395 25.9747H76.7648C76.7465 25.5347 76.5998 25.1728 76.3247 24.889C76.0542 24.6052 75.7081 24.4633 75.2864 24.4633C74.7454 24.4633 74.3282 24.6667 74.0349 25.0735C73.7415 25.4756 73.5925 26.0882 73.5879 26.9113V27.188C73.5879 28.0206 73.7323 28.6427 74.0211 29.0542C74.3145 29.4611 74.7362 29.6645 75.2864 29.6645Z" fill="#4967EE"/>
<path d="M79.2885 26.9894C79.2885 26.2372 79.4329 25.5607 79.7217 24.96C80.0105 24.3545 80.4162 23.8909 80.9388 23.5692C81.4614 23.2428 82.062 23.0796 82.7404 23.0796C83.7444 23.0796 84.5581 23.4131 85.1816 24.0801C85.8096 24.7471 86.1489 25.6317 86.1993 26.7339L86.2062 27.1384C86.2062 27.8953 86.0641 28.5717 85.7798 29.1678C85.5002 29.7638 85.0968 30.225 84.5696 30.5514C84.047 30.8779 83.4418 31.0411 82.7542 31.0411C81.7044 31.0411 80.8632 30.6815 80.2305 29.9625C79.6025 29.2387 79.2885 28.2761 79.2885 27.0745V26.9894ZM80.9594 27.1384C80.9594 27.9284 81.1176 28.5481 81.4339 28.9975C81.7502 29.4421 82.1903 29.6645 82.7542 29.6645C83.3181 29.6645 83.7559 29.4374 84.0676 28.9833C84.3839 28.5291 84.5421 27.8645 84.5421 26.9894C84.5421 26.2135 84.3793 25.5986 84.0538 25.1444C83.7329 24.6903 83.2951 24.4633 82.7404 24.4633C82.1949 24.4633 81.7617 24.688 81.4408 25.1374C81.1199 25.582 80.9594 26.249 80.9594 27.1384Z" fill="#4967EE"/>
<path d="M89.1699 23.2215L89.2181 24.1085C89.7682 23.4225 90.4902 23.0796 91.3841 23.0796C92.9336 23.0796 93.7221 23.9949 93.7496 25.8256V30.8991H92.0787V25.925C92.0787 25.4377 91.9755 25.0782 91.7692 24.8464C91.5675 24.6099 91.2352 24.4916 90.7721 24.4916C90.0982 24.4916 89.5963 24.8062 89.2662 25.4354V30.8991H87.5952V23.2215H89.1699Z" fill="#4967EE"/>
<path d="M97.5523 21.3553V23.2215H98.8657V24.4987H97.5523V28.7846C97.5523 29.0779 97.6073 29.2908 97.7174 29.4232C97.832 29.5509 98.0337 29.6148 98.3225 29.6148C98.515 29.6148 98.7099 29.5911 98.907 29.5438V30.8779C98.5265 30.9867 98.1597 31.0411 97.8068 31.0411C96.5231 31.0411 95.8813 30.3102 95.8813 28.8485V24.4987H94.6573V23.2215H95.8813V21.3553H97.5523Z" fill="#4967EE"/>
<path d="M103.425 31.0411C102.366 31.0411 101.506 30.6981 100.846 30.0122C100.191 29.3215 99.8628 28.4038 99.8628 27.259V27.0461C99.8628 26.2798 100.005 25.5962 100.289 24.9954C100.578 24.3899 100.981 23.9192 101.499 23.5834C102.017 23.2475 102.595 23.0796 103.232 23.0796C104.245 23.0796 105.027 23.4131 105.577 24.0801C106.132 24.7471 106.409 25.6908 106.409 26.9113V27.6067H101.548C101.598 28.2406 101.802 28.742 102.16 29.111C102.522 29.48 102.976 29.6645 103.521 29.6645C104.287 29.6645 104.91 29.3452 105.391 28.7065L106.292 29.5935C105.994 30.0524 105.595 30.4095 105.096 30.665C104.601 30.9157 104.044 31.0411 103.425 31.0411ZM103.225 24.4633C102.767 24.4633 102.396 24.6288 102.111 24.96C101.832 25.2911 101.653 25.7523 101.575 26.3436H104.759V26.2159C104.722 25.6388 104.573 25.2036 104.312 24.9103C104.051 24.6123 103.688 24.4633 103.225 24.4633Z" fill="#4967EE"/>
<path d="M109.263 23.2215L109.311 24.1085C109.861 23.4225 110.583 23.0796 111.477 23.0796C113.027 23.0796 113.815 23.9949 113.843 25.8256V30.8991H112.172V25.925C112.172 25.4377 112.069 25.0782 111.862 24.8464C111.661 24.6099 111.328 24.4916 110.865 24.4916C110.191 24.4916 109.689 24.8062 109.359 25.4354V30.8991H107.688V23.2215H109.263Z" fill="#4967EE"/>
<path d="M117.645 21.3553V23.2215H118.959V24.4987H117.645V28.7846C117.645 29.0779 117.7 29.2908 117.81 29.4232C117.925 29.5509 118.127 29.6148 118.415 29.6148C118.608 29.6148 118.803 29.5911 119 29.5438V30.8779C118.62 30.9867 118.253 31.0411 117.9 31.0411C116.616 31.0411 115.974 30.3102 115.974 28.8485V24.4987H114.75V23.2215H115.974V21.3553H117.645Z" fill="#4967EE"/>
<path d="M145.888 231.536C145.788 232.638 145.397 233.499 144.715 234.119C144.033 234.734 143.127 235.041 141.995 235.041C141.204 235.041 140.507 234.847 139.902 234.459C139.302 234.067 138.839 233.511 138.511 232.792C138.184 232.073 138.014 231.238 138 230.287V229.322C138 228.347 138.166 227.489 138.498 226.746C138.829 226.003 139.304 225.431 139.923 225.029C140.545 224.627 141.263 224.426 142.077 224.426C143.172 224.426 144.054 224.736 144.722 225.355C145.39 225.975 145.779 226.85 145.888 227.981H144.17C144.088 227.238 143.879 226.703 143.543 226.377C143.211 226.046 142.722 225.88 142.077 225.88C141.327 225.88 140.75 226.167 140.345 226.739C139.945 227.307 139.741 228.142 139.732 229.244V230.159C139.732 231.276 139.923 232.127 140.304 232.714C140.691 233.3 141.254 233.594 141.995 233.594C142.672 233.594 143.181 233.435 143.522 233.118C143.863 232.801 144.079 232.274 144.17 231.536H145.888Z" fill="#4967EE"/>
<path d="M151.744 234.147C151.258 234.743 150.567 235.041 149.672 235.041C148.872 235.041 148.265 234.797 147.851 234.31C147.442 233.823 147.238 233.118 147.238 232.196V227.221H148.894V232.174C148.894 233.149 149.283 233.636 150.06 233.636C150.865 233.636 151.408 233.336 151.69 232.735V227.221H153.346V234.899H151.785L151.744 234.147Z" fill="#4967EE"/>
<path d="M159.168 232.813C159.168 232.505 159.046 232.271 158.8 232.11C158.559 231.95 158.157 231.808 157.594 231.685C157.03 231.562 156.56 231.406 156.182 231.216C155.355 230.8 154.942 230.197 154.942 229.407C154.942 228.745 155.21 228.191 155.746 227.747C156.282 227.302 156.964 227.08 157.791 227.08C158.673 227.08 159.384 227.307 159.925 227.761C160.471 228.215 160.743 228.804 160.743 229.528H159.087C159.087 229.196 158.968 228.922 158.732 228.705C158.496 228.482 158.182 228.371 157.791 228.371C157.428 228.371 157.13 228.459 156.898 228.634C156.671 228.809 156.557 229.043 156.557 229.336C156.557 229.601 156.664 229.807 156.878 229.953C157.091 230.1 157.523 230.249 158.173 230.4C158.823 230.547 159.332 230.724 159.7 230.933C160.073 231.136 160.348 231.382 160.525 231.671C160.707 231.959 160.798 232.309 160.798 232.721C160.798 233.411 160.523 233.972 159.973 234.402C159.423 234.828 158.703 235.041 157.812 235.041C157.207 235.041 156.669 234.928 156.196 234.7C155.723 234.473 155.355 234.161 155.091 233.764C154.828 233.366 154.696 232.938 154.696 232.479H156.305C156.328 232.886 156.475 233.201 156.748 233.423C157.021 233.641 157.382 233.75 157.832 233.75C158.268 233.75 158.6 233.664 158.827 233.494C159.055 233.319 159.168 233.092 159.168 232.813Z" fill="#4967EE"/>
<path d="M164.322 225.355V227.221H165.625V228.499H164.322V232.785C164.322 233.078 164.377 233.291 164.486 233.423C164.6 233.551 164.8 233.615 165.086 233.615C165.277 233.615 165.47 233.591 165.665 233.544V234.878C165.288 234.987 164.925 235.041 164.575 235.041C163.302 235.041 162.666 234.31 162.666 232.848V228.499H161.452V227.221H162.666V225.355H164.322Z" fill="#4967EE"/>
<path d="M166.381 230.989C166.381 230.237 166.524 229.561 166.811 228.96C167.097 228.354 167.499 227.891 168.017 227.569C168.536 227.243 169.131 227.08 169.804 227.08C170.799 227.08 171.606 227.413 172.224 228.08C172.847 228.747 173.183 229.632 173.233 230.734L173.24 231.138C173.24 231.895 173.099 232.572 172.817 233.168C172.54 233.764 172.14 234.225 171.617 234.551C171.099 234.878 170.499 235.041 169.817 235.041C168.777 235.041 167.942 234.682 167.315 233.962C166.693 233.239 166.381 232.276 166.381 231.075V230.989ZM168.038 231.138C168.038 231.928 168.195 232.548 168.508 232.997C168.822 233.442 169.258 233.664 169.817 233.664C170.376 233.664 170.81 233.437 171.119 232.983C171.433 232.529 171.59 231.865 171.59 230.989C171.59 230.214 171.429 229.599 171.106 229.144C170.788 228.69 170.354 228.463 169.804 228.463C169.263 228.463 168.833 228.688 168.515 229.137C168.197 229.582 168.038 230.249 168.038 231.138Z" fill="#4967EE"/>
<path d="M176.198 227.221L176.246 228.023C176.764 227.394 177.473 227.08 178.373 227.08C179.36 227.08 180.034 227.472 180.398 228.257C180.934 227.472 181.689 227.08 182.661 227.08C183.475 227.08 184.08 227.314 184.475 227.782C184.875 228.25 185.079 228.941 185.089 229.854V234.899H183.432V229.904C183.432 229.416 183.33 229.059 183.125 228.832C182.921 228.605 182.582 228.492 182.109 228.492C181.732 228.492 181.423 228.598 181.182 228.811C180.946 229.019 180.78 229.293 180.684 229.634L180.691 234.899H179.035V229.847C179.012 228.943 178.569 228.492 177.705 228.492C177.042 228.492 176.571 228.773 176.294 229.336V234.899H174.637V227.221H176.198Z" fill="#4967EE"/>
<path d="M188.552 234.899H186.895V227.221H188.552V234.899ZM186.793 225.228C186.793 224.963 186.872 224.743 187.032 224.568C187.195 224.393 187.427 224.305 187.727 224.305C188.027 224.305 188.259 224.393 188.422 224.568C188.586 224.743 188.668 224.963 188.668 225.228C188.668 225.488 188.586 225.705 188.422 225.88C188.259 226.051 188.027 226.136 187.727 226.136C187.427 226.136 187.195 226.051 187.032 225.88C186.872 225.705 186.793 225.488 186.793 225.228Z" fill="#4967EE"/>
<path d="M192.131 233.523H196.058V234.899H190.072V233.771L193.815 228.612H190.14V227.221H195.915V228.314L192.131 233.523Z" fill="#4967EE"/>
<path d="M200.523 235.041C199.473 235.041 198.621 234.698 197.967 234.012C197.317 233.322 196.992 232.404 196.992 231.259V231.046C196.992 230.28 197.133 229.596 197.415 228.995C197.701 228.39 198.101 227.919 198.614 227.583C199.128 227.248 199.701 227.08 200.332 227.08C201.337 227.08 202.112 227.413 202.657 228.08C203.207 228.747 203.482 229.691 203.482 230.911V231.607H198.662C198.712 232.241 198.914 232.742 199.269 233.111C199.628 233.48 200.078 233.664 200.619 233.664C201.378 233.664 201.996 233.345 202.473 232.707L203.366 233.594C203.071 234.052 202.675 234.41 202.18 234.665C201.689 234.916 201.137 235.041 200.523 235.041ZM200.326 228.463C199.871 228.463 199.503 228.629 199.221 228.96C198.944 229.291 198.767 229.752 198.689 230.344H201.846V230.216C201.81 229.639 201.662 229.204 201.403 228.91C201.144 228.612 200.785 228.463 200.326 228.463Z" fill="#4967EE"/>
<path d="M210.831 232.43L212.331 227.221H214.097L211.165 236.063C210.716 237.354 209.952 238 208.875 238C208.634 238 208.368 237.957 208.077 237.872V236.538L208.391 236.56C208.809 236.56 209.123 236.479 209.332 236.318C209.545 236.162 209.713 235.897 209.836 235.524L210.075 234.864L207.484 227.221H209.27L210.831 232.43Z" fill="#4967EE"/>
<path d="M214.636 230.989C214.636 230.237 214.779 229.561 215.065 228.96C215.351 228.354 215.754 227.891 216.272 227.569C216.79 227.243 217.385 227.08 218.058 227.08C219.053 227.08 219.86 227.413 220.478 228.08C221.101 228.747 221.437 229.632 221.487 230.734L221.494 231.138C221.494 231.895 221.353 232.572 221.071 233.168C220.794 233.764 220.394 234.225 219.871 234.551C219.353 234.878 218.753 235.041 218.072 235.041C217.031 235.041 216.197 234.682 215.57 233.962C214.947 233.239 214.636 232.276 214.636 231.075V230.989ZM216.292 231.138C216.292 231.928 216.449 232.548 216.763 232.997C217.076 233.442 217.513 233.664 218.072 233.664C218.631 233.664 219.065 233.437 219.374 232.983C219.687 232.529 219.844 231.865 219.844 230.989C219.844 230.214 219.683 229.599 219.36 229.144C219.042 228.69 218.608 228.463 218.058 228.463C217.517 228.463 217.088 228.688 216.769 229.137C216.451 229.582 216.292 230.249 216.292 231.138Z" fill="#4967EE"/>
<path d="M227.364 234.147C226.878 234.743 226.187 235.041 225.291 235.041C224.491 235.041 223.885 234.797 223.471 234.31C223.062 233.823 222.858 233.118 222.858 232.196V227.221H224.514V232.174C224.514 233.149 224.903 233.636 225.68 233.636C226.484 233.636 227.028 233.336 227.309 232.735V227.221H228.966V234.899H227.405L227.364 234.147Z" fill="#4967EE"/>
<path d="M234.515 228.797C234.297 228.759 234.072 228.74 233.841 228.74C233.082 228.74 232.57 229.043 232.307 229.648V234.899H230.65V227.221H232.232L232.273 228.08C232.672 227.413 233.227 227.08 233.936 227.08C234.172 227.08 234.368 227.113 234.522 227.179L234.515 228.797Z" fill="#4967EE"/>
<path d="M245.498 231.138C245.498 232.326 245.239 233.274 244.721 233.984C244.203 234.689 243.508 235.041 242.635 235.041C241.826 235.041 241.178 234.764 240.692 234.211V237.851H239.035V227.221H240.563L240.631 228.002C241.117 227.387 241.778 227.08 242.615 227.08C243.515 227.08 244.219 227.43 244.728 228.13C245.242 228.825 245.498 229.793 245.498 231.032V231.138ZM243.849 230.989C243.849 230.223 243.701 229.615 243.405 229.166C243.115 228.716 242.696 228.492 242.151 228.492C241.474 228.492 240.988 228.783 240.692 229.364V232.77C240.992 233.366 241.483 233.664 242.165 233.664C242.692 233.664 243.103 233.445 243.399 233.005C243.699 232.56 243.849 231.888 243.849 230.989Z" fill="#4967EE"/>
<path d="M248.669 234.899H247.012V224H248.669V234.899Z" fill="#4967EE"/>
<path d="M254.886 234.899C254.813 234.752 254.75 234.514 254.695 234.182C254.168 234.755 253.523 235.041 252.759 235.041C252.018 235.041 251.414 234.821 250.946 234.381C250.478 233.941 250.243 233.397 250.243 232.749C250.243 231.931 250.534 231.304 251.116 230.869C251.702 230.429 252.539 230.209 253.625 230.209H254.641V229.705C254.641 229.308 254.534 228.991 254.32 228.754C254.107 228.513 253.782 228.392 253.345 228.392C252.968 228.392 252.659 228.492 252.418 228.69C252.177 228.884 252.057 229.133 252.057 229.435H250.4C250.4 229.014 250.534 228.622 250.802 228.257C251.071 227.888 251.434 227.6 251.893 227.392C252.357 227.184 252.873 227.08 253.441 227.08C254.304 227.08 254.993 227.307 255.507 227.761C256.02 228.21 256.284 228.844 256.297 229.662V233.125C256.297 233.816 256.391 234.367 256.577 234.779V234.899H254.886ZM253.066 233.657C253.393 233.657 253.7 233.575 253.986 233.409C254.277 233.243 254.495 233.021 254.641 232.742V231.294H253.748C253.134 231.294 252.673 231.406 252.364 231.628C252.055 231.85 251.9 232.165 251.9 232.572C251.9 232.903 252.005 233.168 252.214 233.366C252.427 233.56 252.711 233.657 253.066 233.657Z" fill="#4967EE"/>
<path d="M260.504 232.43L262.004 227.221H263.769L260.838 236.063C260.388 237.354 259.624 238 258.547 238C258.306 238 258.04 237.957 257.75 237.872V236.538L258.063 236.56C258.481 236.56 258.795 236.479 259.004 236.318C259.218 236.162 259.386 235.897 259.508 235.524L259.747 234.864L257.156 227.221H258.943L260.504 232.43Z" fill="#4967EE"/>
<path d="M267.88 235.041C266.83 235.041 265.978 234.698 265.324 234.012C264.674 233.322 264.349 232.404 264.349 231.259V231.046C264.349 230.28 264.49 229.596 264.772 228.995C265.058 228.39 265.458 227.919 265.971 227.583C266.485 227.248 267.058 227.08 267.689 227.08C268.694 227.08 269.469 227.413 270.014 228.08C270.564 228.747 270.839 229.691 270.839 230.911V231.607H266.019C266.069 232.241 266.271 232.742 266.626 233.111C266.985 233.48 267.435 233.664 267.976 233.664C268.735 233.664 269.353 233.345 269.83 232.707L270.723 233.594C270.428 234.052 270.032 234.41 269.537 234.665C269.046 234.916 268.494 235.041 267.88 235.041ZM267.683 228.463C267.228 228.463 266.86 228.629 266.578 228.96C266.301 229.291 266.124 229.752 266.046 230.344H269.203V230.216C269.167 229.639 269.019 229.204 268.76 228.91C268.501 228.612 268.142 228.463 267.683 228.463Z" fill="#4967EE"/>
<path d="M275.993 228.797C275.775 228.759 275.55 228.74 275.318 228.74C274.559 228.74 274.048 229.043 273.784 229.648V234.899H272.128V227.221H273.709L273.75 228.08C274.15 227.413 274.705 227.08 275.414 227.08C275.65 227.08 275.845 227.113 276 227.179L275.993 228.797Z" fill="#4967EE"/>
<defs>
<filter id="filter0_d" x="130.868" y="114.434" width="25.2648" height="24.2648" filterUnits="userSpaceOnUse" color-interpolation-filters="sRGB">
<feFlood flood-opacity="0" result="BackgroundImageFix"/>
<feColorMatrix in="SourceAlpha" type="matrix" values="0 0 0 0 0 0 0 0 0 0 0 0 0 0 0 0 0 0 127 0" result="hardAlpha"/>
<feOffset dy="0.566209"/>
<feGaussianBlur stdDeviation="0.566209"/>
<feColorMatrix type="matrix" values="0 0 0 0 0 0 0 0 0 0 0 0 0 0 0 0 0 0 0.25 0"/>
<feBlend mode="normal" in2="BackgroundImageFix" result="effect1_dropShadow"/>
<feBlend mode="normal" in="SourceGraphic" in2="effect1_dropShadow" result="shape"/>
</filter>
</defs>
</svg>
