<svg id="icon" viewBox="0 0 25 24" fill="none" xmlns="http://www.w3.org/2000/svg">
<path fill-rule="evenodd" clip-rule="evenodd" d="M15.8862 11.5C15.8862 13.16 14.5462 14.5 12.8862 14.5C11.2262 14.5 9.88622 13.16 9.88622 11.5V5.5C9.88622 3.84 11.2262 2.5 12.8862 2.5C14.5462 2.5 15.8862 3.84 15.8862 5.5V11.5ZM17.8162 12.35C17.8962 11.86 18.3062 11.5 18.7962 11.5C19.4062 11.5 19.8962 12.04 19.7962 12.64C19.3062 15.64 16.9062 17.99 13.8862 18.42V20.5C13.8862 21.05 13.4362 21.5 12.8862 21.5C12.3362 21.5 11.8862 21.05 11.8862 20.5V18.42C8.86622 17.99 6.46622 15.64 5.97622 12.64C5.88622 12.04 6.36622 11.5 6.97622 11.5C7.46622 11.5 7.87622 11.86 7.95622 12.35C8.36622 14.7 10.4162 16.5 12.8862 16.5C15.3562 16.5 17.4062 14.7 17.8162 12.35Z" fill="#222F3E"/>
</svg>
