<svg id="icon" viewBox="0 0 25 25" fill="none" xmlns="http://www.w3.org/2000/svg">
<path fill-rule="evenodd" clip-rule="evenodd" d="M15.6699 11.559V5.95898C15.6699 4.29898 14.3299 2.95898 12.6699 2.95898C11.1299 2.95898 9.8799 4.11898 9.7099 5.60898L15.6699 11.559ZM18.7499 11.959C18.3399 11.959 17.9799 12.259 17.9199 12.669C17.8699 12.989 17.7999 13.309 17.6999 13.599L18.9699 14.869C19.2699 14.269 19.4899 13.619 19.5999 12.929C19.6699 12.419 19.2699 11.959 18.7499 11.959ZM4.3799 5.92898C3.9899 5.53898 3.9899 4.90898 4.3799 4.51898C4.56673 4.33173 4.82038 4.2265 5.0849 4.2265C5.34942 4.2265 5.60307 4.33173 5.7899 4.51898L21.1199 19.859C21.5099 20.249 21.5099 20.879 21.1199 21.269C20.7299 21.659 20.0999 21.659 19.7099 21.269L16.2199 17.779C15.4399 18.229 14.5799 18.549 13.6699 18.679V20.959C13.6699 21.509 13.2199 21.959 12.6699 21.959C12.1199 21.959 11.6699 21.509 11.6699 20.959V18.679C8.6999 18.229 6.1999 15.889 5.7399 12.929C5.6699 12.419 6.0699 11.959 6.5899 11.959C6.9999 11.959 7.3599 12.259 7.4199 12.669C7.7899 15.289 10.1299 17.059 12.6699 17.059C13.4799 17.059 14.2699 16.869 14.9799 16.539L13.3199 14.879C12.7099 15.009 12.0499 14.999 11.2999 14.569C10.2699 13.979 9.6699 12.849 9.6699 11.659V11.229L4.3799 5.92898Z" fill="white"/>
</svg>
