<svg id="icon" viewBox="0 0 24 24" fill="none" xmlns="http://www.w3.org/2000/svg">
<path fill-rule="evenodd" clip-rule="evenodd" d="M2 3C0.895431 3 0 3.89543 0 5V19C0 20.1046 0.89543 21 2 21H22C23.1046 21 24 20.1046 24 19V5C24 3.89543 23.1046 3 22 3H2ZM12.6824 8.38872V17.3306C12.6824 17.704 12.3769 18.0095 12.0034 18.0095C11.63 18.0095 11.3245 17.704 11.3245 17.3306V8.38872L9.36229 10.3441C9.09749 10.6089 8.66975 10.6089 8.40496 10.3441C8.14016 10.0793 8.14016 9.65158 8.40496 9.38679L11.5214 6.27037C11.7862 6.00558 12.2139 6.00558 12.4787 6.27037L15.5951 9.38679C15.7223 9.51364 15.7937 9.68586 15.7937 9.86545C15.7937 10.045 15.7223 10.2173 15.5951 10.3441C15.3303 10.6089 14.9026 10.6089 14.6378 10.3441L12.6824 8.38872Z" fill="white"/>
</svg>
